<svg width="407" height="224" viewBox="0 0 407 224" fill="none" xmlns="http://www.w3.org/2000/svg">
<g clip-path="url(#clip0_1_5248)">
<path d="M288.724 0.34375H9.39649C4.20965 0.34375 0.00488281 4.54851 0.00488281 9.73535V185.378C0.00488281 190.565 4.20965 194.769 9.39649 194.769H288.724C293.911 194.769 298.116 190.565 298.116 185.378V9.73535C298.116 4.54851 293.911 0.34375 288.724 0.34375Z" fill="#37393F"/>
<path d="M33.2139 0.343771V194.76H9.39602C8.1591 194.773 6.93203 194.538 5.78674 194.071C4.64145 193.604 3.60097 192.912 2.72628 192.038C1.8516 191.163 1.16031 190.123 0.692924 188.977C0.225538 187.832 -0.00853723 186.605 0.0044159 185.368V9.73537C-0.00853723 8.49845 0.225538 7.27139 0.692924 6.12609C1.16031 4.9808 1.8516 3.94032 2.72628 3.06564C3.60097 2.19096 4.64145 1.49966 5.78674 1.03228C6.93203 0.564894 8.1591 0.330818 9.39602 0.343771H33.2139Z" fill="#292B2F"/>
<path d="M100.601 73.0562H33.2139V103.545H100.601V73.0562Z" fill="#4B4D51"/>
<path d="M16.561 117.303C22.6569 117.303 27.5985 112.361 27.5985 106.266C27.5985 100.17 22.6569 95.228 16.561 95.228C10.4651 95.228 5.52344 100.17 5.52344 106.266C5.52344 112.361 10.4651 117.303 16.561 117.303Z" fill="#34F4CF"/>
<path d="M20.8211 17.7715H12.3009C8.5578 17.7715 5.52344 20.8059 5.52344 24.5489V33.0691C5.52344 36.8122 8.5578 39.8466 12.3009 39.8466H20.8211C24.5642 39.8466 27.5985 36.8122 27.5985 33.0691V24.5489C27.5985 20.8059 24.5642 17.7715 20.8211 17.7715Z" fill="#6990FF"/>
<path d="M20.8211 43.6226H12.3009C8.5578 43.6226 5.52344 46.6569 5.52344 50.4V58.9202C5.52344 62.6633 8.5578 65.6977 12.3009 65.6977H20.8211C24.5642 65.6977 27.5985 62.6633 27.5985 58.9202V50.4C27.5985 46.6569 24.5642 43.6226 20.8211 43.6226Z" fill="#4B4D51"/>
<path d="M16.561 91.4521C22.6569 91.4521 27.5985 86.5104 27.5985 80.4145C27.5985 74.3186 22.6569 69.377 16.561 69.377C10.4651 69.377 5.52344 74.3186 5.52344 80.4145C5.52344 86.5104 10.4651 91.4521 16.561 91.4521Z" fill="#4B4D51"/>
<path d="M8.6217 12.0593C10.3328 12.0593 11.72 10.6722 11.72 8.96105C11.72 7.24993 10.3328 5.86279 8.6217 5.86279C6.91058 5.86279 5.52344 7.24993 5.52344 8.96105C5.52344 10.6722 6.91058 12.0593 8.6217 12.0593Z" fill="#4B4D51"/>
<path d="M16.5612 12.0593C18.2723 12.0593 19.6594 10.6722 19.6594 8.96105C19.6594 7.24993 18.2723 5.86279 16.5612 5.86279C14.85 5.86279 13.4629 7.24993 13.4629 8.96105C13.4629 10.6722 14.85 12.0593 16.5612 12.0593Z" fill="#4B4D51"/>
<path d="M24.5973 12.0593C26.3084 12.0593 27.6955 10.6722 27.6955 8.96105C27.6955 7.24993 26.3084 5.86279 24.5973 5.86279C22.8862 5.86279 21.499 7.24993 21.499 8.96105C21.499 10.6722 22.8862 12.0593 24.5973 12.0593Z" fill="#4B4D51"/>
<path d="M93.4359 17.7715H42.3146C41.1382 17.7715 40.1846 18.7251 40.1846 19.9015V25.1299C40.1846 26.3063 41.1382 27.2599 42.3146 27.2599H93.4359C94.6123 27.2599 95.566 26.3063 95.566 25.1299V19.9015C95.566 18.7251 94.6123 17.7715 93.4359 17.7715Z" fill="#4B4D51"/>
<path d="M48.4152 66.6658C53.2812 66.6658 57.2258 62.7211 57.2258 57.8551C57.2258 52.9891 53.2812 49.0444 48.4152 49.0444C43.5492 49.0444 39.6045 52.9891 39.6045 57.8551C39.6045 62.7211 43.5492 66.6658 48.4152 66.6658Z" fill="#6990FF"/>
<path d="M92.6616 54.9507H63.7122C62.9419 54.9507 62.2031 55.2567 61.6584 55.8014C61.1136 56.3461 60.8076 57.0849 60.8076 57.8553C60.8076 58.6257 61.1136 59.3645 61.6584 59.9092C62.2031 60.4539 62.9419 60.7599 63.7122 60.7599H92.6616C93.432 60.7599 94.1708 60.4539 94.7155 59.9092C95.2602 59.3645 95.5662 58.6257 95.5662 57.8553C95.5662 57.0849 95.2602 56.3461 94.7155 55.8014C94.1708 55.2567 93.432 54.9507 92.6616 54.9507Z" fill="#4B4D51"/>
<path d="M91.2096 5.76562H42.412C41.539 5.76563 40.7016 6.11245 40.0843 6.7298C39.4669 7.34715 39.1201 8.18446 39.1201 9.05753C39.1201 9.93059 39.4669 10.7679 40.0843 11.3853C40.7016 12.0026 41.539 12.3494 42.412 12.3494H91.2096C92.0827 12.3494 92.92 12.0026 93.5374 11.3853C94.1547 10.7679 94.5015 9.93059 94.5015 9.05753C94.5015 8.18446 94.1547 7.34715 93.5374 6.7298C92.92 6.11245 92.0827 5.76562 91.2096 5.76562Z" fill="#292B2F"/>
<path d="M286.884 110.526H131.875C130.325 110.526 130.132 109.364 130.132 107.815V77.7034C130.132 76.1543 130.325 74.9925 131.875 74.9925H286.884C287.249 74.9794 287.612 75.0399 287.952 75.1703C288.292 75.3008 288.602 75.4984 288.864 75.7514C289.126 76.0045 289.335 76.3077 289.477 76.6431C289.619 76.9785 289.693 77.3391 289.692 77.7034V107.815C289.693 108.179 289.619 108.54 289.477 108.875C289.335 109.21 289.126 109.514 288.864 109.767C288.602 110.02 288.292 110.217 287.952 110.348C287.612 110.478 287.249 110.539 286.884 110.526Z" fill="#4B4D51"/>
<path d="M48.4152 97.3582C53.2812 97.3582 57.2258 93.4135 57.2258 88.5475C57.2258 83.6815 53.2812 79.7368 48.4152 79.7368C43.5492 79.7368 39.6045 83.6815 39.6045 88.5475C39.6045 93.4135 43.5492 97.3582 48.4152 97.3582Z" fill="#FF78B9"/>
<path d="M92.6614 85.6426H63.712C63.2929 85.5652 62.862 85.5808 62.4496 85.6886C62.0373 85.7963 61.6537 85.9935 61.3261 86.2661C60.9985 86.5387 60.7349 86.88 60.554 87.2659C60.3731 87.6517 60.2793 88.0727 60.2793 88.4989C60.2793 88.925 60.3731 89.346 60.554 89.7319C60.7349 90.1177 60.9985 90.4591 61.3261 90.7316C61.6537 91.0042 62.0373 91.2014 62.4496 91.3091C62.862 91.4169 63.2929 91.4326 63.712 91.3551H92.6614C93.3288 91.2317 93.932 90.8784 94.3661 90.3567C94.8002 89.8349 95.0379 89.1776 95.0379 88.4989C95.0379 87.8201 94.8002 87.1628 94.3661 86.6411C93.932 86.1193 93.3288 85.7661 92.6614 85.6426Z" fill="#5A5D60"/>
<path d="M48.4152 127.663C53.2812 127.663 57.2258 123.718 57.2258 118.852C57.2258 113.986 53.2812 110.042 48.4152 110.042C43.5492 110.042 39.6045 113.986 39.6045 118.852C39.6045 123.718 43.5492 127.663 48.4152 127.663Z" fill="#34F4CF"/>
<path d="M92.6614 115.948H63.712C63.2929 115.87 62.862 115.886 62.4496 115.994C62.0373 116.102 61.6537 116.299 61.3261 116.571C60.9985 116.844 60.7349 117.185 60.554 117.571C60.3731 117.957 60.2793 118.378 60.2793 118.804C60.2793 119.23 60.3731 119.651 60.554 120.037C60.7349 120.423 60.9985 120.764 61.3261 121.037C61.6537 121.309 62.0373 121.507 62.4496 121.614C62.862 121.722 63.2929 121.738 63.712 121.66H92.6614C93.3288 121.537 93.932 121.184 94.3661 120.662C94.8002 120.14 95.0379 119.483 95.0379 118.804C95.0379 118.125 94.8002 117.468 94.3661 116.946C93.932 116.424 93.3288 116.071 92.6614 115.948Z" fill="#4B4D51"/>
<path d="M48.4152 158.161C53.2812 158.161 57.2258 154.217 57.2258 149.351C57.2258 144.485 53.2812 140.54 48.4152 140.54C43.5492 140.54 39.6045 144.485 39.6045 149.351C39.6045 154.217 43.5492 158.161 48.4152 158.161Z" fill="#FF78B9"/>
<path d="M92.6614 146.446H63.712C63.2929 146.369 62.862 146.385 62.4496 146.492C62.0373 146.6 61.6537 146.797 61.3261 147.07C60.9985 147.342 60.7349 147.684 60.554 148.07C60.3731 148.455 60.2793 148.876 60.2793 149.303C60.2793 149.729 60.3731 150.15 60.554 150.536C60.7349 150.921 60.9985 151.263 61.3261 151.535C61.6537 151.808 62.0373 152.005 62.4496 152.113C62.862 152.221 63.2929 152.236 63.712 152.159H92.6614C93.3288 152.035 93.932 151.682 94.3661 151.16C94.8002 150.639 95.0379 149.981 95.0379 149.303C95.0379 148.624 94.8002 147.967 94.3661 147.445C93.932 146.923 93.3288 146.57 92.6614 146.446Z" fill="#4B4D51"/>
<path d="M48.4152 188.66C53.2812 188.66 57.2258 184.715 57.2258 179.849C57.2258 174.983 53.2812 171.039 48.4152 171.039C43.5492 171.039 39.6045 174.983 39.6045 179.849C39.6045 184.715 43.5492 188.66 48.4152 188.66Z" fill="#6990FF"/>
<path d="M92.6614 176.945H63.712C63.2929 176.867 62.862 176.883 62.4496 176.991C62.0373 177.099 61.6537 177.296 61.3261 177.568C60.9985 177.841 60.7349 178.182 60.554 178.568C60.3731 178.954 60.2793 179.375 60.2793 179.801C60.2793 180.227 60.3731 180.648 60.554 181.034C60.7349 181.42 60.9985 181.761 61.3261 182.034C61.6537 182.306 62.0373 182.504 62.4496 182.611C62.862 182.719 63.2929 182.735 63.712 182.657H92.6614C93.3288 182.534 93.932 182.181 94.3661 181.659C94.8002 181.137 95.0379 180.48 95.0379 179.801C95.0379 179.122 94.8002 178.465 94.3661 177.943C93.932 177.422 93.3288 177.068 92.6614 176.945Z" fill="#4B4D51"/>
<path d="M93.4359 31.8105H42.3146C41.1382 31.8105 40.1846 32.7642 40.1846 33.9406V39.1689C40.1846 40.3453 41.1382 41.299 42.3146 41.299H93.4359C94.6123 41.299 95.566 40.3453 95.566 39.1689V33.9406C95.566 32.7642 94.6123 31.8105 93.4359 31.8105Z" fill="#4B4D51"/>
<path d="M115.124 92.3235C119.99 92.3235 123.935 88.3788 123.935 83.5128C123.935 78.6468 119.99 74.7021 115.124 74.7021C110.258 74.7021 106.313 78.6468 106.313 83.5128C106.313 88.3788 110.258 92.3235 115.124 92.3235Z" fill="#FF78B9"/>
<path d="M131.875 116.141H286.884C287.603 116.141 288.293 116.427 288.801 116.935C289.31 117.444 289.595 118.133 289.595 118.852V157.677C289.595 158.033 289.525 158.386 289.389 158.715C289.253 159.044 289.053 159.342 288.801 159.594C288.55 159.846 288.251 160.046 287.922 160.182C287.593 160.318 287.24 160.388 286.884 160.388H132.843C132.487 160.388 132.134 160.318 131.805 160.182C131.476 160.046 131.178 159.846 130.926 159.594C130.674 159.342 130.474 159.044 130.338 158.715C130.202 158.386 130.132 158.033 130.132 157.677V117.884C130.132 117.422 130.315 116.978 130.642 116.652C130.969 116.325 131.412 116.141 131.875 116.141Z" fill="#4B4D51"/>
<path d="M115.124 133.472C119.99 133.472 123.935 129.527 123.935 124.661C123.935 119.795 119.99 115.851 115.124 115.851C110.258 115.851 106.313 119.795 106.313 124.661C106.313 129.527 110.258 133.472 115.124 133.472Z" fill="#6990FF"/>
<path d="M123.935 17.7715C123.706 19.9614 122.674 21.9887 121.038 23.4624C119.402 24.9361 117.278 25.7516 115.076 25.7516C112.874 25.7516 110.75 24.9361 109.114 23.4624C107.478 21.9887 106.446 19.9614 106.217 17.7715H123.935Z" fill="#34F4CF"/>
<path d="M130.132 17.7715V66.6659C130.132 68.215 130.325 69.4737 131.875 69.4737H286.884C287.629 69.4737 288.343 69.1779 288.87 68.6513C289.396 68.1248 289.692 67.4106 289.692 66.6659V17.7715H130.132Z" fill="#4B4D51"/>
<path d="M286.497 168.715H110.671C108.959 168.715 107.572 170.102 107.572 171.813V183.16C107.572 184.872 108.959 186.259 110.671 186.259H286.497C288.208 186.259 289.595 184.872 289.595 183.16V171.813C289.595 170.102 288.208 168.715 286.497 168.715Z" fill="#4B4D51"/>
<path d="M120.062 182.851C123.11 182.851 125.581 180.38 125.581 177.332C125.581 174.284 123.11 171.813 120.062 171.813C117.014 171.813 114.543 174.284 114.543 177.332C114.543 180.38 117.014 182.851 120.062 182.851Z" fill="#5A5D60"/>
<path d="M281.655 164.842C274.878 170.457 263.937 173.846 251.254 173.846H246.606L243.702 173.556C237.905 172.951 232.191 171.717 226.661 169.877L223.95 168.908C218.51 166.881 213.314 164.25 208.459 161.066L206.039 159.517C201.201 156.109 196.724 152.216 192.677 147.898C191.267 146.408 190.505 144.419 190.559 142.368C190.614 140.317 191.48 138.371 192.968 136.958C194.498 135.577 196.505 134.845 198.565 134.917C200.625 134.99 202.576 135.86 204.005 137.345C207.393 140.898 211.122 144.109 215.14 146.93L217.657 148.479C221.46 150.889 225.519 152.87 229.76 154.385L232.471 155.353C235.947 156.477 239.509 157.319 243.121 157.871L245.638 158.161L248.543 158.355C259.387 158.936 267.81 156.322 271.683 153.127C272.447 152.392 273.353 151.822 274.345 151.452C275.338 151.082 276.396 150.919 277.454 150.974C278.512 151.029 279.547 151.301 280.496 151.772C281.445 152.243 282.287 152.903 282.97 153.713C283.654 154.522 284.164 155.463 284.469 156.478C284.774 157.492 284.868 158.559 284.745 159.611C284.622 160.663 284.284 161.679 283.753 162.595C283.221 163.511 282.507 164.309 281.655 164.939V164.842Z" fill="#8CD9FF"/>
<path d="M217.657 148.383L208.459 160.969L206.038 159.42L215.139 146.833L217.657 148.383Z" fill="#66BCFF"/>
<path d="M232.47 155.257L226.661 169.78L223.95 168.812L229.759 154.289L232.47 155.257Z" fill="#66BCFF"/>
<path d="M248.543 158.258L246.607 173.749L243.702 173.459L245.639 158.064L248.543 158.258Z" fill="#66BCFF"/>
<path d="M200.036 137.248C200.52 133.86 199.843 130.761 197.229 128.341C194.614 125.92 190.838 125.63 189.192 128.728C188.321 130.277 188.999 130.277 188.999 130.277L187.45 133.182L183.867 130.568L181.544 131.633C180.575 133.957 181.156 137.926 183.77 140.54C186.385 143.154 191.903 144.897 195.679 143.348C199.455 141.799 199.552 140.734 200.036 137.248Z" fill="black"/>
<path d="M117.738 43.4291L204.877 147.802C205.273 148.4 205.434 149.123 205.328 149.833C205.222 150.542 204.858 151.188 204.305 151.645C203.752 152.101 203.049 152.338 202.333 152.307C201.616 152.277 200.936 151.983 200.423 151.481H200.326L115.511 45.1718C115.292 44.8671 115.19 44.4928 115.226 44.1188C115.261 43.7447 115.432 43.3964 115.705 43.1386C115.858 43.0242 116.031 42.9409 116.216 42.8936C116.401 42.8462 116.593 42.8358 116.782 42.8627C116.971 42.8897 117.152 42.9536 117.316 43.0508C117.481 43.1479 117.624 43.2765 117.738 43.4291Z" fill="#FFE75C"/>
<path d="M195.15 131.634C195.898 129.977 195.161 128.028 193.504 127.279C191.848 126.531 189.898 127.268 189.15 128.925C188.401 130.582 189.138 132.532 190.795 133.28C192.452 134.028 194.402 133.291 195.15 131.634Z" fill="black"/>
<path d="M189.773 134.828C189.273 134.668 188.748 134.603 188.224 134.634C188.131 134.651 188.035 134.646 187.945 134.618C187.855 134.59 187.773 134.541 187.706 134.474C187.64 134.407 187.59 134.325 187.562 134.235C187.534 134.145 187.529 134.049 187.546 133.956C187.738 133.424 187.738 132.842 187.546 132.31C187.399 131.778 187.116 131.294 186.726 130.903C186.336 130.513 185.851 130.231 185.319 130.083C184.787 129.93 184.224 129.913 183.684 130.035C183.143 130.157 182.642 130.413 182.227 130.78C181.812 131.147 181.496 131.612 181.309 132.134C181.122 132.655 181.069 133.215 181.156 133.763C181.258 134.333 181.509 134.865 181.883 135.307C182.257 135.749 182.741 136.085 183.286 136.28C183.726 136.443 184.195 136.509 184.662 136.476C185.13 136.443 185.585 136.31 185.997 136.086C185.698 136.463 185.498 136.908 185.413 137.381C185.329 137.854 185.363 138.341 185.513 138.797C185.66 139.329 185.943 139.814 186.333 140.204C186.723 140.594 187.208 140.877 187.74 141.024C188.522 141.166 189.329 141.02 190.012 140.613C190.695 140.207 191.207 139.567 191.455 138.811C191.703 138.056 191.669 137.237 191.36 136.505C191.051 135.772 190.487 135.177 189.773 134.828Z" fill="black"/>
<path d="M339.168 202.021C338.659 207.757 336.022 213.095 331.775 216.983C327.528 220.872 321.979 223.03 316.221 223.031H275.266C269.508 223.03 263.959 220.872 259.712 216.983C255.465 213.095 252.827 207.757 252.319 202.021C252.319 201.053 252.223 200.085 252.319 199.117C252.357 197.143 252.683 195.186 253.288 193.307L261.614 159.614C262.817 155.643 265.264 152.165 268.593 149.689C271.922 147.214 275.958 145.874 280.107 145.865H311.38C315.538 145.883 319.581 147.226 322.924 149.698C326.267 152.171 328.735 155.644 329.97 159.614L338.296 193.307C338.853 195.197 339.178 197.148 339.264 199.117C339.264 200.085 339.264 201.053 339.168 202.021Z" fill="url(#paint0_linear_1_5248)"/>
<path d="M339.168 202.021H252.319C252.319 201.053 252.223 200.085 252.319 199.117H339.264C339.264 200.085 339.264 201.053 339.168 202.021Z" fill="#ED5F00"/>
<path d="M300.246 149.932L300.052 150.319C299.602 150.978 299.244 151.694 298.987 152.449C298.717 153.36 298.586 154.307 298.6 155.257V180.527C298.48 181.623 297.959 182.635 297.136 183.368C296.313 184.101 295.248 184.503 294.146 184.497H271.297C270.639 184.495 269.989 184.348 269.395 184.065C268.801 183.783 268.277 183.372 267.86 182.863C267.444 182.354 267.145 181.759 266.986 181.121C266.827 180.482 266.811 179.817 266.94 179.172L271.587 156.612C272.028 154.519 273.171 152.639 274.826 151.283C276.481 149.927 278.549 149.177 280.688 149.157H299.762C299.86 149.135 299.962 149.144 300.054 149.183C300.147 149.222 300.225 149.288 300.278 149.373C300.331 149.458 300.357 149.557 300.351 149.658C300.345 149.758 300.308 149.853 300.246 149.932Z" fill="#FF8C19"/>
<path d="M298.986 152.449C298.716 153.36 298.585 154.307 298.599 155.257V180.527C298.479 181.623 297.958 182.635 297.135 183.368C296.313 184.101 295.247 184.503 294.145 184.497H273.039C272.481 183.993 272.064 183.354 271.826 182.642C271.589 181.929 271.539 181.168 271.683 180.43L275.653 159.808C276.621 154.676 279.622 152.449 283.979 152.449H298.986Z" fill="#FFE75C"/>
<path d="M392.225 185.465C391.497 186.287 390.603 186.946 389.601 187.397C388.6 187.847 387.514 188.08 386.416 188.079C384.508 188.083 382.671 187.355 381.284 186.046C379.01 183.992 376.582 182.115 374.023 180.43L371.602 178.881C367.54 176.43 363.262 174.356 358.822 172.684L356.014 171.716C351.522 170.153 346.883 169.05 342.169 168.424L339.264 168.134C335.238 167.729 331.18 167.762 327.161 168.231C326.15 168.352 325.125 168.273 324.145 167.999C323.164 167.724 322.248 167.258 321.448 166.629C320.647 165.999 319.979 165.218 319.481 164.33C318.982 163.442 318.664 162.464 318.544 161.453C318.325 159.416 318.911 157.374 320.177 155.764C321.444 154.153 323.29 153.103 325.322 152.836C330.433 152.238 335.592 152.173 340.716 152.643L343.621 153.03C349.551 153.752 355.391 155.082 361.049 157L363.76 157.968C369.276 160.024 374.591 162.585 379.638 165.617L382.059 167.166C385.433 169.376 388.637 171.836 391.644 174.524C392.401 175.204 393.016 176.027 393.455 176.945C393.893 177.863 394.147 178.858 394.201 179.874C394.255 180.89 394.108 181.907 393.769 182.866C393.43 183.825 392.905 184.708 392.225 185.465Z" fill="#8CD9FF"/>
<path d="M382.059 167.166L374.023 180.43L371.602 178.881L379.638 165.617L382.059 167.166Z" fill="#66BCFF"/>
<path d="M363.759 157.968L358.821 172.684L356.014 171.716L361.048 157L363.759 157.968Z" fill="#66BCFF"/>
<path d="M343.621 153.03L342.168 168.424L339.264 168.134L340.716 152.643L343.621 153.03Z" fill="#66BCFF"/>
<path d="M404.909 180.236C396.582 176.364 388.352 179.559 387.965 179.656C387.965 179.668 387.962 179.681 387.958 179.693C387.953 179.704 387.946 179.715 387.937 179.724C387.928 179.733 387.917 179.74 387.905 179.745C387.893 179.75 387.881 179.752 387.868 179.752L387.578 179.946H387.287L387.094 180.14H386.997L386.706 180.527H386.609C386.513 180.624 386.513 180.721 386.416 180.914C386.316 181.022 386.249 181.157 386.222 181.301C386.123 181.65 386.123 182.018 386.222 182.367V182.657C387.074 186.369 387.367 190.187 387.094 193.985C387.053 194.367 387.089 194.753 387.199 195.121C387.309 195.488 387.491 195.831 387.734 196.128C387.977 196.425 388.277 196.671 388.616 196.851C388.954 197.032 389.326 197.144 389.708 197.18H389.998C390.726 197.181 391.426 196.898 391.95 196.392C392.474 195.886 392.781 195.197 392.806 194.469C393.029 192.314 393.062 190.143 392.903 187.982C394.598 189.234 396.185 190.627 397.647 192.145C398.217 192.662 398.959 192.949 399.729 192.949C400.498 192.949 401.24 192.662 401.81 192.145C402.088 191.875 402.309 191.551 402.46 191.194C402.611 190.836 402.689 190.452 402.689 190.064C402.689 189.676 402.611 189.291 402.46 188.934C402.309 188.576 402.088 188.253 401.81 187.982C400.164 186.433 398.422 184.884 396.776 183.625C398.746 183.727 400.682 184.186 402.488 184.981C402.878 185.177 403.31 185.277 403.747 185.271C404.304 185.262 404.846 185.093 405.31 184.784C405.773 184.475 406.138 184.039 406.361 183.528C406.543 182.896 406.497 182.221 406.231 181.619C405.966 181.018 405.498 180.528 404.909 180.236Z" fill="black"/>
<path d="M284.076 59.5978L285.238 52.9172C285.531 51.1369 286.436 49.5146 287.797 48.3303C289.158 47.146 290.89 46.4739 292.693 46.4302L310.896 47.0111C317.867 47.3016 320.965 51.368 325.128 59.9851L284.076 59.5978Z" fill="#66BCFF"/>
<path d="M236.537 87.5792C235.375 95.0343 238.28 101.812 243.024 103.264L243.605 103.458H243.895C247.671 103.845 251.641 98.0358 252.803 90.2901C253.965 82.5445 252.028 75.767 248.349 74.8957H247.478C242.443 74.702 237.699 80.124 236.537 87.5792Z" fill="#FFE75C"/>
<path d="M355.046 105.781C353.69 114.495 350.979 128.728 339.845 133.569C334.132 136.086 324.838 137.442 312.154 138.119C308.088 138.313 303.634 138.41 298.793 138.41C292.422 138.422 286.066 137.806 279.816 136.57C268.875 134.634 259.193 131.245 254.449 127.953C249.705 124.661 242.831 119.336 241.378 110.429C240.507 105.394 240.991 97.8419 242.443 89.0312C243.601 81.8877 245.483 74.8806 248.059 68.118C250.383 62.5024 256.676 58.1454 262.679 56.8868C275.162 54.3463 287.903 53.3062 300.633 53.7885C312.7 54.2591 324.679 56.0447 336.359 59.1136C349.237 62.5992 355.046 72.6685 356.208 78.2841C358.241 87.5789 356.498 97.0673 355.046 105.781Z" fill="url(#paint1_linear_1_5248)"/>
<path d="M312.154 138.119C308.087 138.313 303.634 138.41 298.793 138.41C292.422 138.422 286.066 137.805 279.816 136.57C277.484 134.581 275.575 132.145 274.2 129.405C273.038 127.178 274.975 126.113 276.718 126.404L278.654 126.694C285.318 127.727 292.049 128.277 298.793 128.34H301.988C305.086 128.631 306.538 129.502 307.603 131.826C308.668 134.15 310.314 136.57 312.154 138.119Z" fill="#FFE75C"/>
<path d="M336.263 93.2914C335.555 97.7674 334.354 102.151 332.68 106.362C331.859 108.327 330.577 110.066 328.943 111.431C327.308 112.796 325.369 113.747 323.289 114.205C317.092 115.657 306.248 117.206 290.37 116.528C274.491 115.851 264.906 113.14 259.193 111.3H258.806C252.706 109.267 251.351 104.91 252.803 94.9373C254.256 84.9648 256.095 78.1874 257.451 74.7987C258.806 71.4099 261.033 68.118 265.099 67.053C272.748 65.2134 281.849 63.4706 297.825 64.342C313.8 65.2134 324.063 67.6339 329.776 69.5703C333.552 70.829 336.263 73.6368 336.65 77.6065C336.727 77.7201 336.761 77.8573 336.747 77.9937C337.245 83.0925 337.082 88.2343 336.263 93.2914Z" fill="#ED5F00"/>
<path d="M336.263 93.2912C335.555 97.7671 334.354 102.151 332.68 106.362C331.859 108.327 330.578 110.066 328.943 111.431C327.308 112.796 325.369 113.747 323.289 114.204C317.092 115.657 306.248 117.206 290.37 116.528C274.491 115.85 264.906 113.139 259.193 111.3H258.806C256.773 108.782 256.482 104.813 257.451 98.3259C258.903 88.6438 260.549 82.2536 261.904 79.0585C263.26 75.8635 265.293 72.5716 269.263 71.6034C276.524 69.8606 285.335 68.2146 300.633 68.9892C315.93 69.7638 325.903 72.1843 331.325 74.0239C333.523 74.7079 335.431 76.1046 336.747 77.9935C337.245 83.0923 337.083 88.2341 336.263 93.2912Z" fill="black"/>
<path d="M280.833 87.3571C282.502 85.9361 282.816 83.5628 281.534 82.0561C280.252 80.5494 277.859 80.4799 276.189 81.9008C274.519 83.3218 274.206 85.6951 275.488 87.2017C276.77 88.7084 279.163 88.778 280.833 87.3571Z" fill="#57F287"/>
<path d="M316.285 88.674C317.952 87.249 318.26 84.8748 316.974 83.3712C315.688 81.8675 313.294 81.8038 311.628 83.2288C309.962 84.6539 309.654 87.028 310.94 88.5317C312.226 90.0353 314.619 90.099 316.285 88.674Z" fill="#57F287"/>
<path d="M283.883 92.6133C283.633 94.0466 283.693 95.5169 284.06 96.9249C284.427 98.3328 285.092 99.6457 286.009 100.775C286.927 101.904 288.077 102.822 289.38 103.469C290.684 104.115 292.111 104.475 293.565 104.522C296.676 104.639 299.725 103.624 302.146 101.666C304.567 99.7081 306.196 96.9391 306.733 93.8719L283.883 92.6133Z" fill="#57F287"/>
<path d="M362.5 99.4879C363.662 92.0327 360.854 85.2553 356.11 83.803H355.239C351.463 83.4157 347.493 89.2249 346.235 96.8737C344.976 104.523 347.106 111.397 350.785 112.268H351.656C356.594 112.462 361.339 106.943 362.5 99.4879Z" fill="#FFE75C"/>
<path d="M178.057 205.604C176.545 204.623 175.261 203.328 174.292 201.808C173.323 200.288 172.692 198.578 172.442 196.793L171.473 190.693C171.45 190.556 171.379 190.432 171.273 190.344C171.166 190.255 171.031 190.207 170.893 190.209C170.754 190.207 170.619 190.255 170.513 190.344C170.406 190.432 170.335 190.556 170.312 190.693L169.343 196.793C169.075 198.572 168.437 200.276 167.469 201.793C166.502 203.311 165.228 204.609 163.728 205.604L162.953 206.088C162.86 206.128 162.782 206.196 162.73 206.283C162.678 206.37 162.654 206.471 162.663 206.572C162.654 206.673 162.678 206.774 162.73 206.861C162.782 206.947 162.86 207.016 162.953 207.056L163.728 207.54C165.225 208.515 166.499 209.795 167.466 211.297C168.434 212.799 169.074 214.488 169.343 216.254L170.312 222.45C170.335 222.587 170.406 222.711 170.513 222.8C170.619 222.889 170.754 222.936 170.893 222.934C171.031 222.936 171.166 222.889 171.273 222.8C171.379 222.711 171.45 222.587 171.473 222.45L172.442 216.254C172.693 214.482 173.325 212.786 174.295 211.281C175.264 209.777 176.548 208.501 178.057 207.54L178.832 207.056C178.925 207.016 179.003 206.947 179.055 206.861C179.107 206.774 179.131 206.673 179.122 206.572C179.131 206.471 179.107 206.37 179.055 206.283C179.003 206.196 178.925 206.128 178.832 206.088L178.057 205.604Z" fill="#34F4CF"/>
<path d="M225.306 40.9118C224.351 40.2772 223.539 39.4497 222.922 38.4827C222.305 37.5156 221.897 36.4302 221.724 35.2962L221.143 31.4234C221.143 31.3207 221.102 31.2222 221.03 31.1496C220.957 31.0769 220.859 31.0361 220.756 31.0361C220.653 31.0361 220.555 31.0769 220.482 31.1496C220.409 31.2222 220.369 31.3207 220.369 31.4234L219.788 35.2962C219.615 36.4422 219.198 37.5374 218.563 38.5067C217.927 39.4759 217.09 40.2964 216.108 40.9118L215.624 41.2023C215.564 41.2474 215.515 41.3059 215.482 41.3731C215.448 41.4403 215.431 41.5144 215.431 41.5896C215.431 41.6864 215.527 41.88 215.624 41.88L216.108 42.2673C217.09 42.8827 217.927 43.7032 218.563 44.6725C219.198 45.6418 219.615 46.737 219.788 47.8829L220.369 51.7558C220.369 51.8585 220.409 51.957 220.482 52.0296C220.555 52.1022 220.653 52.143 220.756 52.143C220.859 52.143 220.957 52.1022 221.03 52.0296C221.102 51.957 221.143 51.8585 221.143 51.7558L221.724 47.8829C221.897 46.7489 222.305 45.6636 222.922 44.6965C223.539 43.7294 224.351 42.902 225.306 42.2673L225.887 41.88C225.984 41.88 225.984 41.6864 225.984 41.5896C225.984 41.3959 225.984 41.2991 225.887 41.2023L225.306 40.9118Z" fill="#8CD9FF"/>
<path d="M366.568 28.3249C365.612 27.6902 364.8 26.8628 364.183 25.8958C363.566 24.9287 363.158 23.8433 362.985 22.7093L362.404 18.8365C362.404 18.7338 362.364 18.6353 362.291 18.5627C362.218 18.49 362.12 18.4492 362.017 18.4492C361.914 18.4492 361.816 18.49 361.743 18.5627C361.671 18.6353 361.63 18.7338 361.63 18.8365L361.049 22.7093C360.876 23.8433 360.468 24.9287 359.851 25.8958C359.234 26.8628 358.422 27.6902 357.466 28.3249L356.886 28.6154C356.825 28.6605 356.777 28.719 356.743 28.7862C356.709 28.8534 356.692 28.9275 356.692 29.0027L356.886 29.39L357.466 29.6804C358.422 30.3151 359.234 31.1425 359.851 32.1096C360.468 33.0767 360.876 34.162 361.049 35.296L361.63 39.1688C361.63 39.2715 361.671 39.3701 361.743 39.4427C361.816 39.5153 361.914 39.5561 362.017 39.5561C362.12 39.5561 362.218 39.5153 362.291 39.4427C362.364 39.3701 362.404 39.2715 362.404 39.1688L362.985 35.296C363.158 34.162 363.566 33.0767 364.183 32.1096C364.8 31.1425 365.612 30.3151 366.568 29.6804L367.149 29.39C367.249 29.2819 367.316 29.1475 367.342 29.0027C367.342 28.9275 367.325 28.8534 367.291 28.7862C367.257 28.719 367.209 28.6605 367.149 28.6154L366.568 28.3249Z" fill="#FFE75C"/>
<path d="M405.489 119.336C403.808 118.29 402.374 116.892 401.288 115.236C400.201 113.581 399.487 111.709 399.196 109.751L398.228 102.974C398.178 102.825 398.088 102.692 397.969 102.59C397.85 102.487 397.705 102.419 397.55 102.393C397.395 102.419 397.25 102.487 397.131 102.59C397.012 102.692 396.922 102.825 396.872 102.974L395.904 109.751C395.589 111.702 394.865 113.564 393.781 115.215C392.696 116.867 391.275 118.271 389.611 119.336L388.739 119.917C388.646 119.982 388.571 120.069 388.52 120.171C388.469 120.272 388.445 120.385 388.449 120.498C388.441 120.599 388.464 120.7 388.516 120.787C388.568 120.874 388.646 120.942 388.739 120.982L389.611 121.563C391.27 122.656 392.685 124.081 393.768 125.747C394.851 127.413 395.578 129.285 395.904 131.245L396.872 138.023C396.922 138.172 397.012 138.304 397.131 138.406C397.25 138.509 397.395 138.577 397.55 138.604C397.705 138.577 397.85 138.509 397.969 138.406C398.088 138.304 398.178 138.172 398.228 138.023L399.196 131.245C399.498 129.277 400.216 127.396 401.301 125.727C402.386 124.058 403.814 122.638 405.489 121.563L406.361 120.982C406.454 120.942 406.532 120.874 406.584 120.787C406.636 120.7 406.659 120.599 406.651 120.498C406.655 120.385 406.631 120.272 406.58 120.171C406.529 120.069 406.454 119.982 406.361 119.917L405.489 119.336Z" fill="#FFAED7"/>
</g>
<defs>
<linearGradient id="paint0_linear_1_5248" x1="295.772" y1="257.993" x2="295.772" y2="114.282" gradientUnits="userSpaceOnUse">
<stop offset="0.12" stop-color="#FFC619"/>
<stop offset="0.2" stop-color="#FFBB19"/>
<stop offset="0.33" stop-color="#FF9F19"/>
<stop offset="0.41" stop-color="#FF8C19"/>
<stop offset="0.83" stop-color="#ED5F00"/>
</linearGradient>
<linearGradient id="paint1_linear_1_5248" x1="296.992" y1="54.0983" x2="303.363" y2="183.867" gradientUnits="userSpaceOnUse">
<stop stop-color="#FFC619"/>
<stop offset="0.12" stop-color="#FFBB19"/>
<stop offset="0.32" stop-color="#FF9F19"/>
<stop offset="0.44" stop-color="#FF8C19"/>
<stop offset="0.54" stop-color="#F87A0F"/>
<stop offset="0.73" stop-color="#ED5F00"/>
</linearGradient>
<clipPath id="clip0_1_5248">
<rect width="406.647" height="222.688" fill="white" transform="translate(0.00488281 0.34375)"/>
</clipPath>
</defs>
</svg>
