<svg width="689" height="352" viewBox="0 0 689 352" fill="none" xmlns="http://www.w3.org/2000/svg">
<g clip-path="url(#clip0_114_8)">
<path d="M291.399 351.9H18.0994C6.79941 341.8 -0.100599 330.1 0.999401 319.3C3.2994 296 39.9994 292.6 75.5994 309.4L82.5994 312.9C83.7793 308.614 85.6724 304.557 88.1994 300.9C105.999 274.8 146.199 272.3 172.199 291.4C175.065 293.495 177.742 295.838 180.199 298.4C183.695 293.567 187.683 289.109 192.099 285.1C216.199 263.3 244.799 258.6 255.699 272C265.299 283.8 257.899 306.5 239.699 324.4C239.699 324.4 293.499 325.7 291.399 351.9Z" fill="#18181B"/>
<path d="M629.4 351.4C607.3 305.8 594.9 251.2 594.9 251.2L593.9 245.9L549.4 251.2V351.4H629.4Z" fill="#2835BD"/>
<path d="M619.799 351.4C600.399 311.4 589.599 263.5 589.599 263.5L586.999 250.1L549.699 263.5V351.4H619.799Z" fill="black"/>
<path d="M626.8 218H610.6V351.46H626.8V218Z" fill="#2835BD"/>
<path d="M626.8 235.3C624.374 236.405 621.683 236.794 619.044 236.422C616.404 236.05 613.926 234.932 611.9 233.2L610.6 232.1V226.1L626.8 223V235.3Z" fill="black"/>
<path d="M602 351.4C613.1 348.7 628.2 334 628.2 334C628.2 334 633.5 345.4 636.6 351.4H647.8C649.009 351.407 650.206 351.158 651.313 350.671C652.42 350.184 653.411 349.468 654.223 348.572C655.034 347.675 655.648 346.618 656.023 345.468C656.398 344.319 656.527 343.103 656.4 341.9C655.9 337 653.6 331.5 650.1 323.5C644.2 310.2 642.3 303.2 630.8 303.2H620.4L596.4 292.6C581 300.7 570.4 305.4 561.3 310.8C547.9 319 537.3 335.2 547.7 351.4H602Z" fill="#FFC619"/>
<path d="M433 263.5V351.4H554.8C574.2 311.4 585 263.5 585 263.5L587.9 251.2L433 263.5Z" fill="#2835BD"/>
<path d="M557.2 266.2L433 277.8V351.4H525.9C534.9 330.9 557.2 266.2 557.2 266.2Z" fill="black"/>
<path d="M540.699 344.7C550.944 328.858 559.079 311.747 564.899 293.8" stroke="black" stroke-width="2" stroke-linecap="round" stroke-linejoin="round"/>
<path d="M526.201 332.5C521.056 332.5 516.121 334.544 512.483 338.182C508.845 341.82 506.801 346.755 506.801 351.9H545.601C545.601 346.755 543.557 341.82 539.919 338.182C536.281 334.544 531.346 332.5 526.201 332.5Z" fill="#18181B"/>
<path d="M553.801 351.4C573.201 311.4 584.101 263.5 584.101 263.5L553.801 351.4Z" fill="#2835BD"/>
<path d="M591.299 351.3C591.199 351.1 584.299 333.7 580.699 322.5L580.499 321.8C578.099 314.2 576.099 308.1 576.399 302.7L574.699 303.6C574.699 309 576.599 315 578.999 322.3L579.199 323C582.499 333.2 588.399 348.5 589.599 351.4H591.299V351.3Z" fill="black"/>
<path d="M653.8 349C654.417 348.397 654.883 347.657 655.161 346.841C655.438 346.024 655.521 345.154 655.4 344.3C654.7 337.2 651 328.7 647.1 319.9L643.1 310.5L641.6 311.1C642.9 314.3 644.3 317.4 645.6 320.5C650.3 331.2 654.8 341.5 653.8 349Z" fill="white"/>
<path d="M620.401 322.9C618.501 330.7 615.801 340.4 612.301 351.4H591.301C591.301 351.4 584.501 333.9 580.801 322.6C577.101 311.3 574.401 303.2 578.101 295.7C581.801 288.2 587.601 287.6 596.401 292.6L595.101 306.8L601.801 325.8L604.901 315.7C611.501 311.4 619.801 313.8 620.401 322.9Z" fill="#FFC619"/>
<path d="M593.299 345.1L591.599 340.2C587.899 329.3 584.699 320 582.499 311.5C580.699 304.5 579.199 296.2 580.099 292.5C579.364 293.396 578.727 294.368 578.199 295.4C578.199 300.8 579.999 308.3 580.899 311.9C583.199 320.5 586.399 329.8 590.099 340.7L591.799 345.7C592.532 347.767 593.232 349.667 593.899 351.4H595.699C594.899 349.6 594.199 347.6 593.299 345.1Z" fill="white"/>
<path d="M608.501 351.4C610.801 343.7 614.101 332.4 618.401 317.8C618.431 317.695 618.439 317.585 618.424 317.477C618.41 317.368 618.374 317.264 618.317 317.17C618.261 317.077 618.186 316.995 618.097 316.932C618.009 316.868 617.908 316.823 617.801 316.8C617.704 316.752 617.597 316.727 617.489 316.727C617.38 316.727 617.273 316.752 617.176 316.801C617.079 316.849 616.995 316.92 616.93 317.006C616.865 317.093 616.821 317.194 616.801 317.3C612.401 332.2 609.101 343.7 606.801 351.4H608.501Z" fill="white"/>
<path d="M616.601 261.4C604.001 259.6 599.201 260.5 594.501 271.1C589.801 281.7 592.201 290.7 600.001 302.1C607.801 313.5 627.001 311.4 634.301 308.7C641.601 306 648.001 298.7 651.601 288.4C655.201 278.1 654.101 266.8 648.701 260.6C643.301 254.4 634.201 249.3 626.001 251.9C617.801 254.5 616.601 261.4 616.601 261.4Z" fill="#DE3A93"/>
<path d="M622.7 276.3L618.9 275.3" stroke="black" stroke-width="2" stroke-linecap="round" stroke-linejoin="round"/>
<path d="M622.9 277.9L619 278.4" stroke="black" stroke-width="2" stroke-linecap="round" stroke-linejoin="round"/>
<path d="M650.5 276L653.5 274" stroke="black" stroke-width="2" stroke-linecap="round" stroke-linejoin="round"/>
<path d="M650.3 277.7L653.4 277.2" stroke="black" stroke-width="2" stroke-linecap="round" stroke-linejoin="round"/>
<path d="M612.499 251.2C610.399 251.2 608.799 252.6 608.699 253.6C608.599 254.6 612.399 257.8 617.299 263.9L618.599 263.4C613.999 251.6 614.599 251.1 612.499 251.2Z" fill="black"/>
<path d="M622.2 260.5C618.4 262.9 614 266.2 614 266.2" stroke="black" stroke-width="2" stroke-linecap="round" stroke-linejoin="round"/>
<path d="M620.401 322.9C621.601 317.8 622.501 313.5 623.001 310.2C624.401 301.6 621.801 300.2 618.001 299.1C614.201 298 611.501 295.9 609.701 289.4C607.901 282.9 606.801 283 604.601 284.1C602.201 285.399 600.144 287.25 598.601 289.5C597.401 291.6 597.601 294 599.901 299.9C601.423 303.59 603.868 306.827 607.001 309.3L604.901 315.7C612.601 315.4 617.201 316.4 620.401 322.9Z" fill="#FF78B9"/>
<path d="M632.9 318.9C631.8 314 630.4 308.7 632.9 307.3C635.4 305.9 643.1 302.3 647.3 293.2C647.388 292.974 647.52 292.767 647.69 292.593C647.859 292.419 648.062 292.281 648.287 292.188C648.511 292.094 648.752 292.047 648.995 292.049C649.237 292.052 649.477 292.103 649.7 292.2H649.9C650.082 292.266 650.249 292.368 650.39 292.502C650.531 292.635 650.642 292.796 650.717 292.974C650.792 293.153 650.83 293.345 650.827 293.539C650.824 293.733 650.781 293.924 650.7 294.1C648.654 298.45 646.211 302.601 643.4 306.5C643.983 308.845 644.718 311.15 645.6 313.4C641 315.7 632.9 318.9 632.9 318.9Z" fill="#FF78B9"/>
<path d="M608.299 302.9C608.447 302.735 608.528 302.522 608.528 302.3C608.528 302.079 608.447 301.865 608.299 301.7C606.804 300.133 605.465 298.425 604.299 296.6C602.399 293.3 600.599 287.4 601.899 285.9L600.499 287.2C600.277 287.44 600.108 287.725 600.005 288.035C599.901 288.346 599.865 288.675 599.899 289C600.428 291.947 601.442 294.785 602.899 297.4C604.108 299.372 605.516 301.214 607.099 302.9L607.699 303.1L608.299 302.9Z" fill="black"/>
<path d="M607.801 309.5C610.686 309.144 613.595 309.011 616.501 309.1" stroke="black" stroke-width="2" stroke-linecap="round" stroke-linejoin="round"/>
<path d="M598.301 336.7L604.601 316.7" stroke="black" stroke-width="2" stroke-linecap="round" stroke-linejoin="round"/>
<path d="M601.799 325.8L595.699 308.3" stroke="black" stroke-width="2" stroke-linecap="round" stroke-linejoin="round"/>
<path d="M633 319.7C634.8 329.4 638.7 343 638.7 343" stroke="black" stroke-width="2" stroke-linecap="round" stroke-linejoin="round"/>
<path d="M551.901 326C548.427 326 545.095 327.38 542.638 329.837C540.181 332.294 538.801 335.626 538.801 339.1V351.9H564.901V339.1C564.901 335.643 563.535 332.326 561.1 329.872C558.664 327.418 555.358 326.027 551.901 326Z" fill="#18181B"/>
<path d="M564.9 339.1C563.211 339.087 561.535 339.408 559.971 340.046C558.406 340.683 556.984 341.624 555.784 342.814C554.585 344.004 553.633 345.419 552.984 346.979C552.334 348.538 552 350.211 552 351.9H577.7C577.7 348.505 576.351 345.25 573.951 342.849C571.551 340.449 568.295 339.1 564.9 339.1Z" fill="#18181B"/>
<path d="M605 227.5L624.7 224.4" stroke="black" stroke-width="8" stroke-linecap="round" stroke-linejoin="round"/>
<path d="M646.2 264.1L646.9 265.2" stroke="#FFA8D2" stroke-width="3" stroke-linecap="round" stroke-linejoin="round"/>
<path d="M636.301 256.8C638.89 257.576 641.279 258.907 643.301 260.7" stroke="#FFA8D2" stroke-width="3" stroke-linecap="round" stroke-linejoin="round"/>
<path d="M624.199 224.5C640.899 221.7 667.699 215.5 681.599 211.8" stroke="#2835BD" stroke-width="8" stroke-linecap="round" stroke-linejoin="round"/>
<path d="M676.6 214.5L681.9 239.1" stroke="black" stroke-width="2" stroke-linecap="round" stroke-linejoin="round"/>
<path d="M686.9 238.3V235.1H666.3V238.4C666.258 238.857 666.122 239.299 665.9 239.7C664.868 241.202 664.311 242.978 664.3 244.8V257.9C664.302 260.114 665.102 262.252 666.553 263.924C668.004 265.595 670.009 266.687 672.2 267C675.153 267.4 678.147 267.4 681.1 267C683.264 266.663 685.233 265.558 686.647 263.886C688.062 262.215 688.826 260.09 688.8 257.9V244.8C688.825 242.988 688.302 241.21 687.3 239.7C687.019 239.289 686.878 238.798 686.9 238.3Z" fill="#8CD9FF"/>
<path d="M685 239.7V235.6H668.1V239.7C668.105 240.506 667.898 241.299 667.5 242C666.702 243.18 666.284 244.576 666.3 246V257.2C666.302 259.06 666.968 260.857 668.178 262.269C669.388 263.681 671.063 264.614 672.9 264.9C675.291 265.2 677.709 265.2 680.1 264.9C681.964 264.656 683.675 263.738 684.909 262.32C686.143 260.901 686.816 259.08 686.8 257.2V246C686.791 244.593 686.412 243.214 685.7 242C685.275 241.305 685.034 240.514 685 239.7Z" fill="#5865F2"/>
<path d="M666.3 236.7C666.3 238.1 670.9 239.2 676.6 239.2C682.3 239.2 686.9 238.1 686.9 236.7L676.6 232.6L666.3 236.7Z" fill="#8CD9FF"/>
<path d="M665.7 235.9C665.612 236.05 665.555 236.217 665.532 236.39C665.51 236.563 665.522 236.738 665.569 236.906C665.615 237.074 665.695 237.231 665.804 237.367C665.912 237.504 666.047 237.617 666.2 237.7C667.9 238.7 671.9 239.4 676.6 239.4C681.3 239.4 685.3 238.7 687 237.7C687.29 237.514 687.502 237.228 687.594 236.896C687.686 236.564 687.653 236.209 687.5 235.9L676.6 214.5L665.7 235.9Z" stroke="black" stroke-width="2" stroke-linecap="round" stroke-linejoin="round"/>
<path d="M675.6 258L672.5 257.3C672.201 257.192 671.952 256.979 671.8 256.7C671.658 256.421 671.631 256.097 671.724 255.798C671.818 255.499 672.024 255.249 672.3 255.1C672.45 255.012 672.617 254.955 672.79 254.932C672.962 254.91 673.138 254.922 673.306 254.969C673.474 255.015 673.631 255.095 673.767 255.204C673.903 255.312 674.017 255.447 674.1 255.6L675.6 258Z" fill="white"/>
<path d="M675.6 258L675.4 254.9C675.394 254.753 675.418 254.607 675.469 254.47C675.521 254.332 675.599 254.207 675.7 254.1C675.785 253.97 675.9 253.861 676.034 253.783C676.169 253.704 676.32 253.659 676.475 253.649C676.63 253.639 676.786 253.666 676.929 253.727C677.072 253.788 677.199 253.881 677.3 254C677.561 254.215 677.728 254.523 677.765 254.86C677.802 255.196 677.707 255.533 677.5 255.8L675.6 258Z" fill="white"/>
<path d="M676.2 260.9C674.5 261.4 672.9 260.9 672.5 259.8C672.1 258.7 672.7 258.1 674.3 257.7C674.998 257.52 675.67 257.251 676.3 256.9C677.6 256.2 678.3 257 678.6 257.9C678.9 258.8 677.9 260.3 676.2 260.9Z" fill="#121B80"/>
<path d="M673.136 257.878L671.936 257.857C671.108 257.843 670.424 258.502 670.41 259.331L670.408 259.421C670.394 260.249 671.054 260.932 671.882 260.947L673.082 260.968C673.91 260.982 674.593 260.322 674.608 259.494L674.609 259.404C674.624 258.576 673.964 257.893 673.136 257.878Z" fill="#FFE75C"/>
<path d="M678.8 246.2L681.6 244.7C681.821 244.511 681.992 244.27 682.1 244C682.146 243.849 682.162 243.69 682.147 243.533C682.132 243.376 682.086 243.223 682.011 243.084C681.937 242.945 681.836 242.821 681.714 242.721C681.592 242.621 681.451 242.546 681.3 242.5C680.968 242.408 680.614 242.451 680.314 242.619C680.014 242.788 679.793 243.069 679.7 243.4L678.8 246.2Z" fill="white"/>
<path d="M678.799 246.2L678.299 243.1C678.192 242.8 678.022 242.527 677.799 242.3C677.523 242.153 677.206 242.103 676.898 242.157C676.59 242.211 676.308 242.367 676.099 242.6C675.907 242.907 675.842 243.276 675.916 243.631C675.991 243.985 676.201 244.297 676.5 244.5L678.799 246.2Z" fill="white"/>
<path d="M679.6 245.8C681 246.8 681.7 248.4 681 249.3C680.3 250.2 679.5 250.3 678.2 249.2C677.653 248.754 677.047 248.384 676.4 248.1C676.153 248.039 675.928 247.912 675.747 247.732C675.567 247.553 675.44 247.327 675.378 247.081C675.316 246.834 675.323 246.575 675.397 246.332C675.472 246.089 675.611 245.87 675.8 245.7C676.4 244.7 678.2 244.8 679.6 245.8Z" fill="#121B80"/>
<path d="M678.905 249.398L679.612 250.368C680.1 251.037 681.038 251.184 681.708 250.696L681.78 250.643C682.45 250.155 682.597 249.216 682.109 248.547L681.402 247.577C680.913 246.908 679.975 246.761 679.306 247.249L679.233 247.302C678.564 247.79 678.417 248.729 678.905 249.398Z" fill="#FFE75C"/>
<path d="M676.6 237.6C682.289 237.6 686.9 236.481 686.9 235.1C686.9 233.719 682.289 232.6 676.6 232.6C670.911 232.6 666.3 233.719 666.3 235.1C666.3 236.481 670.911 237.6 676.6 237.6Z" fill="#8CD9FF"/>
<path d="M687 235.1H666.3V236.52H687V235.1Z" fill="#8CD9FF"/>
<path d="M680.8 235.9C680.3 236 679.9 236.3 679.9 236.8C679.912 236.906 679.946 237.007 679.998 237.1C680.05 237.192 680.12 237.273 680.203 237.339C680.287 237.404 680.383 237.452 680.485 237.479C680.588 237.507 680.695 237.514 680.8 237.5L682.5 237.2C682.725 237.162 682.932 237.055 683.093 236.894C683.255 236.732 683.362 236.525 683.4 236.3C683.39 236.197 683.357 236.098 683.303 236.009C683.25 235.921 683.178 235.845 683.092 235.787C683.006 235.73 682.908 235.693 682.806 235.677C682.703 235.662 682.599 235.67 682.5 235.7L680.8 235.9Z" fill="white"/>
<path d="M676.6 214.5L671.3 239.1" stroke="black" stroke-width="2" stroke-linecap="round" stroke-linejoin="round"/>
<path d="M677.4 216.2L674.8 210.6" stroke="black" stroke-width="2" stroke-linecap="round" stroke-linejoin="round"/>
<path d="M676.8 216.5L677.1 210.1" stroke="black" stroke-width="2" stroke-linecap="round" stroke-linejoin="round"/>
<path d="M648.7 281.4C652 277.6 651.5 275.3 650.4 274.6C649.3 273.9 647.6 275.2 644.6 280C641.6 284.8 644.1 286.6 648.7 281.4Z" fill="white"/>
<path d="M633 281.4C630.8 276.8 627 273.5 623.5 274C620 274.5 621.4 279.7 626 283.2C630.6 286.7 635.4 286.4 633 281.4Z" fill="white"/>
<path d="M650.2 277.2C650.394 276.3 650.324 275.362 650 274.5C649.1 274.4 647.7 275.4 645.8 278.1C646 279.5 646.7 280.5 647.5 280.6C648.3 280.7 650 279.3 650.2 277.2Z" fill="black"/>
<path d="M633.1 281.7C633.1 281.6 633 281.5 633 281.4C631.933 279.083 630.32 277.058 628.3 275.5C627.723 276.643 627.48 277.925 627.6 279.2C627.8 281.9 629.2 284 630.8 283.9C631.367 283.824 631.895 283.57 632.309 283.175C632.722 282.78 632.999 282.263 633.1 281.7Z" fill="black"/>
<path d="M635 291.7C641.3 290.1 643.8 289.4 644.8 290.8C645.8 292.2 644.9 293.8 643.4 295.4C645 298.9 644.5 300.5 641.4 300.5C639.14 300.339 636.949 299.654 635 298.5" stroke="black" stroke-width="2" stroke-linecap="round" stroke-linejoin="round"/>
<path d="M641.7 293.7C641.308 294.738 640.769 295.715 640.1 296.6" stroke="black" stroke-width="2" stroke-linecap="round" stroke-linejoin="round"/>
<path d="M213.601 351.4H224.001L231.801 327.6H211.301L213.601 351.4Z" fill="black"/>
<path d="M344.7 351.4H289C253.2 351.4 232.6 341.1 217.2 329.4L213.6 351.4H204.5C204.5 245.8 218.1 145.6 218.1 145.6C220.1 134.3 241.6 129.2 268.3 138.5C295 147.8 302.1 159.7 301.1 170.5C300.1 181.3 291.6 254.1 288.4 288.2L294.1 294.4C296.066 296.443 297.524 298.919 298.358 301.628C299.192 304.338 299.378 307.205 298.9 310L298.3 313.3C320.3 327.5 354.3 320.4 344.7 351.4Z" fill="#29CC7A"/>
<path d="M229.2 165C228.3 177.6 228.1 182.8 228.1 184.8C228.093 185.116 228.152 185.43 228.273 185.723C228.393 186.015 228.573 186.28 228.8 186.5C234.7 192.4 241.7 194.3 247.2 195C247.518 195.042 247.841 195.017 248.149 194.927C248.457 194.836 248.742 194.683 248.987 194.476C249.232 194.268 249.431 194.012 249.571 193.724C249.711 193.435 249.789 193.121 249.8 192.8L250.9 176.8" stroke="white" stroke-width="2" stroke-miterlimit="10" stroke-linecap="round"/>
<path d="M224.801 282.3C221.488 282.37 218.215 281.578 215.301 280" stroke="black" stroke-width="4" stroke-miterlimit="10" stroke-linecap="round"/>
<path d="M216.5 286.9C220.8 287.5 226.1 285.6 226.1 285.6" stroke="black" stroke-width="4" stroke-miterlimit="10" stroke-linecap="round"/>
<path d="M275.799 215.1C274.899 224.1 274.699 234 279.199 236.6C281.999 238.3 287.699 238.1 293.999 235.1C296.499 210.2 299.199 188.8 300.499 176.7L270.699 181.6C267.799 207.3 267.299 215.7 275.799 215.1Z" fill="#15AD75"/>
<path d="M296.53 178.681C301.309 168.661 288.494 152.579 267.906 142.759C247.319 132.939 226.755 133.101 221.976 143.121C217.197 153.14 230.012 169.223 250.6 179.043C271.187 188.862 291.751 188.7 296.53 178.681Z" fill="black"/>
<path d="M217.2 329.4C232.6 341.1 253.2 351.4 289 351.4H344.7C345.648 348.523 346.187 345.527 346.3 342.5C287.2 342.5 252.9 341.3 205.3 305.7C204.9 319.9 204.6 335.2 204.5 351.4H213.6L217.2 329.4Z" fill="#57F287"/>
<path d="M221.2 279.1C223.8 289.2 230.9 296.9 237.1 296.3C243.3 295.7 243.5 289.9 241.1 280.2C240.5 277.6 240 275.1 239.5 272.5C237.7 263.3 233.2 259.3 227.7 259.8C222.2 260.3 218.5 269.1 221.2 279.1Z" fill="white"/>
<path d="M221.2 279.1C223.8 289.2 230.9 296.9 237.1 296.3C243.3 295.7 243.5 289.9 241.1 280.2C240.5 277.6 240 275.1 239.5 272.5C237.7 263.3 233.2 259.3 227.7 259.8C222.2 260.3 218.5 269.1 221.2 279.1Z" fill="white"/>
<path d="M237.499 279.2C238.499 283.6 237.799 287.5 236.099 287.8C234.399 288.1 232.299 285.8 231.599 280.3C230.899 274.8 231.299 271.8 232.999 271.8C234.699 271.8 236.599 274.7 237.499 279.2Z" fill="black"/>
<path d="M295.399 312.5C295.547 312.509 295.695 312.48 295.83 312.418C295.965 312.355 296.082 312.26 296.171 312.141C296.26 312.023 296.318 311.884 296.341 311.737C296.363 311.59 296.349 311.44 296.299 311.3C294.299 301.3 288.199 299.9 276.899 302.5C265.599 305.1 261.099 306.1 258.899 306.9C256.699 307.7 257.699 308.2 272.599 310.5C280.134 311.767 287.758 312.436 295.399 312.5Z" fill="#15AD75"/>
<path d="M345.8 337.4C334.7 337.5 316.2 337.3 298 336.1C264.2 333.8 233.1 321.2 205.5 298.7V300.5C233.1 322.8 264.1 335.3 297.9 337.5C314.9 338.7 332.1 338.9 343.4 338.9H346.1L345.8 337.4Z" fill="black"/>
<path d="M239.501 272.6C237.701 263.4 233.201 259.4 227.701 259.9C222.201 260.4 220.701 264.5 220.301 270.4C226.492 272.398 233.018 273.146 239.501 272.6Z" fill="#5865F2"/>
<path d="M381.4 192.3L348.1 210.9C348.67 211.427 349.387 211.767 350.156 211.875C350.925 211.982 351.708 211.851 352.4 211.5C354.3 210.7 358.9 206.5 360.7 205.5C362.5 204.5 367.6 202.5 370.1 201.5C373.183 200.279 376.078 198.629 378.7 196.6C380.9 194.8 381.7 194.1 381.4 192.3Z" fill="black"/>
<path d="M299.199 123.2C293.099 119.4 292.799 119.5 289.399 113.4C285.999 107.3 281.699 104.3 276.699 103.6L282.899 148.5C295.899 152.3 303.899 145.7 305.699 139.2C307.499 132.7 305.399 127 299.199 123.2Z" fill="#3442D9"/>
<path d="M293.1 129.1C291.4 121.8 286.9 113.3 281.6 106.9C279.701 104.588 278.354 101.873 277.661 98.9621C276.968 96.0512 276.947 93.0206 277.6 90.1004L279.8 80.1004C281.347 73.1598 280.522 65.9012 277.459 59.4842C274.395 53.0671 269.269 47.862 262.9 44.7004C259.245 42.9009 255.267 41.8471 251.2 41.6004C243.547 41.0398 235.977 43.4833 230.096 48.4121C224.215 53.341 220.486 60.3674 219.7 68.0004C219.534 69.2934 219.467 70.5972 219.5 71.9004V76.2004L219.7 94.2004C219.917 102.287 218.203 110.308 214.7 117.6C213.246 120.493 212.139 123.548 211.4 126.7L260.3 178.7C283.6 174.8 298.2 152.3 293.1 129.1Z" fill="#3442D9"/>
<path d="M260.4 178.7C283.6 174.8 298.2 152.3 293.1 129.1C291.5 122.2 287.4 114.2 282.5 108" stroke="black" stroke-width="2" stroke-miterlimit="10" stroke-linecap="round"/>
<path d="M277.499 130.6C282.099 123 283.899 124 292.099 126.2C298.699 127.9 306.299 141.4 296.199 148.2C286.099 155 265.499 150.9 277.499 130.6Z" fill="#3442D9"/>
<path d="M254.704 108.187C255.626 107.482 255.774 106.129 255.036 105.163C254.298 104.198 252.953 103.987 252.032 104.691C251.111 105.396 250.962 106.749 251.7 107.714C252.438 108.68 253.783 108.891 254.704 108.187Z" fill="black"/>
<path d="M267.298 108.969C268.219 108.265 268.368 106.911 267.63 105.946C266.892 104.981 265.547 104.769 264.625 105.474C263.704 106.178 263.555 107.532 264.293 108.497C265.031 109.462 266.376 109.674 267.298 108.969Z" fill="black"/>
<path d="M266 107.4C276.7 116.2 272.3 122.5 280.9 135.5" stroke="white" stroke-width="3.00593" stroke-miterlimit="10" stroke-linecap="round"/>
<path d="M253.901 127.1C260.501 122.5 262.501 121.2 265.001 121.3L271.501 121.9L269.801 148.3L253.301 147.8L253.901 127.1Z" fill="#FFC619"/>
<path d="M285.901 120.4C286.026 120.051 286.067 119.677 286.023 119.309C285.979 118.941 285.85 118.588 285.647 118.278C285.443 117.968 285.171 117.709 284.851 117.522C284.53 117.335 284.171 117.225 283.801 117.2L272.801 115.6C272.003 115.515 271.199 115.707 270.526 116.144C269.852 116.581 269.349 117.236 269.101 118L262.901 141C262.777 141.35 262.735 141.723 262.779 142.091C262.823 142.459 262.952 142.812 263.155 143.122C263.359 143.432 263.631 143.691 263.952 143.878C264.272 144.065 264.631 144.175 265.001 144.2L276.001 145.8C276.8 145.885 277.603 145.693 278.277 145.256C278.95 144.819 279.453 144.164 279.701 143.4L285.901 120.4Z" fill="black"/>
<path d="M285.401 118.1L286.601 119.5L283.301 119.8L285.401 118.1Z" fill="black"/>
<path d="M290.801 133.3C289.401 131 288.101 128.1 284.301 127.5L283.801 132.3L290.801 133.3Z" fill="#FFC619"/>
<path d="M287 121.7C287.105 121.351 287.132 120.983 287.079 120.622C287.026 120.261 286.895 119.916 286.695 119.611C286.495 119.306 286.231 119.049 285.921 118.857C285.611 118.665 285.262 118.543 284.9 118.5L273.8 116.9C273.005 116.833 272.209 117.033 271.54 117.467C270.87 117.902 270.363 118.546 270.1 119.3L263.9 142.3C263.795 142.649 263.768 143.017 263.821 143.378C263.874 143.739 264.005 144.084 264.205 144.389C264.405 144.694 264.669 144.952 264.979 145.143C265.29 145.335 265.638 145.457 266 145.5L277.1 147C277.878 147.128 278.676 146.963 279.34 146.539C280.004 146.114 280.489 145.46 280.7 144.7L287 121.7Z" fill="white"/>
<path d="M283.601 130.8L288.101 131.5C289.013 131.601 289.848 132.056 290.428 132.766C291.008 133.477 291.285 134.387 291.201 135.3C291.178 135.775 291.056 136.24 290.843 136.665C290.629 137.089 290.329 137.465 289.962 137.766C289.594 138.068 289.168 138.289 288.709 138.415C288.251 138.542 287.771 138.571 287.301 138.5L284.001 138C282.976 137.853 282.028 137.371 281.304 136.63C280.581 135.888 280.123 134.929 280.001 133.9C279.976 133.442 280.057 132.984 280.237 132.562C280.417 132.14 280.692 131.765 281.039 131.465C281.387 131.166 281.799 130.95 282.243 130.835C282.687 130.72 283.152 130.708 283.601 130.8Z" fill="#FFC619"/>
<path d="M282.1 137.5L285.2 138C285.719 138.066 286.217 138.243 286.66 138.52C287.103 138.797 287.48 139.168 287.765 139.605C288.051 140.043 288.238 140.538 288.313 141.055C288.388 141.572 288.349 142.099 288.2 142.6C287.987 143.406 287.477 144.102 286.772 144.547C286.067 144.992 285.22 145.154 284.4 145L282.5 144.7C281.463 144.557 280.501 144.079 279.761 143.339C279.021 142.599 278.543 141.637 278.4 140.6C278.371 140.131 278.453 139.663 278.638 139.231C278.824 138.8 279.108 138.418 279.468 138.116C279.828 137.815 280.253 137.602 280.711 137.495C281.168 137.388 281.644 137.39 282.1 137.5Z" fill="#FFC619"/>
<path d="M272.4 148.9L261.6 147.4L262.1 143L272.9 144.6L272.4 148.9Z" fill="#FFC619"/>
<path d="M275 131.4L268.2 130.4C267.876 130.356 267.572 130.219 267.323 130.007C267.075 129.794 266.893 129.514 266.8 129.2L266.2 127.4L265.7 123.7L262 136.7L273 138.3C274.024 138.437 275.064 138.225 275.953 137.699C276.842 137.173 277.528 136.364 277.9 135.4C278.019 134.943 278.035 134.465 277.948 134.001C277.86 133.537 277.671 133.098 277.394 132.716C277.117 132.333 276.758 132.017 276.345 131.79C275.931 131.562 275.472 131.429 275 131.4Z" fill="#FFC619"/>
<path d="M272.8 138.2L262 136.7L262.5 143.9L270.8 145.1C271.813 145.251 272.846 145.043 273.722 144.514C274.598 143.985 275.262 143.166 275.6 142.2C275.737 141.75 275.77 141.275 275.697 140.81C275.623 140.345 275.444 139.904 275.175 139.518C274.905 139.133 274.551 138.814 274.139 138.585C273.728 138.357 273.27 138.225 272.8 138.2Z" fill="#FFC619"/>
<path d="M349.399 182.3C349.699 171.5 340.799 169.8 334.699 166C328.599 162.2 321.399 154.2 313.899 148.8C306.399 143.4 299.899 143.5 287.199 147.4L301.699 175.6C309.899 179.8 311.699 184.4 316.099 190.6C320.499 196.8 326.399 199.2 332.299 198.1C335.399 203.2 335.999 204.4 340.499 202.8C344.999 201.2 352.399 197.8 354.399 191.9C356.399 186 353.499 185 349.399 182.3Z" fill="#66BCFF"/>
<path d="M341.9 199.4C338.1 198.5 336.6 196.4 334.2 193.1L332.1 190.3C321.8 188.2 317.6 182.7 315.3 178.7C314.2 176.8 312.2 175.3 310.3 173.9C308.4 172.5 306.5 171 305.4 169.2C304.572 167.852 303.837 166.449 303.2 165C302.4 162.9 301.7 161.5 300.4 161.1C299.1 160.7 296.9 161.5 294.8 162.4C292.893 163.319 290.877 163.991 288.8 164.4C288.628 164.432 288.451 164.398 288.303 164.305C288.155 164.213 288.047 164.068 288 163.9C287.994 163.719 288.051 163.54 288.16 163.395C288.269 163.249 288.424 163.146 288.6 163.1C290.557 162.771 292.447 162.13 294.2 161.2C296.6 160.2 298.6 159.3 300.7 159.9C302.8 160.5 303.5 162.3 304.4 164.5C305.3 166.7 305.6 167.1 306.4 168.5C307.723 170.179 309.311 171.631 311.1 172.8C313.1 174.4 315.2 176 316.4 178.1C318.7 182.2 322.7 187.1 332.6 189.1H332.8L333 189.3C333.9 190.4 334.6 191.5 335.3 192.4C337.5 195.5 338.9 197.4 342.1 198.2C342.187 198.193 342.273 198.208 342.352 198.244C342.431 198.281 342.499 198.337 342.549 198.408C342.6 198.478 342.631 198.561 342.64 198.647C342.649 198.734 342.635 198.821 342.6 198.9C342.607 198.987 342.592 199.074 342.556 199.152C342.519 199.231 342.463 199.299 342.393 199.35C342.322 199.4 342.239 199.431 342.153 199.44C342.067 199.449 341.98 199.435 341.9 199.4Z" fill="#45AAF7"/>
<path d="M301.1 159C299.756 163.293 298.885 167.719 298.5 172.2" stroke="black" stroke-width="2" stroke-miterlimit="10" stroke-linecap="round"/>
<path d="M306.999 211C297.899 219.2 290.199 216.9 286.599 216.5C282.999 216.1 283.399 213.5 283.099 211.3C282.799 209.1 282.599 205.8 282.599 205.8C273.499 205.2 272.399 199 272.199 193.5C271.999 188 270.599 187.2 269.899 183.3C258.927 181.329 248.557 176.859 239.591 170.234C230.625 163.61 223.306 155.009 218.199 145.1L227.699 138.2L248.899 152C263.199 146.7 271.099 144 278.799 143.5C286.499 143 294.099 145.9 296.599 156.6C299.099 167.3 299.399 170.6 301.699 175.7C302.299 177 303.299 178.8 304.299 180.7C307.099 186.4 309.999 194.4 304.299 203.1C304.994 205.799 305.897 208.441 306.999 211Z" fill="#8CD9FF"/>
<path d="M233.7 165.3C233.4 158.2 236.1 153.2 241 152.4L228.6 143.8L219.6 147.7C221.9 154.1 227.8 161.1 233.7 165.3Z" fill="black"/>
<path d="M289.6 212.9L289.8 211.6C288 211.3 287.9 210 287.4 203.9V203.1L287 202.9C283 201.9 280.3 199.5 280.1 191.4C280.066 187.553 279.285 183.749 277.8 180.2C277.412 179.367 277.11 178.495 276.9 177.6C276.7 176.8 276.4 176 276.2 175.3C275.071 172.477 274.759 169.393 275.3 166.4C275.7 163.3 275.4 161.6 274.4 160.7C273.4 159.8 270.9 160.1 267.2 161.3H266.7C260.8 163.2 249 167.1 237.1 168.1L238.6 169.2C250.2 168.1 261.4 164.4 267.1 162.6L267.6 162.4C270.6 161.4 272.7 160.9 273.6 161.6C274.5 162.3 274.3 163.6 274 166.1C273.467 169.299 273.812 172.583 275 175.6C275.259 176.316 275.46 177.052 275.6 177.8C275.9 178.7 276.2 179.6 276.6 180.5C278.027 183.924 278.774 187.592 278.8 191.3C279 198.8 281.1 202.5 286.2 204C286.6 210.1 286.8 212.4 289.6 212.9Z" fill="#66BCFF"/>
<path d="M254.1 125.7C251.2 123.2 249 123.4 245.5 124.9C241.8 121.5 237 121 232 122.7C227 124.4 219.3 126.7 214.8 127.9C214.549 127.994 214.276 128.013 214.014 127.956C213.752 127.898 213.512 127.767 213.322 127.578C213.133 127.388 213.002 127.148 212.945 126.886C212.887 126.624 212.907 126.351 213 126.1L216.3 114.1C205.6 122.1 202.1 139.2 205.5 148.5C208.9 157.8 223.7 157.7 228.4 155.1C233.1 152.5 234.7 151.7 240.1 152.7C245.5 153.7 249.7 154.4 256.8 149L261 147.6C262.6 138.5 261.2 131.9 254.1 125.7Z" fill="#3442D9"/>
<path d="M254.101 125.7C251.201 123.2 249.001 123.4 245.501 124.9C241.801 121.5 237.001 121 232.001 122.7C227.001 124.4 219.301 126.7 214.801 127.9" stroke="black" stroke-width="2" stroke-miterlimit="10" stroke-linecap="round"/>
<path d="M245.5 124.9C248.487 127.213 250.974 130.107 252.813 133.406C254.652 136.706 255.804 140.344 256.2 144.1" stroke="black" stroke-width="2" stroke-miterlimit="10" stroke-linecap="round"/>
<path d="M275.8 121.9C275.845 121.762 275.86 121.616 275.843 121.471C275.826 121.327 275.778 121.188 275.701 121.065C275.625 120.941 275.523 120.835 275.402 120.755C275.281 120.675 275.144 120.622 275 120.6H274C273.722 120.539 273.431 120.589 273.189 120.738C272.946 120.887 272.771 121.124 272.7 121.4L271.8 124.7C271.754 124.846 271.742 125 271.765 125.151C271.788 125.302 271.845 125.445 271.931 125.571C272.018 125.696 272.133 125.8 272.266 125.875C272.399 125.949 272.548 125.992 272.7 126H273.7C273.963 126.034 274.229 125.971 274.45 125.824C274.67 125.677 274.83 125.456 274.9 125.2L275.8 121.9Z" fill="#29CC7A"/>
<path d="M259.799 102.7C260.572 101.135 261.713 99.781 263.123 98.7535C264.534 97.7259 266.173 97.0556 267.899 96.7998C268.099 96.7998 268.199 96.5998 268.099 96.4998C266.799 91.6998 267.399 88.9998 269.099 85.4998C269.116 85.4744 269.127 85.4455 269.131 85.4153C269.135 85.385 269.132 85.3542 269.123 85.3253C269.113 85.2963 269.097 85.27 269.075 85.2482C269.054 85.2265 269.028 85.2099 268.999 85.1998C263.399 82.7998 261.299 78.7998 260.699 75.7998C260.599 75.5998 260.299 75.4998 260.199 75.6998C257.699 80.6998 254.299 80.8998 251.399 80.4998C251.199 80.4998 251.099 80.6998 251.199 80.7998C254.099 86.3998 251.999 90.3998 249.099 93.1998C249.084 93.239 249.076 93.2811 249.078 93.3233C249.08 93.3655 249.091 93.4067 249.11 93.4445C249.129 93.4823 249.155 93.5156 249.188 93.5424C249.22 93.5691 249.258 93.5887 249.299 93.5998C254.899 94.5998 257.899 98.2998 259.299 102.6C259.399 102.8 259.699 102.9 259.799 102.7Z" fill="#FFC619"/>
<path d="M272.8 138.2L267.1 137.4" stroke="black" stroke-width="2" stroke-miterlimit="10" stroke-linecap="round"/>
<path d="M283.199 137.9L286.399 138.4" stroke="black" stroke-width="2" stroke-miterlimit="10" stroke-linecap="round"/>
<path d="M260.5 75.6004C263 70.0004 262.8 66.1004 262.1 63.9004" stroke="black" stroke-width="2" stroke-miterlimit="10" stroke-linecap="round"/>
<path d="M268.5 85.4004C270.06 85.6395 271.654 85.54 273.172 85.1086C274.691 84.6773 276.099 83.9242 277.3 82.9004" stroke="black" stroke-width="2" stroke-miterlimit="10" stroke-linecap="round"/>
<path d="M259.8 102.7C259.808 103.444 259.707 104.186 259.5 104.9" stroke="black" stroke-width="2" stroke-miterlimit="10" stroke-linecap="round"/>
<path d="M249.6 93.2998C245.9 95.8998 240.3 95.4998 236.4 94.2998" stroke="black" stroke-width="2" stroke-miterlimit="10" stroke-linecap="round"/>
<path d="M251.4 80.5002C250 77.6002 247.4 74.3002 245 73.2002" stroke="black" stroke-width="2" stroke-miterlimit="10" stroke-linecap="round"/>
<path d="M268.1 96.5C269.39 97.1885 270.77 97.6934 272.2 98" stroke="black" stroke-width="2" stroke-miterlimit="10" stroke-linecap="round"/>
<path d="M257.399 85.7998C259.099 92.3998 261.299 91.9998 262.299 89.9998C263.299 87.9998 263.999 85.4998 265.599 85.6998C267.199 85.8998 266.799 88.6998 264.899 92.6998C262.999 96.6998 259.899 97.5998 256.999 94.0998C254.099 90.5998 253.999 87.1998 253.899 84.7998C253.799 82.3998 256.299 81.7998 257.399 85.7998Z" fill="#C40655"/>
<path d="M253.4 106.6C254.6 120.4 247.6 127 245.4 140.7" stroke="white" stroke-width="3.00593" stroke-miterlimit="10" stroke-linecap="round"/>
<path d="M269.1 183.4C267.3 177.5 266.5 166.7 271.4 157.2" stroke="black" stroke-width="2" stroke-miterlimit="10" stroke-linecap="round"/>
<path d="M268 168.7C266.872 166.508 266.321 164.064 266.4 161.6" stroke="black" stroke-width="2" stroke-miterlimit="10" stroke-linecap="round"/>
<path d="M218.701 126.8L211.301 129.2" stroke="black" stroke-width="2" stroke-miterlimit="10" stroke-linecap="round"/>
<path d="M292.199 125.9L297.199 127.3" stroke="black" stroke-width="2" stroke-miterlimit="10" stroke-linecap="round"/>
<path d="M381.401 192.2C380.852 193.002 380.215 193.74 379.501 194.4C376.301 197.6 369.001 201.2 365.101 202.7C362.134 203.639 359.405 205.208 357.101 207.3C354.201 209.6 350.601 212.7 348.101 210.9C344.952 208.001 342.074 204.821 339.501 201.4C339.355 201.221 339.26 201.006 339.225 200.777C339.189 200.549 339.216 200.315 339.301 200.1C340.701 196.1 345.201 190.4 351.701 187.4C351.916 187.315 352.15 187.288 352.378 187.324C352.607 187.359 352.822 187.454 353.001 187.6C356.801 190.3 359.101 191 362.201 190.9C365.301 190.8 371.301 188.8 376.201 187.4C381.101 186 381.201 188.2 381.401 192.2Z" fill="#FFC619"/>
<path d="M342.301 204.9C344.087 207.038 346.025 209.043 348.101 210.9C350.601 212.7 354.201 209.6 357.101 207.3C359.405 205.208 362.134 203.639 365.101 202.7C369.001 201.2 376.301 197.6 379.501 194.4C380.215 193.74 380.852 193.002 381.401 192.2C381.201 188.2 380.301 186.2 376.201 187.4C372.101 188.6 369.801 189.6 366.801 190.3C365.909 190.539 365.1 191.021 364.464 191.691C363.829 192.362 363.391 193.196 363.201 194.1C363.101 195.2 362.901 196.3 362.701 197.6C357.301 196.5 352.101 198.3 351.001 205.4C351.001 205.4 346.401 202.9 342.301 204.9Z" fill="#FFE75C"/>
<path d="M379.5 194.4L381.4 192.3C381.527 192.089 381.596 191.847 381.6 191.6C381.508 190.842 381.305 190.101 381 189.4C380.2 190.9 378.8 192.4 375.7 194.7C370.8 198.3 365.3 199.6 362 200.7C358.979 201.826 356.222 203.562 353.9 205.8C352.075 207.862 349.67 209.325 347 210L348.1 210.9C350.6 212.7 354.2 209.6 357.1 207.3C359.404 205.208 362.133 203.639 365.1 202.7C369 201.2 376.3 197.6 379.5 194.4Z" fill="white"/>
<path d="M318.5 198.9C313.4 197.5 308.2 199.9 303.6 208.6C302.3 207.6 299.1 206.5 294.3 207.4C289.5 208.3 287.7 210.4 286.9 212C286.424 212.924 286.283 213.984 286.5 215C286.8 216.3 287.2 218 287.8 220.8C288.7 225.1 288.2 228.9 290.6 229.3L324.2 205.1C324.2 205.1 325.1 200.7 318.5 198.9Z" fill="#FFC619"/>
<path d="M318.5 198.9C313.4 197.5 308.2 199.9 303.6 208.6C302.962 209.902 302.394 211.237 301.9 212.6C296.6 212.1 294.1 214.4 293.2 219.5C293.2 219.5 289.7 217.1 287.6 219.9C287.7 220.2 287.7 220.5 287.8 220.8C288.7 225.1 288.2 228.9 290.6 229.3L324.2 205.1C324.2 205.1 325.1 200.7 318.5 198.9Z" fill="#FFE75C"/>
<path d="M324.201 203.7L321.701 201.4C317.401 200.7 313.801 200.6 310.001 204.9C306.201 209.2 303.701 213.9 299.701 216.7C294.001 220.9 289.201 222.6 288.501 225.7C287.801 228.8 289.201 229.1 290.601 229.3L324.201 205.1C324.324 204.642 324.324 204.159 324.201 203.7Z" fill="white"/>
<path d="M319.9 199.9L322.3 200.6C322.509 200.634 322.707 200.714 322.88 200.835C323.054 200.957 323.197 201.116 323.3 201.3C324.227 202.866 324.613 204.693 324.4 206.5L315.6 204.9C318.5 203.5 319.5 202.2 319.2 200.5C319.17 200.406 319.168 200.306 319.195 200.211C319.222 200.116 319.276 200.032 319.351 199.968C319.426 199.903 319.518 199.863 319.615 199.851C319.713 199.839 319.812 199.856 319.9 199.9Z" fill="white"/>
<path d="M290.8 229.4C299.4 231.1 303.2 228.4 306.9 224.6C308.435 222.902 310.222 221.452 312.2 220.3C317.3 217.4 321.3 214.3 324 209.4C326.7 204.5 318.4 201.3 313 205.8C307.6 210.3 307.3 215.6 296.6 222.2C289.3 226.8 288.3 228.9 290.8 229.4Z" fill="black"/>
<path d="M292.023 213.793C292.073 212.801 291.622 211.971 291.015 211.94C290.409 211.909 289.876 212.689 289.826 213.682C289.775 214.675 290.227 215.505 290.833 215.535C291.44 215.566 291.973 214.786 292.023 213.793Z" fill="white"/>
<path d="M381.699 191C381.523 189.986 381.186 189.007 380.699 188.1C380.599 188 380.499 187.9 380.399 188H380.299C380.099 188 380.099 188.1 380.099 188.2C380.599 190.3 380.799 192.7 379.699 194.1C381.999 192.3 381.799 191.3 381.699 191Z" fill="white"/>
<path d="M346.024 201.633C346.941 201.428 347.43 200.126 347.116 198.724C346.803 197.323 345.806 196.353 344.89 196.558C343.974 196.763 343.485 198.065 343.798 199.466C344.111 200.867 345.108 201.837 346.024 201.633Z" fill="white"/>
<path d="M420.999 351.4C463.299 351.4 497.999 333.8 543.599 293.6C589.199 253.4 605.199 240.2 618.099 227.7C630.999 215.2 630.099 207.1 623.399 191.1C616.699 175.1 612.299 177.4 612.299 177.4C611.499 164.4 598.799 142.9 584.799 125.6C570.799 108.3 562.399 111.1 546.999 111.1C531.599 111.1 526.499 115.3 519.599 133.7C512.699 152.1 495.499 167.7 462.999 173.4C430.499 179.1 412.699 178.8 411.799 195.1C410.899 211.4 411.799 239.5 397.399 261.7C379.498 270.352 360.679 276.96 341.299 281.4C329.899 284 327.499 291.5 326.399 301.3C325.299 311.1 329.299 316.4 331.199 319.5C327.299 323.2 328.099 324.8 329.999 333.5C330.799 337 331.699 340.5 332.499 343.6C333.151 345.853 334.518 347.833 336.394 349.24C338.27 350.647 340.554 351.405 342.899 351.4H420.999Z" fill="#66BCFF"/>
<path d="M326.399 301.3C325.299 311.1 329.299 316.4 331.199 319.5L409.499 328.5L485.299 317.4C485.299 317.4 535.299 277.1 528.499 263.7C521.699 250.3 507.399 262.9 488.299 275.9C469.199 288.9 449.399 290.1 426.699 286.8C403.999 283.5 376.499 273.8 341.299 281.4C329.899 284 327.499 291.5 326.399 301.3Z" fill="#45AAF7"/>
<path d="M536.6 257C536.7 239.7 536.1 235.6 541.9 236.4C547.7 237.2 557.2 239.1 557.2 239.1L546.9 255.4L536.6 257Z" fill="#A3E1FF"/>
<path d="M566.999 230.1C566.999 221.7 566.299 216.2 568.599 215C570.899 213.8 573.599 215.3 578.399 219.6C583.199 223.9 566.999 230.1 566.999 230.1Z" fill="#A3E1FF"/>
<path d="M336.199 317.4C334.899 307.3 335.198 299.3 337.898 297.3C340.598 295.3 343.198 299.9 345.098 303.9C347.52 308.976 350.542 313.743 354.098 318.1L336.199 317.4Z" fill="#A3E1FF"/>
<path d="M422.998 319.6C426.298 306.1 429.098 302.8 431.898 302.6C434.698 302.4 436.098 308.8 440.098 317.9L433.498 321L422.998 319.6Z" fill="#A3E1FF"/>
<path d="M603 196.1C560.5 237.2 535.099 259.8 499.499 286.3C463.899 312.8 447.999 319.7 418.099 319.7C388.199 319.7 368.999 302.9 331.199 319.5C327.299 323.2 328.099 324.8 329.999 333.5C330.799 337 331.699 340.5 332.499 343.6C333.151 345.853 334.518 347.833 336.394 349.24C338.27 350.647 340.554 351.405 342.899 351.4H420.999C463.299 351.4 497.999 333.8 543.599 293.6C589.199 253.4 605.199 240.2 618.099 227.7C630.999 215.2 630.099 207.1 623.399 191.1C616.699 175.1 612.299 177.4 612.299 177.4C612.299 181.9 612.6 186.7 603 196.1Z" fill="white"/>
<path d="M623.899 192.2C623.799 198 620.199 204.6 610.399 213.6C591.199 231.1 551.499 266.9 524.199 290.1C494.299 315.8 466.499 337 429.499 337C416.599 337 402.499 334.3 388.799 331.7C364.699 327.1 341.799 322.8 330.199 334.4C330.299 335 330.499 335.7 330.599 336.3C341.399 324.4 364.299 328.7 388.499 333.3C402.299 335.9 416.499 338.6 429.499 338.6C466.999 338.6 496.199 316.2 525.199 291.4C552.499 268.1 592.299 232.2 611.399 214.8C618.599 208.2 623.799 202.1 625.099 195.4L623.899 192.2Z" fill="#FFE75C"/>
<path d="M511.999 319L498.099 287.4C492.766 291.333 487.866 294.833 483.399 297.9L482.199 299.3C487.399 297.1 492.599 300 492.999 308.9C493.099 313.7 493.099 323.4 493.099 331.2C499.616 327.479 505.925 323.407 511.999 319Z" fill="black"/>
<path d="M348.7 343.4C340.7 343.5 336.8 346.7 340 349.8C341.165 350.882 342.711 351.457 344.3 351.4H413C378.8 351.4 375.3 343 348.7 343.4Z" fill="black"/>
<path d="M584.298 166.9C573.998 180.1 570.398 185.3 574.698 199.4C576.498 205.5 578.798 212 580.698 217.4L602.998 196.1C612.598 186.7 612.298 181.9 612.298 177.4C611.598 166.3 602.298 149 590.798 133.4C596.598 141.8 594.598 153.7 584.298 166.9Z" fill="#45AAF7"/>
<path d="M570.599 150.1C576.499 127.6 575.899 112.6 561.399 111.1C557.099 110.7 552.499 111.1 546.999 111.1C531.499 111.1 526.499 115.3 519.599 133.7C512.699 152.1 495.499 167.7 462.999 173.4C430.499 179.1 412.699 178.8 411.799 195.1C410.899 211.4 411.799 239.5 397.399 261.7C395.299 265.4 397.799 267.9 427.699 267.9C457.599 267.9 475.399 266.1 480.399 253.6C485.399 241.1 492.599 213.8 496.199 203C499.799 192.2 499.199 186 519.099 181.5C538.999 177 564.999 171.8 570.599 150.1Z" fill="#8CD9FF"/>
<path d="M501.5 178.7C517.5 172.1 528.8 173.6 545.8 165.5C562.8 157.4 565 151.4 567.1 140.3C569.2 129.2 570.7 116.1 560.4 115.2C550.1 114.3 540.8 114.7 536.1 116.3C531.4 117.9 530.2 120.8 525.1 131.3C520 141.8 517.5 157.4 494.6 167.6L501.5 178.7Z" fill="black"/>
<path d="M366.699 312.4C366.799 317.5 368.199 324.8 370.999 325.5C373.799 326.2 375.099 320.5 377.999 313.4C374.899 310.2 366.699 306.9 366.699 312.4Z" fill="#A3E1FF"/>
<path d="M494.3 289.2C491.822 289.302 489.398 289.951 487.2 291.1C477.9 295.8 478 299.8 478.3 301.2C491 293.5 496.6 302 500.2 326.9C501.6 336.7 504.1 341.5 511.3 341.5C520.1 341.5 525.3 335.3 524.7 319.3C524.565 316.281 524.231 313.275 523.7 310.3C521.2 296.9 516 283.4 503.4 283.4C501.51 283.494 499.678 284.078 498.082 285.095C496.486 286.112 495.183 287.527 494.3 289.2Z" fill="#FF78B9"/>
<path d="M588.199 244.1C582.799 248.9 577.399 249.3 576.199 245.1C574.999 240.9 578.299 233.5 583.699 228.8L593.099 220.5C598.499 215.7 603.899 215.3 605.099 219.5C606.299 223.7 602.899 231.1 597.599 235.8L588.199 244.1Z" fill="#FFA8D2"/>
<path d="M494.299 289.2C502.699 290.1 509.099 294 511.799 304.6C513.699 312.1 513.099 320.9 514.399 328.5" stroke="black" stroke-width="2" stroke-linecap="round" stroke-linejoin="round"/>
<path d="M589.998 169.2L587.498 172.6C579.598 182.9 576.698 186.7 585.098 213.2L586.398 212C578.498 187 581.098 183.5 588.698 173.6L591.298 170.2C597.498 161.8 599.798 153.5 599.598 146.4L597.798 143.6C598.798 150.9 596.798 160 589.998 169.2Z" fill="#5865F2"/>
<path d="M476.1 307.6C476.9 303.1 475.9 300.9 473.6 301.2C471.3 301.5 469.3 302.9 467.1 308C468.9 327.5 474.1 319.9 476.1 307.6Z" fill="#A3E1FF"/>
<path d="M558.301 118.4L574.001 116.4C576.501 116.1 577.401 110.4 578.501 103.2C579.601 96.0004 578.301 82.9004 578.301 82.9004L562.101 87.8004L558.301 118.4Z" fill="#FF78B9"/>
<path d="M601.901 78.2006C595.201 70.7006 561.201 44.5006 561.201 44.5006L553.201 56.0006C553.201 56.0006 564.501 68.5006 572.601 76.9006C556.201 78.2006 526.601 82.1006 526.601 82.1006C505.601 77.9006 496.701 75.9006 496.701 75.9006L518.301 55.4006L510.401 43.6006C510.401 43.6006 489.801 56.2006 478.201 65.3006C466.601 74.4006 464.701 85.6006 475.701 94.1006C486.701 102.6 490.401 105.2 490.401 105.2L561.301 112.5C582.101 106.7 594.501 100.4 602.001 93.9006C609.501 87.4006 608.601 85.7006 601.901 78.2006Z" fill="#FFC619"/>
<path d="M484.502 74.7998C487.002 75.1998 491.402 76.3999 491.402 76.3999" stroke="black" stroke-width="2" stroke-linecap="round" stroke-linejoin="round"/>
<path d="M556.901 40.9004L549.801 52.8004L557.801 61.0005C560.401 58.1005 563.001 53.0004 562.201 45.3004L556.901 40.9004Z" fill="black"/>
<path d="M510.901 92.9002C501.301 81.1002 497.901 76.0002 495.901 70.1002C494.501 65.8002 503.001 68.4002 514.001 71.7002C525.001 75.0002 523.301 78.1002 510.901 92.9002Z" fill="#FF78B9"/>
<path d="M497.102 75.5996C487.002 86.8996 486.802 100.7 487.902 120C487.902 120 470.502 137.5 473.002 152.8C475.502 168.1 499.302 174.7 526.402 174.4C548.202 174.2 550.602 169.1 552.602 158.8C553.802 152.1 554.702 144.4 555.302 138.4C555.907 132.093 557.493 125.918 560.002 120.1C573.402 88.9996 562.602 77.7996 562.602 77.7996L526.402 80.6996L497.102 75.5996Z" fill="#FF78B9"/>
<path d="M505.102 59.4C496.602 65.7 498.402 75.3 510.402 88.5L515.802 93.9L550.702 88.2C561.902 74.3 559.702 65 555.602 59.2C561.302 49.8 561.702 43.3 561.602 37.5C561.502 27.7 552.602 12.3 530.202 12.5C518.002 12.6 507.202 17.4 503.302 32.9C501.902 38.3 501.602 47.1 505.102 59.4Z" fill="#FFE75C"/>
<path d="M548.301 25.2002C548.568 25.1987 548.833 25.2537 549.077 25.3614C549.322 25.4691 549.541 25.6273 549.72 25.8254C549.9 26.0236 550.035 26.2574 550.118 26.5116C550.201 26.7657 550.229 27.0344 550.201 27.3002L549.001 40.8002C548.646 43.828 547.222 46.6297 544.986 48.7012C542.749 50.7727 539.847 51.978 536.801 52.1002H534.101C530.917 52.1304 527.831 51 525.42 48.9203C523.009 46.8406 521.438 43.954 521.001 40.8002L520.501 36.3002C520.428 35.7701 520.164 35.2848 519.759 34.9351C519.354 34.5854 518.836 34.3952 518.301 34.4002C517.75 34.3979 517.219 34.6021 516.812 34.9723C516.405 35.3426 516.151 35.8521 516.101 36.4002L515.501 43.6002C515.279 45.9796 514.187 48.1936 512.434 49.8176C510.681 51.4416 508.39 52.3612 506.001 52.4002C504.568 52.4543 503.141 52.1967 501.818 51.6452C500.495 51.0937 499.307 50.2614 498.337 49.2058C497.367 48.1503 496.638 46.8967 496.2 45.5318C495.762 44.1668 495.626 42.723 495.801 41.3002L497.001 27.7002C497.072 27.1604 497.331 26.6632 497.734 26.2969C498.137 25.9307 498.657 25.7193 499.201 25.7002L548.301 25.2002Z" fill="black"/>
<path d="M549.602 25.7002L561.602 37.5002V39.9002L549.702 31.6002L549.602 25.7002Z" fill="black"/>
<path d="M562.602 77.7C556.973 72.383 550.345 68.2362 543.102 65.5C536.602 63.2 535.102 62.6 533.602 66.3C532.102 70 530.502 74.2 529.902 75.6C529.302 77 522.202 81.8 517.902 85.4C513.602 89 509.102 96.7 509.102 96.7L554.702 100.2L562.602 77.7Z" fill="#FF78B9"/>
<path d="M572.402 76.7002L578.302 82.9002C575.602 91.3002 573.902 101.8 572.902 113.5L549.602 115.2L562.602 77.8002L572.402 76.7002Z" fill="#FF78B9"/>
<path d="M497.1 75.5995L492.8 74.7995C492.14 74.7039 491.468 74.7527 490.829 74.9427C490.19 75.1326 489.6 75.4591 489.1 75.8996C484.205 80.3549 480.903 86.2907 479.7 92.7995C478.4 100.4 478.8 101.2 487.6 105.9C493.5 109.1 499.6 95.0995 502.9 85.5995C503.283 84.5638 503.433 83.4562 503.338 82.3559C503.244 81.2556 502.908 80.1897 502.354 79.2344C501.799 78.2791 501.041 77.458 500.133 76.8296C499.225 76.2013 498.189 75.7813 497.1 75.5995Z" fill="#FF78B9"/>
<path d="M501.301 153.4C493.645 144.477 485.026 136.428 475.601 129.4L453.201 141.1L460.501 162.9C460.501 162.9 466.501 170.5 472.101 176.5C477.701 182.5 487.801 182.7 506.401 184.3C513.401 171.8 510.201 163.9 501.301 153.4Z" fill="#2835BD"/>
<path d="M464.801 162.5L466.801 152.8" stroke="black" stroke-width="2" stroke-linecap="round" stroke-linejoin="round"/>
<path d="M543.402 149.3C541.602 144.4 536.102 140.5 511.502 139.3L502.402 130.1L477.102 149.4C486.102 164.6 496.302 182.9 506.402 184.3C516.502 185.7 525.602 185 537.602 177.7C545.202 173 546.202 170.8 546.402 166.8C546.249 160.853 545.239 154.959 543.402 149.3Z" fill="#3442D9"/>
<path d="M570.602 150.1C565.002 171.8 539.002 176.9 519.102 181.5C501.102 185.6 499.902 191 497.202 200L483.602 196.4V182.4L501.502 178.7C517.502 172.1 528.802 173.6 545.802 165.5C562.802 157.4 565.002 151.4 567.102 140.3C568.402 133.8 569.402 126.4 567.802 121.3L573.502 122.1C575.002 128.9 573.702 138.5 570.602 150.1Z" fill="#8CD9FF"/>
<path d="M418.401 171.6C417.075 172.403 416.058 173.629 415.514 175.08C414.969 176.531 414.93 178.123 415.401 179.6C418.301 188.8 419.601 195.9 416.901 218.3C414.201 240.7 409.701 253.1 407.601 257.7C407.472 257.973 407.41 258.273 407.419 258.575C407.429 258.876 407.511 259.171 407.657 259.435C407.804 259.699 408.011 259.924 408.262 260.092C408.513 260.26 408.801 260.366 409.101 260.4C420.301 262.1 437.101 261.9 455.501 259.5C458.605 259.093 461.546 257.869 464.023 255.954C466.5 254.039 468.425 251.502 469.601 248.6C474.331 236.862 478.208 224.797 481.201 212.5C487.901 184.9 487.101 185.4 501.501 178.7C500.401 168.8 500.501 159.3 489.701 157.9C477.101 156.3 463.301 162.5 443.501 167.9C439.001 163.9 434.901 161.9 418.401 171.6Z" fill="#45AAF7"/>
<path d="M472.6 159.4C464.3 161.4 454.9 164.8 443.5 167.9C440.2 165 437.1 163.1 429.2 166.2C428.907 166.948 428.673 167.717 428.5 168.5C424.9 186.4 418.1 215.7 438.5 214.1C458.9 212.5 461.2 200.4 460.6 189.4C460 178.4 458.7 172.3 460.6 169.1C462.5 165.9 469.2 160.3 472.6 159.4Z" fill="#287CEB"/>
<path d="M490.901 184.7C489.501 173 488.601 167.4 485.401 165.2C482.201 163 481.101 163.7 476.901 164.6C472.701 165.5 467.401 167.1 460.601 169.1C447.901 172.8 432.101 177.5 426.101 177.1L424.101 176.8C425.501 175.3 434.101 172.2 439.801 170.1L443.801 168.6C443.895 168.577 443.983 168.535 444.06 168.477C444.137 168.418 444.201 168.344 444.248 168.26C444.295 168.175 444.324 168.082 444.333 167.985C444.342 167.889 444.331 167.792 444.301 167.7L443.501 167.9L442.801 167.3L439.201 168.6C425.901 173.5 422.101 175.2 422.401 177.1C422.701 179 424.201 178.6 426.001 178.7C432.201 179.1 447.501 174.6 461.101 170.6C467.801 168.6 473.601 166.9 477.201 166.2C480.801 165.5 483.101 165.5 484.501 166.5C485.901 167.5 488.101 174.5 489.401 186.3L490.901 184.7Z" fill="black"/>
<path d="M496.002 39.3L515.002 25.5L507.902 25.6L496.502 33.9L496.002 39.3Z" fill="#5865F2"/>
<path d="M500.602 51C502.239 51.9545 504.107 52.439 506.002 52.4C508.391 52.361 510.682 51.4414 512.435 49.8174C514.188 48.1934 515.28 45.9794 515.502 43.6L515.802 40L500.602 51Z" fill="#5865F2"/>
<path d="M548.3 25.2002H540.4L520.9 39.3002V40.8002C521.125 42.3466 521.633 43.8383 522.4 45.2002L549.5 25.7002C549.163 25.4108 548.743 25.2357 548.3 25.2002Z" fill="#5865F2"/>
<path d="M549 40.7998L549.6 34.2998L527.4 50.3999C529.45 51.5341 531.757 52.1197 534.1 52.0998H536.8C539.846 51.9777 542.748 50.7724 544.985 48.7008C547.221 46.6293 548.645 43.8276 549 40.7998Z" fill="#5865F2"/>
<path d="M514.5 53.5997C517.168 53.0175 519.931 53.0175 522.6 53.5997" stroke="black" stroke-width="2" stroke-linecap="round" stroke-linejoin="round"/>
<path d="M430.701 133C430.801 133.3 430.901 133.5 431.001 133.5C431.101 133.5 431.201 133.4 431.301 133.1" fill="black"/>
<path d="M447.701 128.4C436.901 132.6 421.801 141.4 408.801 148.7C401.601 152.7 399.401 155.1 403.201 162.4C407.001 169.7 414.201 176.7 419.601 181.5C425.001 186.3 428.001 184.3 432.001 181.7L460.501 162.9L475.601 129.4C469.301 125 458.601 124.1 447.701 128.4Z" fill="#2835BD"/>
<path d="M417.201 168.1C421.801 169 421.801 169.5 427.501 165.8C433.201 162.1 461.901 144.8 464.801 142.9" stroke="#4150F2" stroke-width="2" stroke-miterlimit="10" stroke-linecap="round"/>
<path d="M489.401 117.8C484.901 114.5 481.801 114.3 457.601 112.3C433.401 110.3 422.101 107.8 419.301 112.2C416.501 116.6 419.001 127.6 421.801 135.9C424.601 144.2 426.201 146.9 430.101 147.2C434.001 147.5 470.401 148.7 477.101 149.4L480.401 155L511.501 139.3C511.501 139.3 493.801 121.1 489.401 117.8Z" fill="#3442D9"/>
<path d="M412.601 161.4C406.601 156.5 404.201 155.6 404.901 158.9C405.601 162.2 409.401 167.1 413.501 171.5C417.601 175.9 422.301 180.4 423.901 180.1C425.501 179.8 423.601 176.8 421.101 172C418.966 167.959 416.081 164.362 412.601 161.4Z" fill="black"/>
<path d="M419.201 168.7L414.201 172.2L410.101 175.1C405.201 178.7 407.201 181.6 407.601 185C408.001 188.4 406.901 190.9 404.601 190.9C402.301 190.9 398.901 181.3 396.501 176.7C394.101 172.1 386.201 168.4 382.101 164.9C380.401 163.4 380.001 160.9 382.101 160.1C381.201 158.8 380.001 155.5 383.001 154.5C386.001 153.5 390.501 159 393.001 160.7C395.501 162.4 398.601 164 400.901 163C402.482 162.296 404.018 161.494 405.501 160.6L408.901 158.5L412.601 161.4C415.112 163.533 417.331 165.987 419.201 168.7Z" fill="#FF78B9"/>
<path d="M570.6 150.1C565 171.8 539 176.9 519.1 181.5C499.2 186.1 499.8 192.1 496.2 203C492.6 213.9 485.4 241.2 480.4 253.6L546.9 214.5L574.1 162.9L570.6 150.1Z" fill="#66BCFF"/>
<path d="M493.501 237.9C491.301 245.6 489.501 251.4 488.501 255.6C487.501 259.8 492.101 259.4 497.001 258C501.901 256.6 504.001 254.5 503.201 250.2C502.401 245.9 495.901 229.2 493.501 237.9Z" fill="white"/>
<path d="M412.602 161.4L408.902 158.5C408.002 158.4 407.502 158.4 407.102 158.7C406.702 159 406.802 159.2 406.902 159.7C409.202 159.3 414.902 163.4 415.102 171.5C416.402 172.1 417.102 172.5 417.602 172.2C418.102 171.9 418.802 170.5 419.202 168.7C417.332 165.987 415.113 163.533 412.602 161.4Z" fill="black"/>
<path d="M403.801 186.5C402.801 182.7 399.401 174.9 396.501 171.8C393.601 168.7 389.001 161.4 387.501 159C386.001 156.6 382.101 153.6 381.201 156.3C381.006 157.635 381.328 158.994 382.101 160.1C380.001 160.9 380.401 163.4 382.101 164.9C386.201 168.4 393.901 171.6 396.501 176.7C399.101 181.8 400.901 189.2 403.701 190.7L404.501 190.9C405.001 190.8 404.701 189.4 403.801 186.5Z" fill="#DE3A93"/>
<path d="M518.201 6.5001C516.934 10.0718 516.795 13.9465 517.802 17.6001C517.961 18.2428 518.335 18.8115 518.863 19.2118C519.39 19.612 520.039 19.8196 520.701 19.8001H526.802C527.481 19.8032 528.152 19.6623 528.773 19.3865C529.393 19.1106 529.948 18.7063 530.401 18.2001C534.101 14.3001 540.801 13.3001 546.001 15.5001L549.101 11.0001C549.433 10.5593 549.596 10.0137 549.559 9.4629C549.522 8.91213 549.289 8.39293 548.901 8.0001C545.869 5.13476 542.251 2.9622 538.297 1.63271C534.343 0.303222 530.148 -0.151461 526.001 0.300101C524.254 0.509967 522.6 1.20074 521.223 2.29545C519.846 3.39015 518.799 4.84577 518.201 6.5001Z" fill="#FF8C19"/>
<path d="M573.302 108.8C572.902 113.5 573.702 115.1 574.802 113.2C575.575 111.494 576.049 109.667 576.202 107.8L573.302 108.8Z" fill="black"/>
<path d="M561.302 78.0996C552.702 79.1996 547.902 80.6996 543.602 82.6996" stroke="black" stroke-width="2" stroke-linecap="round" stroke-linejoin="round"/>
<path d="M578.9 84.0996L582.6 87.7996" stroke="black" stroke-width="2" stroke-linecap="round" stroke-linejoin="round"/>
<path d="M557.002 119.6C557.002 119.6 552.502 122.9 549.602 125.3" stroke="black" stroke-width="2" stroke-linecap="round" stroke-linejoin="round"/>
<path d="M517.5 93.7998L516.7 105.6H511.4C511.71 101.727 512.312 97.8826 513.2 94.0998C513.398 93.4541 513.702 92.8459 514.1 92.2998C515.43 90.6346 516.977 89.1549 518.7 87.8999L527.9 80.9999C530.504 79.0801 532.486 76.4372 533.6 73.3999C534.9 69.9999 536.5 65.6998 537.2 64.7998" stroke="#F551A0" stroke-width="2" stroke-linecap="round" stroke-linejoin="round"/>
<path d="M573.201 77.5C569.001 88.1 564.401 106.1 567.901 114.7C568.252 115.51 568.688 116.281 569.201 117L571.201 116.8C570.444 116.015 569.834 115.101 569.401 114.1C566.201 106.4 570.201 89.8 574.401 78.8L573.201 77.5Z" fill="#F551A0"/>
<path d="M480.602 101.4C481.002 101.872 481.474 102.277 482.002 102.6C483.002 90.9004 487.802 81.0004 495.202 75.2004L493.202 74.9004C486.302 80.8004 481.702 90.3004 480.602 101.4Z" fill="#F551A0"/>
<path d="M560.901 118.9L549.801 120.2" stroke="black" stroke-width="2" stroke-linecap="round" stroke-linejoin="round"/>
<path d="M546.002 161.3C542.002 164 533.502 168.1 528.102 169.3C526.753 169.577 525.379 169.711 524.002 169.7C521.836 169.781 519.684 169.331 517.732 168.39C515.78 167.448 514.088 166.045 512.802 164.3L507.602 157C503.102 150.6 497.402 142.7 493.302 137C493.202 136.8 493.202 136.7 493.102 136.6C486.902 127.9 483.602 124.1 479.002 123.4C474.402 122.7 461.102 121.5 437.802 119.7C432.002 119.3 431.102 119.4 430.002 122C429.97 122.098 429.917 122.188 429.847 122.263C429.777 122.338 429.691 122.397 429.596 122.435C429.5 122.473 429.398 122.49 429.295 122.484C429.192 122.478 429.092 122.449 429.002 122.4C428.818 122.314 428.669 122.169 428.578 121.987C428.487 121.806 428.46 121.599 428.502 121.4C430.102 117.5 432.502 117.7 437.902 118.1C451.502 119.2 474.802 121 479.302 121.8C483.802 122.6 488.702 127.7 494.402 135.7C494.402 135.8 494.502 135.9 494.602 136C498.702 141.7 504.302 149.7 508.902 156L514.102 163.4C516.902 167.3 522.002 168.9 527.702 167.7C533.402 166.5 542.702 161.7 545.802 159.5C545.918 160.094 545.985 160.696 546.002 161.3Z" fill="#5865F2"/>
<path d="M422.401 113.9C419.501 116.6 421.001 121.9 423.001 129.2C425.001 136.5 427.501 143.1 428.801 142.9C430.101 142.7 430.801 140.1 431.101 136.3C431.401 132.5 431.301 125.7 429.801 120.6C428.301 115.5 424.601 111.8 422.401 113.9Z" fill="black"/>
<path d="M431.301 133.1L423.901 132.2C420.301 131.7 416.701 131.4 413.101 131.2C412.401 135.5 410.901 141 408.801 143.2C406.701 145.4 403.001 145.3 402.601 140.3C402.201 135.3 402.501 128.2 399.201 113.4C398.001 107.9 395.801 104.6 395.001 100.4C394.201 96.1999 396.601 95.4999 398.801 95.8999C398.301 93.0999 398.501 89.4999 402.001 88.9999C405.501 88.4999 406.901 91.4999 406.901 95.3999C407.42 94.6813 408.168 94.161 409.023 93.9247C409.877 93.6884 410.786 93.7502 411.601 94.0999C414.001 94.9999 414.501 97.9999 414.201 102.8C413.901 107.6 413.801 112.7 415.801 114.4C417.801 116.1 418.301 115.5 421.101 115.9L427.901 116.5C428.712 117.777 429.351 119.156 429.801 120.6C430.835 124.685 431.339 128.886 431.301 133.1Z" fill="#FF78B9"/>
<path d="M431.302 133.1C431.34 128.886 430.836 124.685 429.802 120.6C429.352 119.156 428.713 117.777 427.902 116.5H427.002C429.502 119.7 431.002 128.1 427.002 132.6C427.565 133.077 428.208 133.449 428.902 133.7C429.747 133.781 430.594 133.57 431.302 133.1Z" fill="black"/>
<path d="M411.701 99.9998C412.101 95.2999 408.801 93.2999 406.901 95.3999C406.901 91.4999 405.601 88.4999 402.001 88.9999C398.401 89.4999 398.301 93.0999 398.801 95.8999C396.601 95.4999 394.201 96.2999 395.001 100.4C395.801 104.5 398.001 107.9 399.201 113.4C402.501 128.2 402.101 134.4 402.601 140.3C402.608 141.489 402.993 142.645 403.701 143.6C406.001 146 407.001 143.1 406.901 138.7C406.846 131.814 407.247 124.933 408.101 118.1C409.101 110.1 411.401 104.7 411.701 99.9998Z" fill="#DE3A93"/>
<path d="M402.4 89.0002C405.5 88.9002 405.6 92.8002 405.5 97.1002L406.9 95.4002C406.9 91.7002 405.7 88.7002 402.4 89.0002Z" fill="#FF78B9"/>
<path d="M482.702 138.2C481.13 142.074 479.258 145.819 477.102 149.4C481.702 147.4 483.602 146.4 483.602 146.4" stroke="black" stroke-width="2" stroke-linecap="round" stroke-linejoin="round"/>
<path d="M512.4 140.2L523 151C531.6 152.1 533.6 153.9 535.9 156.8" stroke="black" stroke-width="2" stroke-linecap="round" stroke-linejoin="round"/>
<path d="M523 151L532.7 151.3" stroke="black" stroke-width="2" stroke-linecap="round" stroke-linejoin="round"/>
<path d="M496.6 252.1C495.3 255.4 493.1 257.6 491.7 257.1C490.3 256.6 490.3 255 491.7 251.9C492.303 250.642 492.805 249.338 493.2 248C494 245.1 495.5 244.6 496.6 245.1C497.7 245.6 498 248.7 496.6 252.1Z" fill="black"/>
<path d="M418 207.6C417.9 209.3 417.7 211.2 417.5 213.2L439.9 215.7L416.3 223.1C415.8 226.5 415.3 229.6 414.8 232.5L430.4 234.1C425.1 236 419.3 238 413.1 240.4C412.3 243.933 411.5 246.933 410.7 249.4L418 249.6L409.8 251.9C409.199 253.881 408.464 255.819 407.6 257.7C407.498 257.957 407.431 258.226 407.4 258.5C416.3 255.7 425.3 253.4 434 251.5C442.882 253.103 451.638 255.342 460.2 258.2C462.364 257.29 464.308 255.926 465.9 254.2C462.5 253 457.5 251.4 451.4 249.7L447.9 248.8C456.2 247.4 463.9 246.2 470.9 245.3C472 242.5 473.2 239.2 474.4 235.6C467.9 234.1 461.2 232.9 454.7 231.8C464.1 228.9 471.5 226.8 477.7 225.3C478.7 221.9 479.7 218.3 480.7 214.5L467.2 213.1L482.1 208.5L483.7 202.2L453.2 211.5L418 207.6ZM468.3 240C458.1 241.4 446.2 243.2 433.8 245.9C429.133 245.1 424.233 244.5 419.1 244.1C428 240.8 435.8 238 442.8 235.7C450.9 236.8 459.7 238.2 468.3 240ZM476.9 219.7C468.4 221.8 457.4 224.9 442.3 230C434.2 228.9 426.9 228.1 421 227.5L453.8 217.2L476.9 219.7Z" fill="#3F4EEB"/>
<path d="M418.402 199.7C418.302 201.6 418.302 203.7 418.102 206.1C443.702 205.3 473.002 202.2 484.002 200.9C484.602 198.3 485.202 196.1 485.802 194.2C477.902 195.2 446.002 198.9 418.402 199.7Z" fill="#3F4EEB"/>
<path d="M461.701 252.8L465.901 254.2C464.309 255.926 462.365 257.29 460.201 258.2L456.201 256.9C458.301 255.934 460.175 254.537 461.701 252.8Z" fill="black"/>
<path d="M471.102 234.9L474.402 235.6C473.202 239.2 472.002 242.5 470.902 245.3L466.502 245.9C468.369 242.382 469.909 238.7 471.102 234.9Z" fill="black"/>
<path d="M476.801 214.1L480.701 214.5C479.701 218.3 478.701 221.9 477.701 225.3L473.701 226.3C474.301 224.3 474.801 222.2 475.301 220.1C475.401 219.9 475.401 219.7 475.501 219.5C475.901 217.7 476.401 215.9 476.801 214.1Z" fill="black"/>
<path d="M479.401 203.5L483.701 202.2L482.101 208.5L477.801 209.8C478.301 207.7 478.901 205.6 479.401 203.5Z" fill="black"/>
<path d="M485.8 194.2C485.2 196.1 484.6 198.3 484 200.9L479.9 201.3L481.7 194.7L485.8 194.2Z" fill="black"/>
<path d="M409.8 251.9L414.8 250.5C414.1 252.7 413.4 254.8 412.6 256.9L407.4 258.5C407.431 258.226 407.498 257.957 407.6 257.7C408.464 255.819 409.199 253.881 409.8 251.9Z" fill="black"/>
<path d="M413.101 240.4L417.601 238.7C416.901 242.5 416.101 246 415.101 249.5H410.701C411.501 246.967 412.301 243.933 413.101 240.4Z" fill="black"/>
<path d="M416.301 223.1L420.001 221.9C419.601 225.8 419.101 229.4 418.601 232.9L414.801 232.5C415.301 229.6 415.801 226.5 416.301 223.1Z" fill="black"/>
<path d="M418.002 207.6L421.402 208L420.802 213.5L417.502 213.2C417.702 211.2 417.902 209.3 418.002 207.6Z" fill="black"/>
<path d="M422.202 199.6L421.602 206H418.102C418.302 203.6 418.302 201.5 418.402 199.6H422.202Z" fill="black"/>
<path d="M519.602 225L519.802 233.5C519.808 233.941 519.931 234.372 520.157 234.75C520.384 235.128 520.707 235.44 521.092 235.653C521.478 235.866 521.914 235.974 522.354 235.964C522.795 235.955 523.225 235.829 523.602 235.6C524.053 235.305 524.401 234.877 524.598 234.375C524.795 233.874 524.831 233.323 524.702 232.8L521.802 222.8L519.602 225Z" fill="white"/>
<path d="M505.002 199.4C513.002 201.9 514.602 210.4 516.302 224.8C516.336 225.154 516.465 225.493 516.674 225.781C516.883 226.07 517.165 226.297 517.491 226.439C517.817 226.582 518.175 226.635 518.529 226.593C518.882 226.551 519.218 226.415 519.502 226.2L522.302 224.1C523.035 223.576 523.61 222.86 523.963 222.031C524.316 221.202 524.433 220.292 524.302 219.4C524.002 217.6 523.502 214.8 523.002 211C521.802 203.6 516.902 194.6 507.502 193.5C506.992 193.449 506.479 193.556 506.031 193.806C505.584 194.057 505.225 194.439 505.002 194.9C504.524 196.039 504.286 197.265 504.302 198.5C504.313 198.704 504.386 198.899 504.511 199.06C504.636 199.22 504.807 199.339 505.002 199.4Z" fill="#3F4EEB"/>
</g>
<defs>
<clipPath id="clip0_114_8">
<rect width="689" height="352" fill="white"/>
</clipPath>
</defs>
</svg>
