<svg width="615" height="360" viewBox="0 0 615 360" fill="none" xmlns="http://www.w3.org/2000/svg">
<g clip-path="url(#clip0_105_1943)">
<path d="M614.201 359.4H449.301V307.9C487.701 271.3 531.501 296.5 534.401 323.7C578.101 295.3 619.201 318 614.201 359.4Z" fill="#18181B"/>
<path d="M449.301 223.5H13.7012V359.4H449.301V223.5Z" fill="#3F3F46"/>
<path d="M13.7012 265.5L449.301 230.4V223.5H13.7012V265.5Z" fill="#27272A"/>
<path d="M449.302 223.5H446.102V359.4H449.302V223.5Z" fill="#18181B"/>
<path d="M410.001 223.5H406.801V359.4H410.001V223.5Z" fill="#18181B"/>
<path d="M370.702 223.5H367.502V359.4H370.702V223.5Z" fill="#18181B"/>
<path d="M331.401 223.5H328.201V359.4H331.401V223.5Z" fill="#18181B"/>
<path d="M292.001 223.5H288.801V359.4H292.001V223.5Z" fill="#18181B"/>
<path d="M252.702 223.5H249.502V359.4H252.702V223.5Z" fill="#18181B"/>
<path d="M213.401 223.5H210.201V359.4H213.401V223.5Z" fill="#18181B"/>
<path d="M174.1 223.5H170.9V359.4H174.1V223.5Z" fill="#18181B"/>
<path d="M134.802 223.5H131.602V359.4H134.802V223.5Z" fill="#18181B"/>
<path d="M95.5007 223.5H92.3008V359.4H95.5007V223.5Z" fill="#18181B"/>
<path d="M56.2 223.5H53V359.4H56.2V223.5Z" fill="#18181B"/>
<path d="M16.9013 223.5H13.7012V359.4H16.9013V223.5Z" fill="#18181B"/>
<path d="M131.901 97.8C127.801 84.2 125.601 77.7 133.001 73.7C140.401 69.7 162.901 72.4 173.401 74.9C183.901 77.4 185.401 80 178.501 90.3L131.901 97.8Z" fill="#FFF4B3"/>
<path d="M127.101 220.1C125.501 179.7 126.501 146.1 127.801 128.2C121.101 123.8 118.001 120.4 116.701 118.5C116.431 118.134 116.293 117.687 116.312 117.232C116.33 116.778 116.502 116.343 116.801 116C127.401 102.7 136.501 91.1002 146.001 85.7002C155.501 80.3002 168.501 78.9002 189.201 99.5002C189.399 99.7639 189.497 100.089 189.479 100.418C189.461 100.748 189.327 101.06 189.101 101.3C187.457 102.932 185.721 104.468 183.901 105.9C188.101 113.4 194.201 124.8 194.201 124.8H199.001C202.077 124.8 205.028 126.022 207.203 128.198C209.379 130.373 210.601 133.323 210.601 136.4C210.701 145.7 208.501 156.9 204.201 171.3C223.401 186.9 218.701 220 218.701 220L127.101 220.1Z" fill="#29CC7A"/>
<path d="M204.201 171.3C204.801 169.2 205.401 167.3 205.901 165.3L190.801 173.7C190.801 173.7 166.901 157.6 126.801 147.6C126.101 166.2 126.001 191.4 127.101 220.1H218.701C218.701 220.1 223.401 186.9 204.201 171.3Z" fill="#8CD9FF"/>
<path d="M208.002 175C206.836 173.667 205.565 172.43 204.202 171.3C204.802 169.2 205.402 167.3 205.902 165.3L190.802 173.7C190.802 173.7 166.902 157.6 126.802 147.6C126.702 149.9 126.602 152.4 126.602 154.9C157.302 167.6 173.802 189.4 175.702 220.1H198.402C202.402 202.5 205.602 187.1 208.002 175Z" fill="#BAE8FF"/>
<path d="M138.901 135.9H139.301C139.501 135.7 139.701 135.6 139.801 135.3L148.501 107.2C148.559 107.082 148.592 106.953 148.595 106.821C148.598 106.69 148.573 106.559 148.52 106.439C148.468 106.318 148.389 106.21 148.291 106.123C148.192 106.036 148.076 105.972 147.949 105.935C147.823 105.898 147.69 105.889 147.56 105.908C147.43 105.928 147.306 105.976 147.196 106.049C147.087 106.122 146.995 106.218 146.926 106.331C146.858 106.443 146.815 106.569 146.801 106.7L138.401 133.9C134.772 132.352 131.291 130.477 128.001 128.3H127.801C127.801 128.9 127.701 129.6 127.701 130.2C131.156 132.423 134.804 134.331 138.601 135.9H138.901Z" fill="black"/>
<path d="M176.101 90.7002L140.301 93.3002C180.301 100.9 182.001 102 176.101 90.7002Z" fill="black"/>
<path d="M195.901 195.5L192.101 160C192.026 159.373 191.716 158.797 191.233 158.389C190.751 157.981 190.132 157.77 189.501 157.8H185.701L184.001 154.5C183.475 153.591 182.642 152.9 181.652 152.552C180.662 152.203 179.579 152.22 178.601 152.6C177.592 153.029 176.774 153.811 176.301 154.8C168.801 170.9 165.101 197.4 164.401 202.4C164.385 202.634 164.444 202.867 164.57 203.065C164.696 203.263 164.882 203.415 165.101 203.5L186.701 210.4C186.821 210.463 186.957 210.489 187.092 210.476C187.227 210.463 187.355 210.41 187.461 210.326C187.567 210.241 187.646 210.127 187.689 209.998C187.731 209.869 187.735 209.731 187.701 209.6L186.901 199.5L194.901 197C195.217 196.908 195.491 196.707 195.674 196.432C195.857 196.158 195.937 195.828 195.901 195.5Z" fill="#EB459F"/>
<path d="M177.402 167.2L174.102 201.7" stroke="#D11583" stroke-width="2" stroke-miterlimit="10" stroke-linecap="round"/>
<path d="M167.153 116.711C168.535 116.153 168.784 113.541 167.708 110.878C166.632 108.216 164.64 106.51 163.257 107.068C161.874 107.627 161.626 110.238 162.702 112.901C163.777 115.564 165.77 117.27 167.153 116.711Z" fill="black"/>
<path d="M177.463 122.24C179.246 118.872 179.03 115.262 176.98 114.177C174.93 113.091 171.824 114.942 170.04 118.309C168.257 121.677 168.474 125.287 170.523 126.373C172.573 127.458 175.68 125.608 177.463 122.24Z" stroke="white" stroke-width="2" stroke-miterlimit="10"/>
<path d="M192.187 122.26C193.97 118.893 193.754 115.283 191.704 114.197C189.654 113.112 186.547 114.962 184.764 118.33C182.981 121.698 183.197 125.308 185.247 126.393C187.297 127.478 190.404 125.628 192.187 122.26Z" stroke="white" stroke-width="2" stroke-miterlimit="10"/>
<path d="M182.075 116.228C182.997 115.856 182.906 113.479 181.871 110.918C180.837 108.358 179.251 106.584 178.329 106.957C177.408 107.329 177.499 109.706 178.533 112.267C179.568 114.827 181.154 116.601 182.075 116.228Z" fill="black"/>
<path d="M191.602 142.4C183.881 142.425 176.389 139.775 170.402 134.9C164.202 129.8 166.702 129.2 170.602 129.1C174.502 129 193.202 129.7 198.602 130.5C204.002 131.3 205.002 142 191.602 142.4Z" fill="#912869"/>
<path d="M191.602 142.4C183.881 142.425 176.389 139.775 170.402 134.9C164.202 129.8 166.702 129.2 170.602 129.1C174.502 129 193.202 129.7 198.602 130.5C204.002 131.3 205.002 142 191.602 142.4Z" fill="#611B46"/>
<path d="M191.201 153.6L190.801 149.9C193.626 149.675 196.379 148.893 198.901 147.6" stroke="black" stroke-width="2" stroke-linecap="round" stroke-linejoin="round"/>
<path d="M195.302 141.9C189.902 136.7 182.602 132.8 169.102 133.7C180.702 144.4 192.802 142.6 195.302 141.9Z" fill="#EB459F"/>
<path d="M178.102 118.7H184.202" stroke="white" stroke-width="2" stroke-miterlimit="10"/>
<path d="M168.902 119.9L143.102 109.4C142.561 109.19 141.977 109.115 141.401 109.179C140.824 109.244 140.272 109.447 139.79 109.771C139.309 110.095 138.913 110.531 138.637 111.041C138.36 111.551 138.211 112.12 138.202 112.7C138.19 113.383 138.384 114.053 138.759 114.624C139.133 115.194 139.671 115.639 140.302 115.9L142.002 116.7" stroke="white" stroke-width="2" stroke-miterlimit="10" stroke-linecap="round"/>
<path d="M163.502 106.8C165.531 106.852 167.557 106.582 169.502 106" stroke="black" stroke-width="2" stroke-miterlimit="10" stroke-linecap="round"/>
<path d="M178.502 106.8C179.781 106.833 181.05 106.559 182.202 106" stroke="black" stroke-width="2" stroke-miterlimit="10" stroke-linecap="round"/>
<path d="M135.301 94.2997C171.001 93.7997 183.101 89.7997 193.301 86.0997C203.501 82.3997 202.501 79.4997 194.701 79.7997C186.901 80.0997 160.201 90.2997 135.301 94.2997Z" fill="#FFF4B3"/>
<path d="M126.5 158.1L126.3 167.9L131.2 166C131.2 166 157.3 155.1 163.5 153.6C169.7 152.1 175.6 155 184.5 158.4C193.4 161.8 191.1 164.9 188.3 167.9C185.5 170.9 185.6 170.7 170.9 170.7C142.8 191 134.2 202.9 122.7 202.9C115.8 202.9 109.9 199.8 105.5 186.2C101.1 172.6 109.3 166.4 126.5 158.1Z" fill="#29CC7A"/>
<path d="M224.401 169.3L209.401 151.2L183.801 176.7L201.901 191.8C201.701 193.5 201.901 194.8 202.801 195.7C205.501 198.4 213.401 194.9 220.501 187.9C227.601 180.9 231.001 172.9 228.301 170.2C227.401 169.3 226.101 169.1 224.401 169.3Z" fill="white"/>
<path d="M199.964 167.378C206.994 160.348 211.173 153.13 209.298 151.256C207.424 149.381 200.206 153.56 193.176 160.59C186.147 167.619 181.968 174.837 183.842 176.712C185.717 178.586 192.935 174.407 199.964 167.378Z" fill="white"/>
<path d="M198.227 165.664C204.593 159.298 208.866 153.251 207.773 152.158C206.68 151.064 200.633 155.338 194.267 161.704C187.902 168.069 183.628 174.116 184.721 175.21C185.815 176.303 191.862 172.029 198.227 165.664Z" fill="#BAE8FF"/>
<path d="M223.001 161.7C227.301 162.3 229.001 166.2 227.301 171.4C227.108 171.954 226.776 172.448 226.336 172.835C225.896 173.223 225.363 173.49 224.79 173.61C224.216 173.731 223.621 173.702 223.062 173.525C222.504 173.347 222 173.029 221.601 172.6C220.612 171.551 220.013 170.194 219.903 168.756C219.794 167.318 220.182 165.887 221.001 164.7L223.001 161.7Z" fill="#29CC7A"/>
<path d="M215.501 158.7C215.301 162.4 213.101 166.1 211.501 168.5C211.069 169.173 210.874 169.972 210.946 170.768C211.019 171.565 211.355 172.315 211.901 172.9L212.701 173.6C212.961 173.866 213.273 174.077 213.616 174.222C213.96 174.366 214.328 174.44 214.701 174.44C215.073 174.44 215.442 174.366 215.785 174.222C216.129 174.077 216.44 173.866 216.701 173.6C219.714 170.85 221.838 167.264 222.801 163.3C224.001 157.9 220.101 154.1 213.301 155.9L215.501 158.7Z" fill="#29CC7A"/>
<path d="M135.302 94.2998L147.502 93.2998L176.802 87.4998L169.502 80.2998H134.602L135.302 94.2998Z" fill="#FFF4B3"/>
<path d="M194.4 131.2L187.4 130.8C188.2 135 190.2 137.2 191.9 136.5C193.6 135.8 194.2 132.1 194.4 131.2Z" fill="white"/>
<path d="M172.801 130.3C173.701 135.1 175.501 137.6 177.201 136.8C178.901 136 179.301 132 179.601 130.4L172.801 130.3Z" fill="white"/>
<path d="M465.401 223.5H4.30078" stroke="#09090B" stroke-width="8" stroke-linecap="round" stroke-linejoin="round"/>
<path d="M184.402 174.7C184.477 174.906 184.617 175.082 184.802 175.2C184.902 175.2 184.902 175.2 184.902 175.3C184.902 175.4 192.102 171.8 198.302 165.6V165.4L194.402 161.6L191.202 158.3L187.002 158.5L178.802 155.4L178.502 156.1C182.002 157.3 182.702 169.9 184.402 174.7Z" fill="#EB459F"/>
<path d="M185.701 157.9C187.389 161.316 188.891 164.821 190.201 168.4C190.27 168.561 190.38 168.702 190.52 168.807C190.661 168.912 190.826 168.979 191.001 169H191.301C191.511 168.912 191.685 168.756 191.794 168.556C191.904 168.355 191.941 168.124 191.901 167.9C191.801 167.6 189.601 161.8 187.601 157.9H185.701Z" fill="#D11583"/>
<path d="M186.902 199.7H186.702L179.002 202C178.86 202.043 178.731 202.12 178.627 202.225C178.522 202.329 178.445 202.458 178.402 202.6C178.373 202.763 178.386 202.931 178.438 203.088C178.491 203.245 178.581 203.387 178.702 203.5L185.502 209.4C185.543 209.496 185.614 209.577 185.704 209.63C185.793 209.684 185.898 209.709 186.002 209.7C186.133 209.704 186.264 209.679 186.385 209.628C186.506 209.576 186.614 209.498 186.702 209.4C186.783 209.309 186.846 209.203 186.885 209.088C186.924 208.972 186.94 208.85 186.931 208.729C186.921 208.607 186.887 208.489 186.831 208.38C186.774 208.272 186.696 208.177 186.602 208.1L181.002 203.2L187.002 201.4L186.902 199.7Z" fill="#D11583"/>
<path d="M126 167.6L111.9 174.3" stroke="black" stroke-width="2" stroke-linecap="round" stroke-linejoin="round"/>
<path d="M180.902 82.7998C165.489 86.9291 149.867 90.2338 134.102 92.6998" stroke="#FFC619" stroke-width="2" stroke-miterlimit="10" stroke-linecap="round"/>
<path d="M193.401 178.6L204.201 188.5C204.54 188.798 204.967 188.978 205.418 189.014C205.868 189.05 206.318 188.94 206.701 188.7C206.943 188.528 207.145 188.303 207.29 188.044C207.435 187.784 207.52 187.495 207.539 187.198C207.558 186.901 207.511 186.603 207.4 186.327C207.29 186.05 207.119 185.802 206.901 185.6L196.401 175.5C196.08 175.209 195.678 175.023 195.248 174.97C194.819 174.916 194.383 174.996 194.001 175.2L193.701 175.4C193.433 175.562 193.208 175.784 193.042 176.049C192.876 176.313 192.774 176.613 192.745 176.924C192.716 177.235 192.76 177.549 192.874 177.84C192.988 178.131 193.168 178.391 193.401 178.6Z" fill="#BAE8FF"/>
<path d="M220.502 170.5C222.326 168.079 223.466 165.212 223.802 162.2" stroke="black" stroke-width="2" stroke-linecap="round" stroke-linejoin="round"/>
<path d="M309.19 32.232C310.101 27.9087 307.247 23.6469 302.816 22.713C298.384 21.7792 294.053 24.5269 293.142 28.8502C292.231 33.1736 295.085 37.4353 299.516 38.3692C303.948 39.303 308.279 36.5553 309.19 32.232Z" fill="#2A39D4"/>
<path d="M362.699 106.5C369.999 106.9 378.799 109.9 389.799 122.1C395.999 115.9 398.999 117.6 407.299 124.7C415.599 131.8 433.399 145.3 437.799 149.8C442.199 154.3 445.499 164 433.499 171.3C421.499 178.6 400.199 165.2 388.999 157.4C377.799 149.6 362.699 140.5 362.699 140.5V106.5Z" fill="#2331B5"/>
<path d="M403.999 121.9C406.907 126.69 409.352 131.746 411.299 137C413.599 144.2 410.699 148.4 404.799 153.3C398.899 158.2 396.499 157.1 393.399 154.6C393.212 154.493 392.992 154.457 392.78 154.499C392.569 154.54 392.379 154.656 392.246 154.826C392.112 154.996 392.044 155.207 392.054 155.423C392.064 155.638 392.151 155.843 392.299 156C393.884 157.391 395.893 158.202 397.999 158.3C400.499 158.3 402.999 157.1 405.999 154.6C411.099 150.3 415.899 145.4 412.899 136.4C411.787 133.162 410.416 130.018 408.799 127C408.17 125.789 407.322 124.704 406.299 123.8L403.999 121.9Z" fill="#3442D9"/>
<path d="M388.898 151.8C394.298 157 407.198 166.2 407.198 166.2" stroke="black" stroke-width="2" stroke-miterlimit="10" stroke-linecap="round"/>
<path d="M335.881 105.224C361.748 97.855 377.333 72.979 370.691 49.6613C364.049 26.3435 337.694 13.4142 311.827 20.7826C285.96 28.1511 270.375 53.0272 277.017 76.3449C283.66 99.6626 310.014 112.592 335.881 105.224Z" fill="#FF78B9"/>
<path d="M289.799 58.2001C289.799 67.8001 294.399 76.3002 300.099 77.2002C305.799 78.1002 307.199 73.1001 307.399 63.8001C307.399 61.4001 307.499 59.0002 307.699 56.5002C308.299 47.9002 305.199 43.2001 300.099 42.4001C294.999 41.6001 289.799 48.6001 289.799 58.2001Z" fill="white"/>
<path d="M332.2 58.8C331.211 57.513 330.625 55.9611 330.518 54.3411C330.412 52.7211 330.788 51.1058 331.6 49.7C339.6 36.1 346.9 35.6 352.1 35.9C357.3 36.2 361.3 41.1 357 53.5C363.1 60.1 360.6 66.2 351.9 67C343.2 67.8 338.5 67.1 332.2 58.8Z" fill="#D11583"/>
<path d="M389.398 192.1C390.598 159.3 380.098 155.1 379.098 145.3C378.098 135.5 377.098 122.3 366.298 108.1C366.298 108.1 367.598 94.8001 368.298 85.9001C368.316 85.5497 368.256 85.1998 368.124 84.8749C367.991 84.5501 367.789 84.2582 367.532 84.0199C367.274 83.7815 366.968 83.6025 366.634 83.4954C366.3 83.3883 365.946 83.3558 365.598 83.4001C358.59 84.5156 351.49 84.951 344.398 84.7001C332.198 84.3001 315.698 83.1001 298.098 100.2L303.798 108.2L303.398 108.9C303.116 109.382 302.943 109.921 302.892 110.478C302.842 111.034 302.914 111.595 303.105 112.12C303.296 112.646 303.601 113.122 303.997 113.516C304.394 113.91 304.872 114.212 305.398 114.4L306.498 114.8C306.498 114.8 290.398 124.5 295.198 146.4C299.998 168.3 294.898 189.5 302.998 196C304.637 197.303 306.583 198.161 308.65 198.494C310.716 198.827 312.834 198.622 314.798 197.9L351.898 217.7C365.398 232.6 384.598 249.3 384.598 249.3L369.798 284.6L385.398 323.9C398.698 291.3 416.198 259.3 419.298 244.5C422.398 229.7 412.398 221 389.398 192.1Z" fill="#2331B5"/>
<path d="M374.8 303.8C382.2 280.9 390.5 260.2 393 254.2C393.212 253.673 393.258 253.095 393.133 252.541C393.008 251.988 392.717 251.485 392.3 251.1C370.7 230.4 365.6 223.3 365.6 223.3" stroke="#3442D9" stroke-width="2" stroke-miterlimit="10"/>
<path d="M317.699 178L304.299 168.9C304.299 168.9 312.399 157.8 316.899 151.1L317.999 149.4C318.042 149.299 318.105 149.208 318.185 149.132C318.265 149.057 318.359 148.998 318.462 148.961C318.565 148.923 318.675 148.907 318.785 148.914C318.895 148.921 319.001 148.95 319.099 149C319.283 149.086 319.433 149.232 319.523 149.413C319.614 149.595 319.641 149.801 319.599 150C316.699 167.7 317.699 178 317.699 178Z" fill="black"/>
<path d="M368.098 87.6001C360.998 90.0001 351.598 89.9001 340.398 89.6001C329.198 89.3001 317.898 89.0001 299.398 102L302.398 106.3C319.498 94.2001 328.698 94.5001 340.298 94.8001C351.898 95.1001 360.098 95.2001 367.698 93.2001C367.798 91.3001 367.998 89.4001 368.098 87.6001Z" fill="#3442D9"/>
<path d="M362.698 190.5C362.921 190.501 363.136 190.42 363.302 190.273C363.468 190.125 363.574 189.921 363.598 189.7C363.798 173.6 357.698 157.2 355.098 150.9C352.369 144.411 350.714 137.521 350.198 130.5C349.398 121.4 347.498 114.3 346.298 111.5L349.698 84.7002H347.898L344.498 111.8V112C345.598 114.4 347.598 121.5 348.398 130.7C348.926 137.88 350.58 144.933 353.298 151.6C355.998 157.8 361.998 173.9 361.798 189.6C361.798 189.839 361.893 190.068 362.062 190.236C362.231 190.405 362.46 190.5 362.698 190.5Z" fill="black"/>
<path d="M420.499 346.5C420.143 345.972 419.668 345.534 419.112 345.222C418.557 344.91 417.936 344.731 417.299 344.7C417.899 341.1 417.199 338.1 412.499 337C407.073 335.83 401.444 336.001 396.099 337.5C386.899 313.9 368.699 251.7 355.999 206.3L314.799 197.9C314.399 209.2 321.799 234.1 327.199 255.5C332.599 276.9 344.499 321.7 347.799 337.9C349.799 347.7 352.699 359.4 352.699 359.4H390.899C402.099 359.4 416.499 355 419.299 352.8C422.099 350.6 421.499 348.3 420.499 346.5Z" fill="#2331B5"/>
<path d="M359.199 336.3C347.399 299.1 330.199 249.1 319.699 198.3" stroke="#3442D9" stroke-width="2" stroke-miterlimit="10"/>
<path d="M339.599 192.1C339.799 189.2 335.799 178.3 330.999 170.4C326.199 162.5 323.799 156.9 319.299 159.5C314.799 162.1 304.299 168.9 304.299 168.9C304.299 168.9 312.399 157.8 316.899 151.1C326.599 136.5 323.199 116.4 306.499 114.8C292.799 122.4 290.699 128.9 277.699 151.8C264.699 174.7 256.999 199.1 270.999 209.2C284.999 219.3 298.499 212.3 323.699 201.2C334.599 196.5 339.499 195.1 339.599 192.1Z" fill="#2331B5"/>
<path d="M323.9 199.7C321.1 198.4 318.6 194.2 315.6 185.6C310.6 171.1 309.3 166.7 312.4 163.7L310.5 164.9C310.051 165.171 309.677 165.552 309.415 166.006C309.152 166.461 309.01 166.975 309 167.5C308.9 171.3 310.8 176.9 314 186.2C316 192 317.8 195.9 319.7 198.3C320.423 199.316 321.476 200.05 322.679 200.379C323.882 200.707 325.162 200.608 326.3 200.1C325.479 200.18 324.651 200.042 323.9 199.7Z" fill="#3442D9"/>
<path d="M330.999 170.4C326.299 162.5 323.799 156.9 319.299 159.5C314.799 162.1 291.799 176.6 291.799 176.6" stroke="black" stroke-width="2" stroke-miterlimit="10" stroke-linecap="round"/>
<path d="M382.698 112.9C379.61 92.1182 378.438 71.0963 379.198 50.1C379.221 49.4296 379.086 48.7632 378.805 48.1542C378.524 47.5451 378.104 47.0103 377.579 46.5925C377.054 46.1746 376.439 45.8853 375.783 45.7477C375.126 45.6101 374.447 45.628 373.798 45.8L348.898 52.8" stroke="#66BCFF" stroke-width="4" stroke-miterlimit="10" stroke-linecap="round"/>
<path d="M366.7 114.6C369.1 119.2 373.4 127.4 374.3 130.1C374.6 134.3 374.4 141.5 374.4 143.7C374.411 143.904 374.484 144.099 374.609 144.26C374.734 144.42 374.906 144.539 375.1 144.6C381.9 145.6 384.8 145.7 387.6 145.4C390.4 145.1 394.3 143.8 397 143C397.287 142.888 397.52 142.669 397.65 142.39C397.781 142.111 397.798 141.792 397.7 141.5C395.2 133.3 393.5 127.4 393.5 127.4C393 117.2 392.9 109.1 392.9 106.4C392.9 106.135 392.795 105.881 392.607 105.693C392.42 105.505 392.166 105.4 391.9 105.4C382.6 104.8 379.4 104.8 376 105C372.6 105.2 371.5 107.2 366.8 112.8C366.591 113.049 366.468 113.359 366.45 113.683C366.432 114.008 366.52 114.33 366.7 114.6Z" fill="white"/>
<path d="M396.698 142.2C396.698 142.2 397.798 142.6 396.998 143C397.285 142.888 397.518 142.669 397.648 142.39C397.779 142.111 397.796 141.792 397.698 141.5C395.198 133.3 393.498 127.4 393.498 127.4C392.998 117.2 392.898 109.1 392.898 106.4C392.898 106.135 392.793 105.881 392.605 105.693C392.418 105.505 392.164 105.4 391.898 105.4C382.598 104.8 379.398 104.8 375.998 105C375.275 105.049 374.566 105.218 373.898 105.5L382.698 124.1L382.098 141.2L396.698 142.2Z" fill="#FFE75C"/>
<path d="M383.199 141.7C384.899 147.8 386.399 152.1 390.199 152.9C393.999 153.7 398.499 149.8 404.299 144C410.099 138.2 408.099 133.3 405.599 128.7C403.099 124.1 402.699 118.3 399.599 115.9C395.762 113.078 391.639 110.665 387.299 108.7C383.799 107.2 381.699 107.2 376.399 113.2C371.099 119.2 367.999 122.7 368.899 125.1C369.799 127.5 371.299 130.1 371.299 130.1C368.899 132.5 368.899 134.5 369.899 137C370.899 139.5 371.299 141.8 376.399 141.8L383.199 141.7Z" fill="#FF78B9"/>
<path d="M371.498 129L385.498 115.8" stroke="black" stroke-width="2" stroke-miterlimit="10" stroke-linecap="round"/>
<path d="M384.298 134.2C381.154 136.184 377.88 137.954 374.498 139.5C374.398 141.4 374.398 142.9 374.398 143.7C374.409 143.904 374.482 144.099 374.607 144.26C374.733 144.42 374.904 144.539 375.098 144.6C381.898 145.6 384.798 145.7 387.598 145.4C390.398 145.1 394.298 143.8 396.998 143C397.285 142.888 397.518 142.669 397.648 142.39C397.779 142.111 397.796 141.792 397.698 141.5L397.098 139.5C392.635 138.252 388.337 136.473 384.298 134.2Z" fill="white"/>
<path d="M397.1 139.5C392.637 138.252 388.339 136.473 384.3 134.2L382.3 135.5L382.1 141C382.125 141.069 382.165 141.132 382.217 141.183C382.269 141.235 382.331 141.275 382.4 141.3L396.7 142.2C396.7 142.2 397.8 142.6 397 143C397.299 142.892 397.548 142.679 397.7 142.4C397.7 142.3 397.8 142.1 397.8 142C397.816 141.827 397.781 141.654 397.7 141.5L397.1 139.6V139.5Z" fill="#FFE75C"/>
<path d="M322.799 162C325.945 158.337 328.264 154.04 329.599 149.4C330.599 146.4 331.699 142.1 332.099 140.5C332.499 138.9 334.399 138 336.699 138.5C338.999 139 339.999 139.4 339.599 143.5C339.199 147.6 338.299 157.3 338.299 157.3L322.799 162Z" fill="#FF78B9"/>
<path d="M368.799 164.4C367.299 160.3 366.599 158.2 365.299 156.5C363.999 154.8 362.799 154.5 356.999 154.2C354.699 154.1 350.299 154.2 347.399 154.3C353.099 152.8 359.199 151.5 360.499 151.1C361.799 150.7 364.399 150.3 363.499 147.8C362.599 145.3 361.799 144.7 360.399 144.7C356.811 144.631 353.225 144.933 349.699 145.6C344.554 146.608 339.503 148.046 334.599 149.9C331.699 151.1 327.999 156.5 322.799 162C325.099 170.1 330.599 182.5 336.199 188.4C343.599 185.5 347.999 179.1 349.799 176.7C359.099 175.1 362.299 176.1 367.499 176.8C370.699 177.2 370.999 174.9 371.199 173.8C371.399 172.7 370.099 168.2 368.799 164.4Z" fill="#FF78B9"/>
<path d="M292.798 58.2999C292.498 62.4999 293.898 65.9999 295.898 66.1999C297.898 66.3999 298.898 64.7999 298.998 60.8999C299.044 59.2513 299.245 57.6108 299.598 55.9999C300.298 52.4999 298.798 51.1999 297.098 51.0999C295.398 50.9999 293.098 54.1999 292.798 58.2999Z" fill="black"/>
<path d="M327.1 8.90013C329.175 8.46917 331.336 8.81049 333.178 9.86C335.019 10.9095 336.414 12.595 337.1 14.6001C338.6 19.3001 339.9 26.4001 331.9 27.7001C328.5 28.2001 325 26.7001 319.6 22.5001C315.7 19.4001 311.5 18.3001 302.4 23.0001C297.5 19.6001 299.9 10.9001 313.2 15.3001C307.4 7.80013 309.1 2.60013 313.3 1.10013C317.5 -0.399871 323.8 0.400132 327.1 8.90013Z" fill="#2A39D4"/>
<path d="M327.099 23.3001C324.199 19.7001 321.799 14.9001 319.799 10.8001C317.799 6.70009 315.799 2.4001 313.599 1.1001H313.299C312.513 1.37475 311.796 1.8185 311.199 2.4001L311.899 2.20009C313.799 2.40009 315.899 6.80009 318.199 11.5001C320.499 16.2001 322.699 20.6001 325.699 24.4001C326.707 25.5928 327.848 26.6664 329.099 27.6001C330.021 27.7827 330.967 27.8165 331.899 27.7001H331.999C330.157 26.484 328.506 25.0012 327.099 23.3001Z" fill="black"/>
<path d="M337.199 24.7003C336.77 25.3287 336.228 25.8714 335.599 26.3003C335.125 19.6614 332.16 13.4466 327.299 8.90029C328.052 8.71625 328.833 8.68226 329.599 8.80028C333.784 13.14 336.45 18.7183 337.199 24.7003Z" fill="black"/>
<path d="M347.398 335.7C347.498 336.5 347.698 337.2 347.798 337.9C349.798 347.7 352.698 359.4 352.698 359.4H390.898C402.098 359.4 416.498 355 419.298 352.8C422.098 350.6 421.498 348.3 420.498 346.5C420.141 345.972 419.667 345.534 419.111 345.222C418.556 344.909 417.935 344.731 417.298 344.7C417.898 341.1 417.198 338.1 412.498 337C407.072 335.829 401.443 336.001 396.098 337.5C394.698 333.8 392.998 329.2 391.198 323.9C374.398 323.6 357.298 322.2 347.398 335.7Z" fill="#45AAF7"/>
<path d="M347.398 335.7C347.498 336.5 347.698 337.2 347.798 337.9C349.798 347.7 352.698 359.4 352.698 359.4H390.898C402.098 359.4 416.498 355 419.298 352.8C422.098 350.6 421.498 348.3 420.498 346.5C420.141 345.972 419.667 345.534 419.111 345.222C418.556 344.909 417.935 344.731 417.298 344.7C417.898 341.1 417.198 338.1 412.498 337C407.072 335.829 401.443 336.001 396.098 337.5C394.698 333.8 392.998 329.2 391.198 323.9C374.398 323.6 357.298 322.2 347.398 335.7Z" fill="#45AAF7"/>
<path d="M396.099 337.5L394.799 337.8H394.599L383.699 340C383.524 339.768 383.42 339.49 383.399 339.2C382.577 336.372 382.14 333.445 382.099 330.5C381.999 324.4 378.799 323.8 373.299 323.9L373.599 323.2C374.338 321.262 375.656 319.598 377.374 318.435C379.091 317.272 381.125 316.667 383.199 316.7H392.299C392.832 316.707 393.356 316.829 393.837 317.058C394.318 317.287 394.744 317.616 395.085 318.025C395.427 318.433 395.677 318.91 395.817 319.423C395.958 319.937 395.986 320.475 395.899 321C394.799 325.7 394.499 331.5 395.599 335.8C395.706 336.383 395.873 336.953 396.099 337.5Z" fill="#8CD9FF"/>
<path d="M357.499 343.6C356.141 343.144 354.704 342.971 353.277 343.092C351.849 343.212 350.462 343.623 349.199 344.3C349.285 344.91 349.418 345.512 349.599 346.1C350.676 345.426 351.888 344.996 353.15 344.841C354.411 344.685 355.691 344.808 356.899 345.2C362.499 347.1 366.599 354.4 368.699 359.4H370.599C368.399 354.2 363.999 345.8 357.499 343.6Z" fill="#3F3F46"/>
<path d="M420.2 351.9L419.3 352.8C416.5 355 402.1 359.4 390.9 359.4H368.1V359C394.3 358.6 412.1 347.7 418.2 347.7C420.2 347.7 421.4 350.7 420.2 351.9Z" fill="black"/>
<path d="M395.1 138.1C396.525 140.012 398.579 141.358 400.9 141.9" stroke="black" stroke-width="2" stroke-miterlimit="10" stroke-linecap="round"/>
<path d="M351.198 130.4C350.203 130.405 349.242 130.039 348.502 129.373C347.763 128.708 347.298 127.79 347.198 126.8L346.398 117.7H348.198L353.498 126.4C353.722 126.806 353.837 127.263 353.832 127.727C353.828 128.19 353.704 128.645 353.473 129.047C353.242 129.449 352.911 129.784 352.513 130.021C352.114 130.258 351.662 130.389 351.198 130.4Z" fill="#FFE75C"/>
<path d="M306.498 114.8H316.298" stroke="black" stroke-width="2" stroke-miterlimit="10" stroke-linecap="round"/>
<path d="M362.199 228.4C360.999 224.1 359.199 218 359.199 218C367.24 212.757 374.894 206.942 382.099 200.6C382.099 200.6 373.799 219 370.099 236.1L362.199 228.4Z" fill="black"/>
<path d="M384.6 249.3L394.3 248.9" stroke="black" stroke-width="2" stroke-miterlimit="10" stroke-linecap="round"/>
<path d="M396.099 337.5L394.799 337.8H394.599C390.254 338.826 385.979 340.129 381.799 341.7H381.499C381.322 341.691 381.151 341.628 381.008 341.521C380.866 341.415 380.758 341.268 380.699 341.1C380.652 340.996 380.627 340.883 380.627 340.768C380.627 340.654 380.651 340.54 380.698 340.436C380.746 340.332 380.815 340.239 380.901 340.164C380.988 340.088 381.089 340.033 381.199 340L383.399 339.1C387.391 337.712 391.465 336.577 395.599 335.7C395.698 336.317 395.866 336.921 396.099 337.5Z" fill="black"/>
<path d="M369.1 165.2L368.8 164.4L368.4 163.4C359.7 162.5 350.6 161.9 341.7 162.8C341.582 162.813 341.468 162.85 341.363 162.907C341.259 162.964 341.167 163.042 341.093 163.135C341.019 163.227 340.964 163.334 340.931 163.448C340.898 163.562 340.887 163.682 340.9 163.8C340.913 163.918 340.95 164.033 341.007 164.137C341.065 164.241 341.142 164.333 341.235 164.407C341.328 164.482 341.434 164.537 341.548 164.57C341.662 164.603 341.782 164.613 341.9 164.6C350.9 163.6 360.2 164.3 369.1 165.2Z" fill="black"/>
<path d="M301.198 53.8003L295.398 56.6003L303.498 60.3003L301.198 53.8003Z" fill="white"/>
<path d="M420.2 351.9C420.8 351.1 420.1 350.6 418.2 350.6C412.1 350.6 394.3 359 368.1 359.4H352.7L351.6 355C363.6 355 376.7 354.8 388.9 350.9C401.1 347 409.2 343.7 417.3 344.7C417.937 344.731 418.558 344.909 419.113 345.222C419.669 345.534 420.143 345.972 420.5 346.5C421.042 347.311 421.306 348.276 421.252 349.25C421.198 350.224 420.829 351.154 420.2 351.9Z" fill="white"/>
<path d="M388.898 319.9H390.098C392.898 319.9 394.798 320 395.398 320.7C395.998 321.4 395.698 321.7 395.498 322.7C395.584 322.123 395.718 321.555 395.898 321C395.985 320.378 395.823 319.747 395.45 319.242C395.076 318.737 394.519 318.399 393.898 318.3H388.898C384.298 318.3 379.098 318.3 376.398 324.2C377.012 324.184 377.623 324.286 378.198 324.5C380.498 319.8 384.598 319.9 388.898 319.9Z" fill="#3442D9"/>
<path d="M351.198 48.3003C349.898 50.4003 347.598 52.8003 342.498 53.8003C349.498 53.0003 352.498 56.9003 352.498 56.9003" stroke="black" stroke-width="2" stroke-linecap="round" stroke-linejoin="round"/>
<path d="M220.9 359.4H154.4V345.4C154.389 341.782 155.788 338.303 158.3 335.7L164.9 329.3C165.746 328.503 166.421 327.542 166.885 326.477C167.35 325.411 167.593 324.262 167.6 323.1V307.1C167.608 303.896 168.699 300.789 170.696 298.284C172.693 295.778 175.479 294.022 178.6 293.3C189.3 290.6 200.4 290.1 209.5 291.9C212.721 292.567 215.613 294.323 217.689 296.873C219.766 299.424 220.9 302.611 220.9 305.9V359.4Z" fill="#45AAF7"/>
<path d="M171.5 332.6H171.9C172.057 332.609 172.213 332.577 172.354 332.506C172.494 332.436 172.613 332.331 172.7 332.2C175.7 326.4 175.7 317.4 175.7 307.8C175.7 298.2 176.6 294.6 183 292.2L179.6 292.9C178.723 293.098 177.901 293.488 177.192 294.041C176.484 294.594 175.906 295.297 175.5 296.1C174.1 298.9 173.9 302.6 173.9 307.8C173.9 317.2 173.9 326 171.1 331.4C171.033 331.501 170.989 331.617 170.972 331.738C170.956 331.859 170.968 331.982 171.006 332.098C171.045 332.214 171.109 332.319 171.195 332.406C171.281 332.493 171.385 332.56 171.5 332.6Z" fill="#BAE8FF"/>
<path d="M220.901 305.9C220.895 302.597 219.747 299.399 217.651 296.847C215.554 294.295 212.639 292.547 209.401 291.9C204.053 290.98 198.617 290.678 193.2 291C180.4 291.9 182.301 300 182.301 311.8V321.9C182.306 325.275 181.409 328.59 179.7 331.5C177.8 334.6 177.301 338.4 177.301 345.8V359.4H220.901V305.9Z" fill="#3F99F2"/>
<path d="M204.9 343.3C204.3 325.9 196.4 310.7 188.4 296.2C188.196 295.912 188.076 295.573 188.053 295.221C188.031 294.869 188.107 294.517 188.273 294.205C188.439 293.894 188.689 293.635 188.994 293.457C189.299 293.28 189.648 293.191 190 293.2H192C192.42 293.223 192.828 293.344 193.192 293.552C193.557 293.76 193.868 294.051 194.1 294.4C202.3 309.5 210.9 325.2 211.5 343.3C211.8 352.4 204.9 359.4 195.7 359.4H189.1C198.3 359.4 205.2 352.4 204.9 343.3Z" fill="#18181B"/>
<path d="M223.701 343.3C223.101 325.9 215.101 310.7 207.201 296.2C206.997 295.912 206.877 295.573 206.854 295.221C206.831 294.869 206.908 294.517 207.074 294.205C207.24 293.894 207.489 293.635 207.795 293.457C208.1 293.28 208.449 293.191 208.802 293.2H210.802C211.209 293.214 211.607 293.331 211.957 293.541C212.307 293.751 212.598 294.047 212.802 294.4C221.102 309.5 229.602 325.2 230.302 343.3C230.399 345.415 230.058 347.527 229.303 349.504C228.547 351.481 227.392 353.281 225.909 354.792C224.426 356.303 222.648 357.492 220.685 358.285C218.723 359.078 216.618 359.457 214.501 359.4H207.901C210.018 359.457 212.123 359.078 214.085 358.285C216.048 357.492 217.826 356.303 219.309 354.792C220.792 353.281 221.947 351.481 222.703 349.504C223.459 347.527 223.798 345.415 223.701 343.3Z" fill="#18181B"/>
<path d="M207.4 316.3L227.7 319.8C229.3 324 230.1 326.8 230.3 329.5C230.5 332.2 227.9 333.7 223.9 335.3C221.029 336.499 218.389 338.192 216.1 340.3C210.3 345.4 205.4 348.5 196.9 348.5C195.2 348.5 194 348.6 193 347.5C191.938 346.304 191.31 344.784 191.22 343.187C191.129 341.59 191.58 340.009 192.5 338.7C193.528 337.305 194.778 336.089 196.2 335.1C199.222 333.14 201.775 330.537 203.676 327.478C205.578 324.419 206.781 320.978 207.2 317.4C207.3 316.9 207.3 316.6 207.4 316.3Z" fill="#DE3A93"/>
<path d="M223.9 335.3C225.586 334.669 227.169 333.793 228.599 332.7C230.499 330.9 229.699 329.2 225.599 329.3C221.499 329.4 217.199 332.6 208.599 337.9C199.999 343.2 187.2 348.5 196.9 348.5C206.6 348.5 210.299 345.4 216.099 340.3C218.388 338.192 221.028 336.499 223.9 335.3Z" fill="black"/>
<path d="M205.201 310.2C203.701 310.5 203.901 312.2 204.701 313.9C203.101 316.9 204.102 318.1 206.902 319.3C212.559 321.224 218.535 322.038 224.502 321.7C230.602 321.1 230.201 319.1 229.601 317.1C231.701 315.3 231.402 313.2 229.302 312.3C227.202 311.4 215.901 307.9 205.201 310.2Z" fill="#66BCFF"/>
<path d="M250.301 205.8H224.1V220.09H250.301V205.8Z" fill="white"/>
<path d="M303.6 206.1C304.101 208.132 304.133 210.252 303.693 212.298C303.254 214.345 302.354 216.264 301.063 217.912C299.772 219.559 298.123 220.892 296.241 221.808C294.359 222.724 292.294 223.2 290.2 223.2H261.6L248.2 230.7V230.3C242.1 230.3 238.601 228.3 241.301 205.9C240.101 199.6 234.501 174.8 231.401 156.3C228.601 139.4 234.901 133.2 252.301 123.4C259.701 101.4 278.9 102.7 282.6 115.9C286.3 129.1 298.5 185.2 303.6 206.1Z" fill="#66BCFF"/>
<path d="M249.901 237.8L245.301 238.6C245.076 238.644 244.863 238.737 244.676 238.871C244.49 239.004 244.335 239.177 244.221 239.376C244.107 239.575 244.037 239.796 244.017 240.025C243.996 240.253 244.024 240.484 244.101 240.7L245.101 243.2C231.201 244 219.101 245.2 214.301 249.4C209.501 253.6 209.501 260 207.301 279.1C205.101 298.2 201.501 309.6 207.301 312.2C213.189 314.728 219.63 315.693 226.001 315C232.401 314.4 233.001 311.1 234.301 301.2C235.601 291.3 238.7 269.3 238.7 269.3H289.2C301.7 269.3 309.101 261.1 310.801 254.1C312.001 249.1 310.401 237.3 307.501 223.3H261.601L248.2 230.8L249.2 235.1L249.901 237.8Z" fill="#3442D9"/>
<path d="M292 223.5C297 248.5 298 267.3 279 275.9" stroke="#2330BF" stroke-width="2" stroke-miterlimit="10"/>
<path d="M252.7 210.9C252.7 210.9 254.8 223.2 257.7 237.8C261 254.6 260.1 254 237.2 255.5C217.1 256.8 218.9 255.8 214.7 278.7C213.1 287.7 210.3 304 211.1 313C211.1 313 210.2 318.3 210.4 319.4" stroke="#2467D4" stroke-width="2" stroke-linecap="round" stroke-linejoin="round"/>
<path d="M238.699 269.3C227.599 267.6 222.199 257.6 222.199 257.6" stroke="black" stroke-width="2" stroke-linecap="round" stroke-linejoin="round"/>
<path d="M238.7 269.3C236.429 267.962 234.445 266.185 232.866 264.073C231.287 261.962 230.143 259.557 229.5 257" stroke="black" stroke-width="2" stroke-linecap="round" stroke-linejoin="round"/>
<path d="M303.6 206.1C301 195.3 296.4 175.3 292.1 156.6L269.7 154.9L252.401 167.1L242.401 180.5L237.301 187.4C239.101 196 240.6 203 241.2 206C238.5 228.4 242 230.4 248.1 230.4L265.801 222.9L306.801 220C305.801 215.5 304.7 210.8 303.6 206.1Z" fill="#EB459F"/>
<path d="M257.769 194.842C259.03 187.382 258.376 181.05 256.306 180.7C254.237 180.35 251.537 186.114 250.275 193.575C249.013 201.035 249.668 207.366 251.737 207.716C253.806 208.066 256.507 202.302 257.769 194.842Z" fill="black"/>
<path d="M244.699 176.3C245.699 174.5 246.8 172.7 247.9 171.1C259.2 154.8 269.799 150.4 279.999 150.4H292.699C292.889 150.405 293.074 150.455 293.241 150.545C293.407 150.635 293.55 150.764 293.657 150.92C293.764 151.076 293.833 151.255 293.858 151.443C293.883 151.631 293.863 151.822 293.8 152L292.099 156.6C272.599 156.6 265.699 156 249.499 173L242.4 180.5L244.699 176.3Z" fill="#D11583"/>
<path d="M306.801 220H273.7C266.3 220 257.2 219.6 248.1 230.4L249.2 235.1C254.5 230 259.4 227.8 270 227.8H308.401L306.801 220Z" fill="black"/>
<path d="M249.501 173.6C242.801 174.8 237.501 178.3 234.501 184.5C233.649 186.22 232.419 187.724 230.901 188.9L212.901 202C210.878 203.436 209.468 205.579 208.949 208.005C208.431 210.431 208.842 212.963 210.101 215.1C210.979 216.6 212.236 217.842 213.745 218.702C215.255 219.562 216.964 220.01 218.701 220H226.201C241.801 211.3 249.001 205.4 252.701 202C256.401 198.6 260.501 192.5 259.801 185.5C259.101 178.5 257.101 172.2 249.501 173.6Z" fill="white"/>
<path d="M255.101 121.9C252.701 117.9 249.501 112.6 248.301 110.1C247.101 107.6 244.201 108.2 248.301 119.4C238.301 115.6 236.201 117 235.701 118.4C235.201 119.8 237.401 120.5 241.601 122.9C245.801 125.3 250.301 128.2 250.301 128.2L255.101 121.9Z" fill="#66BCFF"/>
<path d="M265.5 122.2C267.2 120.1 267.801 117.8 266.801 117C265.801 116.2 264.7 116.6 263.2 118.6C262.553 119.413 261.852 120.182 261.1 120.9C259.4 122.5 259.8 123.7 260.6 124.4C261.4 125.1 263.8 124.3 265.5 122.2Z" fill="black"/>
<path d="M282.5 116C282.5 116 270.6 110.6 265.5 107.3C260.4 104 257.8 99.1 260.1 97.8C262.4 96.5 266.801 99.6 269.901 103.6C269.801 96.5 271.001 95.0001 272.901 94.9001C274.801 94.8001 275 97.6 275.1 101.6C275.2 105.6 275.901 107.2 278.901 109.9C280.697 111.517 281.953 113.646 282.5 116Z" fill="#3442D9"/>
<path d="M238.8 149.2C236 149.2 233.6 146.8 235.8 142.6C238 138.4 245.199 134.2 248.699 132.6C252.199 131 253.8 132.6 253.9 133.8C254 135 253.499 136.8 250.999 140C248.499 143.2 243.9 149.2 238.8 149.2Z" fill="white"/>
<path d="M240.999 148.9L239.3 149.2L236.9 141L238.3 139.5L240.999 148.9Z" fill="#8CD9FF"/>
<path d="M247.2 144.5L245.801 145.9L243 135.8L244.5 134.8L247.2 144.5Z" fill="#8CD9FF"/>
<path d="M252.801 137.5L251.5 139.3L249.5 132.3L251.2 132L252.801 137.5Z" fill="#8CD9FF"/>
<path d="M250.6 131.1C252.451 131.984 254.355 132.753 256.301 133.4" stroke="black" stroke-width="2" stroke-linecap="round" stroke-linejoin="round"/>
<path d="M248.1 242.5L259.1 255.9" stroke="black" stroke-width="2" stroke-linecap="round" stroke-linejoin="round"/>
<path d="M256.7 238.5H252.801L251.6 233L250.5 227.9C251.513 226.907 252.582 225.972 253.7 225.1L255 230.7L256.7 238.5Z" fill="#3442D9"/>
<path d="M274 233.2H270.1L268.901 227.8L267.301 220.2H271.2L272.801 227.9L274 233.2Z" fill="#3442D9"/>
<path d="M305.9 233H301.999L300.8 227.8L299.199 220H303.099L304.699 227.8L305.9 233Z" fill="#3442D9"/>
<path d="M295.2 169.8C293.286 168.282 290.941 167.407 288.501 167.3C283.301 167.3 280.401 172.4 279.401 177.3C279.24 178.086 278.815 178.792 278.196 179.302C277.577 179.812 276.802 180.093 276.001 180.1H275.301C274.85 180.017 274.42 179.844 274.038 179.59C273.655 179.337 273.328 179.009 273.076 178.626C272.824 178.243 272.651 177.813 272.57 177.362C272.488 176.91 272.499 176.447 272.601 176C274.501 166.5 280.701 160.4 288.501 160.4C289.791 160.416 291.038 160.87 292.038 161.688C293.037 162.505 293.729 163.638 294.001 164.9L295.2 169.8Z" fill="white"/>
<path d="M303.6 206.1C303.821 206.994 303.857 207.924 303.707 208.832C303.557 209.741 303.225 210.61 302.729 211.386C302.233 212.162 301.585 212.829 300.824 213.347C300.063 213.866 299.204 214.224 298.301 214.4L295.801 214.6C290.101 214.6 284.2 211.2 279.6 205.3C279.325 204.932 279.124 204.514 279.01 204.069C278.896 203.623 278.871 203.16 278.936 202.705C279.001 202.25 279.155 201.812 279.389 201.417C279.623 201.021 279.933 200.676 280.301 200.4C280.663 200.111 281.081 199.899 281.528 199.777C281.975 199.656 282.443 199.627 282.902 199.692C283.361 199.758 283.801 199.916 284.197 200.159C284.592 200.401 284.934 200.721 285.2 201.1C288.4 205.2 292.301 207.7 295.801 207.7C299.301 207.7 301.401 205.7 302.901 203.1C303.101 204.2 303.4 205.2 303.6 206.1Z" fill="#2331B5"/>
<path d="M296.9 177.5C296.194 177.504 295.507 177.727 294.933 178.139C294.36 178.551 293.929 179.132 293.7 179.8L289.5 191.1C289.133 192.161 289.141 193.316 289.523 194.372C289.906 195.428 290.639 196.32 291.6 196.9C292.035 197.167 292.525 197.334 293.032 197.386C293.54 197.439 294.053 197.376 294.534 197.203C295.014 197.03 295.449 196.751 295.807 196.387C296.165 196.023 296.436 195.583 296.6 195.1L299.301 187.8C298.601 184.5 297.8 181.1 296.9 177.5Z" fill="#3F3F46"/>
<path d="M291.6 196.9C290.639 196.32 289.906 195.428 289.523 194.372C289.141 193.316 289.133 192.161 289.5 191.1L290.7 188C290.901 187.459 291.217 186.968 291.625 186.56C292.034 186.153 292.526 185.839 293.067 185.639C293.609 185.44 294.187 185.36 294.763 185.405C295.338 185.45 295.897 185.619 296.4 185.9C297.223 186.381 297.853 187.132 298.181 188.027C298.509 188.921 298.516 189.901 298.2 190.8L296.6 195.1C296.436 195.583 296.165 196.023 295.807 196.387C295.449 196.751 295.014 197.03 294.534 197.203C294.053 197.376 293.54 197.439 293.032 197.386C292.525 197.334 292.035 197.168 291.6 196.9Z" fill="#FFE75C"/>
<path d="M238.6 212.9C235.398 215.126 231.8 216.721 228 217.6" stroke="#A3D7FF" stroke-width="2" stroke-linecap="round" stroke-linejoin="round"/>
<path d="M277.301 359.4H259.801C249.101 359.4 239.2 350.8 237.7 340.2C236.2 329.6 243.001 324 254.501 321.5L256.501 321C258.12 320.661 259.549 319.717 260.497 318.361C261.445 317.004 261.839 315.337 261.601 313.7C261.406 312.107 260.677 310.626 259.533 309.5C258.389 308.374 256.897 307.669 255.301 307.5L252.401 307.2C240.001 305.9 231.801 298.6 230.301 288C228.801 277.4 236.201 269.3 246.601 269.3H264.101C274.801 269.3 284.7 277.9 286.2 288.5L293.601 340.7C295.001 351 287.701 359.4 277.301 359.4Z" fill="#ADB4FF"/>
<path d="M297.601 359.4H280.101C269.401 359.4 259.501 350.8 258.001 340.2C257.392 336.299 258.236 332.311 260.375 328.992C262.514 325.673 265.797 323.256 269.601 322.2C271.005 321.823 272.221 320.941 273.014 319.723C273.808 318.505 274.124 317.037 273.901 315.6L273.401 311.8C273.21 310.591 272.659 309.468 271.821 308.576C270.983 307.685 269.896 307.066 268.701 306.8C259.601 304.9 251.901 297.2 250.601 288C249.301 278.8 256.501 269.3 266.901 269.3H284.401C295.101 269.3 305.001 277.9 306.501 288.5L313.901 340.7C315.301 351 308.001 359.4 297.601 359.4Z" fill="white"/>
<path d="M293.2 286.9C293.273 287.4 293.236 287.909 293.093 288.393C292.949 288.878 292.703 289.325 292.37 289.705C292.038 290.085 291.627 290.389 291.166 290.595C290.705 290.801 290.205 290.905 289.7 290.9H271.301C270.189 290.869 269.123 290.454 268.284 289.724C267.445 288.994 266.885 287.996 266.7 286.9V286.3C266.609 285.811 266.63 285.307 266.761 284.827C266.892 284.347 267.13 283.903 267.457 283.528C267.784 283.153 268.192 282.856 268.65 282.661C269.107 282.466 269.603 282.377 270.1 282.4H288.6C289.697 282.426 290.752 282.828 291.589 283.537C292.426 284.247 292.995 285.222 293.2 286.3V286.9Z" fill="#66BCFF"/>
<path d="M285.2 294.3C285.289 294.794 285.267 295.302 285.137 295.786C285.006 296.271 284.769 296.72 284.444 297.103C284.119 297.485 283.714 297.791 283.257 297.998C282.8 298.205 282.302 298.308 281.801 298.3H281.301C280.189 298.269 279.123 297.854 278.284 297.124C277.445 296.395 276.885 295.396 276.7 294.3L274.501 278.9C274.426 278.405 274.463 277.9 274.607 277.42C274.75 276.941 274.998 276.499 275.333 276.126C275.667 275.754 276.079 275.46 276.541 275.265C277.002 275.07 277.5 274.98 278.001 275H278.501C279.598 275.026 280.653 275.428 281.49 276.137C282.327 276.847 282.895 277.822 283.1 278.9L285.2 294.3Z" fill="#66BCFF"/>
<path d="M287.502 317.5C287.529 317.705 287.515 317.913 287.458 318.112C287.402 318.311 287.305 318.496 287.173 318.656C287.042 318.816 286.879 318.947 286.694 319.04C286.51 319.134 286.308 319.188 286.101 319.2H285.802C285.342 319.164 284.907 318.979 284.564 318.671C284.221 318.364 283.988 317.953 283.902 317.5L283.002 311.1C282.971 310.891 282.987 310.679 283.05 310.477C283.113 310.276 283.221 310.092 283.365 309.938C283.509 309.784 283.686 309.665 283.883 309.589C284.08 309.513 284.291 309.483 284.502 309.5H284.701C285.157 309.494 285.6 309.653 285.949 309.947C286.298 310.24 286.53 310.65 286.601 311.1L287.502 317.5Z" fill="#ADB4FF"/>
<path d="M287.101 337.7C286.004 337.674 284.95 337.272 284.113 336.563C283.276 335.853 282.707 334.878 282.502 333.8V333.2C282.41 332.711 282.431 332.207 282.562 331.727C282.693 331.247 282.931 330.803 283.258 330.428C283.585 330.053 283.993 329.756 284.451 329.561C284.908 329.366 285.404 329.277 285.902 329.3H286.402C287.485 329.321 288.529 329.709 289.364 330.399C290.199 331.088 290.776 332.041 291.002 333.1V333.8C291.076 334.295 291.039 334.8 290.895 335.28C290.752 335.759 290.504 336.201 290.169 336.574C289.835 336.946 289.423 337.24 288.961 337.435C288.5 337.63 288.002 337.72 287.502 337.7H287.101Z" fill="#66BCFF"/>
<path d="M289.699 352.6H289.199C288.097 352.593 287.032 352.198 286.191 351.485C285.351 350.772 284.787 349.786 284.599 348.7V347.8C284.557 347.32 284.616 346.837 284.774 346.382C284.932 345.928 285.185 345.511 285.516 345.162C285.847 344.812 286.248 344.536 286.694 344.353C287.139 344.17 287.618 344.084 288.099 344.1H288.599C289.683 344.121 290.726 344.509 291.562 345.198C292.397 345.888 292.974 346.84 293.199 347.9V348.6C293.29 349.103 293.266 349.619 293.13 350.111C292.994 350.603 292.748 351.058 292.412 351.442C292.076 351.827 291.658 352.13 291.188 352.331C290.718 352.531 290.21 352.623 289.699 352.6Z" fill="#FF78B9"/>
<path d="M287.601 337.7H287.101C286.004 337.674 284.95 337.272 284.113 336.563C283.276 335.853 282.707 334.878 282.502 333.8V333.2C282.41 332.711 282.431 332.207 282.562 331.727C282.693 331.247 282.931 330.803 283.258 330.428C283.585 330.053 283.993 329.756 284.451 329.561C284.908 329.366 285.404 329.277 285.902 329.3H286.402C287.485 329.321 288.529 329.709 289.364 330.399C290.199 331.088 290.776 332.041 291.002 333.1V333.8C291.074 334.287 291.04 334.783 290.902 335.255C290.764 335.727 290.525 336.164 290.201 336.534C289.878 336.905 289.478 337.201 289.029 337.403C288.581 337.604 288.093 337.705 287.601 337.7Z" fill="#3F3F46"/>
<path d="M297.101 345.1C296.004 345.074 294.95 344.672 294.113 343.963C293.276 343.253 292.707 342.278 292.502 341.2V340.6C292.41 340.111 292.431 339.607 292.562 339.127C292.693 338.647 292.931 338.203 293.258 337.828C293.585 337.453 293.993 337.156 294.451 336.961C294.908 336.766 295.404 336.677 295.902 336.7H296.402C297.485 336.721 298.529 337.109 299.364 337.799C300.199 338.488 300.776 339.441 301.002 340.5V341.2C301.093 341.689 301.072 342.193 300.941 342.673C300.81 343.153 300.572 343.597 300.245 343.972C299.918 344.347 299.51 344.644 299.052 344.839C298.595 345.034 298.099 345.124 297.601 345.1H297.101Z" fill="#66BCFF"/>
<path d="M297.601 345.1H297.101C296.004 345.074 294.95 344.672 294.113 343.963C293.276 343.253 292.707 342.278 292.502 341.2V340.6C292.41 340.111 292.431 339.607 292.562 339.127C292.693 338.647 292.931 338.203 293.258 337.828C293.585 337.453 293.993 337.156 294.451 336.961C294.908 336.766 295.404 336.677 295.902 336.7H296.402C297.485 336.721 298.529 337.109 299.364 337.799C300.199 338.488 300.776 339.441 301.002 340.5V341.2C301.093 341.689 301.072 342.193 300.941 342.673C300.81 343.153 300.572 343.597 300.245 343.972C299.918 344.347 299.51 344.644 299.052 344.839C298.595 345.034 298.099 345.124 297.601 345.1Z" fill="#3F3F46"/>
<path d="M279.701 345.3H279.101C278.002 345.265 276.949 344.846 276.127 344.115C275.305 343.384 274.765 342.388 274.601 341.3V340.4C274.543 339.926 274.589 339.445 274.735 338.99C274.881 338.535 275.124 338.117 275.447 337.765C275.77 337.413 276.165 337.136 276.606 336.952C277.047 336.768 277.524 336.682 278.001 336.7H278.601C279.681 336.749 280.713 337.16 281.529 337.868C282.346 338.576 282.9 339.538 283.101 340.6V341.2C283.207 341.701 283.198 342.22 283.075 342.717C282.952 343.214 282.718 343.677 282.392 344.071C282.065 344.465 281.653 344.781 281.187 344.994C280.721 345.206 280.213 345.311 279.701 345.3Z" fill="#FF78B9"/>
<path d="M117.401 339.4L107.701 334C115.315 321.461 123.698 309.404 132.801 297.9C114.901 304.4 96.1008 312.5 75.3008 312.5H40.5008C38.4008 308.2 37.8008 303.8 37.8008 297.2L80.3008 281.7L96.4008 285L96.9008 289.6C112.301 285.7 128.201 281.2 139.701 278.5C154.201 275.1 159.101 282.4 150.701 294.6C134.501 318.2 117.401 339.4 117.401 339.4Z" fill="#29CC7A"/>
<path d="M50.0996 293.2C50.0996 301.7 50.0996 307.7 54.1996 311.1C55.1859 311.995 56.4681 312.493 57.7996 312.5H61.9996C51.7996 310.8 51.7996 305.3 51.8996 293.2V292.4C51.8996 292.3 51.7996 292.2 51.7996 292.1L50.0996 292.7V293.2Z" fill="#15AD75"/>
<path d="M117.4 334.9C133 314.3 143 300 147.2 293.3C151.4 286.6 152.8 282.4 131.6 289.6C110.4 296.8 94.3003 303.3 89.6003 301.5C84.9003 299.7 86.6004 294.9 86.9004 286.4" stroke="#15AD75" stroke-width="2" stroke-linecap="round" stroke-linejoin="round"/>
<path d="M55.0009 237.8C47.8316 226.764 41.9277 214.957 37.4009 202.6C36.7607 200.545 36.6172 198.368 36.9823 196.247C37.3474 194.126 38.2105 192.122 39.5009 190.4C46.8009 181.6 56.4008 176.9 69.2008 174.7C70.5943 174.546 71.9929 174.941 73.1008 175.8C88.3008 189.1 92.8009 204.1 95.4009 218.7C95.4666 219.543 95.3175 220.388 94.9678 221.158C94.618 221.927 94.079 222.595 93.4009 223.1C85.9009 227.7 81.9009 229.1 81.9009 229.1L83.4009 240.2L55.0009 237.8Z" fill="#FFE75C"/>
<path d="M69.5 200.5C76.9935 201.196 84.4396 202.331 91.8 203.9L95.9 205C96.0512 205.042 96.1889 205.123 96.2993 205.234C96.4097 205.345 96.489 205.484 96.5294 205.635C96.5698 205.787 96.57 205.947 96.5298 206.098C96.4895 206.25 96.4103 206.388 96.3 206.5L95.4 207.3L97 213.5C97.5174 215.396 97.385 217.412 96.6238 219.224C95.8626 221.036 94.5165 222.542 92.8 223.5L89.1 225.6L69.5 200.5Z" fill="#FFE75C"/>
<path d="M72.706 207.868C74.6084 206.541 74.2294 202.711 71.8595 199.314C69.4896 195.916 66.0262 194.238 64.1238 195.565C62.2214 196.893 62.6004 200.722 64.9703 204.12C67.3402 207.517 70.8036 209.195 72.706 207.868Z" fill="#FF78B9"/>
<path d="M84.5 194C83.3 192.9 82 192.6 81.5 193.1C81 193.6 81.3 194.4 82.4 195.2L83.6999 196.5C84.5999 197.5 85.2999 197.3 85.6999 196.8C86.0999 196.3 85.7 195 84.5 194Z" fill="black"/>
<path d="M44.7997 185.1C43.1997 169 44.7996 163.6 48.1996 158.9C51.5996 154.2 53.5996 155.6 52.9996 161.8C52.6357 166.661 52.6691 171.544 53.0996 176.4C56.0574 168.824 60.3599 161.846 65.7997 155.8C67.4112 153.846 69.5703 152.418 71.9996 151.7C74.3996 151.1 75.6996 152.5 74.9996 154.8C73.7996 158.7 70.8996 164.9 63.0996 176L63.8996 180.4L44.7997 185.1Z" fill="#FFE75C"/>
<path d="M91.4995 247.3C99.9995 250.2 93.9995 276.8 93.9995 276.8L95.1994 277.7C96.1811 278.451 96.8756 279.516 97.1668 280.717C97.458 281.918 97.3284 283.183 96.7995 284.3L96.3995 285C90.4995 285 86.5994 285.5 78.5994 291.2C70.5994 296.9 65.4995 297.2 57.2995 297.2H37.7995V290.6C30.4995 287.7 29.8994 284.2 32.6994 279.7C34.1994 277.1 36.5995 273.5 38.3995 270.8C39.0904 269.768 39.5698 268.609 39.8101 267.39C40.0504 266.171 40.0468 264.917 39.7995 263.7C38.1995 255.1 39.4995 250 39.4995 250L60.6994 244.3L87.5994 243.2L91.4995 247.3Z" fill="#2331B5"/>
<path d="M90.873 271.794C93.436 271.116 94.3357 266.109 92.8826 260.609C91.4295 255.109 88.1738 251.2 85.6108 251.877C83.0478 252.554 82.148 257.562 83.6011 263.061C85.0542 268.561 88.31 272.471 90.873 271.794Z" fill="black"/>
<path d="M103.9 334.6C106.3 332.1 111.5 327.9 111.5 327.9C114.8 327.9 119.8 328.5 122 337.6L124.7 348.3C135 350.2 135.1 353.1 133.7 356.9V358.6C133.7 358.812 133.616 359.016 133.466 359.166C133.316 359.316 133.112 359.4 132.9 359.4H115.7L103.9 334.6Z" fill="white"/>
<path d="M132.9 359.4C133.112 359.4 133.316 359.316 133.466 359.166C133.616 359.016 133.7 358.812 133.7 358.6V356.9C126.9 356.9 121.9 357.6 119.4 353.2C116.717 347.876 114.347 342.4 112.3 336.8C111.4 334.2 109.5 331.1 106.6 332L103.9 334.6L115.7 359.4H132.9Z" fill="#FF78B9"/>
<path d="M125.601 359.4C123.792 359.428 122.006 358.992 120.413 358.134C118.82 357.277 117.474 356.026 116.501 354.5C112.801 348.9 110.501 342.2 109.101 338.1C107.701 334 103.201 332.4 102.801 337.6C102.401 342.8 105.101 346.8 109.301 357.2C109.533 357.858 109.968 358.425 110.543 358.821C111.118 359.216 111.803 359.419 112.501 359.4H125.601Z" fill="black"/>
<path d="M91.4991 247.3L107.299 252.7C108.899 230.6 115.599 224.3 123.399 206.7C128.999 194.2 131.599 188.5 132.699 186.3C132.859 185.933 133.126 185.622 133.465 185.408C133.803 185.194 134.199 185.087 134.599 185.1H135.199C135.506 185.099 135.809 185.162 136.09 185.284C136.371 185.407 136.623 185.587 136.83 185.813C137.037 186.039 137.195 186.306 137.293 186.597C137.391 186.887 137.427 187.195 137.399 187.5C136.404 193.407 134.83 199.202 132.699 204.8C137.399 201.6 139.499 201.6 141.699 204.9C147.099 202.1 149.099 202 150.999 206.2C152.899 210.4 152.599 211.2 151.599 214.6C150.599 218 149.099 218.3 146.799 218.3C146.799 241.5 145.299 250.2 134.399 265.8C124.699 279.7 124.199 278 110.999 273.8C103.399 271.4 95.8991 268.7 90.9991 266.8C88.1598 265.766 85.7737 263.768 84.2569 261.155C82.74 258.541 82.1886 255.478 82.699 252.5C83.599 248.3 86.3991 245.6 91.4991 247.3Z" fill="#FFE75C"/>
<path d="M91.4999 247.3C92.0388 246.663 92.5396 245.996 92.9999 245.3C93.2673 244.929 93.4522 244.505 93.5418 244.056C93.6315 243.608 93.624 243.145 93.5198 242.7C93.4155 242.254 93.2169 241.836 92.9375 241.474C92.658 241.112 92.3043 240.814 91.8999 240.6C64.5999 225.6 54.9999 223.8 39.9999 223.8C30.2999 223.8 30.7998 226.3 31.6998 230.9C24.7998 237.3 24.8998 239.5 29.6998 245.8C34.4998 252.1 35.9999 254.6 40.4999 254.6C44.9999 254.6 55.4998 254.7 64.6998 250C73.8998 245.3 78.2999 242.9 91.4999 247.3Z" fill="white"/>
<path d="M91.0995 202C79.9995 200.1 68.6995 198.9 68.5995 198.9C68.4864 198.886 68.3715 198.896 68.2626 198.93C68.1537 198.963 68.0533 199.02 67.9681 199.096C67.8828 199.172 67.8148 199.265 67.7685 199.369C67.7222 199.473 67.6986 199.586 67.6995 199.7C67.6692 199.924 67.7244 200.152 67.8542 200.337C67.9839 200.522 68.1786 200.652 68.3996 200.7C68.5996 200.7 80.3996 201.9 91.7996 203.9C91.5996 203.3 91.3995 202.7 91.0995 202Z" fill="black"/>
<path d="M68.7992 198.4C68.2053 199.263 67.6707 200.165 67.1992 201.1" stroke="black" stroke-width="2" stroke-linecap="round" stroke-linejoin="round"/>
<path d="M107.301 252.7L113.901 254.6" stroke="black" stroke-width="2" stroke-linecap="round" stroke-linejoin="round"/>
<path d="M50.4007 183.7C50.2983 184.077 50.1645 184.445 50.0007 184.8C49.9317 184.961 49.8216 185.102 49.6811 185.207C49.5407 185.312 49.3749 185.379 49.2007 185.4H48.9007C48.7909 185.367 48.6893 185.312 48.6029 185.236C48.5165 185.161 48.4472 185.068 48.3997 184.964C48.3523 184.86 48.3279 184.746 48.3281 184.632C48.3282 184.517 48.353 184.404 48.4007 184.3C48.5007 184 50.6007 177.8 52.5007 173.4C52.5809 173.222 52.7231 173.08 52.9007 173C52.9007 174.2 53.0007 175.3 53.1007 176.5C53.2007 177.7 51.0007 181.9 50.4007 183.7Z" fill="#FFC619"/>
<path d="M143.8 248C144.159 246.937 144.265 245.805 144.108 244.693C143.952 243.582 143.538 242.523 142.9 241.6C142.456 241.077 141.953 240.607 141.4 240.2C140.156 239.492 138.738 239.145 137.307 239.198C135.877 239.251 134.489 239.702 133.3 240.5C133.9 237.1 134.7 230.9 134.1 226.2C133.5 221.5 131.7 222.1 130.6 221.9C127.4 221.3 123 224.7 119.1 230.8C118.4 227.5 117.4 225.9 115.8 225.5C115.363 225.412 114.909 225.473 114.511 225.672C114.112 225.871 113.792 226.198 113.6 226.6L112.1 230.2C114.1 227.2 115.2 227.2 115.5 227.2C115.8 227.2 117.1 228 117.8 233.4C117.821 233.578 117.902 233.744 118.029 233.871C118.156 233.998 118.322 234.079 118.5 234.1C118.687 234.136 118.881 234.117 119.058 234.046C119.236 233.975 119.389 233.855 119.5 233.7C123.6 226.2 128 223.2 130.3 223.6C132.6 224 132.2 225.3 132.3 226.5C133.2 232.6 131.2 242.3 131.2 242.4C131.172 242.573 131.195 242.75 131.266 242.91C131.337 243.069 131.453 243.205 131.6 243.3C131.776 243.382 131.97 243.416 132.163 243.398C132.357 243.381 132.542 243.312 132.7 243.2C134.9 240.9 138.3 240.3 140.4 241.7C142.5 243.1 143.5 248.2 141.2 254.5C142.254 252.413 143.125 250.238 143.8 248Z" fill="#FFF4B3"/>
<path d="M127.199 207.1C130.599 205.2 131.799 204.1 134.799 207.1C138.799 205 139.599 205 141.799 208.2" stroke="#FFC619" stroke-width="2" stroke-linecap="round" stroke-linejoin="round"/>
<path d="M148.601 217.9C148.501 215.1 148.201 210.8 148.101 210.7C148.102 210.586 148.078 210.473 148.032 210.369C147.986 210.265 147.918 210.172 147.832 210.096C147.747 210.02 147.647 209.963 147.538 209.93C147.429 209.896 147.314 209.886 147.201 209.9C147.087 209.899 146.974 209.923 146.87 209.969C146.766 210.015 146.673 210.083 146.597 210.169C146.521 210.254 146.464 210.354 146.431 210.463C146.397 210.572 146.387 210.687 146.401 210.8C146.401 210.9 146.801 215.2 146.801 218C146.796 218.054 146.803 218.109 146.82 218.16C146.837 218.212 146.865 218.259 146.901 218.3H148.501L148.601 217.9Z" fill="black"/>
<path d="M149.7 214.5H147.5C147.382 214.5 147.265 214.477 147.156 214.432C147.046 214.386 146.947 214.32 146.864 214.236C146.78 214.153 146.714 214.054 146.668 213.944C146.623 213.835 146.6 213.718 146.6 213.6C146.625 213.379 146.73 213.175 146.896 213.027C147.063 212.88 147.278 212.799 147.5 212.8H149.7C149.922 212.799 150.137 212.88 150.303 213.027C150.47 213.175 150.575 213.379 150.6 213.6C150.6 213.718 150.577 213.835 150.531 213.944C150.486 214.054 150.42 214.153 150.336 214.236C150.253 214.32 150.154 214.386 150.044 214.432C149.935 214.477 149.818 214.5 149.7 214.5Z" fill="black"/>
<path d="M118.5 272.4C120.611 272.348 122.717 272.148 124.8 271.8" stroke="#FFC619" stroke-width="2" stroke-linecap="round" stroke-linejoin="round"/>
<path d="M54.5008 294.2C43.1008 292.8 38.0008 290.7 37.9008 290.7H37.8008V292.5C39.5008 293.1 44.6008 294.7 54.3008 296H54.4008C54.6232 296.001 54.8382 295.92 55.0043 295.773C55.1705 295.625 55.2761 295.421 55.3008 295.2C55.3147 295.082 55.305 294.962 55.2722 294.847C55.2394 294.733 55.1841 294.626 55.1097 294.533C55.0353 294.44 54.9432 294.363 54.8387 294.305C54.7342 294.248 54.6193 294.212 54.5008 294.2Z" fill="black"/>
<path d="M96.8992 289.6C94.3478 290.413 92.0432 291.858 90.1992 293.8" stroke="black" stroke-width="2" stroke-linecap="round" stroke-linejoin="round"/>
<path d="M133.699 297.9C137.74 296.112 141.65 294.04 145.399 291.7" stroke="black" stroke-width="2" stroke-linecap="round" stroke-linejoin="round"/>
<path d="M135.699 297L140.999 297.2" stroke="black" stroke-width="2" stroke-linecap="round" stroke-linejoin="round"/>
<path d="M32.5996 230.4C49.1996 228.8 60.9996 232.6 77.2996 239.9C60.9996 238.8 41.7996 238.2 41.7996 238.2" stroke="#BAE8FF" stroke-width="2" stroke-linecap="round" stroke-linejoin="round"/>
<path d="M28.1 312.5H94.7C95.6547 312.5 96.5705 312.879 97.2456 313.554C97.9207 314.23 98.3 315.145 98.3 316.1V359.4H24.5V316.1C24.5 315.145 24.8793 314.23 25.5544 313.554C26.2296 312.879 27.1452 312.5 28.1 312.5Z" fill="#8CD9FF"/>
<path d="M91.6996 312.5H94.6996C95.6543 312.5 96.5701 312.879 97.2452 313.554C97.9203 314.23 98.2996 315.145 98.2996 316.1V359.4H88.0996V316.1C88.0996 315.627 88.1927 315.159 88.3736 314.722C88.5545 314.286 88.8197 313.889 89.154 313.554C89.4883 313.22 89.8852 312.955 90.322 312.774C90.7588 312.593 91.2268 312.5 91.6996 312.5Z" fill="#45AAF7"/>
<path d="M34.3004 345.6H78.3004C79.0961 345.6 79.8591 345.916 80.4217 346.479C80.9843 347.041 81.3004 347.804 81.3004 348.6V359.4H31.4004V348.6C31.4 347.821 31.7023 347.073 32.2434 346.513C32.7846 345.953 33.5223 345.626 34.3004 345.6Z" fill="#45AAF7"/>
<path d="M36.3008 312.5V359.4" stroke="#3F3F46" stroke-width="2" stroke-miterlimit="10"/>
<path d="M76.1992 312.5V359.4" stroke="#3F3F46" stroke-width="2" stroke-miterlimit="10"/>
<path d="M78.7008 316.1H33.8008C32.4201 316.1 31.3008 317.219 31.3008 318.6V334.59C31.3008 335.971 32.4201 337.09 33.8008 337.09H78.7008C80.0815 337.09 81.2008 335.971 81.2008 334.59V318.6C81.2008 317.219 80.0815 316.1 78.7008 316.1Z" fill="black"/>
<path d="M87.1997 319.5C87.0645 319.484 86.9275 319.499 86.7988 319.543C86.6702 319.588 86.5533 319.661 86.457 319.757C86.3607 319.854 86.2876 319.97 86.243 320.099C86.1985 320.228 86.1836 320.365 86.1997 320.5C86.1997 320.765 86.3051 321.02 86.4927 321.207C86.6802 321.395 86.9345 321.5 87.1997 321.5H98.2998V319.5H87.1997Z" fill="#3F3F46"/>
<path d="M86.1997 324.8C86.1836 324.935 86.1985 325.072 86.243 325.201C86.2876 325.33 86.3607 325.446 86.457 325.543C86.5533 325.639 86.6702 325.712 86.7988 325.757C86.9275 325.801 87.0645 325.816 87.1997 325.8H98.2998V323.8H87.1997C86.9345 323.8 86.6802 323.905 86.4927 324.093C86.3051 324.28 86.1997 324.535 86.1997 324.8Z" fill="#3F3F46"/>
<path d="M86.1997 329.2C86.1997 329.465 86.3051 329.72 86.4927 329.907C86.6802 330.095 86.9345 330.2 87.1997 330.2H98.2998V328.2H87.1997C87.0645 328.184 86.9275 328.199 86.7988 328.243C86.6702 328.288 86.5533 328.361 86.457 328.457C86.3607 328.554 86.2876 328.671 86.243 328.799C86.1985 328.928 86.1836 329.065 86.1997 329.2Z" fill="#3F3F46"/>
<path d="M26.3 320.5C26.2775 320.758 26.1649 320.999 25.9821 321.182C25.7992 321.365 25.5577 321.477 25.3 321.5H24.5V319.5H25.3C25.5653 319.5 25.8195 319.605 26.0071 319.793C26.1946 319.98 26.3 320.235 26.3 320.5Z" fill="#3F3F46"/>
<path d="M26.3 324.8C26.3 325.065 26.1946 325.32 26.0071 325.507C25.8195 325.695 25.5653 325.8 25.3 325.8H24.5V323.8H25.3C25.5577 323.823 25.7992 323.935 25.9821 324.118C26.1649 324.301 26.2775 324.542 26.3 324.8Z" fill="#3F3F46"/>
<path d="M26.3 329.2C26.2775 329.458 26.1649 329.699 25.9821 329.882C25.7992 330.065 25.5577 330.178 25.3 330.2H24.5V328.2H25.3C25.5653 328.2 25.8195 328.305 26.0071 328.493C26.1946 328.68 26.3 328.935 26.3 329.2Z" fill="#3F3F46"/>
<path d="M65.9008 317.6H36.6008C35.8828 317.6 35.3008 318.182 35.3008 318.9V332.75C35.3008 333.468 35.8828 334.05 36.6008 334.05H65.9008C66.6188 334.05 67.2008 333.468 67.2008 332.75V318.9C67.2008 318.182 66.6188 317.6 65.9008 317.6Z" fill="#FFF4B3"/>
<path d="M78.3004 334.1H70.3004C69.8034 334.1 69.4004 334.503 69.4004 335V336.22C69.4004 336.717 69.8034 337.12 70.3004 337.12H78.3004C78.7975 337.12 79.2004 336.717 79.2004 336.22V335C79.2004 334.503 78.7975 334.1 78.3004 334.1Z" fill="#FF78B9"/>
<path d="M47.1005 319.5C47.1005 321.94 48.0699 324.28 49.7952 326.005C51.5205 327.731 53.8606 328.7 56.3006 328.7C58.7406 328.7 61.0806 327.731 62.8059 326.005C64.5313 324.28 65.5005 321.94 65.5005 319.5C65.4886 318.862 65.4217 318.226 65.3006 317.6H47.3006C47.1293 318.218 47.0617 318.86 47.1005 319.5Z" fill="#29CC7A"/>
<path d="M38 334.1H53C52.1496 332.903 51.025 331.927 49.7202 331.253C48.4154 330.58 46.9684 330.228 45.5 330.228C44.0316 330.228 42.5846 330.58 41.2798 331.253C39.975 331.927 38.8504 332.903 38 334.1Z" fill="#29CC7A"/>
</g>
<defs>
<clipPath id="clip0_105_1943">
<rect width="615" height="360" fill="white"/>
</clipPath>
</defs>
</svg>
