<svg width="407" height="224" viewBox="0 0 407 224" fill="none" xmlns="http://www.w3.org/2000/svg">
<g clip-path="url(#clip0_1_5474)">
<path d="M257.257 69.9737C269.069 52.1587 260.743 23.5966 229.663 27.4694C205.845 30.4708 185.319 45.2844 170.796 55.0633C152.4 67.4563 143.009 81.8826 82.0117 63.293C13.4627 42.283 -9.387 85.8523 11.7199 121.192C22.7575 139.588 16.6578 151.303 21.402 179.671C28.0826 219.949 83.2704 227.114 103.409 196.809C117.351 175.799 111.929 152.465 102.441 137.651C94.2111 125.065 93.1461 116.544 97.5998 104.635C102.054 92.7265 135.457 100.279 156.079 94.1788C176.702 88.0791 195.873 69.6832 202.36 84.1095C205.555 91.371 193.646 96.1152 197.616 111.994L227.727 125.936L263.26 112.187C263.26 112.187 265.003 103.28 258.225 92.9202C253.191 85.1745 251.738 81.3985 257.257 69.9737Z" fill="white"/>
<path d="M387.287 7.81481C369.375 5.39429 352.432 7.91163 338.489 11.8813C321.449 16.7223 308.959 23.7902 305.474 26.2107L321.159 39.9593L322.32 40.9275L335.101 52.1587L344.686 60.4852C346.307 58.5553 347.644 56.4035 348.656 54.0951C351.338 48.5946 352.508 42.4791 352.044 36.3769C352.528 36.0864 353.4 35.5055 354.755 34.8278C362.211 30.5677 381.671 19.9174 387.868 15.1732C388.933 14.3986 391.354 12.6558 391.354 11.0099C391.354 9.36394 389.998 8.20209 387.287 7.81481Z" fill="#0EC2BC"/>
<path d="M338.877 45.4779C339.826 42.9746 340.287 40.3122 340.232 37.6354C340.228 33.9627 338.886 30.4174 336.456 27.6629C340.813 21.2727 341.104 15.4635 338.489 11.8811C321.449 16.7221 308.959 23.79 305.474 26.2106L335.101 52.1585L344.686 60.4851C346.307 58.5552 347.644 56.4033 348.656 54.0949L338.877 45.4779Z" fill="#FFDAA2"/>
<path d="M354.755 34.8276C353.4 35.5053 352.529 36.0862 352.044 36.3767C351.694 33.0307 350.913 29.7439 349.721 26.5978C349.586 26.2365 349.59 25.8379 349.733 25.4797C349.877 25.1216 350.148 24.8298 350.495 24.6614C350.673 24.582 350.865 24.5391 351.059 24.5352C351.254 24.5313 351.447 24.5665 351.627 24.6388C351.808 24.711 351.972 24.8188 352.11 24.9558C352.249 25.0927 352.358 25.256 352.432 25.436C353.578 28.4626 354.358 31.6155 354.755 34.8276Z" fill="#008FB7"/>
<path d="M330.937 20.8855C330.061 23.6686 328.334 26.1068 326 27.8566C324.817 28.8031 323.44 29.4763 321.967 29.8279C320.494 30.1794 318.962 30.2005 317.479 29.8898C316.519 29.61 315.672 29.0339 315.059 28.2439C313.026 25.4361 314.575 20.6919 318.447 17.8841C322.32 15.0763 328.226 13.8176 330.453 16.6254C331.325 17.6904 331.325 19.2396 330.937 20.8855Z" fill="#FF78B9"/>
<path d="M330.938 20.8856C330.062 23.6687 328.335 26.1069 326 27.8567C324.818 28.8032 323.441 29.4764 321.968 29.8279C320.495 30.1795 318.962 30.2006 317.48 29.8899C316.802 27.4694 318.158 24.2743 320.965 22.1443L321.837 21.5633C323.265 20.7013 324.841 20.1105 326.484 19.8206C328.227 19.6269 329.873 19.8206 330.938 20.8856Z" fill="#FF2EA2"/>
<path d="M323.676 22.2411C325.227 22.2411 326.484 20.984 326.484 19.4333C326.484 17.8826 325.227 16.6255 323.676 16.6255C322.125 16.6255 320.868 17.8826 320.868 19.4333C320.868 20.984 322.125 22.2411 323.676 22.2411Z" fill="white"/>
<path d="M405.586 11.0098L400.551 15.754C399.663 16.5731 398.538 17.0894 397.337 17.2286C396.137 17.3678 394.923 17.1227 393.871 16.5286L389.998 14.2049C389.445 13.8872 388.969 13.452 388.603 12.9302C388.236 12.4083 387.989 11.8124 387.878 11.1845C387.768 10.5566 387.796 9.9121 387.961 9.29638C388.127 8.68066 388.425 8.10877 388.836 7.62106L391.741 4.03869C392.499 3.12916 393.529 2.48753 394.68 2.20858C395.831 1.92962 397.041 2.02814 398.131 2.48956L404.521 5.20054C405.05 5.43348 405.513 5.79437 405.868 6.25072C406.223 6.70706 406.459 7.24452 406.554 7.8147C406.656 8.38589 406.622 8.9731 406.453 9.52838C406.285 10.0837 405.988 10.5913 405.586 11.0098Z" fill="#2859D1"/>
<path d="M405.586 11.0098L400.551 15.754C399.852 16.4268 398.981 16.8956 398.034 17.1095L397.066 11.7843C396.979 11.2215 397.112 10.6469 397.436 10.1787C397.76 9.71044 398.251 9.3842 398.809 9.26701L406.554 7.8147C406.656 8.38588 406.622 8.97309 406.453 9.52838C406.285 10.0837 405.988 10.5913 405.586 11.0098Z" fill="#2828C6"/>
<path d="M341.878 73.6527C340.155 73.9889 338.515 74.6613 337.052 75.6317C335.589 76.6021 334.331 77.8513 333.351 79.308C332.371 80.7647 331.687 82.4003 331.34 84.1212C330.992 85.8422 330.987 87.6148 331.325 89.3377L357.563 84.2062C356.861 80.7385 354.821 77.6868 351.886 75.7117C348.95 73.7366 345.355 72.9969 341.878 73.6527Z" fill="#D7DADD"/>
<path d="M275.072 74.621C275.072 78.1646 276.48 81.5631 278.986 84.0688C281.491 86.5746 284.89 87.9823 288.434 87.9823V61.2598C284.89 61.2598 281.491 62.6675 278.986 65.1732C276.48 67.6789 275.072 71.0774 275.072 74.621Z" fill="#D7DADD"/>
<path d="M294.824 89.3378L292.597 170.474H356.305L357.563 87.6919L294.824 89.3378Z" fill="url(#paint0_linear_1_5474)"/>
<path d="M295.598 155.66C305.474 155.66 315.931 150.141 323.483 141.912C327.356 137.651 334.811 127.098 340.426 117.513C346.042 107.927 361.824 79.9463 361.824 79.9463L290.467 89.3379L268.295 144.719L295.598 155.66Z" fill="#0EC2BC"/>
<path d="M287.659 137.845C287.659 137.845 304.216 133.488 317.674 114.898L280.882 114.027L287.659 137.845Z" fill="#008FB7"/>
<path d="M188.708 148.495C188.805 162.34 191.322 182.963 195.389 186.449C199.455 189.934 228.501 204.361 243.121 208.233C257.741 212.106 307.313 201.65 329.388 194.098L188.708 148.495Z" fill="#2828C6"/>
<path d="M193.743 150.238C193.162 158.468 195.679 177.154 197.906 181.705C197.906 181.705 205.749 182.963 206.33 175.121C206.911 167.278 202.941 153.239 202.941 153.239L193.743 150.238Z" fill="black"/>
<path d="M206.33 160.695L165.374 144.622C165.065 144.491 164.73 144.432 164.395 144.449C164.06 144.466 163.733 144.558 163.438 144.719C159.275 146.946 143.783 155.757 140.201 156.434C136.619 157.112 133.811 154.789 130.906 152.562L129.163 148.398L127.421 145.397L125.291 145.978C120.062 147.333 106.12 150.916 102.344 150.625C101.097 150.697 99.8625 150.343 98.8425 149.622C97.8224 148.901 97.0772 147.855 96.7286 146.656C96.6317 146.462 96.6317 146.171 96.5349 145.978C96.2445 143.945 97.4063 141.815 100.892 140.846L115.802 136.393L127.905 132.713C138.168 129.615 148.528 123.031 148.528 123.031L134.585 113.93H134.489L134.295 113.737H134.392L134.005 113.446C132.649 112.478 130.809 111.026 130.809 108.896C130.751 108.305 130.823 107.708 131.02 107.148C131.217 106.588 131.534 106.077 131.949 105.653C132.365 105.228 132.868 104.9 133.424 104.691C133.979 104.481 134.574 104.396 135.166 104.442C137.2 104.442 145.623 107.637 158.887 113.252L165.762 116.157C171.474 118.578 175.153 120.127 178.736 121.966C185.9 125.645 198.003 132.52 198.003 132.52L206.33 160.695Z" fill="#C65C47"/>
<path d="M126.356 135.715L125.775 141.234L125.291 145.978C120.062 147.333 106.12 150.916 102.344 150.625C101.097 150.697 99.8625 150.343 98.8425 149.622C97.8224 148.901 97.0772 147.855 96.7286 146.656C96.6317 146.462 96.6317 146.171 96.5349 145.978C96.2445 143.945 97.4063 141.815 100.892 140.846L115.802 136.393L126.356 135.715Z" fill="#B95045"/>
<path d="M165.762 116.254C165.084 119.352 163.922 124.29 162.179 129.906C160.437 135.521 158.21 136.102 146.398 137.845L125.775 141.234C114.737 143.17 102.731 145.106 96.5349 145.978C96.2445 143.945 97.4063 141.815 100.892 140.846L115.802 136.393L127.905 132.713C138.168 129.615 148.528 123.031 148.528 123.031L134.585 113.93H134.489L134.295 113.737H134.392L134.005 113.446C132.649 112.478 130.809 111.026 130.809 108.896C130.751 108.305 130.823 107.708 131.02 107.148C131.217 106.588 131.534 106.077 131.949 105.653C132.365 105.228 132.868 104.9 133.424 104.691C133.979 104.481 134.574 104.396 135.166 104.442C137.2 104.442 145.623 107.637 158.887 113.252L165.762 116.254Z" fill="#DB806E"/>
<path d="M149.496 138.426V148.011L142.138 153.239L133.521 154.498C133.521 154.498 113.285 139.781 110.768 137.651C108.251 135.521 102.538 130.971 102.538 128.356C102.538 125.742 106.12 121.966 108.735 122.547C111.349 123.128 115.512 125.064 118.804 127.001C122.096 128.937 124.613 130.68 125.581 131.358L125.872 131.551C124.222 129.325 122.826 126.922 121.709 124.387C120.74 122.063 125.097 119.255 127.615 119.546C131.972 119.933 138.749 127.291 149.496 138.426Z" fill="#C65C47"/>
<path d="M137.393 148.495C137.118 148.72 136.78 148.855 136.425 148.882C136.215 148.875 136.009 148.819 135.824 148.718C135.639 148.617 135.48 148.474 135.36 148.302C128.389 140.362 120.643 129.615 118.804 127.001C121.999 128.841 124.613 130.68 125.581 131.358C128.873 135.812 133.327 141.621 137.587 146.462C137.829 146.758 137.944 147.138 137.908 147.518C137.872 147.899 137.687 148.25 137.393 148.495Z" fill="#842825"/>
<path d="M306.539 25.533C306.539 25.533 280.01 41.7988 281.172 60.2916C281.627 64.3627 283.019 68.2732 285.238 71.7164L316.995 76.9447L333.068 48.8667L306.539 25.533Z" fill="#C65C47"/>
<path d="M345.364 59.6137L331.906 47.8984L315.543 75.3955L308.766 69.0053C306.754 67.0937 304.336 65.662 301.692 64.8174C299.049 63.9728 296.248 63.7373 293.501 64.1284C290.753 64.5196 288.13 65.5273 285.827 67.0761C283.524 68.6249 281.602 70.6746 280.203 73.0718L272.458 86.0458C269.149 92.0234 268.229 99.0327 269.882 105.662C271.534 112.291 275.638 118.048 281.365 121.773C293.855 129.809 310.605 125.839 318.738 113.446L345.654 72.5877C349.721 66.488 350.398 64.0675 345.364 59.6137Z" fill="#D7DADD"/>
<path d="M342.46 66.488C342.75 64.0675 338.781 60.9693 333.165 61.2597L331.035 74.3305C336.844 73.0718 342.073 69.1022 342.46 66.488Z" fill="#C65C47"/>
<path d="M319.61 44.8971C319.61 47.8985 315.737 48.189 311.09 48.189C306.442 48.189 302.473 47.8985 302.473 44.8971C302.473 41.8956 306.345 39.4751 311.09 39.4751C315.834 39.4751 319.61 41.8956 319.61 44.8971Z" fill="#D7DADD"/>
<path d="M296.76 44.8971C296.76 47.8985 292.888 48.189 288.24 48.189C283.593 48.189 279.623 47.8985 279.623 44.8971C279.623 41.8956 283.496 39.4751 288.24 39.4751C292.984 39.4751 296.76 41.8956 296.76 44.8971Z" fill="#D7DADD"/>
<path d="M308.863 56.9029C310.2 56.9029 311.283 55.3858 311.283 53.5142C311.283 51.6427 310.2 50.1255 308.863 50.1255C307.526 50.1255 306.442 51.6427 306.442 53.5142C306.442 55.3858 307.526 56.9029 308.863 56.9029Z" fill="black"/>
<path d="M288.046 56.9029C289.383 56.9029 290.467 55.3858 290.467 53.5142C290.467 51.6427 289.383 50.1255 288.046 50.1255C286.71 50.1255 285.626 51.6427 285.626 53.5142C285.626 55.3858 286.71 56.9029 288.046 56.9029Z" fill="black"/>
<path d="M303.828 64.2612C304.215 68.134 298.793 69.78 294.823 69.78C290.854 69.78 287.271 67.8436 287.271 64.5517C287.271 61.2598 292.113 55.9346 295.985 56.6124C299.858 57.2901 303.634 61.6471 303.828 64.2612Z" fill="#DB806E"/>
<path d="M308.766 78.4939C308.386 79.2775 307.932 80.0231 307.411 80.7208C304.312 84.9809 298.697 88.4664 295.211 87.5951C294.93 87.5687 294.657 87.4867 294.407 87.3537C294.158 87.2207 293.937 87.0395 293.759 86.8205C292.5 85.5618 292.984 83.1413 291.532 81.4954C290.08 79.8494 288.337 77.913 289.499 77.1384C290.661 76.3639 291.338 77.1384 292.694 77.6225C293.457 77.9821 294.275 78.2112 295.114 78.3003C299.084 78.6876 303.247 76.9448 305.861 75.8798H306.152C308.669 74.8147 309.541 76.9448 308.766 78.4939Z" fill="black"/>
<path d="M307.411 80.7208C304.312 84.9809 298.697 88.4664 295.211 87.5951C294.93 87.5687 294.656 87.4867 294.407 87.3537C294.158 87.2207 293.937 87.0395 293.759 86.8205C294.47 85.4225 295.453 84.1802 296.65 83.1662C297.847 82.1521 299.234 81.3867 300.73 80.9144C302.886 80.1734 305.216 80.1059 307.411 80.7208Z" fill="#FF2EA2"/>
<path d="M305.861 75.8796C303.977 78.0935 301.37 79.5685 298.503 80.0429C295.308 80.527 293.371 79.2684 292.693 77.6224C293.457 77.982 294.275 78.211 295.114 78.3002C299.084 78.6874 303.247 76.9447 305.861 75.8796Z" fill="white"/>
<path d="M301.699 166.794L256.096 177.541C256.518 178.641 256.633 179.835 256.429 180.994C256.224 182.154 255.707 183.237 254.934 184.125C254.147 185.156 253.138 185.997 251.981 186.583C250.825 187.17 249.55 187.488 248.254 187.514H242.057C239.54 187.514 237.506 186.255 236.829 184.125C236.803 184.125 236.778 184.115 236.76 184.097C236.742 184.079 236.732 184.054 236.732 184.028L233.343 175.702L202.748 166.794C202.07 166.697 201.876 166.407 201.586 165.826L180.77 114.221L185.611 112.672L221.531 125.452L218.239 133.778L231.988 134.263L234.408 125.936L235.473 125.549L238.184 124.677L281.947 110.057L303.054 164.955C303.344 165.826 302.57 166.504 301.699 166.794Z" fill="#FF78B9"/>
<path d="M242.541 142.008H242.056C241.758 142.005 241.469 141.911 241.226 141.738C240.984 141.565 240.8 141.321 240.701 141.04L235.473 125.452L238.184 124.581L243.412 140.072C243.506 140.253 243.557 140.453 243.563 140.658C243.568 140.862 243.528 141.064 243.444 141.251C243.36 141.437 243.235 141.602 243.079 141.733C242.923 141.864 242.738 141.958 242.541 142.008Z" fill="#FF2EA2"/>
<path d="M185.514 112.671L190.355 105.41C190.355 105.41 214.366 106.281 220.175 109.476C225.985 112.671 227.437 119.352 227.437 119.352C227.437 119.352 231.407 111.413 241.96 108.121C252.514 104.829 275.847 105.41 275.847 105.41L277.881 111.51L234.408 125.936L231.988 134.262L218.239 133.778L221.531 125.452L185.514 112.671Z" fill="#FFDAA2"/>
<path d="M228.212 137.458H221.918C220.799 137.528 219.686 137.237 218.744 136.627C217.803 136.017 217.082 135.12 216.69 134.069C216.389 132.937 216.382 131.747 216.67 130.611C216.958 129.476 217.532 128.433 218.336 127.582L181.35 114.801C181.175 114.737 181.019 114.631 180.893 114.493C180.768 114.354 180.678 114.188 180.63 114.008C180.583 113.827 180.579 113.638 180.62 113.456C180.661 113.274 180.746 113.104 180.866 112.962L181.931 111.025C182.082 110.661 182.367 110.368 182.727 110.206C183.087 110.044 183.495 110.025 183.868 110.154L223.467 123.806C223.857 123.947 224.199 124.194 224.455 124.519C224.712 124.844 224.873 125.234 224.92 125.645C224.947 126.133 224.866 126.62 224.682 127.072C224.497 127.525 224.215 127.93 223.855 128.26L222.015 130.099C221.781 130.295 221.61 130.556 221.524 130.849C221.438 131.142 221.441 131.454 221.531 131.745C221.629 132 221.801 132.22 222.026 132.375C222.25 132.531 222.516 132.615 222.79 132.616H229.47C229.79 132.593 230.101 132.503 230.384 132.353C230.668 132.203 230.917 131.996 231.116 131.745C231.301 131.517 231.417 131.242 231.452 130.95C231.486 130.659 231.437 130.364 231.31 130.099L230.245 128.26C230.048 127.849 229.953 127.396 229.97 126.941C229.987 126.485 230.115 126.041 230.342 125.645C230.807 124.738 231.605 124.044 232.569 123.709L280.398 109.38C280.556 109.32 280.726 109.296 280.895 109.309C281.064 109.322 281.228 109.372 281.375 109.455C281.523 109.538 281.65 109.652 281.749 109.79C281.848 109.927 281.915 110.085 281.947 110.251L282.141 112.284C282.156 112.674 282.04 113.057 281.812 113.373C281.584 113.689 281.256 113.919 280.882 114.027L236.054 127.485C236.925 129.518 236.441 131.939 234.892 134.069C234.101 135.095 233.09 135.931 231.935 136.518C230.779 137.104 229.507 137.425 228.212 137.458Z" fill="#FFAED7"/>
<path d="M383.802 187.514C380.8 198.939 372.958 208.234 350.302 214.43C327.646 220.627 303.053 227.598 296.082 220.046C289.111 212.494 286.497 175.411 285.916 164.761C285.819 163.212 316.899 163.793 335.198 166.794H335.876C335.69 166.294 335.56 165.774 335.488 165.245C335.408 164.765 335.376 164.279 335.392 163.793C335.392 161.372 336.747 159.145 339.264 156.822C340.127 155.95 340.701 154.835 340.91 153.627C340.91 153.627 341.782 137.07 347.01 121.676C347.785 119.159 348.753 116.448 349.721 113.64C350.108 112.672 348.946 102.699 348.946 102.699L361.824 79.8493C371.699 78.1066 375.475 85.2713 375.863 93.0169C376.637 108.896 376.056 117.513 378.477 140.265C379.155 146.171 380.026 151.497 380.897 156.338C381.769 161.179 382.737 165.342 383.415 169.312C383.497 169.934 383.627 170.549 383.802 171.151C384.77 177.445 385.157 182.673 383.802 187.514Z" fill="#2859D1"/>
<path d="M367.149 175.702C359.306 168.44 348.269 166.117 335.682 163.89H335.392C335.376 164.376 335.408 164.862 335.488 165.342C335.56 165.871 335.69 166.391 335.876 166.891L343.621 168.343C350.496 169.796 356.692 171.732 361.63 175.024H361.727C362.975 175.812 364.142 176.72 365.212 177.735C365.488 177.96 365.826 178.095 366.181 178.122C366.585 178.106 366.967 177.933 367.246 177.638C367.368 177.506 367.463 177.35 367.525 177.18C367.587 177.01 367.614 176.83 367.605 176.65C367.596 176.469 367.551 176.292 367.472 176.13C367.394 175.967 367.284 175.821 367.149 175.702Z" fill="black"/>
<path d="M292.694 185.19C293.663 193.807 296.47 209.492 298.019 213.171C299.569 216.85 301.505 217.335 303.732 217.722C306.014 217.995 308.318 218.027 310.606 217.819L301.311 184.9L292.694 185.19Z" fill="black"/>
<path d="M304.216 195.26L271.006 183.447C269.849 183.106 268.606 183.21 267.521 183.738C262.292 186.255 245.639 193.807 237.603 192.355C234.699 191.871 231.31 189.741 230.632 186.158C230.386 184.896 230.433 183.593 230.769 182.351C231.104 181.109 231.72 179.961 232.568 178.994C232.715 178.846 232.825 178.667 232.891 178.47C232.957 178.273 232.976 178.063 232.948 177.857C232.92 177.651 232.845 177.455 232.729 177.282C232.613 177.11 232.458 176.967 232.278 176.864C230.864 176.06 229.677 174.909 228.83 173.52C227.983 172.131 227.504 170.55 227.437 168.924V168.634C227.457 167.75 227.587 166.872 227.824 166.02V165.729L216.98 160.307C214.269 159.049 209.719 156.531 209.138 153.433C208.557 150.335 210.106 147.14 213.592 146.656C216.128 146.627 218.64 147.156 220.95 148.205L239.055 155.369C240.674 156.055 242.439 156.321 244.187 156.144L254.644 155.273C254.644 155.273 249.803 140.072 249.125 136.296C248.447 132.52 250.19 129.131 253.869 128.841C257.548 128.55 260.259 130.971 262.099 135.521C263.938 140.072 268.779 150.916 271.684 157.112C272.232 158.31 273.036 159.373 274.04 160.226C275.044 161.08 276.223 161.702 277.493 162.05L284.271 164.083C287.957 165.177 291.304 167.19 293.997 169.934C296.69 172.678 298.641 176.062 299.665 179.768L304.216 195.26Z" fill="#C65C47"/>
<path d="M237.409 170.377C236.751 170.583 236.065 170.681 235.376 170.667C232.653 170.515 229.973 169.927 227.437 168.924V168.634C227.457 167.75 227.587 166.872 227.824 166.02C230.825 167.085 234.504 168.15 236.828 167.569C237.2 167.481 237.592 167.544 237.918 167.743C238.245 167.943 238.479 168.263 238.571 168.634C238.613 168.825 238.616 169.022 238.58 169.215C238.544 169.407 238.47 169.59 238.361 169.753C238.253 169.916 238.112 170.055 237.949 170.162C237.785 170.269 237.602 170.342 237.409 170.377Z" fill="#842825"/>
<path d="M297.051 111.994C294.942 112.072 292.855 111.534 291.048 110.445C290.858 110.359 290.688 110.233 290.551 110.076C290.414 109.919 290.312 109.734 290.253 109.534C290.193 109.335 290.177 109.124 290.207 108.918C290.236 108.711 290.309 108.513 290.421 108.338C290.534 108.162 290.683 108.013 290.858 107.9C291.033 107.787 291.231 107.713 291.437 107.683C291.644 107.653 291.854 107.668 292.054 107.727C292.254 107.786 292.44 107.887 292.597 108.024C296.567 110.638 306.055 108.121 308.96 103.764C309.177 103.444 309.506 103.217 309.882 103.127C310.259 103.038 310.655 103.092 310.993 103.28C311.153 103.387 311.29 103.525 311.397 103.685C311.503 103.846 311.576 104.026 311.612 104.215C311.648 104.405 311.646 104.599 311.607 104.788C311.567 104.976 311.49 105.155 311.38 105.313C308.863 109.089 302.57 111.994 297.051 111.994Z" fill="#ADACAC"/>
<path d="M108.541 58.8392H102.732L102.926 50.319C102.926 48.3826 101.861 46.3494 100.699 44.1225C99.5368 41.8956 97.0195 36.9578 98.2782 32.1167C99.5368 27.2757 102.248 24.5647 104.572 22.4347C106.895 20.3046 108.444 18.6587 108.735 15.4636C108.797 14.1964 108.547 12.9332 108.007 11.7852C107.467 10.6372 106.653 9.63951 105.637 8.87978C102.926 6.74973 99.1496 6.26562 95.2767 7.62111C91.4039 8.9766 87.2406 14.1081 84.2392 19.3364C79.1077 28.0503 72.8143 38.991 52.7725 32.2136L54.6121 26.6948C70.1034 31.9231 74.1698 25.0488 79.2045 16.335C82.4964 10.8162 86.1756 4.42603 93.4371 2.00551C96.0457 1.03658 98.8545 0.732784 101.61 1.12158C104.365 1.51037 106.98 2.57951 109.219 4.23239C110.986 5.56665 112.396 7.31622 113.325 9.32601C114.254 11.3358 114.673 13.5437 114.544 15.754C114.06 21.2728 111.155 24.0806 108.541 26.5011C105.927 28.9217 104.668 30.2771 103.894 33.3754C103.119 36.4737 104.378 38.6037 105.83 41.4115C107.282 44.2193 108.735 46.8335 108.735 50.319L108.541 58.8392Z" fill="#0EC2BC"/>
<path d="M108.735 62.9057H102.926V50.3191C103 47.0668 103.759 43.8667 105.153 40.9275C106.187 39.011 106.813 36.9012 106.992 34.7309C107.186 30.6645 105.443 28.8249 103.216 26.4044C100.99 23.9838 98.6659 21.3697 98.1818 16.7223C97.9647 14.4494 98.3949 12.1615 99.4229 10.1227C100.451 8.08395 102.035 6.37757 103.991 5.20063C106.086 3.75102 108.539 2.90336 111.082 2.74973C113.626 2.59611 116.163 3.14239 118.417 4.32924C123.549 7.33068 125.195 11.1067 127.034 15.5604C128.151 18.1946 129.445 20.7501 130.907 23.2093C134.877 29.8899 143.881 31.3422 148.529 31.1486L166.247 30.374L166.537 36.1832L148.722 36.9578C141.461 37.2483 131.004 34.6341 125.873 26.2107C124.289 23.5041 122.898 20.6893 121.709 17.7873C120.063 13.8177 118.998 11.3972 115.513 9.36392C112.027 7.33069 109.897 8.29889 107.186 10.0417C106.135 10.656 105.277 11.5539 104.712 12.6326C104.147 13.7113 103.897 14.9272 103.991 16.1414C104.282 18.8523 105.734 20.4983 107.573 22.4347C109.413 24.3711 113.092 28.5344 112.802 34.9246C112.561 37.8106 111.807 40.6305 110.575 43.2511C109.424 45.4335 108.794 47.8526 108.735 50.3191V62.9057Z" fill="#FF78B9"/>
<path d="M101.764 7.04013C102.437 6.3477 103.184 5.73084 103.991 5.20054C105.204 4.37339 106.545 3.75186 107.96 3.36094C105.796 2.06119 103.367 1.26456 100.853 1.02993C98.3392 0.795312 95.8048 1.1287 93.4371 2.00546C86.1756 4.42597 82.4964 10.8161 79.2045 16.3349C74.1698 25.0488 70.1034 31.923 54.6121 26.6947L52.7725 32.2135C72.8143 38.9909 79.1077 28.0502 84.2392 19.3364C87.2406 14.108 90.0484 9.267 95.2767 7.52423C97.3489 6.74848 99.5994 6.58053 101.764 7.04013Z" fill="#0EC2BC"/>
<path d="M107.186 10.0417H106.992C108.237 11.4877 108.863 13.3659 108.735 15.27C108.444 18.4651 106.798 20.111 104.571 22.2411C102.345 24.3711 99.4399 27.0821 98.2781 31.9231C97.1162 36.7642 98.9558 40.637 100.699 43.9289C102.441 47.2208 102.925 48.189 102.925 50.1254L102.732 58.6456H108.541L108.735 50.1254C108.735 46.6399 107.186 43.7353 105.83 41.2179C104.475 38.7006 103.119 35.9896 103.894 33.1818C104.668 30.374 106.508 28.3408 108.541 26.3075C110.574 24.2743 114.06 21.0792 114.544 15.5604C114.699 13.1249 114.126 10.6982 112.898 8.58936C110.884 8.41119 108.87 8.92335 107.186 10.0417Z" fill="#0EC2BC"/>
<path d="M112.898 8.58917L101.764 7.04004C100.455 8.26409 99.4491 9.77662 98.8273 11.4574C98.2054 13.1382 97.9841 14.9408 98.1811 16.7221C98.5104 19.8033 99.8362 22.6928 101.957 24.9519C100.164 26.9664 98.8994 29.3952 98.278 32.0198C97.0193 36.8608 98.9557 40.7336 100.698 44.0255C102.441 47.3174 102.925 48.2856 102.925 50.222L102.732 58.7423H102.925V62.9056H108.735V50.3189C108.794 47.8525 109.423 45.4333 110.574 43.251C111.807 40.6303 112.561 37.8104 112.801 34.9244C113.015 31.4543 111.985 28.0217 109.896 25.2423C112.598 22.7869 114.26 19.3932 114.544 15.7539C114.726 13.2546 114.153 10.7582 112.898 8.58917ZM106.992 34.7307C106.831 36.714 106.306 38.6506 105.443 40.4432C104.184 38.0226 103.216 35.8926 103.894 33.3753C104.248 31.9765 104.873 30.6607 105.733 29.5024C106.7 31.0663 107.141 32.8983 106.992 34.7307ZM108.735 15.3666C108.599 17.4444 107.661 19.3882 106.12 20.7886C104.917 19.5167 104.169 17.8828 103.99 16.1412C103.897 14.9271 104.147 13.7111 104.712 12.6324C105.277 11.5537 106.134 10.6558 107.185 10.0415H106.992C107.621 10.7694 108.098 11.615 108.398 12.5292C108.697 13.4433 108.811 14.4078 108.735 15.3666Z" fill="url(#paint1_linear_1_5474)"/>
<path d="M60.5178 14.0113C59.341 13.8391 58.1431 14.1247 57.1705 14.8091C56.1979 15.4935 55.5247 16.5247 55.2895 17.6905L54.7085 21.5633L46.382 20.2078L47.2534 14.5922C47.5492 12.7408 47.4036 10.8457 46.8286 9.06113C46.2536 7.27657 45.2654 5.65298 43.9444 4.32251C42.6233 2.99204 41.0068 1.99228 39.2264 1.40459C37.446 0.816907 35.552 0.6579 33.6985 0.940514L5.03956 5.39426L0.00488281 36.7642L25.7592 50.0286C27.437 50.8731 29.2895 51.3121 31.1679 51.3104C33.0462 51.3087 34.8979 50.8663 36.5742 50.0188C38.2504 49.1712 39.7045 47.9422 40.8193 46.4305C41.9342 44.9188 42.6788 43.1666 42.9933 41.3147L43.7678 36.3769L52.0944 37.7324L51.6103 41.0243C51.4997 41.6044 51.5081 42.2009 51.6352 42.7776C51.7622 43.3543 52.0051 43.8992 52.3492 44.3792C52.6933 44.8591 53.1314 45.2641 53.6369 45.5695C54.1423 45.8749 54.7046 46.0743 55.2895 46.1558C55.8682 46.2526 56.4603 46.2342 57.0318 46.1015C57.6034 45.9688 58.143 45.7245 58.6199 45.3827C59.0967 45.0408 59.5013 44.608 59.8104 44.1093C60.1195 43.6106 60.327 43.0557 60.421 42.4766L64.197 19.1428C64.2938 18.5641 64.2754 17.972 64.1427 17.4005C64.0101 16.8289 63.7658 16.2892 63.4239 15.8124C63.082 15.3356 62.6493 14.931 62.1505 14.6219C61.6518 14.3128 61.0969 14.1053 60.5178 14.0113Z" fill="#D7DADD"/>
<path d="M34.4732 45.0907C35.3534 44.5866 36.1073 43.8887 36.6777 43.0499C37.2481 42.2111 37.6199 41.2535 37.7651 40.2496L39.4111 30.2771L52.966 32.504L53.8374 26.7915L40.2825 24.5647L41.3475 18.2713C41.4185 17.8514 41.3963 17.4211 41.2825 17.0107C41.1687 16.6003 40.966 16.22 40.6889 15.8966C40.4118 15.5733 40.0669 15.3149 39.6788 15.1396C39.2906 14.9644 38.8687 14.8766 38.4429 14.8826H11.4299C10.7277 14.8961 10.0525 15.1554 9.52179 15.6153C8.99106 16.0753 8.63844 16.7068 8.52529 17.3999L5.91113 33.7626L28.2767 45.2843C29.2411 45.7805 30.316 46.0231 31.4 45.9893C32.4841 45.9554 33.5417 45.6461 34.4732 45.0907Z" fill="#0EC2BC"/>
<path d="M207.879 8.20212C207.805 6.78827 207.346 5.42162 206.55 4.25067C205.754 3.07972 204.653 2.14926 203.365 1.56042C202.078 0.971567 200.653 0.74685 199.247 0.910685C197.841 1.07452 196.507 1.62064 195.389 2.4897L165.665 25.0489L157.242 25.533L157.048 21.9506C156.949 20.7695 156.403 19.6706 155.522 18.8787C154.64 18.0868 153.489 17.6618 152.304 17.6905C151.114 17.7655 150 18.3045 149.204 19.1918C148.407 20.079 147.99 21.2435 148.044 22.4348L149.399 46.059C149.436 46.6443 149.588 47.2165 149.847 47.7429C150.105 48.2692 150.466 48.7393 150.906 49.1262C151.347 49.513 151.86 49.8089 152.415 49.997C152.971 50.1851 153.558 50.2617 154.143 50.2223C154.737 50.1977 155.32 50.0547 155.857 49.8015C156.395 49.5483 156.876 49.1901 157.273 48.748C157.67 48.3059 157.975 47.7888 158.169 47.2273C158.363 46.6657 158.443 46.0709 158.403 45.4781L158.21 41.8957L166.633 41.4116L198.681 60.4853C199.902 61.2044 201.295 61.5794 202.712 61.5702C204.129 61.5611 205.517 61.1682 206.728 60.4333C207.94 59.6984 208.93 58.649 209.592 57.3966C210.255 56.1442 210.567 54.7356 210.493 53.3205L207.879 8.20212Z" fill="#D7DADD"/>
<path d="M167.602 30.2771L157.532 30.8581L157.823 36.5705L167.892 35.9896L201.489 55.9346C201.879 56.1382 202.317 56.2357 202.757 56.2175C203.197 56.1992 203.624 56.0659 203.997 55.8307C204.369 55.5955 204.673 55.2667 204.879 54.8772C205.084 54.4877 205.184 54.0511 205.168 53.6109L203.619 26.1139C203.57 25.3775 203.242 24.6876 202.703 24.1841C202.163 23.6805 201.452 23.4012 200.714 23.4029H177.671C177.04 23.3878 176.424 23.5932 175.928 23.9838L167.602 30.2771Z" fill="#FF78B9"/>
<path d="M113.866 86.53V62.5185H117.449C118.656 62.5185 119.813 62.039 120.666 61.1856C121.52 60.3323 121.999 59.1748 121.999 57.9679C121.974 56.7779 121.483 55.6451 120.633 54.8126C119.782 53.98 118.639 53.5139 117.449 53.5142H93.9212C92.7309 53.5139 91.5879 53.98 90.7372 54.8126C89.8865 55.6451 89.396 56.7779 89.3706 57.9679C89.3706 58.5655 89.4883 59.1572 89.717 59.7093C89.9457 60.2614 90.2809 60.7631 90.7035 61.1856C91.126 61.6082 91.6277 61.9434 92.1798 62.1721C92.7319 62.4008 93.3236 62.5185 93.9212 62.5185H97.5036V86.53C83.755 88.3696 73.5889 94.7598 73.5889 102.409C73.6716 104.782 74.5986 107.048 76.203 108.799C77.6242 110.485 79.4061 111.83 81.4172 112.735C83.4282 113.64 85.6169 114.082 87.8215 114.027H123.548C125.765 114.069 127.964 113.622 129.989 112.719C132.013 111.815 133.814 110.477 135.264 108.799C136.84 107.038 137.733 104.771 137.781 102.409C137.781 94.7598 127.615 88.3696 113.866 86.53Z" fill="#D7DADD"/>
<path d="M102.344 90.7902L98.1811 91.2743C85.7881 93.0171 78.4297 98.2454 78.4297 102.409C78.5091 103.643 79.0237 104.81 79.882 105.701C80.8665 106.831 82.0888 107.73 83.4614 108.332C84.834 108.935 86.3228 109.226 87.8213 109.186H123.548C125.047 109.226 126.535 108.935 127.908 108.332C129.281 107.73 130.503 106.831 131.487 105.701C132.346 104.81 132.86 103.643 132.94 102.409C132.94 98.2454 125.581 92.9203 113.188 91.2743L109.025 90.6934V63.0027H102.344V90.7902Z" fill="#2859D1"/>
<path d="M43.9613 86.6267L36.3125 91.5646L46.6723 113.64C49.3833 117.997 52.772 117.125 56.3544 114.802C59.9367 112.478 62.4541 109.573 59.7431 105.313L43.9613 86.6267Z" fill="#FFDAA2"/>
<path d="M41.3475 92.3392L40.8634 92.7265C35.8287 96.0184 31.6654 99.3103 28.4703 101.344C25.2752 103.377 22.5643 104.151 21.0151 101.731C17.9169 96.8898 23.4356 86.53 34.0859 79.6557C35.3021 78.8728 36.5629 78.1616 37.8619 77.5256C43.5743 74.7178 49.1899 73.556 53.3532 73.9433C57.5165 74.3306 58.3879 75.2988 59.5498 77.0415C62.648 81.8826 51.9977 85.5618 41.3475 92.3392Z" fill="#FF2EA2"/>
<path d="M46.9632 80.1398C42.7031 81.4953 38.7334 80.7207 37.9589 78.397C37.8795 78.1137 37.8468 77.8194 37.862 77.5256C43.5744 74.7178 49.19 73.556 53.3533 73.9433C53.7406 76.1702 50.9328 78.8811 46.9632 80.1398Z" fill="#FFAED7"/>
<path d="M40.8631 92.7266C35.8284 96.0185 31.6651 99.3104 28.47 101.344C27.8785 101.222 27.3576 100.875 27.0177 100.375C25.759 98.3422 27.6955 94.7598 31.4715 92.3393C35.2475 89.9188 39.3139 89.6283 40.5726 91.6615C40.7707 91.9808 40.8716 92.3509 40.8631 92.7266Z" fill="#FFAED7"/>
<path d="M228.502 81.5921C227.34 88.8537 220.562 93.7915 220.562 93.7915C220.562 93.7915 215.721 86.9172 216.883 79.6557V79.462C218.239 72.0069 229.664 73.8465 228.598 81.3985C228.502 81.3985 228.502 81.4953 228.502 81.5921Z" fill="#FFDAA2"/>
<path d="M222.305 95.5344C221.93 95.543 221.56 95.4421 221.24 95.2439C220.819 94.9494 220.524 94.5059 220.416 94.0028C220.308 93.4997 220.395 92.9745 220.659 92.533C220.853 92.3393 231.213 77.0417 232.472 67.9405C232.455 67.6566 232.502 67.3725 232.608 67.1085C232.714 66.8445 232.876 66.6072 233.085 66.4132C233.293 66.2193 233.541 66.0736 233.812 65.9864C234.082 65.8993 234.369 65.8729 234.651 65.909C234.933 65.9452 235.204 66.0431 235.444 66.1957C235.684 66.3483 235.887 66.552 236.04 66.7921C236.192 67.0323 236.29 67.303 236.326 67.5852C236.362 67.8673 236.335 68.154 236.248 68.4246C234.892 78.494 224.339 94.0821 223.951 94.663C223.766 94.9289 223.52 95.1467 223.234 95.2983C222.948 95.4498 222.629 95.5308 222.305 95.5344Z" fill="#FF2EA2"/>
<path d="M242.347 50.1255C241.762 50.2498 241.204 50.4795 240.701 50.8032C240.48 50.9421 240.233 51.0349 239.976 51.076C239.718 51.117 239.455 51.1056 239.201 51.0423C238.948 50.979 238.71 50.8651 238.502 50.7076C238.294 50.55 238.12 50.352 237.99 50.1255C237.721 49.6124 237.36 49.153 236.925 48.77C236.189 48.107 235.295 47.6433 234.33 47.423C233.364 47.2027 232.357 47.2331 231.406 47.5113C230.599 47.7822 229.862 48.2303 229.25 48.8227C228.638 49.415 228.167 50.1368 227.87 50.935C227.573 51.7332 227.458 52.5878 227.534 53.4361C227.61 54.2845 227.874 55.1051 228.308 55.8379C228.602 56.2877 228.706 56.8355 228.597 57.3616C228.488 57.8878 228.175 58.3494 227.727 58.6457L226.372 59.7107C225.656 60.4343 225.159 61.3447 224.936 62.3378C224.713 63.3308 224.775 64.3665 225.113 65.3263C225.383 66.1227 225.828 66.8484 226.415 67.4498C227.003 68.0513 227.718 68.513 228.508 68.8011C229.298 69.0892 230.143 69.1962 230.979 69.1143C231.816 69.0324 232.624 68.7636 233.343 68.3278H233.44C233.664 68.1727 233.919 68.0668 234.187 68.0169C234.455 67.967 234.73 67.9742 234.995 68.0382C235.26 68.1022 235.509 68.2214 235.725 68.3881C235.941 68.5548 236.119 68.7652 236.248 69.0055C236.541 69.5027 236.899 69.9586 237.313 70.361C238.043 71.033 238.941 71.4957 239.912 71.7001C240.884 71.9046 241.892 71.8434 242.831 71.5229C243.636 71.2639 244.372 70.8266 244.984 70.2436C245.596 69.6606 246.069 68.9469 246.367 68.1557C246.665 67.3646 246.78 66.5164 246.704 65.6744C246.629 64.8325 246.364 64.0185 245.93 63.2931C245.64 62.8166 245.549 62.2455 245.675 61.7024C245.802 61.1593 246.137 60.6875 246.607 60.3885H246.704C247.424 59.9361 248.034 59.3286 248.49 58.6103C248.945 57.8921 249.234 57.0813 249.336 56.237C249.438 55.3927 249.351 54.5362 249.08 53.7302C248.808 52.9241 248.361 52.1888 247.769 51.5778C247.09 50.8549 246.223 50.3359 245.265 50.0793C244.307 49.8227 243.297 49.8387 242.347 50.1255Z" fill="#FFAED7"/>
<path d="M237.119 63.1963C239.151 63.1963 240.798 61.549 240.798 59.5171C240.798 57.4851 239.151 55.8379 237.119 55.8379C235.087 55.8379 233.439 57.4851 233.439 59.5171C233.439 61.549 235.087 63.1963 237.119 63.1963Z" fill="#FF2EA2"/>
<path d="M17.3357 200.197C16.3662 199.568 15.5385 198.744 14.905 197.777C14.2716 196.81 13.8464 195.722 13.6565 194.582L13.0756 190.709C13.0756 190.606 13.0348 190.508 12.9621 190.435C12.8895 190.363 12.791 190.322 12.6883 190.322C12.4946 190.322 12.3978 190.515 12.301 190.709L11.7201 194.582C11.5653 195.722 11.1648 196.814 10.5463 197.784C9.92775 198.753 9.10593 199.577 8.13771 200.197L7.6536 200.585C7.55678 200.585 7.45996 200.778 7.45996 200.875C7.45996 200.95 7.47746 201.025 7.51107 201.092C7.54468 201.159 7.59348 201.217 7.6536 201.263L8.13771 201.553C9.10593 202.174 9.92775 202.997 10.5463 203.967C11.1648 204.937 11.5653 206.029 11.7201 207.169L12.301 211.041C12.3978 211.235 12.4946 211.429 12.6883 211.429C12.791 211.429 12.8895 211.388 12.9621 211.315C13.0348 211.243 13.0756 211.144 13.0756 211.041L13.6565 207.169C13.8464 206.028 14.2716 204.94 14.905 203.974C15.5385 203.007 16.3662 202.182 17.3357 201.553L17.8198 201.263C17.8799 201.217 17.9287 201.159 17.9623 201.092C17.9959 201.025 18.0134 200.95 18.0134 200.875C18.0134 200.778 17.9166 200.585 17.8198 200.585L17.3357 200.197Z" fill="#8CD9FF"/>
<path d="M131.778 204.264C130.819 203.645 129.998 202.836 129.365 201.887C128.732 200.937 128.301 199.868 128.099 198.745L127.518 194.776C127.518 194.582 127.324 194.485 127.131 194.485C126.937 194.485 126.84 194.582 126.743 194.776L126.162 198.745C125.995 199.868 125.588 200.941 124.97 201.893C124.352 202.845 123.537 203.654 122.58 204.264L122.096 204.651C121.902 204.748 121.902 204.845 121.902 204.942C121.902 205.135 121.902 205.232 122.096 205.329L122.58 205.619C123.548 206.24 124.37 207.064 124.989 208.033C125.607 209.003 126.008 210.095 126.162 211.235L126.743 215.205C126.84 215.398 126.937 215.495 127.131 215.495C127.324 215.495 127.518 215.398 127.518 215.205L128.099 211.235C128.289 210.095 128.714 209.007 129.347 208.04C129.981 207.073 130.809 206.249 131.778 205.619L132.262 205.329C132.322 205.284 132.371 205.225 132.405 205.158C132.438 205.091 132.456 205.017 132.456 204.942C132.456 204.845 132.359 204.748 132.262 204.651L131.778 204.264Z" fill="#808AFF"/>
<path d="M163.438 182.576C162.021 181.656 160.815 180.448 159.897 179.029C158.979 177.611 158.371 176.016 158.113 174.346L157.241 168.537C157.218 168.4 157.147 168.276 157.04 168.188C156.934 168.099 156.799 168.051 156.66 168.053C156.522 168.051 156.387 168.099 156.28 168.188C156.174 168.276 156.103 168.4 156.079 168.537L155.305 174.346C155.029 176.022 154.404 177.62 153.47 179.038C152.535 180.456 151.313 181.661 149.883 182.576L149.205 183.06C149.112 183.1 149.034 183.169 148.982 183.256C148.93 183.342 148.906 183.443 148.915 183.544C148.906 183.645 148.93 183.746 148.982 183.833C149.034 183.92 149.112 183.988 149.205 184.028L149.883 184.513C151.316 185.447 152.539 186.67 153.472 188.104C154.406 189.538 155.03 191.15 155.305 192.839L156.079 198.552C156.103 198.688 156.174 198.812 156.28 198.901C156.387 198.99 156.522 199.038 156.66 199.036C156.799 199.038 156.934 198.99 157.04 198.901C157.147 198.812 157.218 198.688 157.241 198.552L158.113 192.839C158.37 191.157 158.977 189.546 159.894 188.112C160.811 186.678 162.018 185.452 163.438 184.513L164.212 184.028C164.305 183.988 164.383 183.92 164.435 183.833C164.488 183.746 164.511 183.645 164.503 183.544C164.511 183.443 164.488 183.342 164.435 183.256C164.383 183.169 164.305 183.1 164.212 183.06L163.438 182.576Z" fill="#FFAED7"/>
<path d="M386.513 56.2251C385.551 55.587 384.729 54.7602 384.097 53.7949C383.464 52.8296 383.035 51.7459 382.834 50.6095L382.253 46.6398C382.253 46.4462 382.059 46.3494 381.866 46.3494C381.672 46.3494 381.575 46.4462 381.478 46.6398L380.897 50.6095C380.73 51.7453 380.325 52.833 379.707 53.8008C379.09 54.7687 378.275 55.5949 377.315 56.2251L376.831 56.5155C376.637 56.6124 376.637 56.7092 376.637 56.806C376.637 56.9028 376.637 56.9996 376.831 57.0965L377.315 57.3869C378.283 58.0076 379.105 58.8313 379.724 59.8009C380.342 60.7705 380.743 61.8629 380.897 63.0025L381.478 66.9722C381.575 67.1658 381.672 67.2626 381.866 67.2626C382.059 67.2626 382.253 67.1658 382.253 66.9722L382.834 63.0025C383.024 61.8624 383.449 60.7743 384.082 59.8075C384.716 58.8407 385.543 58.0163 386.513 57.3869L386.997 57.0965C387.094 56.9996 387.191 56.9028 387.191 56.806L386.997 56.5155L386.513 56.2251Z" fill="#FFE75C"/>
<path d="M276.912 20.4016C275.942 19.7722 275.115 18.9478 274.481 17.981C273.848 17.0142 273.423 15.9261 273.233 14.786L272.652 10.9132C272.652 10.8104 272.611 10.7119 272.538 10.6393C272.466 10.5667 272.367 10.5259 272.264 10.5259C272.071 10.5259 271.974 10.7195 271.877 10.9132L271.296 14.786C271.142 15.9256 270.741 17.018 270.122 17.9876C269.504 18.9572 268.682 19.7809 267.714 20.4016L267.23 20.7889C267.036 20.7889 267.036 20.9825 267.036 21.0793C267.036 21.273 267.036 21.3698 267.23 21.4666L267.714 21.7571C268.682 22.3778 269.504 23.2014 270.122 24.171C270.741 25.1406 271.142 26.233 271.296 27.3727L271.877 31.2455C271.974 31.4391 272.071 31.6328 272.264 31.6328C272.367 31.6328 272.466 31.592 272.538 31.5193C272.611 31.4467 272.652 31.3482 272.652 31.2455L273.233 27.3727C273.423 26.2325 273.848 25.1444 274.481 24.1776C275.115 23.2108 275.942 22.3865 276.912 21.7571L277.396 21.4666C277.456 21.4215 277.505 21.363 277.538 21.2958C277.572 21.2286 277.59 21.1545 277.59 21.0793C277.59 20.9825 277.493 20.7889 277.396 20.7889L276.912 20.4016Z" fill="#34F4CF"/>
<path d="M86.5622 175.895C85.1772 174.436 83.511 173.271 81.664 172.473C79.817 171.674 77.8274 171.257 75.8152 171.248C75.5848 171.252 75.3564 171.205 75.1467 171.109C74.9369 171.014 74.7511 170.873 74.6027 170.697C74.4543 170.521 74.3471 170.314 74.2888 170.091C74.2306 169.868 74.2228 169.635 74.266 169.408C76.0088 164.374 73.9756 156.338 68.4568 154.885L57.2256 178.025C62.0666 179.962 66.1331 179.09 71.3614 177.929L73.1042 177.638C76.6865 176.864 79.9784 177.735 82.2053 180.155C82.4713 180.45 82.7929 180.688 83.1516 180.857C83.5103 181.026 83.8989 181.122 84.295 181.14C84.6911 181.158 85.0869 181.098 85.4594 180.962C85.8319 180.826 86.1739 180.618 86.4654 180.349C87.0582 179.765 87.3999 178.974 87.418 178.142C87.4361 177.31 87.1291 176.504 86.5622 175.895Z" fill="#FF2EA2"/>
<path d="M68.2603 172.288C73.7166 165.151 72.3545 154.943 65.2179 149.486C58.0814 144.03 47.8729 145.392 42.4166 152.529C36.9603 159.665 38.3224 169.874 45.459 175.33C52.5955 180.786 62.804 179.424 68.2603 172.288Z" fill="#FFDAA2"/>
<path d="M59.0442 167.23C62.7792 162.345 61.8468 155.357 56.9616 151.622C52.0765 147.887 45.0885 148.82 41.3536 153.705C37.6186 158.59 38.551 165.578 43.4361 169.313C48.3213 173.048 55.3092 172.115 59.0442 167.23Z" fill="#FFAED7"/>
<path d="M54.2757 163.584C55.997 161.333 55.5673 158.112 53.3159 156.391C51.0645 154.67 47.8439 155.099 46.1226 157.351C44.4013 159.602 44.831 162.823 47.0824 164.544C49.3338 166.265 52.5543 165.836 54.2757 163.584Z" fill="#FF2EA2"/>
</g>
<defs>
<linearGradient id="paint0_linear_1_5474" x1="325.09" y1="95.1471" x2="325.09" y2="171.858" gradientUnits="userSpaceOnUse">
<stop offset="0.42" stop-color="#2859D1"/>
<stop offset="0.67" stop-color="#283CCA"/>
<stop offset="0.87" stop-color="#2828C6"/>
</linearGradient>
<linearGradient id="paint1_linear_1_5474" x1="106.198" y1="53.4655" x2="106.198" y2="12.3845" gradientUnits="userSpaceOnUse">
<stop offset="0.32" stop-color="#2859D1"/>
<stop offset="0.36" stop-color="#2859D1" stop-opacity="0.83"/>
<stop offset="0.46" stop-color="#2859D1" stop-opacity="0.42"/>
<stop offset="0.55" stop-color="#2859D1" stop-opacity="0"/>
</linearGradient>
<clipPath id="clip0_1_5474">
<rect width="406.647" height="222.688" fill="white" transform="translate(0.00488281 0.84375)"/>
</clipPath>
</defs>
</svg>
