<svg width="210" height="183" viewBox="0 0 210 183" fill="none" xmlns="http://www.w3.org/2000/svg">
<path d="M0.648926 156.534L41.3269 181.79H169.502L209.256 156.534L201.638 119.411L175.92 133.217L82.7899 133.078L53.0548 119.411L0.648926 156.534Z" fill="#FFE55C"/>
<path d="M41.5115 181.19L83.0668 133.632" stroke="#FFC419" stroke-width="1.85544" stroke-miterlimit="10" stroke-linecap="round"/>
<path d="M169.409 181.421L175.874 134.094" stroke="#FFC419" stroke-width="1.85544" stroke-miterlimit="10" stroke-linecap="round"/>
<path d="M12.4995 149.073C12.4995 149.073 43.1096 141.801 28.0587 159.995C14.6041 176.276 68.7035 177.976 82.2838 163.576C89.8283 155.584 135.802 153.332 122.169 180.774" stroke="#FFC419" stroke-width="1.85544" stroke-miterlimit="10" stroke-linecap="round" stroke-dasharray="8.63 8.63"/>
<path d="M153.018 134.094C153.018 134.094 159.303 147.658 127.498 146.116C99.7292 144.77 129.138 163.327 159.9 154.609C187.51 146.802 189.309 145.434 186.493 154.609C184.814 160.131 192.635 165.458 205.369 157.941" stroke="#FFC419" stroke-width="1.85544" stroke-miterlimit="10" stroke-linecap="round" stroke-dasharray="8.63 8.63"/>
<path d="M27.1296 138.706C27.1296 138.706 40.757 137.848 52.9655 143.757C96.9522 164.964 77.5422 131.733 102.347 135.56" stroke="#FFC419" stroke-width="1.85544" stroke-miterlimit="10" stroke-linecap="round" stroke-dasharray="8.63 8.63"/>
<path d="M183.783 130.443C183.797 131.27 173.197 154.996 204.36 139.02" stroke="#FFC419" stroke-width="1.85544" stroke-miterlimit="10" stroke-linecap="round" stroke-dasharray="8.63 8.63"/>
<path d="M175.919 133.447H175.977L176.029 133.42L201.474 119.761L208.998 156.424L169.435 181.559H41.3928L1.06616 156.521L53.0791 119.676L82.6932 133.287L82.7389 133.309H82.7892L175.919 133.447Z" stroke="#FFE55C" stroke-width="0.461725"/>
<path d="M119.405 100.249L111.417 130.769C111.14 131.878 110.262 132.801 109.2 133.17C105.276 134.463 96.3645 137.741 99.4119 139.542C103.244 141.851 114.049 138.48 115.572 135.71C117.512 132.247 128.177 99.7876 128.177 99.7876L119.405 100.249Z" fill="url(#paint0_linear_128_12)"/>
<path d="M117.281 108.375C117.835 110.361 121.621 111.284 124.715 110.084C126.515 104.728 127.9 100.48 128.131 99.8335L119.359 100.341L117.281 108.375Z" fill="#CF1581"/>
<path d="M140.736 100.341L150.617 138.064C150.987 139.45 152.002 140.558 153.388 141.019C158.236 142.635 169.271 146.653 165.485 148.915C160.729 151.778 147.385 147.576 145.492 144.159C143.091 139.865 129.886 99.7412 129.886 99.7412L140.736 100.341Z" fill="url(#paint1_linear_128_12)"/>
<path d="M143.045 109.207L140.736 100.341L129.886 99.7412C129.886 99.7412 131.363 104.174 133.395 110.269C135.888 112.254 141.614 110.361 143.045 109.207Z" fill="#CF1581"/>
<path d="M54.8093 28.4512C54.8093 28.4512 66.6295 33.5302 76.5566 29.467C79.2346 28.3588 81.5894 31.6833 79.604 33.8072C77.4339 36.162 74.2018 38.1012 69.3537 38.4244L54.8093 28.4512Z" fill="#3442D7"/>
<path d="M49.7764 82.2418C49.7764 82.2418 13.4848 84.1348 10.1603 55.0923C6.78974 25.6804 41.1883 15.5686 59.2879 30.8056C68.6609 38.7011 85.8833 36.0231 95.3949 32.1907C97.8882 31.1749 100.289 33.8068 98.9963 36.1616C95.0716 43.503 85.5601 52.7837 63.1202 47.9356C40.0801 42.9489 59.2879 65.0656 69.7691 63.1725L49.7764 82.2418Z" fill="url(#paint2_linear_128_12)"/>
<path d="M29.3682 51.8143C29.3682 51.8143 33.5237 45.1193 43.6355 48.9516C55.8712 53.615 64.3208 51.3987 69.6768 48.2128C71.8007 46.92 70.8311 43.6879 68.3378 43.7803C63.9976 43.9188 58.3645 42.6721 52.1774 37.5008C46.1288 32.468 40.3572 32.5603 36.1094 33.807" fill="#5865F0"/>
<path d="M29.3682 51.8143C29.3682 51.8143 33.5237 45.1193 43.6355 48.9516C55.8712 53.615 64.3208 51.3987 69.6768 48.2128C71.8007 46.92 70.8311 43.6879 68.3378 43.7803C63.9976 43.9188 58.3645 42.6721 52.1774 37.5008C46.1288 32.468 40.3572 32.5603 36.1094 33.807" stroke="#0C1AAB" stroke-width="1.85544" stroke-miterlimit="10" stroke-linecap="round"/>
<path d="M55.7788 73.4691C55.5479 74.2079 55.5018 74.6696 55.5018 74.6696C39.2952 87.0439 54.5321 108.976 54.5321 108.976C57.5334 105.374 61.181 102.004 65.6597 99.4181C68.153 77.5785 61.3657 73.423 55.7788 73.4691Z" fill="#FF78B7"/>
<path d="M179.336 0.331755C165.485 0.885826 160.267 13.6756 163.13 23.1872C166.131 33.1143 170.564 38.1471 171.487 43.3184C172.364 48.3512 168.809 53.2455 163.73 53.4763C155.327 53.8919 142.675 45.3962 130.763 46.966C113.125 49.367 118.389 61.2333 89.8079 56.4776C63.8128 52.1373 57.164 68.7595 55.825 73.3767C61.4118 73.3305 68.1992 77.4861 65.7059 99.2795C75.4944 93.6926 89.2539 92.0766 108.877 101.219C137.458 114.563 164.1 91.7072 164.1 91.7072L172.18 67.4205C172.18 67.4205 207.594 56.5237 200.761 18.8469C198.867 8.45812 191.249 -0.12997 179.336 0.331755Z" fill="url(#paint3_linear_128_12)"/>
<path d="M189.402 70.2831C191.203 68.0207 189.079 64.7424 186.263 65.435C179.06 67.2819 166.639 68.3901 153.619 60.3099C133.626 47.9356 111.371 63.4958 116.496 82.1956C122.221 103.158 160.314 111.7 172.688 88.8445C172.688 88.8445 183.169 85.9818 182.199 75.5006C182.199 75.593 186.216 74.254 189.402 70.2831Z" fill="#5865F0"/>
<path d="M79.8347 88.4292C82.7417 88.4292 85.0984 84.7082 85.0984 80.1182C85.0984 75.5282 82.7417 71.8071 79.8347 71.8071C76.9277 71.8071 74.571 75.5282 74.571 80.1182C74.571 84.7082 76.9277 88.4292 79.8347 88.4292Z" fill="white"/>
<path d="M79.7423 90.3221C81.9096 90.3221 83.667 87.5314 83.667 84.0888C83.667 80.6461 81.9096 77.8555 79.7423 77.8555C77.575 77.8555 75.8176 80.6461 75.8176 84.0888C75.8176 87.5314 77.575 90.3221 79.7423 90.3221Z" fill="black"/>
<path d="M61.2271 67.9748C52.639 66.0818 51.7156 78.456 51.7156 78.456C51.7156 78.456 56.4713 70.8375 62.1967 78.6869C63.8589 80.9955 64.2745 83.9967 64.5054 86.8594C64.7824 90.3223 64.8747 95.6784 63.5819 100.665C64.4592 100.065 65.3826 99.5107 66.3523 99.0028C69.1226 88.9833 71.5698 70.2835 61.2271 67.9748Z" fill="#CF1581"/>
<path d="M162.253 80.7181C162.253 80.7181 174.535 81.6877 182.245 74.9927" stroke="#0C1AAB" stroke-width="1.85544" stroke-miterlimit="10" stroke-linecap="round"/>
<path d="M136.858 92.3075C145.077 94.847 160.868 97.8482 172.365 88.3828" stroke="#0C1AAB" stroke-width="1.85544" stroke-miterlimit="10" stroke-linecap="round"/>
<path d="M28.8141 116.548C28.2138 116.179 27.6598 115.625 27.2904 115.025C26.8748 114.425 26.644 113.732 26.5516 112.993L26.1822 110.546C26.1822 110.5 26.1361 110.454 26.0899 110.408C26.0437 110.361 25.9975 110.361 25.9514 110.361C25.9052 110.361 25.8129 110.408 25.8129 110.408C25.7667 110.454 25.7205 110.5 25.7205 110.546L25.3511 112.993C25.2588 113.732 24.9817 114.378 24.6124 115.025C24.1968 115.625 23.6889 116.133 23.0887 116.548L22.7655 116.733C22.7193 116.779 22.7193 116.779 22.6731 116.825C22.6731 116.872 22.627 116.918 22.627 116.964C22.627 117.01 22.6269 117.056 22.6731 117.103C22.6731 117.149 22.7193 117.149 22.7655 117.195L23.0887 117.38C23.6889 117.795 24.1968 118.303 24.6124 118.903C25.0279 119.503 25.2588 120.196 25.3511 120.935L25.7205 123.382C25.7205 123.428 25.7667 123.474 25.8129 123.521C25.859 123.567 25.9052 123.567 25.9514 123.567C25.9975 123.567 26.0437 123.567 26.0899 123.521C26.1361 123.474 26.1822 123.428 26.1822 123.382L26.5516 120.935C26.644 120.196 26.921 119.55 27.2904 118.903C27.7059 118.303 28.2138 117.795 28.8141 117.38L29.1373 117.195C29.1834 117.149 29.1834 117.149 29.2296 117.103C29.2296 117.056 29.2758 117.01 29.2758 116.964C29.2758 116.918 29.2758 116.872 29.2296 116.825C29.2296 116.779 29.1834 116.779 29.1373 116.733L28.8141 116.548Z" fill="#FFE55C"/>
<path d="M18.5175 104.312C17.5479 103.712 16.763 102.881 16.1166 101.958C15.5163 100.988 15.1008 99.9261 14.9623 98.8179L14.362 94.9394C14.362 94.8471 14.3158 94.7547 14.2235 94.7086C14.1773 94.6624 14.085 94.6162 13.9926 94.6162C13.9003 94.6162 13.8079 94.6624 13.7618 94.7086C13.7156 94.7547 13.6694 94.8471 13.6233 94.9394L13.023 98.8179C12.8383 99.9261 12.4689 101.034 11.8225 101.958C11.2223 102.927 10.3912 103.712 9.46773 104.359L8.95983 104.682C8.91366 104.728 8.86749 104.774 8.82131 104.82C8.77514 104.867 8.77515 104.959 8.77515 105.005C8.77515 105.051 8.77514 105.144 8.82131 105.19C8.86749 105.236 8.91366 105.282 8.95983 105.328L9.46773 105.651C10.4374 106.252 11.2223 107.083 11.8225 108.052C12.4228 109.022 12.8383 110.084 13.023 111.192L13.6233 115.071C13.6233 115.163 13.6694 115.255 13.7618 115.302C13.8079 115.348 13.9003 115.394 13.9926 115.394C14.085 115.394 14.1773 115.348 14.2235 115.302C14.3158 115.255 14.3158 115.163 14.362 115.071L14.9623 111.192C15.1008 110.084 15.5163 108.976 16.1166 108.052C16.7168 107.083 17.5479 106.298 18.5175 105.698L19.0254 105.374C19.0716 105.328 19.1178 105.282 19.164 105.236C19.2101 105.19 19.2101 105.097 19.2101 105.051C19.2101 105.005 19.2101 104.913 19.164 104.867C19.1178 104.82 19.0716 104.774 19.0254 104.728L18.5175 104.312Z" fill="#FF78B7"/>
<path d="M205.193 91.9843C204.223 91.3841 203.439 90.553 202.792 89.6295C202.192 88.6599 201.776 87.5979 201.638 86.4898L201.038 82.6113C201.038 82.5189 200.991 82.4266 200.899 82.3804C200.853 82.3343 200.761 82.2881 200.668 82.2881C200.576 82.2881 200.483 82.3343 200.437 82.3804C200.391 82.4266 200.345 82.5189 200.299 82.6113L199.699 86.4898C199.514 87.5979 199.144 88.7061 198.498 89.6295C197.898 90.5991 197.067 91.3841 196.143 92.0305L195.635 92.3537C195.589 92.3999 195.543 92.446 195.497 92.4922C195.451 92.5384 195.451 92.6307 195.451 92.6769C195.451 92.7231 195.451 92.8154 195.497 92.8616C195.543 92.9078 195.589 92.9539 195.635 93.0001L196.143 93.3233C197.113 93.9236 197.898 94.7547 198.498 95.7243C199.098 96.6939 199.514 97.7559 199.699 98.864L200.299 102.743C200.299 102.835 200.345 102.927 200.437 102.973C200.483 103.02 200.576 103.066 200.668 103.066C200.761 103.066 200.853 103.02 200.899 102.973C200.991 102.927 200.991 102.835 201.038 102.743L201.638 98.864C201.776 97.7559 202.192 96.6477 202.792 95.7243C203.392 94.7547 204.223 93.9697 205.193 93.3695L205.701 93.0463C205.747 93.0001 205.793 92.9539 205.84 92.9078C205.886 92.8616 205.886 92.7692 205.886 92.7231C205.886 92.6769 205.886 92.5846 205.84 92.5384C205.793 92.4922 205.747 92.446 205.701 92.3999L205.193 91.9843Z" fill="#8AD7FF"/>
<path d="M163.638 13.4912C163.638 13.4912 178.875 13.4912 181.738 37.3162" stroke="#29CA7A" stroke-width="1.85544" stroke-miterlimit="10" stroke-linecap="round"/>
<path d="M183.954 1.57861C183.954 1.57861 199.191 20.6479 190.603 43.5033" stroke="#29CA7A" stroke-width="1.85544" stroke-miterlimit="10" stroke-linecap="round"/>
<defs>
<linearGradient id="paint0_linear_128_12" x1="124.513" y1="88.4947" x2="101.162" y2="154.454" gradientUnits="userSpaceOnUse">
<stop stop-color="#E9459D"/>
<stop offset="0.0384762" stop-color="#EA489E"/>
<stop offset="0.7087" stop-color="#FF78B7"/>
</linearGradient>
<linearGradient id="paint1_linear_128_12" x1="143.995" y1="104.792" x2="152.221" y2="142.901" gradientUnits="userSpaceOnUse">
<stop stop-color="#E9459D"/>
<stop offset="0.0714966" stop-color="#EA489E"/>
<stop offset="0.7087" stop-color="#FF78B7"/>
</linearGradient>
<linearGradient id="paint2_linear_128_12" x1="62.7176" y1="94.7347" x2="52.7457" y2="32.2581" gradientUnits="userSpaceOnUse">
<stop offset="0.2968" stop-color="#3442D7"/>
<stop offset="0.3425" stop-color="#3A48DB"/>
<stop offset="0.5455" stop-color="#505DEA"/>
<stop offset="0.676" stop-color="#5865F0"/>
</linearGradient>
<linearGradient id="paint3_linear_128_12" x1="141.116" y1="116.011" x2="120.145" y2="1.96538" gradientUnits="userSpaceOnUse">
<stop offset="0.0947534" stop-color="#57F085"/>
<stop offset="0.1771" stop-color="#5EF28A"/>
<stop offset="0.2976" stop-color="#72F797"/>
<stop offset="0.4303" stop-color="#8FFFAB"/>
</linearGradient>
</defs>
</svg>
