<svg width="407" height="224" viewBox="0 0 407 224" fill="none" xmlns="http://www.w3.org/2000/svg">
<g clip-path="url(#clip0_1_5692)">
<path d="M364.341 159.533C364.341 159.533 337.618 197.099 322.611 209.202C310.993 218.593 302.957 218.69 294.63 209.395C283.399 196.712 255.708 153.433 255.708 153.433C252.542 148.334 251.529 142.188 252.891 136.343C254.252 130.498 257.877 125.432 262.97 122.257C273.523 115.673 288.046 118.868 294.63 129.518L309.928 154.982L311.477 157.596L311.864 158.08L339.748 133.101L364.341 159.533Z" fill="#4C7DFF"/>
<path d="M311.477 157.596C308.673 160.939 306.238 164.575 304.215 168.44C304.107 168.688 303.932 168.901 303.71 169.055C303.488 169.209 303.227 169.298 302.956 169.312L302.279 169.118C301.949 168.933 301.698 168.635 301.573 168.278C301.448 167.921 301.458 167.531 301.601 167.182C303.903 162.811 306.697 158.718 309.928 154.982L311.477 157.596Z" fill="#2859D1"/>
<path d="M398.131 139.781L369.181 81.5922L367.245 77.6226L354.271 82.8509L358.434 91.8552L383.898 146.559L398.131 139.781Z" fill="#FF8C19"/>
<path d="M366.955 107.056L367.632 103.28C367.947 101.391 367.559 99.4519 366.543 97.8289C365.526 96.2058 363.951 95.0109 362.114 94.4694C358.047 93.2107 355.046 95.1472 352.916 98.5359C350.785 101.925 346.235 109.864 346.138 114.705C346.229 116.906 346.722 119.071 347.59 121.095L334.616 133.294C334.181 133.789 333.94 134.426 333.94 135.086C333.94 135.745 334.181 136.382 334.616 136.877C340.619 143.364 362.21 165.342 365.89 166.601C369.569 167.859 370.924 166.407 372.57 164.277L384.77 143.557L366.955 107.056Z" fill="#8F473B"/>
<path d="M388.449 92.4361C388.449 92.4361 375.572 90.4997 373.248 89.7251L389.998 136.586C389.998 136.586 401.132 130.68 404.812 123.225C408.491 115.77 406.167 111.8 403.262 108.411C400.358 105.023 399.486 103.861 399.099 100.375C398.228 91.4679 388.449 92.4361 388.449 92.4361Z" fill="#8F473B"/>
<path d="M369.181 81.5922L358.434 91.8552L354.271 82.8509L367.245 77.6226L369.181 81.5922Z" fill="black"/>
<path d="M403.456 144.719L383.995 154.014L377.798 146.172L401.132 134.94L403.456 144.719Z" fill="#ED5F00"/>
<path d="M372.861 78.3003L351.464 88.6601L342.847 78.3003L370.053 65.2295L372.861 78.3003Z" fill="#2859D1"/>
<path d="M406.554 45.4781L403.746 53.611L368.02 70.8451L365.405 72.1037L313.026 97.2771L304.796 94.4693L284.754 52.6428L287.562 44.5099L378.379 0.84375L386.512 3.74837L406.554 45.4781Z" fill="url(#paint0_linear_1_5692)"/>
<path d="M342.652 24.8553L362.694 66.5851L365.405 72.1038L368.019 70.8452L365.308 65.3264L345.267 23.5967L342.652 24.8553Z" fill="#4C7DFF"/>
<path opacity="0.5" d="M330.357 85.0778L315.543 90.887L319.222 34.1501L334.036 27.9536L330.357 85.0778Z" fill="white"/>
<path d="M406.554 45.478L403.747 53.611L368.02 70.845L365.406 72.1037L313.026 97.2771L304.796 94.4693L315.64 89.241L330.55 82.0762L362.695 66.5849L365.309 65.3263L406.554 45.478Z" fill="#4C7DFF"/>
<path d="M386.512 3.74837L345.267 23.5966L342.653 24.8553L334.036 28.9217L319.125 36.0865L284.754 52.6428L287.562 44.5099L378.379 0.84375L386.512 3.74837Z" fill="#8CD9FF"/>
<path d="M394.064 105.604L390.675 108.702L385.834 96.4058C385.834 96.4058 377.508 103.183 374.216 107.25C370.924 111.316 373.151 117.319 377.895 118.965C379.018 119.332 380.204 119.463 381.381 119.352C381.528 119.325 381.679 119.328 381.825 119.363C381.971 119.398 382.108 119.463 382.226 119.555C382.345 119.646 382.443 119.762 382.515 119.894C382.586 120.026 382.628 120.171 382.639 120.32C382.713 121.812 383.246 123.245 384.164 124.423C385.083 125.602 386.342 126.468 387.771 126.904C394.064 128.744 400.938 120.805 400.938 120.805L394.064 105.604Z" fill="#8F473B"/>
<path d="M389.127 94.082C389.998 92.7265 393.484 85.4649 388.836 79.9461C384.189 74.4274 380.122 77.2352 377.411 78.6875C374.7 80.1398 370.827 87.8854 368.794 93.0169C366.761 98.1484 370.634 104.926 376.056 105.12C383.608 105.41 388.255 95.4375 389.127 94.082Z" fill="#8F473B"/>
<path d="M393.29 93.0168L384.479 103.57C383.436 104.783 382.143 105.757 380.69 106.425C379.236 107.093 377.656 107.441 376.056 107.443H373.442C373.206 107.441 372.974 107.377 372.771 107.259C372.567 107.14 372.398 106.97 372.28 106.765L374.023 104.926L373.442 104.635H375.669C376.91 104.723 378.155 104.515 379.299 104.026C380.444 103.538 381.456 102.784 382.252 101.828L389.998 92.5327C391.108 92.5857 392.211 92.7478 393.29 93.0168Z" fill="#6B2F34"/>
<path d="M402.004 120.514C400.281 124.557 397.102 127.806 393.096 129.615L391.741 127.001C395.137 125.551 397.843 122.845 399.293 119.449C399.356 119.272 399.456 119.111 399.585 118.975C399.714 118.838 399.87 118.731 400.042 118.658C400.215 118.585 400.402 118.549 400.589 118.552C400.777 118.555 400.962 118.596 401.132 118.674C401.49 118.806 401.781 119.072 401.944 119.416C402.107 119.76 402.129 120.154 402.004 120.514Z" fill="#6B2F34"/>
<path d="M377.992 107.54C380.703 110.832 380.897 115.673 377.508 118.287C374.119 120.901 370.15 119.158 365.599 116.835C361.048 114.511 357.853 112.575 354.949 109.186C352.044 105.797 350.785 101.343 353.593 97.4706C354.984 95.6063 357.049 94.36 359.347 93.9981C361.645 93.6363 363.993 94.1876 365.889 95.5342C370.053 98.342 375.765 104.926 377.992 107.54Z" fill="url(#paint1_linear_1_5692)"/>
<path d="M303.924 149.076C296.953 155.563 273.232 173.378 269.65 175.895C266.068 178.413 262.679 180.059 260.065 176.476L258.612 174.443L256.773 172.023L255.805 173.378L254.449 175.411C252.261 178.527 249.728 181.386 246.897 183.932C246.897 183.932 244.477 200.101 239.539 213.559C238.452 216.484 236.498 219.007 233.936 220.79C231.375 222.572 228.33 223.529 225.209 223.531H120.352C115.318 223.531 109.509 216.367 111.348 208.524C129.26 133.294 146.204 87.2078 146.204 87.2078C146.204 87.2078 167.214 89.9187 179.026 91.8552L259.774 100.666C278.17 104.345 283.495 110.057 304.699 142.783C305.667 144.332 306.539 146.656 303.924 149.076Z" fill="#FFDAA2"/>
<path d="M254.74 174.927C255.039 174.374 255.396 173.855 255.805 173.378L254.45 175.411C254.442 175.31 254.465 175.209 254.517 175.123C254.569 175.036 254.647 174.967 254.74 174.927Z" fill="#FFC619"/>
<path d="M272.362 150.044C269.747 157.209 264.906 165.826 258.613 174.443L256.773 172.023C262.679 163.89 267.23 155.757 269.651 148.979C269.815 148.649 270.086 148.383 270.42 148.225C270.753 148.067 271.13 148.026 271.49 148.108C271.855 148.259 272.148 148.543 272.31 148.903C272.472 149.263 272.49 149.671 272.362 150.044Z" fill="#FFC619"/>
<path d="M259.387 134.263C259.419 135.524 259.355 136.787 259.194 138.039C257.741 151.206 245.929 161.953 231.503 163.502C225.21 164.18 216.108 162.921 210.009 159.726C194.033 151.109 182.899 136.78 176.606 128.744C170.312 120.708 166.827 114.318 166.246 108.896C165.084 97.5675 174.379 88.3696 185.707 87.3045C213.882 84.6904 247.478 90.1123 256.192 93.6947C264.906 97.2771 269.553 102.796 270.909 110.832C272.264 118.868 265.584 130.002 259.387 134.263Z" fill="#FF78B9"/>
<path d="M259.387 134.263C259.419 135.524 259.355 136.787 259.194 138.039C250.582 144.229 240.269 147.611 229.663 147.721C229.278 147.721 228.909 147.568 228.636 147.295C228.364 147.023 228.211 146.654 228.211 146.268C228.211 145.883 228.364 145.514 228.636 145.242C228.909 144.969 229.278 144.816 229.663 144.816C240.465 144.678 250.917 140.967 259.387 134.263Z" fill="#FF2EA2"/>
<path d="M156.079 153.82C160.641 154.829 164.652 157.527 167.307 161.372C169.961 165.217 171.061 169.924 170.387 174.547C169.712 179.17 167.313 183.366 163.671 186.293C160.029 189.219 155.414 190.659 150.754 190.322C150.754 190.322 84.529 202.037 67.6822 198.842C50.8354 195.647 54.321 179.478 60.9048 161.856C67.4886 144.235 71.3614 143.46 83.8513 144.526L156.079 153.82Z" fill="#4C7DFF"/>
<path d="M218.529 168.828L214.753 169.602H214.462C215.347 170.309 216.017 171.247 216.399 172.313C216.887 173.844 217.084 175.454 216.98 177.057C216.921 178.498 216.553 179.909 215.901 181.195C215.25 182.481 214.33 183.613 213.203 184.513C212.669 184.984 212.298 185.613 212.141 186.308C211.985 187.003 212.052 187.73 212.332 188.385C213.494 191.096 213.397 195.937 210.88 198.552C208.362 201.166 204.199 202.134 198.777 202.134C193.355 202.134 184.835 199.036 177.67 197.196C170.506 195.356 170.021 195.356 166.439 195.356L141.169 194.776L153.368 151.69L170.893 151.981C170.893 151.981 189.482 143.073 197.034 142.396C204.586 141.718 205.361 143.945 206.232 148.689C206.423 149.583 206.552 150.489 206.62 151.4H216.399C221.627 151.594 224.725 154.595 225.306 158.855C225.887 163.115 222.401 167.956 218.529 168.828Z" fill="#8F473B"/>
<path d="M211.074 151.497H210.59C210.59 151.497 206.039 151.593 201.876 151.981H201.682C201.491 151.987 201.301 151.956 201.123 151.889C200.944 151.822 200.78 151.72 200.641 151.59C200.502 151.459 200.389 151.303 200.311 151.129C200.232 150.955 200.188 150.768 200.181 150.577C200.175 150.386 200.206 150.196 200.273 150.017C200.341 149.839 200.442 149.675 200.573 149.536C200.703 149.396 200.86 149.284 201.033 149.205C201.207 149.126 201.395 149.082 201.585 149.076L206.233 148.786C206.423 149.68 206.552 150.585 206.62 151.497H211.074Z" fill="#6B2F34"/>
<path d="M216.399 172.41L209.912 172.797H209.815C209.637 172.81 209.458 172.788 209.289 172.732C209.119 172.676 208.962 172.587 208.827 172.47C208.692 172.353 208.582 172.21 208.502 172.05C208.423 171.891 208.375 171.717 208.363 171.538C208.336 171.353 208.347 171.164 208.397 170.983C208.447 170.802 208.534 170.633 208.652 170.488C208.77 170.342 208.918 170.222 209.085 170.137C209.251 170.051 209.434 170.001 209.622 169.989L214.753 169.602H214.463C215.362 170.335 216.034 171.309 216.399 172.41Z" fill="#6B2F34"/>
<path d="M189.387 193.129C189.038 193.114 188.705 192.981 188.442 192.752C188.178 192.524 187.999 192.213 187.934 191.871C187.907 191.672 187.921 191.47 187.976 191.278C188.031 191.085 188.125 190.906 188.252 190.751C188.379 190.597 188.537 190.47 188.716 190.38C188.894 190.289 189.09 190.236 189.29 190.225C190.299 190.121 191.276 189.809 192.159 189.309C193.042 188.809 193.812 188.132 194.421 187.32C195.094 186.545 195.59 185.632 195.874 184.645C196.158 183.659 196.224 182.622 196.067 181.608C195.965 180.845 195.769 180.097 195.486 179.381C195.074 178.322 195.011 177.158 195.307 176.061C195.603 174.963 196.243 173.989 197.132 173.281C198.163 172.479 198.971 171.426 199.48 170.222C199.988 169.019 200.18 167.705 200.037 166.407C199.946 165.381 199.64 164.385 199.14 163.484C198.639 162.584 197.955 161.798 197.132 161.179C196.357 160.506 195.444 160.01 194.457 159.726C193.471 159.442 192.434 159.376 191.42 159.533C191.05 159.561 190.683 159.446 190.395 159.212C190.107 158.978 189.919 158.642 189.871 158.274C189.843 158.083 189.855 157.889 189.903 157.702C189.952 157.515 190.038 157.34 190.155 157.187C190.272 157.034 190.418 156.905 190.586 156.809C190.753 156.713 190.938 156.652 191.129 156.628C193.934 156.322 196.747 157.121 198.972 158.855C201.157 160.652 202.577 163.214 202.941 166.02C203.153 167.809 202.899 169.623 202.204 171.286C201.508 172.948 200.395 174.403 198.972 175.508C198.563 175.813 198.266 176.243 198.126 176.733C197.986 177.222 198.011 177.745 198.197 178.219C198.602 179.21 198.862 180.253 198.972 181.317C199.278 184.122 198.479 186.935 196.745 189.16C194.974 191.377 192.399 192.804 189.58 193.129H189.387Z" fill="#6B2F34"/>
<path d="M225.597 41.702C201.005 58.6456 181.156 72.1037 155.886 88.2727C141.557 96.9866 128.486 74.9114 143.106 66.4881C169.054 51.384 191.032 37.8291 218.045 25.7266C223.176 23.4029 227.921 24.952 229.179 28.9216C230.438 32.8913 227.824 35.4086 227.824 35.4086C227.824 35.4086 229.276 38.8942 225.597 41.702Z" fill="url(#paint2_linear_1_5692)"/>
<path d="M143.783 64.0676L144.751 103.086L170.506 87.595C171.634 86.9258 172.481 85.8703 172.891 84.6241C173.3 83.3779 173.244 82.0255 172.733 80.8175L160.92 53.2236L143.783 64.0676Z" fill="#FFC619"/>
<path d="M100.117 79.6558L147.269 81.3017C148.721 101.925 145.72 125.549 145.72 125.549L86.1748 124C86.8525 116.06 94.7918 85.6586 100.117 79.6558Z" fill="#464B90"/>
<path d="M104.475 123.128V147.14C104.474 147.611 104.655 148.065 104.979 148.408C105.303 148.75 105.747 148.955 106.218 148.979L136.232 151.109C136.515 151.125 136.79 151.205 137.037 151.344C137.284 151.483 137.495 151.678 137.655 151.912C137.814 152.146 137.917 152.414 137.956 152.695C137.994 152.975 137.968 153.261 137.878 153.53L130.132 176.283L151.53 182.673L166.924 147.721C171.571 136.877 165.665 125.161 152.304 124.677L106.508 121.385C106.256 121.343 105.998 121.356 105.752 121.424C105.505 121.493 105.277 121.614 105.083 121.781C104.889 121.947 104.734 122.154 104.629 122.387C104.524 122.62 104.471 122.873 104.475 123.128Z" fill="black"/>
<path d="M140.588 81.7859C139.478 84.2853 138.046 86.6289 136.328 88.757C133.543 92.331 130.535 95.7264 127.324 98.9231C127.324 98.9231 123.838 93.9853 119.384 88.3697C117.545 86.046 115.512 83.5286 113.575 81.3018L140.588 81.7859Z" fill="#FFC619"/>
<path d="M140.588 81.7859C139.478 84.2853 138.046 86.6289 136.328 88.757C134.185 89.3778 131.974 89.7354 129.744 89.822C126.232 89.9521 122.725 89.4604 119.384 88.3697C117.545 86.046 115.512 83.5286 113.575 81.3018L140.588 81.7859Z" fill="#FF2EA2"/>
<path d="M160.146 182.576C156.951 180.736 150.271 178.897 150.271 178.897L124.807 172.313L120.837 185.481C119.191 190.903 122.483 196.615 128.195 198.358L153.369 205.426C160.437 207.556 165.181 202.521 166.73 197.486C168.279 192.452 165.471 185.578 160.146 182.576Z" fill="#AA5F44"/>
<path d="M42.606 31.3423C52.0944 22.0475 86.1753 16.8192 102.151 26.114L93.2432 39.1847C79.2042 39.1847 56.3545 43.0576 48.4152 43.6385C40.4759 44.2194 35.3445 38.4102 42.606 31.3423Z" fill="#FF78B9"/>
<path d="M54.3217 31.4391C60.3246 28.9217 77.1714 24.3711 94.3086 27.663L88.7898 34.9246C78.8173 34.8278 58.9691 37.4419 54.2249 37.7324C49.4807 38.0229 48.6093 33.9564 54.3217 31.4391Z" fill="#FFAED7"/>
<path d="M56.7415 2.39284C69.0377 -2.73865 102.634 5.20064 113.962 19.7237L100.795 28.5344C87.8209 23.3061 65.1649 18.3682 57.6129 15.9477C50.0609 13.5272 47.4467 6.26567 56.7415 2.39284Z" fill="#FF78B9"/>
<path d="M67.5854 6.8465C74.0724 6.74968 91.4032 8.78292 106.12 18.2713L98.2775 22.9187C89.0795 19.1427 69.7154 14.2049 65.1649 12.7526C60.6143 11.3003 61.3888 7.04014 67.5854 6.8465Z" fill="#FFAED7"/>
<path d="M153.853 17.4002L105.636 15.2701C96.2447 14.8828 88.3054 22.7253 87.9181 32.6978C87.5308 42.6703 94.7924 51.1906 104.184 51.3842L152.594 52.5461C161.405 52.7397 168.763 45.0909 169.054 35.5056C169.344 25.9204 162.567 17.7874 153.853 17.4002Z" fill="#FF78B9"/>
<path d="M154.628 46.2526L99.4399 44.7035C89.5642 44.5099 81.0439 52.8364 80.6567 63.5835C80.2694 74.3306 87.9182 82.9477 97.8907 83.0445L153.369 83.5286C162.664 83.6254 170.409 75.3957 170.7 65.1327C170.99 54.8697 163.922 46.5431 154.628 46.2526Z" fill="#FF78B9"/>
<path d="M130.684 48.4034C131.564 47.5445 130.946 45.4831 129.302 43.7992C127.659 42.1153 125.614 41.4466 124.733 42.3056C123.853 43.1645 124.472 45.2259 126.115 46.9098C127.758 48.5936 129.804 49.2624 130.684 48.4034Z" fill="black"/>
<path d="M149.86 47.8855C151.544 46.2423 152.212 44.1967 151.353 43.3164C150.494 42.4362 148.433 43.0548 146.749 44.698C145.065 46.3412 144.397 48.3869 145.255 49.2671C146.114 50.1473 148.176 49.5288 149.86 47.8855Z" fill="black"/>
<path d="M140.298 56.4188C140.062 58.3923 139.366 60.2827 138.265 61.9376C136.813 64.1645 134.876 65.7136 133.134 65.3263C131.391 64.9391 129.067 61.1631 128.97 57.6775C128.88 56.3674 129.044 55.0522 129.454 53.8047L140.298 56.4188Z" fill="black"/>
<path d="M138.265 61.9376C136.812 64.1645 134.876 65.7136 133.133 65.3263C131.39 64.939 129.067 61.163 128.97 57.6775C133.23 57.8711 136.812 59.5171 138.265 61.9376Z" fill="#FF2EA2"/>
<path d="M144.365 142.396C143.687 144.332 128.68 184.125 128.68 184.125L102.345 181.221L110.865 152.659H110.768L107.767 152.465L95.9545 151.884C93.8125 151.759 91.7223 151.177 89.8246 150.175C87.927 149.174 86.2661 147.778 84.9539 146.08C83.6418 144.383 82.7089 142.423 82.2181 140.335C81.7274 138.246 81.6902 136.076 82.1091 133.972L85.1106 119.546L134.102 123.419C141.751 124.774 147.657 132.714 144.365 142.396Z" fill="#242145"/>
<path d="M113.576 144.526L110.768 152.658L107.767 152.465L110.768 143.654C110.884 143.282 111.142 142.971 111.487 142.789C111.832 142.607 112.235 142.57 112.608 142.686C112.98 142.801 113.291 143.06 113.473 143.405C113.654 143.75 113.691 144.153 113.576 144.526Z" fill="black"/>
<path d="M107.088 92.7265C104.571 91.6615 99.7299 91.952 99.7299 91.952L99.4395 97.4707C101.957 97.2771 109.606 97.2771 109.606 97.2771C109.606 97.2771 109.993 93.9852 107.088 92.7265Z" fill="#FF78B9"/>
<path d="M109.896 96.793C103.118 96.5993 96.2441 96.0184 89.2731 96.4057L86.8525 120.03C94.1141 118.287 101.279 116.738 108.347 114.898C111.251 114.221 113.478 109.961 114.64 106.185C115.802 102.409 115.415 96.9866 109.896 96.793Z" fill="#FF78B9"/>
<path d="M89.4672 64.8423C85.3888 65.5655 81.1875 64.7337 77.6923 62.5112C74.1971 60.2886 71.662 56.8366 70.5871 52.8365L69.038 47.4146L16.5612 59.033L17.4326 64.6486C18.1558 68.727 17.3241 72.9283 15.1015 76.4235C12.8789 79.9187 9.42696 82.4538 5.42684 83.5287L0.00488281 85.0778L6.10458 112.575C14.8184 151.69 62.8415 164.471 64.8747 165.052L67.7793 165.729L70.1999 163.793C77.2776 157.622 83.5262 150.56 88.7894 142.783C100.505 125.549 104.765 107.734 101.182 91.4679L95.0828 63.9709L89.4672 64.8423Z" fill="#66BCFF"/>
<path d="M101.182 91.4679L95.0828 63.9709L89.4672 64.8423C85.3888 65.5655 81.1875 64.7337 77.6923 62.5112C74.1971 60.2886 71.662 56.8366 70.5871 52.8365L69.038 47.4146L16.5612 59.033L17.4326 64.6486C18.1558 68.727 17.3241 72.9283 15.1015 76.4235C12.8789 79.9187 9.42696 82.4538 5.42684 83.5287L0.00488281 85.0778L6.10458 112.575C14.8184 151.69 62.8415 164.471 64.8747 165.052L67.7793 165.729L70.1999 163.793C77.2776 157.622 83.5262 150.56 88.7894 142.783C100.505 125.549 104.765 107.734 101.182 91.4679ZM67.2952 160.404L66.7143 160.792L66.0366 160.598C65.5525 160.404 18.5944 147.914 10.5583 111.51L5.33002 88.2729L6.68551 87.8856C11.7345 86.4955 16.0865 83.278 18.8957 78.8583C21.705 74.4387 22.7709 69.1325 21.8864 63.9709L21.6927 62.5186L65.8429 52.7397L66.2302 54.0952C67.6407 59.1518 70.877 63.5055 75.3126 66.3135C79.7481 69.1215 85.0677 70.1842 90.2417 69.296L91.5972 69.1024L96.7287 92.4362C104.862 128.841 67.6825 160.017 67.2952 160.404Z" fill="#8CD9FF"/>
<path d="M63.2292 94.0821C60.9719 93.5965 58.6617 93.4013 56.3549 93.5012C56.1613 94.0821 56.0645 94.7599 55.8708 95.3408L52.4821 95.8249C51.2256 96.1095 49.995 96.4982 48.8029 96.9868C48.4373 96.4288 48.0155 95.9097 47.5442 95.4376C45.4121 96.3172 43.3961 97.4553 41.5414 98.8263C39.0657 104.803 38.8251 111.47 40.8636 117.61C43.6652 118.794 46.6412 119.513 49.6743 119.74C50.0871 118.728 50.4427 117.693 50.7393 116.641C49.7439 116.554 48.7659 116.326 47.8347 115.964L48.3188 115.383C51.0467 115.941 53.8616 115.92 56.5805 115.319C59.2995 114.718 61.8617 113.553 64.1006 111.897L64.8751 112.188C64.1349 112.884 63.3236 113.5 62.4546 114.027C63.179 114.881 63.955 115.689 64.7783 116.448C67.3897 114.924 69.7427 112.996 71.7494 110.735C71.0517 104.326 68.0188 98.3979 63.2292 94.0821ZM50.352 111.703C49.5689 111.845 48.7618 111.669 48.1081 111.215C47.4545 110.761 47.0079 110.066 46.8665 109.283C46.6571 108.5 46.7629 107.666 47.1611 106.96C47.5593 106.254 48.2182 105.733 48.9966 105.507C49.7734 105.434 50.5502 105.648 51.1804 106.108C51.8105 106.568 52.2505 107.243 52.4172 108.005C52.584 108.768 52.466 109.564 52.0856 110.246C51.7051 110.927 51.0885 111.446 50.352 111.703ZM60.7119 109.38C60.3229 109.464 59.9208 109.466 59.5307 109.388C59.1405 109.31 58.7706 109.153 58.4438 108.926C58.1169 108.699 57.8402 108.407 57.6308 108.069C57.4214 107.731 57.2837 107.353 57.2263 106.959C57.0169 106.176 57.1227 105.343 57.5209 104.637C57.9191 103.931 58.578 103.409 59.3564 103.183C59.7511 103.114 60.1557 103.125 60.5462 103.215C60.9367 103.305 61.3052 103.472 61.6301 103.707C61.955 103.941 62.2296 104.239 62.4377 104.581C62.6458 104.924 62.7833 105.304 62.8419 105.701C62.9583 106.082 62.9949 106.483 62.9494 106.88C62.9039 107.276 62.7773 107.659 62.5775 108.004C62.3777 108.349 62.1089 108.649 61.7879 108.886C61.4669 109.123 61.1006 109.291 60.7119 109.38Z" fill="white"/>
<path d="M139.427 185.771C136.231 183.932 129.454 181.995 129.454 181.995L103.99 175.508L100.021 188.676C99.6701 190.004 99.585 191.389 99.7701 192.751C99.9552 194.112 100.407 195.424 101.099 196.611C101.792 197.798 102.711 198.837 103.805 199.668C104.899 200.5 106.147 201.107 107.476 201.456L132.649 208.621C139.717 210.751 144.461 205.716 146.01 200.682C147.559 195.647 144.752 188.773 139.427 185.771Z" fill="#D18D5E"/>
<path d="M215.237 58.2583C211.364 61.3566 202.94 57.6774 196.744 53.3204C194.454 51.7496 192.372 49.8953 190.547 47.8017C186.19 42.1861 189.192 36.7641 194.711 32.3104C200.229 27.8566 206.329 26.3075 210.686 31.8263C212.293 33.9595 213.597 36.3056 214.559 38.7973C217.463 45.8653 219.206 55.16 215.237 58.2583Z" fill="#242145"/>
<path d="M215.237 58.2583C211.364 61.3566 202.941 57.6774 196.744 53.3205C200.811 46.1557 206.62 40.4433 214.559 38.7974C217.464 45.8653 219.207 55.1601 215.237 58.2583Z" fill="black"/>
<path d="M243.509 75.9764C248.447 65.8103 263.454 50.5126 263.938 55.6441C264.809 64.5516 261.324 81.0111 249.608 90.8868L243.509 75.9764Z" fill="#2859D1"/>
<path d="M198.681 73.0719C193.549 62.9057 178.348 47.8017 177.961 52.9332C177.187 61.9375 180.963 78.3002 192.775 88.0791L198.681 73.0719Z" fill="#4C7DFF"/>
<path d="M187.933 78.9778C187.18 80.0517 186.372 81.0858 185.513 82.0761L184.254 83.5284C183.77 84.0125 183.479 84.5934 182.511 84.5934C181.925 84.5519 181.371 84.3066 180.947 83.8998C180.523 83.4931 180.254 82.9506 180.188 82.3665C180.188 81.3983 180.768 81.1079 181.156 80.6238L182.608 79.2683C183.564 78.3775 184.566 77.5373 185.609 76.7509C185.96 76.519 186.386 76.4299 186.8 76.5019C187.214 76.5739 187.585 76.8016 187.836 77.1382C188.013 77.4093 188.115 77.722 188.132 78.045C188.149 78.368 188.08 78.6897 187.933 78.9778Z" fill="#FFE75C"/>
<path d="M258.903 107.346C258.225 118.674 245.154 132.036 225.016 132.036C207.007 132.036 184.932 122.838 185.416 99.5039C185.61 91.4678 191.032 77.5256 193.936 69.4895C194.453 68.134 194.84 66.9722 195.098 66.004C197.615 57.871 201.972 50.1254 208.266 45.478L209.137 44.9939C213.738 41.8872 219.32 40.578 224.822 41.3147C234.698 42.5734 240.313 46.8335 243.605 52.0618C246.897 57.2901 248.156 65.7135 248.543 70.9418C248.93 76.1701 249.899 80.8175 252.61 85.5617C255.321 90.3059 259.484 98.4389 258.903 107.346Z" fill="#4C7DFF"/>
<path d="M243.606 52.0618C240.314 46.8335 234.698 42.5734 224.822 41.3147C219.32 40.578 213.738 41.8872 209.137 44.9939L208.266 45.478C201.973 50.1254 197.616 57.871 195.098 66.004C194.776 66.9722 194.388 68.134 193.937 69.4895C200.811 71.5227 208.556 67.7467 211.461 60.4852C212.255 58.6173 212.664 56.6086 212.664 54.5791C212.664 52.5496 212.255 50.541 211.461 48.6731C216.399 52.5459 224.532 55.0632 231.987 55.0632C236.925 55.0632 240.798 53.9014 243.606 52.0618Z" fill="#242145"/>
<path d="M254.449 81.2048C255.171 82.3013 255.981 83.3374 256.87 84.3031L258.129 85.7554C258.613 86.2395 258.903 86.8204 259.871 86.8204C260.458 86.779 261.011 86.5336 261.436 86.1269C261.86 85.7201 262.129 85.1777 262.195 84.5936C262.195 83.6254 261.614 83.2381 261.227 82.754L259.775 81.3985L256.773 78.978C256.402 78.7605 255.966 78.6801 255.541 78.7509C255.117 78.8216 254.73 79.039 254.449 79.3652C254.305 79.6503 254.229 79.9654 254.229 80.285C254.229 80.6047 254.305 80.9198 254.449 81.2048Z" fill="#FFE75C"/>
<path d="M185.9 16.8191C184.945 16.1844 184.132 15.357 183.515 14.3899C182.898 13.4228 182.491 12.3375 182.318 11.2035L181.737 7.33064C181.737 7.22793 181.696 7.12942 181.623 7.05679C181.551 6.98416 181.452 6.94336 181.35 6.94336C181.247 6.94336 181.148 6.98416 181.076 7.05679C181.003 7.12942 180.962 7.22793 180.962 7.33064L180.381 11.2035C180.209 12.3375 179.801 13.4228 179.184 14.3899C178.567 15.357 177.754 16.1844 176.799 16.8191L176.218 17.1095C176.158 17.1546 176.109 17.2131 176.076 17.2803C176.042 17.3475 176.024 17.4217 176.024 17.4968C176.024 17.5936 176.121 17.7873 176.218 17.7873L176.799 18.1746C177.754 18.8092 178.567 19.6367 179.184 20.6037C179.801 21.5708 180.209 22.6562 180.381 23.7902L180.962 27.663C180.962 27.7657 181.003 27.8642 181.076 27.9368C181.148 28.0095 181.247 28.0503 181.35 28.0503C181.452 28.0503 181.551 28.0095 181.623 27.9368C181.696 27.8642 181.737 27.7657 181.737 27.663L182.318 23.7902C182.491 22.6562 182.898 21.5708 183.515 20.6037C184.132 19.6367 184.945 18.8092 185.9 18.1746L186.481 17.7873C186.578 17.7873 186.675 17.5936 186.675 17.4968C186.675 17.4217 186.657 17.3475 186.624 17.2803C186.59 17.2131 186.541 17.1546 186.481 17.1095L185.9 16.8191Z" fill="#8CD9FF"/>
<path d="M23.2419 23.7903C22.2864 23.1556 21.4741 22.3282 20.8572 21.3611C20.2403 20.394 19.8323 19.3087 19.6596 18.1747L19.0786 14.3018C19.0786 14.1991 19.0378 14.1006 18.9652 14.028C18.8926 13.9554 18.7941 13.9146 18.6913 13.9146C18.5886 13.9146 18.4901 13.9554 18.4175 14.028C18.3449 14.1006 18.3041 14.1991 18.3041 14.3018L17.7231 18.1747C17.5504 19.3087 17.1424 20.394 16.5255 21.3611C15.9086 22.3282 15.0963 23.1556 14.1408 23.7903L13.5599 24.0807C13.4997 24.1258 13.4509 24.1843 13.4173 24.2515C13.3837 24.3187 13.3662 24.3928 13.3662 24.468C13.3662 24.5648 13.463 24.7585 13.5599 24.7585L14.1408 25.1457C15.0963 25.7804 15.9086 26.6078 16.5255 27.5749C17.1424 28.542 17.5504 29.6273 17.7231 30.7613L18.3041 34.6342C18.3041 34.8278 18.4977 34.9246 18.6913 34.9246C18.885 34.9246 19.0786 34.8278 19.0786 34.6342L19.6596 30.7613C19.8323 29.6273 20.2403 28.542 20.8572 27.5749C21.4741 26.6078 22.2864 25.7804 23.2419 25.1457L23.8228 24.7585C23.9197 24.7585 24.0165 24.5648 24.0165 24.468C24.0165 24.3928 23.999 24.3187 23.9654 24.2515C23.9318 24.1843 23.883 24.1258 23.8228 24.0807L23.2419 23.7903Z" fill="#808AFF"/>
<path d="M271.393 15.3669C269.964 14.4611 268.747 13.2564 267.828 11.8357C266.909 10.4151 266.308 8.81211 266.068 7.13715L265.196 1.32791C265.173 1.19116 265.102 1.06718 264.995 0.978396C264.889 0.889609 264.754 0.841869 264.615 0.843807C264.477 0.841869 264.342 0.889609 264.235 0.978396C264.129 1.06718 264.058 1.19116 264.035 1.32791L263.163 7.13715C262.923 8.81211 262.322 10.4151 261.403 11.8357C260.483 13.2564 259.267 14.4611 257.838 15.3669L257.16 15.851C257.067 15.8912 256.989 15.9595 256.937 16.0463C256.885 16.1332 256.861 16.2342 256.87 16.3351C256.861 16.436 256.885 16.537 256.937 16.6239C256.989 16.7107 257.067 16.779 257.16 16.8192L257.838 17.3033C259.262 18.2384 260.472 19.4634 261.389 20.8982C262.307 22.3331 262.911 23.9454 263.163 25.6299L264.035 31.3423C264.058 31.4791 264.129 31.603 264.235 31.6918C264.342 31.7806 264.477 31.8284 264.615 31.8264C264.754 31.8284 264.889 31.7806 264.995 31.6918C265.102 31.603 265.173 31.4791 265.196 31.3423L266.068 25.6299C266.32 23.9454 266.924 22.3331 267.842 20.8982C268.759 19.4634 269.969 18.2384 271.393 17.3033L272.167 16.8192C272.26 16.779 272.338 16.7107 272.391 16.6239C272.443 16.537 272.466 16.436 272.458 16.3351C272.466 16.2342 272.443 16.1332 272.391 16.0463C272.338 15.9595 272.26 15.8912 272.167 15.851L271.393 15.3669Z" fill="#FFE75C"/>
<path d="M27.2113 192.645C25.8068 191.712 24.6092 190.5 23.6932 189.084C22.7771 187.668 22.162 186.079 21.8861 184.416L21.0147 178.606C20.9916 178.47 20.9204 178.346 20.8138 178.257C20.7073 178.168 20.5725 178.12 20.4338 178.122C20.2951 178.12 20.1603 178.168 20.0538 178.257C19.9472 178.346 19.876 178.47 19.8529 178.606L19.0783 184.416C18.8024 186.091 18.1771 187.69 17.243 189.107C16.3088 190.525 15.0868 191.731 13.6564 192.645L12.9786 193.13C12.8856 193.17 12.8076 193.238 12.7555 193.325C12.7034 193.412 12.6798 193.513 12.6882 193.614C12.6798 193.715 12.7034 193.816 12.7555 193.902C12.8076 193.989 12.8856 194.058 12.9786 194.098L13.6564 194.582C15.0817 195.525 16.2984 196.751 17.231 198.183C18.1636 199.615 18.7924 201.223 19.0783 202.908L19.8529 208.621C19.876 208.758 19.9472 208.882 20.0538 208.97C20.1603 209.059 20.2951 209.107 20.4338 209.105C20.5725 209.107 20.7073 209.059 20.8138 208.97C20.9204 208.882 20.9916 208.758 21.0147 208.621L21.8861 202.908C22.1765 201.237 22.7969 199.639 23.7112 198.21C24.6255 196.78 25.8153 195.547 27.2113 194.582L27.9858 194.098C28.0788 194.058 28.1568 193.989 28.2089 193.902C28.261 193.816 28.2846 193.715 28.2763 193.614C28.2846 193.513 28.261 193.412 28.2089 193.325C28.1568 193.238 28.0788 193.17 27.9858 193.13L27.2113 192.645Z" fill="#34F4CF"/>
<path d="M386.319 186.933C385.364 186.298 384.551 185.471 383.934 184.504C383.317 183.537 382.909 182.451 382.737 181.317L382.156 177.445C382.156 177.342 382.115 177.243 382.042 177.171C381.97 177.098 381.871 177.057 381.768 177.057C381.666 177.057 381.567 177.098 381.495 177.171C381.422 177.243 381.381 177.342 381.381 177.445L380.8 181.317C380.628 182.463 380.21 183.558 379.575 184.528C378.94 185.497 378.103 186.318 377.121 186.933L376.637 187.223C376.577 187.269 376.528 187.327 376.494 187.394C376.461 187.461 376.443 187.536 376.443 187.611C376.443 187.708 376.54 187.901 376.637 187.901L377.121 188.288C378.103 188.904 378.94 189.724 379.575 190.694C380.21 191.663 380.628 192.758 380.8 193.904L381.381 197.777C381.381 197.971 381.575 198.067 381.768 198.067C381.962 198.067 382.156 197.971 382.156 197.777L382.737 193.904C382.909 192.77 383.317 191.685 383.934 190.718C384.551 189.751 385.364 188.923 386.319 188.288L386.9 187.901C386.997 187.901 386.997 187.708 386.997 187.611C386.997 187.417 386.997 187.32 386.9 187.223L386.319 186.933Z" fill="#FFAED7"/>
<path d="M228.792 87.8856C232.589 87.8856 235.666 83.5941 235.666 78.3003C235.666 73.0065 232.589 68.7151 228.792 68.7151C224.996 68.7151 221.918 73.0065 221.918 78.3003C221.918 83.5941 224.996 87.8856 228.792 87.8856Z" fill="white"/>
<path d="M230.825 82.4636C232.75 82.4636 234.311 80.2962 234.311 77.6225C234.311 74.9489 232.75 72.7815 230.825 72.7815C228.9 72.7815 227.34 74.9489 227.34 77.6225C227.34 80.2962 228.9 82.4636 230.825 82.4636Z" fill="black"/>
<path d="M244.477 106.669C243.555 108.607 242.311 110.375 240.798 111.897C239.128 113.581 237.2 114.987 235.085 116.06L233.342 116.835C230.959 117.721 228.429 118.148 225.887 118.094C223.364 117.928 220.882 117.373 218.529 116.448C216.198 115.521 214.039 114.212 212.139 112.575C209.755 110.565 207.894 108.007 206.717 105.12C206.28 103.893 205.956 102.629 205.748 101.344C205.168 98.0517 206.039 94.663 208.75 93.2107C211.461 91.7584 212.235 92.1456 214.753 92.8234C219.787 94.2757 224.048 97.9549 229.082 97.9549C232.568 97.9549 235.085 95.9217 238.958 96.0185L241.669 96.3089C244.67 97.0835 247.285 100.86 244.477 106.669Z" fill="black"/>
<path d="M240.797 111.897C239.128 113.581 237.199 114.987 235.085 116.06L233.342 116.835C233.328 116.698 233.362 116.561 233.439 116.447L234.02 114.705L236.053 109.283C236.828 106.669 238.474 105.991 239.732 108.895C240.188 109.857 240.544 110.863 240.797 111.897Z" fill="white"/>
<path d="M235.085 116.06L233.342 116.835C230.959 117.721 228.43 118.148 225.887 118.094C223.364 117.928 220.882 117.373 218.529 116.448C216.198 115.521 214.039 114.212 212.139 112.575C209.755 110.565 207.894 108.007 206.717 105.12C208.283 104.843 209.871 104.713 211.461 104.732C220.465 104.732 229.276 108.799 234.02 114.705C234.427 115.113 234.785 115.568 235.085 116.06Z" fill="#FF2EA2"/>
<path d="M218.529 116.447C216.198 115.521 214.039 114.212 212.139 112.575L213.301 109.283C214.075 106.669 215.818 105.991 217.077 108.895C218.123 111.271 218.62 113.853 218.529 116.447Z" fill="white"/>
<path d="M238.958 96.0184C237.506 101.344 231.89 102.409 225.21 102.021C218.529 101.634 210.493 98.8262 208.75 93.2106C210.202 92.3392 212.236 92.1456 214.753 92.8233C219.788 94.2756 224.048 97.9548 229.082 97.9548C232.568 97.9548 235.085 95.9216 238.958 96.0184Z" fill="white"/>
<path d="M238.184 63.6803C238.184 66.9723 233.924 70.2641 228.792 70.2641C223.661 70.2641 219.304 66.7786 219.304 63.4867C219.304 60.1948 223.564 61.2598 228.792 61.2598C234.02 61.2598 238.184 60.3884 238.184 63.6803Z" fill="#242145"/>
</g>
<defs>
<linearGradient id="paint0_linear_1_5692" x1="419.393" y1="13.7112" x2="300.691" y2="70.6418" gradientUnits="userSpaceOnUse">
<stop stop-color="#8CD9FF"/>
<stop offset="0.32" stop-color="#79CBFF"/>
<stop offset="0.69" stop-color="#6BC0FF"/>
<stop offset="1" stop-color="#66BCFF"/>
</linearGradient>
<linearGradient id="paint1_linear_1_5692" x1="390.772" y1="118.984" x2="330.85" y2="88.1855" gradientUnits="userSpaceOnUse">
<stop offset="0.06" stop-color="#AA5F44"/>
<stop offset="0.29" stop-color="#A15741"/>
<stop offset="0.59" stop-color="#8F473B"/>
</linearGradient>
<linearGradient id="paint2_linear_1_5692" x1="148.96" y1="77.44" x2="229.78" y2="32.5639" gradientUnits="userSpaceOnUse">
<stop stop-color="#FF2EA2"/>
<stop offset="0.36" stop-color="#FF4EAC"/>
<stop offset="0.77" stop-color="#FF78B9"/>
</linearGradient>
<clipPath id="clip0_1_5692">
<rect width="406.647" height="222.688" fill="white" transform="translate(0.00488281 0.84375)"/>
</clipPath>
</defs>
</svg>
