<svg width="720" height="333" viewBox="0 0 720 333" fill="none" xmlns="http://www.w3.org/2000/svg">
<rect x="103.495" y="124.004" width="82.8842" height="82.8842" rx="18" fill="url(#paint0_linear_315_421)" fill-opacity="0.4"/>
<g clip-path="url(#clip0_315_421)">
<path d="M162.74 156.683C162.167 156.483 161.573 156.295 160.961 156.116C161.062 155.702 161.154 155.292 161.236 154.89C162.583 148.285 161.702 142.964 158.696 141.213C155.814 139.533 151.099 141.284 146.338 145.471C145.88 145.874 145.421 146.3 144.962 146.747C144.656 146.451 144.351 146.166 144.047 145.893C139.057 141.415 134.055 139.529 131.052 141.286C128.172 142.97 127.319 147.972 128.531 154.232C128.648 154.836 128.785 155.454 128.94 156.082C128.232 156.285 127.549 156.501 126.895 156.731C121.045 158.792 117.309 162.023 117.309 165.373C117.309 168.834 121.319 172.305 127.413 174.409C127.893 174.575 128.392 174.732 128.907 174.881C128.74 175.56 128.595 176.226 128.473 176.875C127.317 183.025 128.22 187.909 131.092 189.583C134.058 191.312 139.037 189.535 143.886 185.253C144.269 184.914 144.653 184.555 145.039 184.179C145.538 184.665 146.036 185.125 146.532 185.556C151.228 189.64 155.867 191.289 158.736 189.61C161.7 187.876 162.663 182.63 161.413 176.246C161.317 175.759 161.206 175.261 161.081 174.754C161.431 174.649 161.774 174.542 162.109 174.429C168.443 172.309 172.565 168.88 172.565 165.373C172.565 162.011 168.708 158.759 162.74 156.683ZM161.366 172.165C161.064 172.266 160.754 172.364 160.438 172.459C159.739 170.222 158.795 167.843 157.64 165.385C158.742 162.986 159.65 160.637 160.329 158.414C160.895 158.58 161.443 158.754 161.972 158.938C167.085 160.717 170.204 163.347 170.204 165.373C170.204 167.532 166.836 170.334 161.366 172.165ZM159.097 176.71C159.65 179.532 159.729 182.084 159.363 184.079C159.033 185.872 158.372 187.067 157.553 187.546C155.812 188.564 152.088 187.24 148.072 183.748C147.611 183.347 147.148 182.92 146.682 182.468C148.239 180.747 149.796 178.746 151.314 176.525C153.985 176.285 156.509 175.894 158.798 175.359C158.91 175.818 159.011 176.269 159.097 176.71ZM136.147 187.37C134.445 187.977 133.09 187.994 132.271 187.517C130.528 186.501 129.804 182.58 130.792 177.319C130.905 176.717 131.04 176.098 131.195 175.466C133.459 175.972 135.964 176.336 138.642 176.555C140.171 178.729 141.772 180.727 143.385 182.477C143.033 182.821 142.681 183.148 142.332 183.457C140.188 185.35 138.04 186.694 136.147 187.37ZM128.176 172.152C125.482 171.221 123.257 170.012 121.731 168.692C120.361 167.506 119.669 166.329 119.669 165.373C119.669 163.34 122.669 160.747 127.672 158.984C128.279 158.77 128.914 158.568 129.574 158.379C130.265 160.652 131.172 163.028 132.267 165.431C131.158 167.87 130.238 170.284 129.54 172.584C129.07 172.447 128.614 172.303 128.176 172.152ZM130.848 153.774C129.809 148.411 130.499 144.365 132.235 143.35C134.083 142.269 138.171 143.811 142.479 147.676C142.755 147.923 143.031 148.182 143.308 148.45C141.703 150.192 140.117 152.175 138.601 154.336C136.002 154.579 133.515 154.97 131.228 155.494C131.084 154.909 130.957 154.335 130.848 153.774ZM154.683 159.721C154.136 158.767 153.575 157.835 153.003 156.929C154.766 157.154 156.455 157.453 158.041 157.819C157.565 159.361 156.971 160.974 156.272 162.627C155.771 161.665 155.241 160.696 154.683 159.721ZM144.963 150.154C146.052 151.346 147.142 152.677 148.215 154.121C147.134 154.07 146.04 154.043 144.937 154.043C143.844 154.043 142.758 154.069 141.684 154.12C142.757 152.689 143.857 151.36 144.963 150.154ZM135.181 159.738C134.635 160.695 134.114 161.659 133.621 162.625C132.934 160.978 132.346 159.358 131.865 157.794C133.442 157.437 135.123 157.145 136.875 156.925C136.294 157.839 135.729 158.778 135.181 159.737V159.738ZM136.925 173.992C135.115 173.788 133.409 173.512 131.833 173.165C132.321 171.573 132.922 169.918 133.624 168.235C134.118 169.201 134.641 170.165 135.19 171.124H135.19C135.75 172.102 136.33 173.059 136.925 173.992ZM145.028 180.76C143.91 179.54 142.794 178.191 141.704 176.74C142.762 176.782 143.84 176.803 144.937 176.803C146.063 176.803 147.176 176.777 148.272 176.728C147.196 178.206 146.11 179.557 145.028 180.76ZM156.295 168.15C157.034 169.851 157.656 171.496 158.15 173.061C156.548 173.431 154.819 173.728 152.996 173.949C153.57 173.031 154.136 172.083 154.692 171.108C155.255 170.122 155.79 169.134 156.295 168.15ZM152.648 169.916C151.784 171.43 150.897 172.875 149.997 174.238C148.357 174.357 146.663 174.418 144.937 174.418C143.217 174.418 141.544 174.364 139.934 174.258C138.997 172.877 138.091 171.428 137.233 169.929H137.233C136.377 168.435 135.589 166.929 134.876 165.43C135.589 163.929 136.375 162.42 137.226 160.929L137.226 160.929C138.079 159.434 138.977 157.992 139.905 156.619C141.548 156.494 143.234 156.428 144.937 156.428H144.937C146.647 156.428 148.335 156.494 149.977 156.621C150.891 157.984 151.783 159.421 152.64 160.916C153.506 162.429 154.302 163.927 155.022 165.397C154.304 166.891 153.51 168.405 152.648 169.916ZM157.517 143.279C159.367 144.357 160.087 148.706 158.924 154.409C158.85 154.773 158.767 155.143 158.676 155.519C156.384 154.984 153.894 154.586 151.288 154.339C149.77 152.154 148.196 150.168 146.617 148.449C147.042 148.036 147.466 147.642 147.888 147.271C151.967 143.683 155.78 142.267 157.517 143.279ZM144.937 160.387C147.662 160.387 149.871 162.619 149.871 165.373C149.871 168.127 147.662 170.359 144.937 170.359C142.212 170.359 140.002 168.127 140.002 165.373C140.002 162.619 142.212 160.387 144.937 160.387Z" fill="white"/>
</g>
<rect x="42" y="238.972" width="49.9088" height="49.9088" rx="18" fill="url(#paint1_linear_315_421)" fill-opacity="0.4"/>
<g clip-path="url(#clip1_315_421)">
<path d="M78.6185 252.898C75.6348 248.757 69.742 247.53 65.4812 250.162L57.9982 254.787C55.9542 256.034 54.5464 258.058 54.1198 260.363C53.7629 262.283 54.0766 264.263 55.0114 265.991C54.3709 266.933 53.934 267.992 53.7272 269.102C53.2965 271.451 53.8599 273.87 55.29 275.811C58.2743 279.953 64.1671 281.18 68.4273 278.547L75.9102 273.923C77.9544 272.676 79.3623 270.652 79.7886 268.347C80.1455 266.427 79.832 264.446 78.8977 262.718C79.5381 261.776 79.9748 260.718 80.1814 259.607C80.6123 257.258 80.049 254.84 78.6186 252.898" fill="white" fill-opacity="0.4"/>
<path d="M64.7496 276.205C62.3369 276.814 59.789 275.898 58.3681 273.911C57.5076 272.744 57.1687 271.289 57.4278 269.876C57.4712 269.646 57.531 269.419 57.6066 269.198L57.7476 268.781L58.1311 269.054C59.0167 269.685 60.007 270.165 61.0591 270.473L61.3373 270.555L61.3117 270.824C61.2777 271.207 61.3846 271.589 61.6136 271.903C62.0412 272.501 62.8083 272.777 63.535 272.595C63.6976 272.552 63.8527 272.486 63.9947 272.399L71.4801 267.773C71.8504 267.547 72.1057 267.18 72.1834 266.763C72.261 266.337 72.1589 265.898 71.9 265.546C71.4721 264.948 70.7048 264.672 69.9779 264.854C69.8154 264.896 69.6606 264.962 69.5187 265.05L66.6623 266.816C66.1927 267.105 65.6801 267.324 65.1424 267.463C62.7296 268.071 60.1818 267.155 58.7609 265.169C57.9004 264.001 57.5614 262.547 57.8206 261.133C58.0771 259.747 58.9241 258.53 60.1537 257.78L67.6384 253.154C68.1083 252.864 68.6213 252.645 69.1594 252.506C71.5721 251.898 74.1199 252.813 75.5409 254.8C76.4013 255.967 76.7403 257.422 76.4812 258.835C76.4375 259.065 76.3778 259.291 76.3023 259.513L76.1613 259.93L75.778 259.657C74.8925 259.026 73.9021 258.546 72.8498 258.238L72.5716 258.156L72.5972 257.887C72.6309 257.504 72.524 257.122 72.2953 256.808C71.8677 256.209 71.1006 255.933 70.374 256.116C70.2113 256.158 70.0562 256.224 69.9142 256.312L62.4288 260.938C62.0585 261.164 61.8035 261.531 61.7261 261.948C61.648 262.374 61.75 262.812 62.0089 263.165C62.4368 263.763 63.2041 264.039 63.9311 263.857C64.0937 263.814 64.2487 263.748 64.3908 263.661L67.2468 261.896C67.7163 261.606 68.2288 261.387 68.7666 261.248C71.1793 260.64 73.7272 261.555 75.1481 263.542C76.0086 264.709 76.3475 266.164 76.0884 267.577C75.8317 268.964 74.9848 270.181 73.7552 270.932L66.2705 275.557C65.8006 275.847 65.2877 276.066 64.7495 276.205" fill="white"/>
</g>
<rect x="57.1509" y="29.5333" width="62.386" height="62.386" rx="18" fill="url(#paint2_linear_315_421)" fill-opacity="0.4"/>
<path d="M82.9412 79.4395C80.7593 78.4926 78.7175 76.0856 78.7127 73.6227C78.7069 70.9376 80.4015 68.6579 82.5091 67.1597C82.2557 68.121 82.1174 69.0002 82.7452 69.86C83.3288 70.6595 84.3508 71.048 85.3158 70.8371C87.5709 70.3415 87.6743 67.8521 86.3375 66.4019C85.0157 64.9657 83.7371 63.3434 84.2401 61.2605C84.4921 60.2165 85.1305 59.2386 85.9392 58.5396C85.3177 60.18 87.084 61.7979 88.248 62.6037C90.267 64.0018 92.482 65.0584 94.3384 66.6973C96.2912 68.4197 97.7332 70.7489 97.4419 73.4499C97.1264 76.3777 94.8095 78.414 92.2109 79.4421C97.7023 78.2249 103.376 73.9451 103.493 67.8292C103.589 62.7979 100.152 58.9259 95.894 56.709L95.6715 56.5871C95.7885 56.8718 95.8267 57.1141 95.8223 57.3309C95.8606 57.171 95.8863 57.0066 95.8937 56.8371C95.8918 57.048 95.865 57.247 95.8157 57.4339L95.8223 57.3309C95.7583 57.6023 95.6509 57.8545 95.5072 58.0853L95.5697 58.0178C94.7201 59.4325 92.4206 59.7398 91.2845 58.2748C89.4583 55.9183 91.3228 53.3776 91.5835 50.8822C91.9101 47.7547 89.9569 44.7187 87.5353 42.9017C88.8691 45.0684 87.112 47.9349 85.706 49.5372C84.3427 51.0909 82.6849 52.3878 81.18 53.7993C79.5634 55.3152 78.0092 56.9121 76.6805 58.6913C74.0231 62.2525 72.3961 66.7313 73.5917 71.1743C74.7866 75.614 78.6164 78.4402 82.9412 79.4395Z" fill="white"/>
<g filter="url(#filter0_f_315_421)">
<rect x="-30" y="134" width="44" height="44" rx="18" fill="url(#paint3_linear_315_421)" fill-opacity="0.4"/>
</g>
<rect x="687" y="15" width="65" height="65" rx="18" fill="url(#paint4_linear_315_421)" fill-opacity="0.4"/>
<g filter="url(#filter1_f_315_421)">
<rect x="663" y="216" width="46" height="46" rx="18" fill="url(#paint5_linear_315_421)" fill-opacity="0.4"/>
</g>
<g filter="url(#filter2_f_315_421)">
<rect x="706" y="288" width="37" height="37" rx="18" fill="url(#paint6_linear_315_421)" fill-opacity="0.4"/>
</g>
<g filter="url(#filter3_f_315_421)">
<rect x="518" y="8" width="28" height="28" rx="14" fill="url(#paint7_linear_315_421)" fill-opacity="0.4"/>
</g>
<g filter="url(#filter4_f_315_421)">
<rect x="705" y="137" width="22" height="22" rx="11" fill="url(#paint8_linear_315_421)" fill-opacity="0.4"/>
</g>
<rect x="553.312" y="248.775" width="49.0175" height="49.0175" rx="18" fill="url(#paint9_linear_315_421)" fill-opacity="0.4"/>
<path d="M578.267 282.481V287.99C587.604 287.99 594.874 278.969 591.82 269.185C590.485 264.91 587.087 261.512 582.812 260.177C573.028 257.123 564.007 264.393 564.007 273.73H569.529C569.529 273.73 569.53 273.729 569.53 273.729C569.531 267.869 575.33 263.339 581.49 265.574C583.773 266.402 585.593 268.223 586.422 270.505C588.658 276.662 584.134 282.458 578.28 282.467V276.976C578.28 276.976 578.279 276.975 578.279 276.975H572.774C572.774 276.975 572.773 276.976 572.773 276.976V282.481H578.267ZM572.772 286.712H568.543L568.542 286.711V282.481H572.773V286.711C572.773 286.711 572.773 286.712 572.772 286.712ZM568.545 282.481H565C564.998 282.481 564.997 282.48 564.997 282.48V278.936C564.997 278.936 564.998 278.933 565 278.933H568.543C568.544 278.933 568.545 278.935 568.545 278.935V282.481Z" fill="white"/>
<rect x="531.923" y="87.4631" width="114.077" height="114.077" rx="18" fill="url(#paint10_linear_315_421)" fill-opacity="0.4"/>
<g clip-path="url(#clip2_315_421)">
<path d="M588.962 123.112C579.455 123.112 573.514 127.853 571.137 137.335C574.702 132.594 578.861 130.816 583.614 132.001C586.326 132.678 588.265 134.64 590.41 136.812C593.905 140.351 597.951 144.446 606.786 144.446C616.293 144.446 622.234 139.705 624.611 130.224C621.046 134.964 616.887 136.742 612.134 135.557C609.422 134.881 607.483 132.918 605.338 130.746C601.842 127.208 597.797 123.112 588.962 123.112ZM571.137 144.446C561.631 144.446 555.689 149.187 553.312 158.669C556.877 153.928 561.036 152.15 565.79 153.335C568.502 154.012 570.44 155.974 572.586 158.146C576.081 161.685 580.126 165.78 588.962 165.78C598.468 165.78 604.41 161.039 606.786 151.557C603.221 156.298 599.062 158.076 594.309 156.891C591.597 156.215 589.659 154.252 587.513 152.08C584.018 148.542 579.973 144.446 571.137 144.446Z" fill="url(#paint11_linear_315_421)"/>
</g>
<rect x="237" y="45" width="242" height="242" rx="16" fill="url(#paint12_linear_315_421)" fill-opacity="0.4"/>
<path d="M381.334 214V203.333C381.334 197.675 379.086 192.249 375.085 188.248C371.084 184.248 365.658 182 360 182H322.667C317.009 182 311.583 184.248 307.582 188.248C303.581 192.249 301.333 197.675 301.333 203.333V214" stroke="white" stroke-width="6" stroke-linecap="round" stroke-linejoin="round"/>
<path d="M341.333 160.667C353.115 160.667 362.667 151.115 362.667 139.333C362.667 127.551 353.115 118 341.333 118C329.551 118 320 127.551 320 139.333C320 151.115 329.551 160.667 341.333 160.667Z" stroke="white" stroke-width="6" stroke-linecap="round" stroke-linejoin="round"/>
<path d="M402.667 144.667V176.667" stroke="white" stroke-width="6" stroke-linecap="round" stroke-linejoin="round"/>
<path d="M418.667 160.667H386.667" stroke="white" stroke-width="6" stroke-linecap="round" stroke-linejoin="round"/>
<defs>
<filter id="filter0_f_315_421" x="-38" y="126" width="60" height="60" filterUnits="userSpaceOnUse" color-interpolation-filters="sRGB">
<feFlood flood-opacity="0" result="BackgroundImageFix"/>
<feBlend mode="normal" in="SourceGraphic" in2="BackgroundImageFix" result="shape"/>
<feGaussianBlur stdDeviation="4" result="effect1_foregroundBlur_315_421"/>
</filter>
<filter id="filter1_f_315_421" x="655" y="208" width="62" height="62" filterUnits="userSpaceOnUse" color-interpolation-filters="sRGB">
<feFlood flood-opacity="0" result="BackgroundImageFix"/>
<feBlend mode="normal" in="SourceGraphic" in2="BackgroundImageFix" result="shape"/>
<feGaussianBlur stdDeviation="4" result="effect1_foregroundBlur_315_421"/>
</filter>
<filter id="filter2_f_315_421" x="698" y="280" width="53" height="53" filterUnits="userSpaceOnUse" color-interpolation-filters="sRGB">
<feFlood flood-opacity="0" result="BackgroundImageFix"/>
<feBlend mode="normal" in="SourceGraphic" in2="BackgroundImageFix" result="shape"/>
<feGaussianBlur stdDeviation="4" result="effect1_foregroundBlur_315_421"/>
</filter>
<filter id="filter3_f_315_421" x="510" y="0" width="44" height="44" filterUnits="userSpaceOnUse" color-interpolation-filters="sRGB">
<feFlood flood-opacity="0" result="BackgroundImageFix"/>
<feBlend mode="normal" in="SourceGraphic" in2="BackgroundImageFix" result="shape"/>
<feGaussianBlur stdDeviation="4" result="effect1_foregroundBlur_315_421"/>
</filter>
<filter id="filter4_f_315_421" x="697" y="129" width="38" height="38" filterUnits="userSpaceOnUse" color-interpolation-filters="sRGB">
<feFlood flood-opacity="0" result="BackgroundImageFix"/>
<feBlend mode="normal" in="SourceGraphic" in2="BackgroundImageFix" result="shape"/>
<feGaussianBlur stdDeviation="4" result="effect1_foregroundBlur_315_421"/>
</filter>
<linearGradient id="paint0_linear_315_421" x1="144.937" y1="124.004" x2="144.937" y2="206.888" gradientUnits="userSpaceOnUse">
<stop stop-color="#A41312"/>
<stop offset="1" stop-color="#A41312" stop-opacity="0"/>
</linearGradient>
<linearGradient id="paint1_linear_315_421" x1="66.9544" y1="238.972" x2="66.9544" y2="288.881" gradientUnits="userSpaceOnUse">
<stop stop-color="#A41312"/>
<stop offset="1" stop-color="#A41312" stop-opacity="0"/>
</linearGradient>
<linearGradient id="paint2_linear_315_421" x1="88.3439" y1="29.5333" x2="88.3439" y2="91.9193" gradientUnits="userSpaceOnUse">
<stop stop-color="#A41312"/>
<stop offset="1" stop-color="#A41312" stop-opacity="0"/>
</linearGradient>
<linearGradient id="paint3_linear_315_421" x1="-8" y1="134" x2="-8" y2="178" gradientUnits="userSpaceOnUse">
<stop stop-color="#EB4F4E"/>
<stop offset="1" stop-color="#A41312" stop-opacity="0"/>
</linearGradient>
<linearGradient id="paint4_linear_315_421" x1="719.5" y1="15" x2="719.5" y2="80" gradientUnits="userSpaceOnUse">
<stop stop-color="#A41312"/>
<stop offset="1" stop-color="#A41312" stop-opacity="0"/>
</linearGradient>
<linearGradient id="paint5_linear_315_421" x1="686" y1="216" x2="686" y2="262" gradientUnits="userSpaceOnUse">
<stop stop-color="#EB4F4E"/>
<stop offset="1" stop-color="#A41312" stop-opacity="0"/>
</linearGradient>
<linearGradient id="paint6_linear_315_421" x1="724.5" y1="288" x2="724.5" y2="325" gradientUnits="userSpaceOnUse">
<stop stop-color="#EB4F4E"/>
<stop offset="1" stop-color="#A41312" stop-opacity="0"/>
</linearGradient>
<linearGradient id="paint7_linear_315_421" x1="532" y1="8" x2="532" y2="36" gradientUnits="userSpaceOnUse">
<stop stop-color="#EB4F4E"/>
<stop offset="1" stop-color="#A41312" stop-opacity="0"/>
</linearGradient>
<linearGradient id="paint8_linear_315_421" x1="716" y1="137" x2="716" y2="159" gradientUnits="userSpaceOnUse">
<stop stop-color="#EB4F4E"/>
<stop offset="1" stop-color="#A41312" stop-opacity="0"/>
</linearGradient>
<linearGradient id="paint9_linear_315_421" x1="577.821" y1="248.775" x2="577.821" y2="297.793" gradientUnits="userSpaceOnUse">
<stop stop-color="#A41312"/>
<stop offset="1" stop-color="#A41312" stop-opacity="0"/>
</linearGradient>
<linearGradient id="paint10_linear_315_421" x1="588.961" y1="87.4631" x2="588.961" y2="201.54" gradientUnits="userSpaceOnUse">
<stop stop-color="#A41312"/>
<stop offset="1" stop-color="#A41312" stop-opacity="0"/>
</linearGradient>
<linearGradient id="paint11_linear_315_421" x1="551.332" y1="136.766" x2="612.83" y2="172.316" gradientUnits="userSpaceOnUse">
<stop stop-color="white"/>
<stop offset="1" stop-color="white" stop-opacity="0.5"/>
</linearGradient>
<linearGradient id="paint12_linear_315_421" x1="358" y1="45" x2="358" y2="287" gradientUnits="userSpaceOnUse">
<stop stop-color="#A41312"/>
<stop offset="1" stop-color="#A41312" stop-opacity="0"/>
</linearGradient>
<clipPath id="clip0_315_421">
<rect width="55.2561" height="49.7305" fill="white" transform="translate(117.309 140.58)"/>
</clipPath>
<clipPath id="clip1_315_421">
<rect width="26.7368" height="31.193" fill="white" transform="translate(53.5859 248.775)"/>
</clipPath>
<clipPath id="clip2_315_421">
<rect width="71.2982" height="42.7789" fill="white" transform="translate(553.312 123.112)"/>
</clipPath>
</defs>
</svg>
