<svg width="30" height="30" viewBox="0 0 30 30" fill="none" xmlns="http://www.w3.org/2000/svg">
<path fill-rule="evenodd" clip-rule="evenodd" d="M2.50024 14.9999C2.50024 8.09988 8.08774 2.49988 15.0002 2.49988C21.9002 2.49988 27.5002 8.09988 27.5002 14.9999C27.5002 21.8999 21.9002 27.4999 15.0002 27.4999C8.08774 27.4999 2.50024 21.8999 2.50024 14.9999ZM9.40024 16.4999C8.57524 16.4999 7.90024 15.8249 7.90024 14.9999C7.90024 14.1749 8.57524 13.5011 9.40024 13.5011C10.2252 13.5011 10.8877 14.1749 10.8877 14.9999C10.8877 15.8249 10.2252 16.4999 9.40024 16.4999ZM13.5002 14.9999C13.5002 15.8249 14.1752 16.4999 15.0002 16.4999C15.8252 16.4999 16.4877 15.8249 16.4877 14.9999C16.4877 14.1749 15.8252 13.5011 15.0002 13.5011C14.1752 13.5011 13.5002 14.1749 13.5002 14.9999ZM19.1002 14.9999C19.1002 15.8249 19.7627 16.4999 20.6002 16.4999C21.4252 16.4999 22.0877 15.8249 22.0877 14.9999C22.0877 14.1749 21.4252 13.5011 20.6002 13.5011C19.7627 13.5011 19.1002 14.1749 19.1002 14.9999Z" fill="#0F172A"/>
</svg>
