<svg width="720" height="333" viewBox="0 0 720 333" fill="none" xmlns="http://www.w3.org/2000/svg">
<rect x="167" y="124" width="82.8842" height="82.8842" rx="18" fill="url(#paint0_linear_502_116)" fill-opacity="0.4"/>
<rect x="250" y="239" width="65.0596" height="65.0596" rx="18" fill="url(#paint1_linear_502_116)" fill-opacity="0.4"/>
<rect x="106" y="239" width="49.9088" height="49.9088" rx="18" fill="url(#paint2_linear_502_116)" fill-opacity="0.4"/>
<rect x="121.151" y="29.5333" width="62.386" height="62.386" rx="18" fill="url(#paint3_linear_502_116)" fill-opacity="0.4"/>
<g filter="url(#filter0_f_502_116)">
<rect x="26" y="100" width="48" height="48" rx="18" fill="url(#paint4_linear_502_116)" fill-opacity="0.4"/>
</g>
<rect x="655" y="15" width="65" height="65" rx="18" fill="url(#paint5_linear_502_116)" fill-opacity="0.4"/>
<g filter="url(#filter1_f_502_116)">
<rect x="631" y="216" width="46" height="46" rx="18" fill="url(#paint6_linear_502_116)" fill-opacity="0.4"/>
</g>
<g filter="url(#filter2_f_502_116)">
<rect x="706" y="288" width="37" height="37" rx="18" fill="url(#paint7_linear_502_116)" fill-opacity="0.4"/>
</g>
<g filter="url(#filter3_f_502_116)">
<rect x="486" y="8" width="28" height="28" rx="14" fill="url(#paint8_linear_502_116)" fill-opacity="0.4"/>
</g>
<g filter="url(#filter4_f_502_116)">
<rect x="681" y="137" width="22" height="22" rx="11" fill="url(#paint9_linear_502_116)" fill-opacity="0.4"/>
</g>
<g filter="url(#filter5_f_502_116)">
<rect x="-12" y="216" width="46" height="46" rx="18" fill="url(#paint10_linear_502_116)" fill-opacity="0.4"/>
</g>
<rect x="521" y="249" width="49.0175" height="49.0175" rx="18" fill="url(#paint11_linear_502_116)" fill-opacity="0.4"/>
<rect x="307" y="26" width="122.098" height="122.098" rx="18" fill="url(#paint12_linear_502_116)" fill-opacity="0.4"/>
<rect x="369" y="180" width="91.7965" height="91.7965" rx="18" fill="url(#paint13_linear_502_116)" fill-opacity="0.4"/>
<rect x="500" y="87" width="114.077" height="114.077" rx="18" fill="url(#paint14_linear_502_116)" fill-opacity="0.4"/>
<path fill-rule="evenodd" clip-rule="evenodd" d="M536.141 121.082C542.95 120.081 549.916 119.562 557.001 119.562C564.085 119.562 571.05 120.081 577.859 121.082C583.629 121.93 587.625 126.984 587.625 132.66V150.215C587.625 155.891 583.629 160.945 577.859 161.793C574.516 162.285 571.135 162.66 567.721 162.914C567.358 162.941 567.042 163.13 566.856 163.41L558.82 175.463C558.414 176.072 557.731 176.438 557 176.438C556.269 176.438 555.586 176.072 555.18 175.463L547.144 163.41C546.958 163.13 546.642 162.941 546.279 162.914C542.865 162.66 539.484 162.284 536.141 161.793C530.371 160.944 526.375 155.891 526.375 150.215V132.66C526.375 126.984 530.371 121.93 536.141 121.082ZM541.688 137.062C541.688 135.854 542.667 134.875 543.875 134.875H570.125C571.333 134.875 572.312 135.854 572.312 137.062C572.312 138.271 571.333 139.25 570.125 139.25H543.875C542.667 139.25 541.688 138.271 541.688 137.062ZM543.875 143.625C542.667 143.625 541.688 144.604 541.688 145.812C541.688 147.021 542.667 148 543.875 148H557C558.208 148 559.188 147.021 559.188 145.812C559.188 144.604 558.208 143.625 557 143.625H543.875Z" fill="white"/>
<path d="M225.5 154.875V180.753C225.5 182.058 224.37 182.68 223 183.653C221.9 184.435 220.5 183.465 220.5 182.185V156.9C220.5 156.373 220.315 155.87 219.715 155.563C219.115 155.255 200.37 145.4 200.37 145.4C200.068 145.288 198.748 144.455 196.988 145.36C195.315 146.22 194.405 147.155 194.173 147.595L214.623 158.8C215.165 159.085 215.5 159.525 215.5 160.09V187.095C215.494 187.4 215.405 187.697 215.242 187.954C215.08 188.212 214.85 188.421 214.577 188.558C214.319 188.685 214.034 188.751 213.745 188.75C213.406 188.754 213.072 188.664 212.78 188.49C212.243 188.163 193.345 176.575 192.098 175.823C191.498 175.463 190.795 174.725 190.78 174.178L190.5 148.463C190.5 147.968 190.443 147.095 191.223 145.883C192.965 143.173 199.045 140.09 202.123 141.688L224.62 153.075C225.163 153.355 225.5 153.915 225.5 154.875Z" fill="white"/>
<g clip-path="url(#clip0_502_116)">
<path d="M275.589 272C273.661 272.06 272.083 272.821 270.857 274.286H268.464C267.488 274.286 266.667 274.045 266 273.562C265.333 273.08 265 272.375 265 271.446C265 267.244 265.738 265.143 267.214 265.143C267.286 265.143 267.545 265.268 267.991 265.518C268.437 265.768 269.018 266.021 269.732 266.277C270.446 266.533 271.155 266.661 271.857 266.661C272.655 266.661 273.446 266.524 274.232 266.25C274.173 266.69 274.143 267.083 274.143 267.429C274.143 269.083 274.625 270.607 275.589 272ZM294.714 283.375C294.714 284.804 294.28 285.932 293.411 286.759C292.542 287.586 291.387 288 289.946 288H274.339C272.899 288 271.744 287.586 270.875 286.759C270.006 285.932 269.571 284.804 269.571 283.375C269.571 282.744 269.592 282.128 269.634 281.527C269.676 280.926 269.759 280.277 269.884 279.58C270.009 278.884 270.167 278.238 270.357 277.643C270.548 277.048 270.804 276.467 271.125 275.902C271.446 275.336 271.815 274.854 272.232 274.455C272.649 274.057 273.158 273.738 273.759 273.5C274.36 273.262 275.024 273.143 275.75 273.143C275.869 273.143 276.125 273.271 276.518 273.527C276.911 273.783 277.345 274.068 277.821 274.384C278.298 274.699 278.935 274.985 279.732 275.241C280.53 275.497 281.333 275.625 282.143 275.625C282.952 275.625 283.756 275.497 284.554 275.241C285.351 274.985 285.988 274.699 286.464 274.384C286.94 274.068 287.375 273.783 287.768 273.527C288.161 273.271 288.417 273.143 288.536 273.143C289.262 273.143 289.926 273.262 290.527 273.5C291.128 273.738 291.637 274.057 292.054 274.455C292.47 274.854 292.839 275.336 293.161 275.902C293.482 276.467 293.738 277.048 293.929 277.643C294.119 278.238 294.277 278.884 294.402 279.58C294.527 280.277 294.61 280.926 294.652 281.527C294.693 282.128 294.714 282.744 294.714 283.375ZM276.429 260.571C276.429 261.833 275.982 262.911 275.089 263.804C274.196 264.696 273.119 265.143 271.857 265.143C270.595 265.143 269.518 264.696 268.625 263.804C267.732 262.911 267.286 261.833 267.286 260.571C267.286 259.31 267.732 258.232 268.625 257.339C269.518 256.446 270.595 256 271.857 256C273.119 256 274.196 256.446 275.089 257.339C275.982 258.232 276.429 259.31 276.429 260.571ZM289 267.429C289 269.321 288.33 270.938 286.991 272.277C285.652 273.616 284.036 274.286 282.143 274.286C280.25 274.286 278.634 273.616 277.295 272.277C275.955 270.938 275.286 269.321 275.286 267.429C275.286 265.536 275.955 263.92 277.295 262.58C278.634 261.241 280.25 260.571 282.143 260.571C284.036 260.571 285.652 261.241 286.991 262.58C288.33 263.92 289 265.536 289 267.429ZM299.286 271.446C299.286 272.375 298.952 273.08 298.286 273.562C297.619 274.045 296.798 274.286 295.821 274.286H293.429C292.202 272.821 290.625 272.06 288.696 272C289.661 270.607 290.143 269.083 290.143 267.429C290.143 267.083 290.113 266.69 290.054 266.25C290.839 266.524 291.631 266.661 292.429 266.661C293.131 266.661 293.839 266.533 294.554 266.277C295.268 266.021 295.848 265.768 296.295 265.518C296.741 265.268 297 265.143 297.071 265.143C298.548 265.143 299.286 267.244 299.286 271.446ZM297 260.571C297 261.833 296.554 262.911 295.661 263.804C294.768 264.696 293.69 265.143 292.429 265.143C291.167 265.143 290.089 264.696 289.196 263.804C288.304 262.911 287.857 261.833 287.857 260.571C287.857 259.31 288.304 258.232 289.196 257.339C290.089 256.446 291.167 256 292.429 256C293.69 256 294.768 256.446 295.661 257.339C296.554 258.232 297 259.31 297 260.571Z" fill="white"/>
</g>
<g clip-path="url(#clip1_502_116)">
<path d="M131.37 255.457C129.607 255.457 127.884 255.979 126.418 256.959C124.952 257.938 123.81 259.33 123.135 260.959C122.461 262.588 122.284 264.38 122.628 266.109C122.972 267.838 123.821 269.426 125.067 270.673C126.314 271.919 127.902 272.768 129.631 273.112C131.36 273.456 133.152 273.279 134.781 272.605C136.41 271.93 137.802 270.788 138.781 269.322C139.761 267.856 140.283 266.133 140.283 264.37C140.282 262.006 139.343 259.74 137.672 258.068C136 256.397 133.734 255.458 131.37 255.457ZM124.685 264.37C124.687 263.961 124.726 263.552 124.802 263.15L128.696 267.044V267.935C128.697 268.408 128.886 268.86 129.22 269.194C129.554 269.528 130.006 269.717 130.479 269.718V270.988C128.876 270.772 127.406 269.982 126.341 268.765C125.276 267.548 124.688 265.987 124.685 264.37ZM134.935 267.935H134.044V265.261C134.043 265.025 133.949 264.799 133.782 264.632C133.615 264.465 133.389 264.371 133.153 264.37H127.805V262.587H129.587C129.824 262.587 130.05 262.493 130.217 262.326C130.384 262.159 130.478 261.932 130.479 261.696V259.913H132.261C132.714 259.911 133.148 259.738 133.477 259.427C133.806 259.117 134.005 258.693 134.033 258.242C134.996 258.658 135.847 259.296 136.518 260.104C137.188 260.911 137.658 261.865 137.89 262.889C138.122 263.912 138.109 264.976 137.853 265.993C137.596 267.011 137.103 267.953 136.414 268.744C136.255 268.496 136.037 268.291 135.778 268.15C135.52 268.009 135.23 267.935 134.935 267.935ZM132.484 252.114C132.484 252.335 132.419 252.55 132.296 252.733C132.174 252.916 132 253.059 131.796 253.144C131.593 253.228 131.369 253.25 131.153 253.207C130.937 253.164 130.738 253.058 130.582 252.902C130.426 252.746 130.32 252.548 130.277 252.332C130.234 252.115 130.256 251.891 130.341 251.688C130.425 251.484 130.568 251.31 130.751 251.188C130.934 251.065 131.15 251 131.37 251C131.665 251 131.949 251.117 132.158 251.326C132.367 251.535 132.484 251.819 132.484 252.114ZM138.055 253.228C138.055 253.449 137.99 253.664 137.867 253.847C137.745 254.031 137.571 254.173 137.367 254.258C137.164 254.342 136.94 254.364 136.723 254.321C136.507 254.278 136.309 254.172 136.153 254.016C135.997 253.86 135.891 253.662 135.848 253.446C135.805 253.23 135.827 253.006 135.911 252.802C135.996 252.598 136.139 252.424 136.322 252.302C136.505 252.18 136.72 252.114 136.941 252.114C137.236 252.114 137.52 252.232 137.729 252.44C137.938 252.649 138.055 252.933 138.055 253.228ZM142.512 257.685C142.512 257.905 142.446 258.121 142.324 258.304C142.201 258.487 142.027 258.63 141.824 258.714C141.62 258.799 141.396 258.821 141.18 258.778C140.964 258.735 140.765 258.629 140.61 258.473C140.454 258.317 140.348 258.118 140.305 257.902C140.262 257.686 140.284 257.462 140.368 257.259C140.452 257.055 140.595 256.881 140.779 256.759C140.962 256.636 141.177 256.571 141.397 256.571C141.693 256.571 141.976 256.688 142.185 256.897C142.394 257.106 142.512 257.39 142.512 257.685ZM144.74 264.37C144.74 264.59 144.675 264.806 144.552 264.989C144.43 265.172 144.256 265.315 144.052 265.399C143.849 265.484 143.625 265.506 143.408 265.463C143.192 265.42 142.994 265.314 142.838 265.158C142.682 265.002 142.576 264.803 142.533 264.587C142.49 264.371 142.512 264.147 142.596 263.944C142.681 263.74 142.824 263.566 143.007 263.444C143.19 263.321 143.405 263.256 143.626 263.256C143.921 263.256 144.205 263.373 144.414 263.582C144.623 263.791 144.74 264.075 144.74 264.37ZM142.512 271.055C142.512 271.275 142.446 271.491 142.324 271.674C142.201 271.857 142.027 272 141.824 272.084C141.62 272.169 141.396 272.191 141.18 272.148C140.964 272.105 140.765 271.999 140.61 271.843C140.454 271.687 140.348 271.488 140.305 271.272C140.262 271.056 140.284 270.832 140.368 270.629C140.452 270.425 140.595 270.251 140.779 270.129C140.962 270.006 141.177 269.941 141.397 269.941C141.693 269.941 141.976 270.058 142.185 270.267C142.394 270.476 142.512 270.76 142.512 271.055ZM138.055 275.512C138.055 275.732 137.99 275.947 137.867 276.131C137.745 276.314 137.571 276.457 137.367 276.541C137.164 276.625 136.94 276.647 136.723 276.604C136.507 276.561 136.309 276.455 136.153 276.3C135.997 276.144 135.891 275.945 135.848 275.729C135.805 275.513 135.827 275.289 135.911 275.085C135.996 274.882 136.139 274.708 136.322 274.585C136.505 274.463 136.72 274.397 136.941 274.397C137.236 274.397 137.52 274.515 137.729 274.724C137.938 274.933 138.055 275.216 138.055 275.512ZM132.484 276.626C132.484 276.846 132.419 277.062 132.296 277.245C132.174 277.428 132 277.571 131.796 277.655C131.593 277.74 131.369 277.762 131.153 277.719C130.937 277.676 130.738 277.569 130.582 277.414C130.426 277.258 130.32 277.059 130.277 276.843C130.234 276.627 130.256 276.403 130.341 276.199C130.425 275.996 130.568 275.822 130.751 275.699C130.934 275.577 131.15 275.512 131.37 275.512C131.665 275.512 131.949 275.629 132.158 275.838C132.367 276.047 132.484 276.33 132.484 276.626ZM126.913 275.512C126.913 275.732 126.848 275.947 126.726 276.131C126.603 276.314 126.429 276.457 126.226 276.541C126.022 276.625 125.798 276.647 125.582 276.604C125.366 276.561 125.167 276.455 125.011 276.3C124.856 276.144 124.749 275.945 124.706 275.729C124.663 275.513 124.685 275.289 124.77 275.085C124.854 274.882 124.997 274.708 125.18 274.585C125.363 274.463 125.579 274.397 125.799 274.397C126.095 274.397 126.378 274.515 126.587 274.724C126.796 274.933 126.913 275.216 126.913 275.512ZM122.457 271.055C122.457 271.275 122.391 271.491 122.269 271.674C122.146 271.857 121.972 272 121.769 272.084C121.565 272.169 121.341 272.191 121.125 272.148C120.909 272.105 120.71 271.999 120.555 271.843C120.399 271.687 120.293 271.488 120.25 271.272C120.207 271.056 120.229 270.832 120.313 270.629C120.397 270.425 120.54 270.251 120.724 270.129C120.907 270.006 121.122 269.941 121.343 269.941C121.638 269.941 121.921 270.058 122.13 270.267C122.339 270.476 122.457 270.76 122.457 271.055ZM120.228 264.37C120.228 264.59 120.163 264.806 120.041 264.989C119.918 265.172 119.744 265.315 119.541 265.399C119.337 265.484 119.113 265.506 118.897 265.463C118.681 265.42 118.482 265.314 118.326 265.158C118.171 265.002 118.064 264.803 118.021 264.587C117.978 264.371 118 264.147 118.085 263.944C118.169 263.74 118.312 263.566 118.495 263.444C118.678 263.321 118.894 263.256 119.114 263.256C119.41 263.256 119.693 263.373 119.902 263.582C120.111 263.791 120.228 264.075 120.228 264.37ZM122.457 257.685C122.457 257.905 122.391 258.121 122.269 258.304C122.146 258.487 121.972 258.63 121.769 258.714C121.565 258.799 121.341 258.821 121.125 258.778C120.909 258.735 120.71 258.629 120.555 258.473C120.399 258.317 120.293 258.118 120.25 257.902C120.207 257.686 120.229 257.462 120.313 257.259C120.397 257.055 120.54 256.881 120.724 256.759C120.907 256.636 121.122 256.571 121.343 256.571C121.638 256.571 121.921 256.688 122.13 256.897C122.339 257.106 122.457 257.39 122.457 257.685ZM126.913 253.228C126.913 253.449 126.848 253.664 126.726 253.847C126.603 254.031 126.429 254.173 126.226 254.258C126.022 254.342 125.798 254.364 125.582 254.321C125.366 254.278 125.167 254.172 125.011 254.016C124.856 253.86 124.749 253.662 124.706 253.446C124.663 253.23 124.685 253.006 124.77 252.802C124.854 252.598 124.997 252.424 125.18 252.302C125.363 252.18 125.579 252.114 125.799 252.114C126.095 252.114 126.378 252.232 126.587 252.44C126.796 252.649 126.913 252.933 126.913 253.228Z" fill="white"/>
</g>
<g clip-path="url(#clip2_502_116)">
<path d="M152.15 67.9219L142.681 62.5111V68.3356L152.15 73.5955L161.619 68.3356V62.5111L152.15 67.9219Z" fill="white"/>
<path d="M167.315 57.3625L152.15 48.6968L136.985 57.3625L152.15 66.0282L164.459 58.9941V68.725H167.3V57.3708L167.315 57.3625Z" fill="white"/>
</g>
<path d="M547 280V282H551V284H541V282H545V280H536.992C536.861 279.999 536.731 279.973 536.61 279.921C536.489 279.87 536.379 279.796 536.287 279.702C536.195 279.609 536.122 279.498 536.073 279.376C536.024 279.255 535.999 279.124 536 278.993V266.007C536 265.451 536.455 265 536.992 265H555.008C555.556 265 556 265.449 556 266.007V278.993C556 279.549 555.545 280 555.008 280H547Z" fill="white"/>
<path fill-rule="evenodd" clip-rule="evenodd" d="M359.308 91.0527L352.46 98.2073C351.228 99.4938 350.02 100.793 348.783 102.071C348.576 102.287 348.281 102.415 348.028 102.586C347.489 102.498 347.074 102.162 347.003 101.673C346.888 100.927 346.786 100.18 346.696 99.4315C346.571 98.4438 346.268 98.1699 345.268 98.0454C343.206 97.7964 341.147 97.5267 339.085 97.2569L334.379 96.6469C333.441 96.5224 333.1 95.8501 333.59 95.0491C334.719 93.2314 335.856 91.422 336.989 89.6126L343.92 78.5404C344.193 78.0922 344.501 77.7851 345.09 77.8017C345.463 77.81 345.853 77.7187 346.223 77.6233C346.663 77.5154 347.007 77.6482 347.314 77.9387C347.858 78.4491 348.41 78.9554 348.949 79.47L355.208 85.4087C356.556 86.6869 357.917 87.9568 359.266 89.235C359.963 89.8907 359.963 90.3638 359.308 91.0527ZM405.331 100.677C405.721 101 406.145 101.307 406.228 101.859C406.331 102.565 406.049 103.075 405.452 103.461C401.924 105.744 398.397 108.039 394.869 110.325L388.051 114.745C387.836 114.881 387.63 115.032 387.436 115.197C387.265 115.338 387.128 115.518 387.038 115.721C386.948 115.924 386.907 116.146 386.918 116.368C386.951 117.218 387.001 118.069 387.013 118.916C387.026 119.891 386.308 120.501 385.328 120.389C384.975 120.342 384.655 120.159 384.436 119.879C383.616 118.932 382.797 117.985 381.979 117.036C380.954 115.849 379.933 114.654 378.904 113.471C378.692 113.259 378.531 113.002 378.434 112.718C378.337 112.435 378.306 112.133 378.344 111.836L378.485 106.877C378.502 106.296 378.846 105.922 379.311 105.623L384.946 102.021C388.1 100.008 391.263 98.0039 394.408 95.9704C395.072 95.543 395.691 95.4143 396.421 95.7878C396.961 96.0617 397.571 96.1115 398.156 95.9289C399.032 95.6509 399.704 95.8957 400.38 96.4933C401.999 97.9209 403.68 99.2821 405.335 100.677H405.331ZM375.045 104.793C375.301 105.043 375.483 105.359 375.572 105.706C375.725 106.482 375.418 107.009 374.688 107.362C372.26 108.532 369.836 109.715 367.388 110.848C366.948 111.047 366.396 111.072 365.894 111.097C363.864 111.188 361.835 111.242 359.806 111.325C358.606 111.371 357.411 111.446 356.307 111.504H355.494C355.31 111.508 355.127 111.476 354.956 111.408C354.785 111.34 354.629 111.239 354.498 111.11C354.241 110.873 353.975 110.645 353.722 110.404C352.294 109.047 350.892 107.665 349.435 106.337C348.622 105.598 348.609 104.607 349.385 103.814C351.132 102.013 352.859 100.195 354.593 98.3774C356.465 96.4186 358.337 94.4515 360.204 92.4844C360.346 92.3177 360.52 92.1817 360.716 92.085C360.913 91.9882 361.127 91.9326 361.345 91.9218C361.564 91.9109 361.782 91.9449 361.987 92.0216C362.192 92.0984 362.379 92.2164 362.536 92.3682L370.006 99.7926C371.683 101.461 373.376 103.113 375.045 104.793ZM385.328 71.39C384.527 70.1533 385.432 68.4435 386.764 68.2235C390.325 67.6301 393.873 66.9495 397.43 66.3311C398.214 66.1942 398.837 66.5552 399.268 67.2026C400.015 68.3231 400.75 69.4478 401.488 70.5724C403.049 72.9379 404.613 75.3034 406.157 77.6772C406.365 77.9968 406.468 78.3827 406.622 78.7355L406.531 78.777C406.505 79.3828 406.28 79.9634 405.892 80.4287C403.717 83.3503 401.517 86.2594 399.347 89.1852C399.142 89.4448 398.877 89.6505 398.575 89.7845C398.273 89.9186 397.942 89.9769 397.612 89.9544C397.282 89.9319 396.963 89.8293 396.682 89.6555C396.4 89.4817 396.166 89.2419 395.998 88.9569C392.823 83.6864 389.615 78.4325 386.42 73.1745C386.059 72.5769 385.706 71.971 385.328 71.39ZM379.082 86.0478L378.46 91.588C378.286 93.1235 378.099 94.6507 377.925 96.1862L377.31 101.581C377.269 101.959 377.265 102.345 377.186 102.71C377.144 102.888 377.012 103.117 376.862 103.175C376.713 103.233 376.447 103.15 376.314 103.038C375.725 102.527 375.165 101.988 374.6 101.453C372.567 99.527 370.546 97.5972 368.512 95.6799C366.745 94.0075 364.972 92.3475 363.196 90.6875C362.607 90.1397 362.603 89.9654 363.171 89.3719L371.297 80.8644L376.846 75.0378L379.568 72.1743C379.647 72.0913 379.713 71.9793 379.809 71.9461C380.004 71.8755 380.245 71.7801 380.415 71.834C380.556 71.8838 380.622 72.137 380.664 72.2075L380.249 75.8595L379.713 80.5532L379.082 86.0478ZM394.877 90.2808C395.143 90.7082 395.185 91.1149 394.894 91.559C394.577 92.0571 394.442 92.6494 394.512 93.2356C394.562 93.7585 394.346 94.078 393.902 94.3561C390.429 96.5597 386.972 98.78 383.511 100.996C382.423 101.693 381.336 102.386 380.244 103.075C379.813 103.349 379.369 103.328 379.132 102.98C379 102.789 378.983 102.523 378.946 102.39L379.402 99.0373L380.419 91.642L381.539 83.5495L382.631 75.6354L383.046 72.6889C383.054 72.6101 383.058 72.5188 383.1 72.4607C383.208 72.3237 383.328 72.1204 383.465 72.0955C383.614 72.0706 383.847 72.1868 383.942 72.3154C384.195 72.6557 384.399 73.0334 384.623 73.3986L392.736 86.745C393.45 87.9236 394.155 89.1063 394.877 90.2766V90.2808ZM378.057 69.9292C378.186 70.0122 378.435 70.0993 378.568 70.2778C378.771 70.5517 378.593 70.809 378.381 71.0289L375.559 73.9962L367.334 82.6033C365.616 84.4085 363.906 86.2221 362.188 88.0232C361.565 88.6706 361.067 88.6706 360.42 88.0564C358.416 86.1557 356.411 84.2467 354.402 82.3501C352.452 80.5075 350.493 78.6691 348.534 76.8306C348.273 76.5816 348.065 76.3119 348.094 75.9301C348.136 75.4113 348.435 75.1167 349.028 75.0171C350.111 74.822 351.199 74.6311 352.286 74.4444L362.723 72.6184L375.049 70.4562L378.057 69.9292ZM350.091 72.552C352.025 71.2281 353.958 69.9126 355.896 68.597L374.613 55.8482C375.235 55.4249 375.63 55.5121 375.941 56.1844C377.232 58.9483 378.514 61.7163 379.8 64.4844C379.966 64.8413 380.124 65.2023 380.294 65.5634C380.431 65.8539 380.34 66.0904 380.166 66.3519C379.939 66.6723 379.747 67.0159 379.593 67.3769C379.456 67.7214 379.249 67.9081 378.875 67.9745C376.119 68.4642 373.368 68.9705 370.617 69.4602L360.847 71.2157L350.182 73.133C350.033 73.1579 349.879 73.133 349.725 73.133L349.634 72.9628C349.788 72.8259 349.925 72.6682 350.091 72.552ZM330.627 78.8849C329.407 78.86 328.681 77.6731 329.266 76.5816C329.76 75.6603 330.308 74.7722 330.839 73.8717C332.366 71.2613 333.901 68.6593 335.42 66.0489C335.668 65.6227 336.027 65.2714 336.458 65.0322C340.508 62.704 344.55 60.3634 348.601 58.0311C348.858 57.8738 349.14 57.7615 349.435 57.6991C349.711 57.6445 349.998 57.672 350.259 57.7782C350.52 57.8844 350.744 58.0646 350.904 58.2967C351.081 58.5235 351.188 58.7966 351.213 59.083C351.238 59.3695 351.18 59.6571 351.045 59.9111C350.435 61.2142 349.8 62.5048 349.178 63.7996C348.016 66.1734 346.854 68.5431 345.704 70.921C345.595 71.1838 345.426 71.4171 345.209 71.6018C344.993 71.7865 344.736 71.9172 344.459 71.9834C343.944 72.1062 343.473 72.3688 343.098 72.7423C342.723 73.1157 342.459 73.5856 342.334 74.0999C342.271 74.3539 342.143 74.5868 341.961 74.7755C341.78 74.9641 341.552 75.1018 341.301 75.1748C337.973 76.3451 334.648 77.5403 331.324 78.723C331.1 78.806 330.864 78.8309 330.631 78.889L330.627 78.8849ZM347.862 71.307C347.879 71.1338 347.926 70.965 348.003 70.809L352.352 61.2764C353.257 59.2927 354.174 57.3132 355.066 55.3253C355.274 54.8688 355.577 54.6406 356.092 54.6198C357.449 54.5783 358.806 54.5078 360.163 54.4538L368.172 54.1509C369.11 54.1094 370.052 54.0471 370.994 54.0015C371.666 53.9724 372.127 54.3791 372.131 55.039C372.16 55.4415 371.903 55.703 371.571 55.9312L369.006 57.6784L353.676 68.1073L348.779 71.4439C348.665 71.5302 348.543 71.6053 348.414 71.668C348.123 71.7925 347.845 71.6182 347.862 71.307ZM342.206 78.1545C341.529 79.2459 340.844 80.3291 340.164 81.4164C337.62 85.4834 335.076 89.5545 332.528 93.6174C332.423 93.812 332.282 93.9852 332.113 94.1278C331.673 94.4432 331.088 94.2233 330.88 93.6713C330.548 92.7832 330.233 91.8868 329.913 90.9946L327.137 83.1843C327.071 82.9892 327.025 82.79 327 82.6946C327.004 82.1675 327.178 81.9434 327.672 81.7816C329.15 81.3043 330.627 80.8354 332.105 80.3664L340.467 77.7104L341.567 77.3701C341.828 77.2871 342.089 77.1751 342.305 77.4656C342.5 77.727 342.338 77.9428 342.206 78.1545ZM409.095 88.9818L409.934 93.7792C409.958 93.9328 409.975 94.0905 410 94.2938C409.959 94.5013 409.913 94.7503 409.846 94.991L408.747 98.9584C408.431 100.1 407.527 100.369 406.614 99.5975C404.742 98.0205 402.862 96.4435 400.982 94.8748C400.555 94.5179 400.376 94.1071 400.476 93.5427C400.598 92.9807 400.53 92.3942 400.285 91.8744C400.028 91.3639 400.111 90.9116 400.447 90.4634C401.982 88.405 403.505 86.3383 405.037 84.2799L405.97 83.0183C406.282 82.5908 406.692 82.3833 407.215 82.4995C407.763 82.624 408.045 82.9975 408.137 83.5329L409.091 88.9818H409.095ZM377.705 56.0142L377.622 55.8399C377.51 55.5909 377.464 55.3004 377.717 55.1593C377.939 55.0597 378.19 55.0449 378.423 55.1178C378.788 55.2299 379.116 55.4374 379.46 55.6075L393.412 62.5754L395.89 63.8204C396.168 63.9573 396.388 64.1192 396.33 64.4678C396.272 64.8122 396.01 64.8869 395.707 64.9409C392.354 65.5385 389.005 66.1444 385.656 66.7461L385.328 66.8125C385.233 66.7503 385.05 66.6797 384.934 66.5469C384.636 66.1716 384.26 65.865 383.832 65.648C383.405 65.431 382.936 65.3087 382.456 65.2895C382.083 65.2729 381.892 65.0529 381.751 64.7417C381.162 63.4635 380.56 62.1936 379.966 60.9195L377.705 56.0142Z" fill="white"/>
<g clip-path="url(#clip3_502_116)">
<path d="M438 226C438 232.1 435.577 237.95 431.263 242.263C426.95 246.577 421.1 249 415 249C408.9 249 403.05 246.577 398.737 242.263C394.423 237.95 392 232.1 392 226C392 219.9 394.423 214.05 398.737 209.737C403.05 205.423 408.9 203 415 203C421.1 203 426.95 205.423 431.263 209.737C435.577 214.05 438 219.9 438 226ZM407.801 220.345H410.173C410.57 220.345 410.886 220.02 410.938 219.626C411.196 217.74 412.49 216.366 414.796 216.366C416.768 216.366 418.574 217.352 418.574 219.724C418.574 221.549 417.498 222.389 415.799 223.666C413.864 225.071 412.332 226.713 412.441 229.378L412.45 230.002C412.453 230.191 412.53 230.371 412.664 230.503C412.799 230.635 412.98 230.709 413.169 230.709H415.5C415.691 230.709 415.874 230.634 416.008 230.499C416.143 230.364 416.219 230.181 416.219 229.99V229.689C416.219 227.624 417.004 227.024 419.123 225.416C420.874 224.085 422.699 222.608 422.699 219.505C422.699 215.161 419.031 213.062 415.014 213.062C411.372 213.062 407.381 214.759 407.108 219.635C407.104 219.728 407.119 219.82 407.152 219.907C407.186 219.994 407.236 220.073 407.301 220.139C407.366 220.206 407.444 220.259 407.53 220.294C407.616 220.329 407.708 220.347 407.801 220.345ZM414.485 238.868C416.239 238.868 417.444 237.736 417.444 236.203C417.444 234.616 416.236 233.501 414.485 233.501C412.806 233.501 411.584 234.616 411.584 236.203C411.584 237.736 412.806 238.868 414.488 238.868H414.485Z" fill="white"/>
</g>
<defs>
<filter id="filter0_f_502_116" x="18" y="92" width="64" height="64" filterUnits="userSpaceOnUse" color-interpolation-filters="sRGB">
<feFlood flood-opacity="0" result="BackgroundImageFix"/>
<feBlend mode="normal" in="SourceGraphic" in2="BackgroundImageFix" result="shape"/>
<feGaussianBlur stdDeviation="4" result="effect1_foregroundBlur_502_116"/>
</filter>
<filter id="filter1_f_502_116" x="623" y="208" width="62" height="62" filterUnits="userSpaceOnUse" color-interpolation-filters="sRGB">
<feFlood flood-opacity="0" result="BackgroundImageFix"/>
<feBlend mode="normal" in="SourceGraphic" in2="BackgroundImageFix" result="shape"/>
<feGaussianBlur stdDeviation="4" result="effect1_foregroundBlur_502_116"/>
</filter>
<filter id="filter2_f_502_116" x="698" y="280" width="53" height="53" filterUnits="userSpaceOnUse" color-interpolation-filters="sRGB">
<feFlood flood-opacity="0" result="BackgroundImageFix"/>
<feBlend mode="normal" in="SourceGraphic" in2="BackgroundImageFix" result="shape"/>
<feGaussianBlur stdDeviation="4" result="effect1_foregroundBlur_502_116"/>
</filter>
<filter id="filter3_f_502_116" x="478" y="0" width="44" height="44" filterUnits="userSpaceOnUse" color-interpolation-filters="sRGB">
<feFlood flood-opacity="0" result="BackgroundImageFix"/>
<feBlend mode="normal" in="SourceGraphic" in2="BackgroundImageFix" result="shape"/>
<feGaussianBlur stdDeviation="4" result="effect1_foregroundBlur_502_116"/>
</filter>
<filter id="filter4_f_502_116" x="673" y="129" width="38" height="38" filterUnits="userSpaceOnUse" color-interpolation-filters="sRGB">
<feFlood flood-opacity="0" result="BackgroundImageFix"/>
<feBlend mode="normal" in="SourceGraphic" in2="BackgroundImageFix" result="shape"/>
<feGaussianBlur stdDeviation="4" result="effect1_foregroundBlur_502_116"/>
</filter>
<filter id="filter5_f_502_116" x="-20" y="208" width="62" height="62" filterUnits="userSpaceOnUse" color-interpolation-filters="sRGB">
<feFlood flood-opacity="0" result="BackgroundImageFix"/>
<feBlend mode="normal" in="SourceGraphic" in2="BackgroundImageFix" result="shape"/>
<feGaussianBlur stdDeviation="4" result="effect1_foregroundBlur_502_116"/>
</filter>
<linearGradient id="paint0_linear_502_116" x1="208.442" y1="124" x2="208.442" y2="206.884" gradientUnits="userSpaceOnUse">
<stop stop-color="#46DCE7"/>
<stop offset="1" stop-color="#44D6E0" stop-opacity="0"/>
</linearGradient>
<linearGradient id="paint1_linear_502_116" x1="282.53" y1="239" x2="282.53" y2="304.06" gradientUnits="userSpaceOnUse">
<stop stop-color="#46DCE7"/>
<stop offset="1" stop-color="#44D6E0" stop-opacity="0"/>
</linearGradient>
<linearGradient id="paint2_linear_502_116" x1="130.954" y1="239" x2="130.954" y2="288.909" gradientUnits="userSpaceOnUse">
<stop stop-color="#46DCE7"/>
<stop offset="1" stop-color="#44D6E0" stop-opacity="0"/>
</linearGradient>
<linearGradient id="paint3_linear_502_116" x1="152.344" y1="29.5333" x2="152.344" y2="91.9193" gradientUnits="userSpaceOnUse">
<stop stop-color="#46DCE7"/>
<stop offset="1" stop-color="#44D6E0" stop-opacity="0"/>
</linearGradient>
<linearGradient id="paint4_linear_502_116" x1="50" y1="100" x2="50" y2="148" gradientUnits="userSpaceOnUse">
<stop stop-color="#63E3EC"/>
<stop offset="1" stop-color="#45DAE5" stop-opacity="0"/>
</linearGradient>
<linearGradient id="paint5_linear_502_116" x1="687.5" y1="15" x2="687.5" y2="80" gradientUnits="userSpaceOnUse">
<stop stop-color="#46DCE7"/>
<stop offset="1" stop-color="#44D6E0" stop-opacity="0"/>
</linearGradient>
<linearGradient id="paint6_linear_502_116" x1="654" y1="216" x2="654" y2="262" gradientUnits="userSpaceOnUse">
<stop stop-color="#63E3EC"/>
<stop offset="1" stop-color="#45DAE5" stop-opacity="0"/>
</linearGradient>
<linearGradient id="paint7_linear_502_116" x1="724.5" y1="288" x2="724.5" y2="325" gradientUnits="userSpaceOnUse">
<stop stop-color="#63E3EC"/>
<stop offset="1" stop-color="#45DAE5" stop-opacity="0"/>
</linearGradient>
<linearGradient id="paint8_linear_502_116" x1="500" y1="8" x2="500" y2="36" gradientUnits="userSpaceOnUse">
<stop stop-color="#63E3EC"/>
<stop offset="1" stop-color="#45DAE5" stop-opacity="0"/>
</linearGradient>
<linearGradient id="paint9_linear_502_116" x1="692" y1="137" x2="692" y2="159" gradientUnits="userSpaceOnUse">
<stop stop-color="#63E3EC"/>
<stop offset="1" stop-color="#45DAE5" stop-opacity="0"/>
</linearGradient>
<linearGradient id="paint10_linear_502_116" x1="11" y1="216" x2="11" y2="262" gradientUnits="userSpaceOnUse">
<stop stop-color="#63E3EC"/>
<stop offset="1" stop-color="#45DAE5" stop-opacity="0"/>
</linearGradient>
<linearGradient id="paint11_linear_502_116" x1="545.509" y1="249" x2="545.509" y2="298.018" gradientUnits="userSpaceOnUse">
<stop stop-color="#46DCE7"/>
<stop offset="1" stop-color="#44D6E0" stop-opacity="0"/>
</linearGradient>
<linearGradient id="paint12_linear_502_116" x1="368.049" y1="26" x2="368.049" y2="148.098" gradientUnits="userSpaceOnUse">
<stop stop-color="#46DCE7"/>
<stop offset="1" stop-color="#44D6E0" stop-opacity="0"/>
</linearGradient>
<linearGradient id="paint13_linear_502_116" x1="414.898" y1="180" x2="414.898" y2="271.796" gradientUnits="userSpaceOnUse">
<stop stop-color="#46DCE7"/>
<stop offset="1" stop-color="#44D6E0" stop-opacity="0"/>
</linearGradient>
<linearGradient id="paint14_linear_502_116" x1="557.039" y1="87" x2="557.039" y2="201.077" gradientUnits="userSpaceOnUse">
<stop stop-color="#46DCE7"/>
<stop offset="1" stop-color="#44D6E0" stop-opacity="0"/>
</linearGradient>
<clipPath id="clip0_502_116">
<rect width="34.2857" height="32" fill="white" transform="translate(265 256)"/>
</clipPath>
<clipPath id="clip1_502_116">
<rect width="26.74" height="26.74" fill="white" transform="translate(118 251)"/>
</clipPath>
<clipPath id="clip2_502_116">
<rect width="30.3" height="30.3" fill="white" transform="translate(137 46)"/>
</clipPath>
<clipPath id="clip3_502_116">
<rect width="46" height="46" fill="white" transform="translate(392 203)"/>
</clipPath>
</defs>
</svg>
