<svg width="720" height="333" viewBox="0 0 720 333" fill="none" xmlns="http://www.w3.org/2000/svg">
<rect x="103" y="124" width="82.8842" height="82.8842" rx="18" fill="url(#paint0_linear_502_216)" fill-opacity="0.4"/>
<g clip-path="url(#clip0_502_216)">
<path d="M136.11 164.298C133.905 164.366 132.101 165.237 130.698 166.912H127.962C126.845 166.912 125.906 166.636 125.144 166.085C124.381 165.534 124 164.727 124 163.665C124 158.859 124.844 156.456 126.532 156.456C126.614 156.456 126.91 156.599 127.421 156.885C127.931 157.171 128.595 157.46 129.412 157.753C130.229 158.046 131.039 158.192 131.842 158.192C132.754 158.192 133.66 158.035 134.558 157.722C134.49 158.226 134.456 158.675 134.456 159.07C134.456 160.962 135.007 162.705 136.11 164.298ZM157.982 177.307C157.982 178.94 157.485 180.23 156.491 181.177C155.497 182.123 154.177 182.596 152.529 182.596H134.681C133.033 182.596 131.713 182.123 130.719 181.177C129.725 180.23 129.228 178.94 129.228 177.307C129.228 176.585 129.252 175.881 129.299 175.193C129.347 174.506 129.442 173.764 129.585 172.967C129.728 172.171 129.909 171.432 130.127 170.751C130.344 170.071 130.637 169.407 131.005 168.76C131.372 168.113 131.794 167.562 132.271 167.106C132.747 166.65 133.329 166.286 134.017 166.013C134.704 165.741 135.463 165.605 136.294 165.605C136.43 165.605 136.723 165.751 137.172 166.044C137.621 166.337 138.118 166.664 138.663 167.024C139.207 167.385 139.936 167.712 140.848 168.005C141.76 168.297 142.679 168.444 143.605 168.444C144.531 168.444 145.45 168.297 146.362 168.005C147.274 167.712 148.003 167.385 148.547 167.024C149.092 166.664 149.589 166.337 150.038 166.044C150.487 165.751 150.78 165.605 150.916 165.605C151.747 165.605 152.506 165.741 153.193 166.013C153.881 166.286 154.463 166.65 154.939 167.106C155.416 167.562 155.838 168.113 156.205 168.76C156.573 169.407 156.866 170.071 157.083 170.751C157.301 171.432 157.482 172.171 157.625 172.967C157.768 173.764 157.863 174.506 157.911 175.193C157.958 175.881 157.982 176.585 157.982 177.307ZM137.07 151.228C137.07 152.671 136.559 153.903 135.538 154.924C134.517 155.945 133.285 156.456 131.842 156.456C130.399 156.456 129.167 155.945 128.146 154.924C127.125 153.903 126.614 152.671 126.614 151.228C126.614 149.785 127.125 148.553 128.146 147.532C129.167 146.511 130.399 146 131.842 146C133.285 146 134.517 146.511 135.538 147.532C136.559 148.553 137.07 149.785 137.07 151.228ZM151.447 159.07C151.447 161.235 150.681 163.083 149.15 164.615C147.618 166.146 145.77 166.912 143.605 166.912C141.44 166.912 139.592 166.146 138.06 164.615C136.529 163.083 135.763 161.235 135.763 159.07C135.763 156.905 136.529 155.057 138.06 153.525C139.592 151.994 141.44 151.228 143.605 151.228C145.77 151.228 147.618 151.994 149.15 153.525C150.681 155.057 151.447 156.905 151.447 159.07ZM163.21 163.665C163.21 164.727 162.829 165.534 162.066 166.085C161.304 166.636 160.365 166.912 159.248 166.912H156.512C155.109 165.237 153.305 164.366 151.1 164.298C152.203 162.705 152.754 160.962 152.754 159.07C152.754 158.675 152.72 158.226 152.652 157.722C153.55 158.035 154.456 158.192 155.368 158.192C156.171 158.192 156.981 158.046 157.798 157.753C158.615 157.46 159.279 157.171 159.789 156.885C160.3 156.599 160.596 156.456 160.678 156.456C162.366 156.456 163.21 158.859 163.21 163.665ZM160.596 151.228C160.596 152.671 160.085 153.903 159.064 154.924C158.043 155.945 156.811 156.456 155.368 156.456C153.925 156.456 152.693 155.945 151.672 154.924C150.651 153.903 150.14 152.671 150.14 151.228C150.14 149.785 150.651 148.553 151.672 147.532C152.693 146.511 153.925 146 155.368 146C156.811 146 158.043 146.511 159.064 147.532C160.085 148.553 160.596 149.785 160.596 151.228Z" fill="white"/>
</g>
<g clip-path="url(#clip1_502_216)">
<path d="M88 67.7049L78.625 62.3477V68.1145L88 73.3223L97.375 68.1145V62.3477L88 67.7049Z" fill="white"/>
<path d="M103.015 57.25L88 48.6701L72.9854 57.25L88 65.8299L100.188 58.8654V68.5H103V57.2582L103.015 57.25Z" fill="white"/>
</g>
<rect x="42" y="238.972" width="49.9088" height="49.9088" rx="18" fill="url(#paint1_linear_502_216)" fill-opacity="0.4"/>
<path fill-rule="evenodd" clip-rule="evenodd" d="M59.8484 254.771C62.183 254.428 64.5711 254.25 67.0003 254.25C69.4292 254.25 71.8171 254.428 74.1516 254.771C76.1299 255.062 77.5 256.794 77.5 258.741V264.759C77.5 266.706 76.1299 268.438 74.1516 268.729C73.0054 268.898 71.8464 269.026 70.6759 269.113C70.5514 269.123 70.4431 269.187 70.379 269.284L67.624 273.416C67.4849 273.625 67.2508 273.75 67 273.75C66.7492 273.75 66.5151 273.625 66.376 273.416L63.6209 269.283C63.5569 269.187 63.4485 269.123 63.3241 269.113C62.1536 269.026 60.9945 268.898 59.8484 268.729C57.87 268.438 56.5 266.705 56.5 264.759V258.741C56.5 256.795 57.87 255.062 59.8484 254.771ZM61.75 260.25C61.75 259.836 62.0858 259.5 62.5 259.5H71.5C71.9142 259.5 72.25 259.836 72.25 260.25C72.25 260.664 71.9142 261 71.5 261H62.5C62.0858 261 61.75 260.664 61.75 260.25ZM62.5 262.5C62.0858 262.5 61.75 262.836 61.75 263.25C61.75 263.664 62.0858 264 62.5 264H67C67.4142 264 67.75 263.664 67.75 263.25C67.75 262.836 67.4142 262.5 67 262.5H62.5Z" fill="white"/>
<rect x="57" y="30" width="62.386" height="62.386" rx="18" fill="url(#paint2_linear_502_216)" fill-opacity="0.4"/>
<g filter="url(#filter0_f_502_216)">
<rect x="-30" y="134" width="44" height="44" rx="18" fill="url(#paint3_linear_502_216)" fill-opacity="0.4"/>
</g>
<rect x="687" y="15" width="65" height="65" rx="18" fill="url(#paint4_linear_502_216)" fill-opacity="0.4"/>
<g filter="url(#filter1_f_502_216)">
<rect x="663" y="216" width="46" height="46" rx="18" fill="url(#paint5_linear_502_216)" fill-opacity="0.4"/>
</g>
<g filter="url(#filter2_f_502_216)">
<rect x="706" y="288" width="37" height="37" rx="18" fill="url(#paint6_linear_502_216)" fill-opacity="0.4"/>
</g>
<g filter="url(#filter3_f_502_216)">
<rect x="518" y="8" width="28" height="28" rx="14" fill="url(#paint7_linear_502_216)" fill-opacity="0.4"/>
</g>
<g filter="url(#filter4_f_502_216)">
<rect x="705" y="137" width="22" height="22" rx="11" fill="url(#paint8_linear_502_216)" fill-opacity="0.4"/>
</g>
<rect x="553" y="249" width="49.0175" height="49.0175" rx="18" fill="url(#paint9_linear_502_216)" fill-opacity="0.4"/>
<rect x="532" y="87" width="114.077" height="114.077" rx="18" fill="url(#paint10_linear_502_216)" fill-opacity="0.4"/>
<path fill-rule="evenodd" clip-rule="evenodd" d="M581.247 147.249L575.473 153.283C574.433 154.368 573.414 155.464 572.371 156.542C572.196 156.724 571.948 156.832 571.735 156.976C571.28 156.902 570.929 156.619 570.87 156.206C570.773 155.577 570.687 154.947 570.611 154.316C570.506 153.483 570.251 153.252 569.407 153.147C567.668 152.937 565.931 152.709 564.192 152.482L560.223 151.967C559.432 151.862 559.145 151.295 559.558 150.62C560.51 149.087 561.469 147.561 562.424 146.035L568.269 136.697C568.5 136.319 568.76 136.06 569.257 136.074C569.572 136.081 569.9 136.004 570.212 135.923C570.583 135.832 570.874 135.944 571.133 136.189C571.591 136.62 572.056 137.047 572.511 137.481L577.789 142.489C578.927 143.567 580.075 144.638 581.212 145.716C581.8 146.269 581.8 146.668 581.247 147.249V147.249ZM620.062 155.366C620.391 155.639 620.748 155.898 620.818 156.363C620.906 156.958 620.668 157.389 620.164 157.714C617.189 159.639 614.214 161.575 611.239 163.503L605.489 167.231C605.307 167.346 605.134 167.473 604.97 167.612C604.826 167.731 604.711 167.882 604.635 168.054C604.559 168.225 604.524 168.412 604.533 168.599C604.561 169.317 604.603 170.034 604.614 170.748C604.624 171.571 604.019 172.085 603.193 171.991C602.895 171.951 602.625 171.797 602.44 171.56C601.748 170.762 601.058 169.963 600.368 169.163C599.503 168.162 598.642 167.154 597.774 166.156C597.596 165.978 597.46 165.761 597.378 165.522C597.296 165.283 597.27 165.028 597.302 164.777L597.421 160.595C597.435 160.105 597.725 159.79 598.117 159.538L602.87 156.5C605.53 154.802 608.198 153.112 610.851 151.397C611.411 151.036 611.932 150.928 612.548 151.243C613.003 151.474 613.517 151.516 614.011 151.362C614.749 151.127 615.316 151.334 615.887 151.838C617.252 153.042 618.669 154.19 620.066 155.366H620.062ZM594.519 158.838C594.736 159.049 594.889 159.315 594.964 159.608C595.094 160.262 594.834 160.707 594.218 161.004C592.171 161.991 590.127 162.989 588.062 163.944C587.691 164.112 587.225 164.133 586.802 164.154C585.09 164.231 583.379 164.277 581.667 164.347C580.656 164.385 579.648 164.448 578.717 164.497H578.031C577.876 164.501 577.721 164.474 577.577 164.417C577.433 164.359 577.301 164.274 577.191 164.165C576.974 163.965 576.75 163.773 576.537 163.57C575.333 162.425 574.15 161.26 572.921 160.14C572.235 159.517 572.225 158.68 572.879 158.012C574.353 156.493 575.809 154.96 577.272 153.427C578.85 151.775 580.429 150.116 582.004 148.457C582.123 148.316 582.27 148.201 582.436 148.12C582.601 148.038 582.781 147.991 582.966 147.982C583.15 147.973 583.334 148.002 583.507 148.066C583.68 148.131 583.838 148.231 583.97 148.359L590.271 154.62C591.685 156.027 593.112 157.42 594.519 158.838V158.838ZM603.193 130.666C602.517 129.623 603.28 128.181 604.403 127.996C607.406 127.495 610.399 126.921 613.399 126.4C614.06 126.284 614.585 126.589 614.949 127.135C615.579 128.08 616.198 129.028 616.821 129.977C618.137 131.972 619.457 133.967 620.759 135.969C620.934 136.238 621.022 136.564 621.151 136.861L621.074 136.896C621.053 137.407 620.863 137.897 620.535 138.289C618.701 140.753 616.846 143.207 615.016 145.674C614.843 145.893 614.619 146.067 614.364 146.18C614.109 146.293 613.831 146.342 613.552 146.323C613.274 146.304 613.005 146.218 612.768 146.071C612.53 145.924 612.332 145.722 612.191 145.482C609.513 141.037 606.808 136.606 604.113 132.171C603.809 131.667 603.511 131.156 603.193 130.666ZM597.925 143.028L597.4 147.701C597.253 148.996 597.095 150.284 596.948 151.579L596.43 156.129C596.395 156.447 596.392 156.773 596.326 157.081C596.291 157.231 596.178 157.424 596.052 157.473C595.926 157.522 595.702 157.452 595.59 157.357C595.093 156.927 594.621 156.472 594.145 156.02C592.43 154.396 590.726 152.769 589.011 151.152C587.52 149.741 586.025 148.341 584.527 146.941C584.03 146.479 584.026 146.332 584.506 145.832L591.359 138.657L596.038 133.743L598.334 131.328C598.401 131.258 598.457 131.163 598.538 131.135C598.702 131.076 598.905 130.995 599.049 131.041C599.168 131.083 599.223 131.296 599.258 131.356L598.908 134.436L598.457 138.394L597.925 143.028V143.028ZM611.246 146.598C611.47 146.959 611.505 147.302 611.26 147.676C610.993 148.096 610.879 148.596 610.938 149.09C610.98 149.531 610.798 149.801 610.424 150.035C607.494 151.894 604.579 153.766 601.66 155.635C600.743 156.223 599.825 156.808 598.905 157.389C598.541 157.62 598.167 157.602 597.967 157.308C597.855 157.147 597.841 156.923 597.81 156.811L598.195 153.983L599.052 147.746L599.997 140.921L600.918 134.247L601.267 131.762C601.274 131.695 601.278 131.618 601.313 131.569C601.404 131.454 601.506 131.282 601.621 131.261C601.747 131.24 601.943 131.338 602.024 131.447C602.237 131.734 602.409 132.052 602.598 132.36L609.44 143.616C610.042 144.61 610.637 145.608 611.246 146.595V146.598ZM597.06 129.434C597.169 129.504 597.379 129.578 597.491 129.728C597.663 129.959 597.512 130.176 597.334 130.362L594.954 132.864L588.016 140.123C586.567 141.646 585.126 143.175 583.677 144.694C583.152 145.24 582.732 145.24 582.186 144.722C580.495 143.119 578.804 141.509 577.11 139.91C575.465 138.356 573.814 136.805 572.162 135.255C571.941 135.045 571.766 134.817 571.791 134.495C571.826 134.058 572.077 133.809 572.578 133.725C573.491 133.561 574.409 133.4 575.326 133.242L584.128 131.702L594.523 129.879L597.06 129.434V129.434ZM573.474 131.646C575.105 130.53 576.736 129.42 578.371 128.311L594.155 117.559C594.68 117.202 595.013 117.275 595.275 117.842C596.364 120.173 597.445 122.508 598.53 124.842C598.67 125.143 598.803 125.448 598.947 125.752C599.062 125.997 598.986 126.197 598.839 126.417C598.647 126.687 598.485 126.977 598.356 127.282C598.24 127.572 598.065 127.73 597.75 127.786C595.426 128.199 593.106 128.626 590.785 129.039L582.546 130.519L573.551 132.136C573.425 132.157 573.295 132.136 573.166 132.136L573.089 131.993C573.219 131.877 573.334 131.744 573.474 131.646V131.646ZM557.059 136.987C556.03 136.966 555.418 135.965 555.911 135.045C556.328 134.268 556.79 133.519 557.238 132.759C558.526 130.558 559.821 128.363 561.102 126.162C561.311 125.802 561.613 125.506 561.977 125.304C565.393 123.341 568.801 121.367 572.217 119.4C572.434 119.267 572.672 119.172 572.921 119.12C573.154 119.074 573.396 119.097 573.616 119.186C573.836 119.276 574.025 119.428 574.16 119.624C574.309 119.815 574.4 120.045 574.421 120.287C574.442 120.528 574.393 120.771 574.279 120.985C573.764 122.084 573.229 123.173 572.704 124.265C571.724 126.267 570.744 128.265 569.774 130.271C569.683 130.492 569.54 130.689 569.357 130.845C569.175 131.001 568.958 131.111 568.724 131.167C568.29 131.27 567.893 131.492 567.577 131.807C567.261 132.122 567.038 132.518 566.932 132.952C566.879 133.166 566.771 133.362 566.618 133.521C566.465 133.681 566.273 133.797 566.061 133.858C563.254 134.845 560.45 135.853 557.647 136.851C557.458 136.921 557.259 136.942 557.062 136.991L557.059 136.987ZM571.595 130.596C571.608 130.45 571.649 130.308 571.713 130.176L575.382 122.137C576.145 120.464 576.918 118.794 577.67 117.118C577.845 116.733 578.101 116.54 578.535 116.523C579.68 116.488 580.824 116.428 581.969 116.383L588.723 116.127C589.514 116.092 590.309 116.04 591.103 116.001C591.67 115.977 592.059 116.32 592.062 116.876C592.087 117.216 591.87 117.436 591.59 117.629L589.427 119.102L576.498 127.898L572.368 130.712C572.272 130.785 572.169 130.848 572.06 130.901C571.815 131.006 571.581 130.859 571.595 130.596V130.596ZM566.824 136.371C566.253 137.292 565.676 138.205 565.102 139.122C562.956 142.552 560.811 145.986 558.662 149.412C558.573 149.576 558.455 149.722 558.312 149.843C557.941 150.109 557.447 149.923 557.272 149.458C556.992 148.709 556.727 147.953 556.457 147.2L554.115 140.613C554.059 140.449 554.021 140.281 554 140.2C554.004 139.756 554.151 139.567 554.567 139.43C555.813 139.028 557.059 138.632 558.305 138.237L565.357 135.997L566.285 135.71C566.506 135.64 566.726 135.545 566.908 135.79C567.072 136.011 566.936 136.193 566.824 136.371V136.371ZM623.237 145.503L623.944 149.549C623.965 149.678 623.979 149.811 624 149.983C623.965 150.158 623.926 150.368 623.87 150.571L622.943 153.917C622.677 154.879 621.914 155.107 621.144 154.456C619.566 153.126 617.98 151.796 616.394 150.473C616.034 150.172 615.883 149.825 615.967 149.349C616.07 148.875 616.014 148.381 615.807 147.942C615.59 147.512 615.659 147.13 615.943 146.752C617.238 145.016 618.523 143.273 619.814 141.537L620.601 140.473C620.864 140.113 621.211 139.938 621.652 140.036C622.114 140.141 622.352 140.456 622.429 140.907L623.234 145.503H623.237ZM596.763 117.699L596.693 117.552C596.598 117.342 596.56 117.097 596.774 116.978C596.961 116.894 597.173 116.881 597.369 116.943C597.677 117.037 597.953 117.212 598.244 117.356L610.011 123.232L612.1 124.282C612.335 124.398 612.52 124.534 612.471 124.828C612.422 125.119 612.201 125.182 611.946 125.227C609.118 125.731 606.294 126.242 603.469 126.75L603.193 126.806C603.112 126.753 602.958 126.694 602.86 126.582C602.608 126.265 602.291 126.007 601.931 125.824C601.57 125.641 601.175 125.537 600.771 125.521C600.456 125.507 600.295 125.322 600.176 125.059C599.679 123.981 599.171 122.91 598.671 121.836L596.763 117.699V117.699Z" fill="white"/>
<rect x="237" y="45" width="242" height="242" rx="16" fill="url(#paint11_linear_502_216)" fill-opacity="0.4"/>
<path d="M381.333 214V203.333C381.333 197.675 379.086 192.249 375.085 188.248C371.084 184.248 365.658 182 360 182H322.667C317.009 182 311.582 184.248 307.582 188.248C303.581 192.249 301.333 197.675 301.333 203.333V214" stroke="white" stroke-width="6" stroke-linecap="round" stroke-linejoin="round"/>
<path d="M341.333 160.667C353.115 160.667 362.667 151.115 362.667 139.333C362.667 127.551 353.115 118 341.333 118C329.551 118 320 127.551 320 139.333C320 151.115 329.551 160.667 341.333 160.667Z" stroke="white" stroke-width="6" stroke-linecap="round" stroke-linejoin="round"/>
<path d="M402.667 144.667V176.667" stroke="white" stroke-width="6" stroke-linecap="round" stroke-linejoin="round"/>
<path d="M418.667 160.667H386.667" stroke="white" stroke-width="6" stroke-linecap="round" stroke-linejoin="round"/>
<g clip-path="url(#clip2_502_216)">
<path d="M590 273C590 276.183 588.736 279.235 586.485 281.485C584.235 283.736 581.183 285 578 285C574.817 285 571.765 283.736 569.515 281.485C567.264 279.235 566 276.183 566 273C566 269.817 567.264 266.765 569.515 264.515C571.765 262.264 574.817 261 578 261C581.183 261 584.235 262.264 586.485 264.515C588.736 266.765 590 269.817 590 273ZM574.244 270.049H575.482C575.689 270.049 575.853 269.88 575.88 269.674C576.016 268.69 576.691 267.974 577.893 267.974C578.922 267.974 579.865 268.488 579.865 269.726C579.865 270.678 579.304 271.116 578.417 271.782C577.408 272.516 576.608 273.372 576.665 274.763L576.67 275.088C576.671 275.186 576.711 275.28 576.781 275.349C576.852 275.418 576.946 275.457 577.045 275.457H578.261C578.36 275.457 578.456 275.417 578.526 275.347C578.596 275.277 578.636 275.181 578.636 275.082V274.924C578.636 273.847 579.045 273.534 580.151 272.695C581.064 272.001 582.017 271.23 582.017 269.611C582.017 267.345 580.103 266.25 578.007 266.25C576.107 266.25 574.025 267.135 573.883 269.679C573.88 269.727 573.888 269.776 573.906 269.821C573.923 269.866 573.949 269.908 573.983 269.942C574.017 269.977 574.058 270.004 574.103 270.023C574.147 270.041 574.196 270.05 574.244 270.049ZM577.732 279.714C578.647 279.714 579.275 279.123 579.275 278.323C579.275 277.496 578.645 276.913 577.732 276.913C576.856 276.913 576.218 277.496 576.218 278.323C576.218 279.123 576.856 279.714 577.733 279.714H577.732Z" fill="white"/>
</g>
<defs>
<filter id="filter0_f_502_216" x="-38" y="126" width="60" height="60" filterUnits="userSpaceOnUse" color-interpolation-filters="sRGB">
<feFlood flood-opacity="0" result="BackgroundImageFix"/>
<feBlend mode="normal" in="SourceGraphic" in2="BackgroundImageFix" result="shape"/>
<feGaussianBlur stdDeviation="4" result="effect1_foregroundBlur_502_216"/>
</filter>
<filter id="filter1_f_502_216" x="655" y="208" width="62" height="62" filterUnits="userSpaceOnUse" color-interpolation-filters="sRGB">
<feFlood flood-opacity="0" result="BackgroundImageFix"/>
<feBlend mode="normal" in="SourceGraphic" in2="BackgroundImageFix" result="shape"/>
<feGaussianBlur stdDeviation="4" result="effect1_foregroundBlur_502_216"/>
</filter>
<filter id="filter2_f_502_216" x="698" y="280" width="53" height="53" filterUnits="userSpaceOnUse" color-interpolation-filters="sRGB">
<feFlood flood-opacity="0" result="BackgroundImageFix"/>
<feBlend mode="normal" in="SourceGraphic" in2="BackgroundImageFix" result="shape"/>
<feGaussianBlur stdDeviation="4" result="effect1_foregroundBlur_502_216"/>
</filter>
<filter id="filter3_f_502_216" x="510" y="0" width="44" height="44" filterUnits="userSpaceOnUse" color-interpolation-filters="sRGB">
<feFlood flood-opacity="0" result="BackgroundImageFix"/>
<feBlend mode="normal" in="SourceGraphic" in2="BackgroundImageFix" result="shape"/>
<feGaussianBlur stdDeviation="4" result="effect1_foregroundBlur_502_216"/>
</filter>
<filter id="filter4_f_502_216" x="697" y="129" width="38" height="38" filterUnits="userSpaceOnUse" color-interpolation-filters="sRGB">
<feFlood flood-opacity="0" result="BackgroundImageFix"/>
<feBlend mode="normal" in="SourceGraphic" in2="BackgroundImageFix" result="shape"/>
<feGaussianBlur stdDeviation="4" result="effect1_foregroundBlur_502_216"/>
</filter>
<linearGradient id="paint0_linear_502_216" x1="144.442" y1="124" x2="144.442" y2="206.884" gradientUnits="userSpaceOnUse">
<stop stop-color="#46DCE7"/>
<stop offset="1" stop-color="#44D6E0" stop-opacity="0"/>
</linearGradient>
<linearGradient id="paint1_linear_502_216" x1="66.9544" y1="238.972" x2="66.9544" y2="288.881" gradientUnits="userSpaceOnUse">
<stop stop-color="#46DCE7"/>
<stop offset="1" stop-color="#44D6E0" stop-opacity="0"/>
</linearGradient>
<linearGradient id="paint2_linear_502_216" x1="88.193" y1="30" x2="88.193" y2="92.386" gradientUnits="userSpaceOnUse">
<stop stop-color="#46DCE7"/>
<stop offset="1" stop-color="#44D6E0" stop-opacity="0"/>
</linearGradient>
<linearGradient id="paint3_linear_502_216" x1="-8" y1="134" x2="-8" y2="178" gradientUnits="userSpaceOnUse">
<stop stop-color="#63E3EC"/>
<stop offset="1" stop-color="#45DAE5" stop-opacity="0"/>
</linearGradient>
<linearGradient id="paint4_linear_502_216" x1="719.5" y1="15" x2="719.5" y2="80" gradientUnits="userSpaceOnUse">
<stop stop-color="#46DCE7"/>
<stop offset="1" stop-color="#44D6E0" stop-opacity="0"/>
</linearGradient>
<linearGradient id="paint5_linear_502_216" x1="686" y1="216" x2="686" y2="262" gradientUnits="userSpaceOnUse">
<stop stop-color="#63E3EC"/>
<stop offset="1" stop-color="#45DAE5" stop-opacity="0"/>
</linearGradient>
<linearGradient id="paint6_linear_502_216" x1="724.5" y1="288" x2="724.5" y2="325" gradientUnits="userSpaceOnUse">
<stop stop-color="#63E3EC"/>
<stop offset="1" stop-color="#45DAE5" stop-opacity="0"/>
</linearGradient>
<linearGradient id="paint7_linear_502_216" x1="532" y1="8" x2="532" y2="36" gradientUnits="userSpaceOnUse">
<stop stop-color="#63E3EC"/>
<stop offset="1" stop-color="#45DAE5" stop-opacity="0"/>
</linearGradient>
<linearGradient id="paint8_linear_502_216" x1="716" y1="137" x2="716" y2="159" gradientUnits="userSpaceOnUse">
<stop stop-color="#63E3EC"/>
<stop offset="1" stop-color="#45DAE5" stop-opacity="0"/>
</linearGradient>
<linearGradient id="paint9_linear_502_216" x1="577.509" y1="249" x2="577.509" y2="298.018" gradientUnits="userSpaceOnUse">
<stop stop-color="#46DCE7"/>
<stop offset="1" stop-color="#44D6E0" stop-opacity="0"/>
</linearGradient>
<linearGradient id="paint10_linear_502_216" x1="589.039" y1="87" x2="589.039" y2="201.077" gradientUnits="userSpaceOnUse">
<stop stop-color="#46DCE7"/>
<stop offset="1" stop-color="#44D6E0" stop-opacity="0"/>
</linearGradient>
<linearGradient id="paint11_linear_502_216" x1="358" y1="45" x2="358" y2="287" gradientUnits="userSpaceOnUse">
<stop stop-color="#46DCE7"/>
<stop offset="1" stop-color="#44D6E0" stop-opacity="0"/>
</linearGradient>
<clipPath id="clip0_502_216">
<rect width="39.21" height="36.596" fill="white" transform="translate(124 146)"/>
</clipPath>
<clipPath id="clip1_502_216">
<rect width="30" height="30" fill="white" transform="translate(73 46)"/>
</clipPath>
<clipPath id="clip2_502_216">
<rect width="24" height="24" fill="white" transform="translate(566 261)"/>
</clipPath>
</defs>
</svg>
