<svg width="256" height="256" viewBox="0 0 256 256" fill="none" xmlns="http://www.w3.org/2000/svg">
<path d="M236.8 212C234.7 215.658 231.67 218.694 228.017 220.802C224.364 222.91 220.218 224.013 216 224H40.0002C35.7826 224.016 31.6359 222.915 27.9812 220.81C24.3265 218.705 21.2941 215.67 19.1917 212.014C17.0893 208.357 15.9919 204.21 16.011 199.992C16.03 195.775 17.1648 191.637 19.3002 188L107.2 36.0001C109.305 32.3444 112.335 29.3079 115.987 27.1965C119.638 25.0851 123.782 23.9734 128 23.9734C132.218 23.9734 136.362 25.0851 140.013 27.1965C143.665 29.3079 146.696 32.3444 148.8 36.0001L236.7 188C238.852 191.629 239.995 195.767 240.013 199.986C240.03 204.206 238.921 208.353 236.8 212Z" fill="#8F95B2"/>
</svg>
