<svg width="51" height="41" viewBox="0 0 51 41" fill="none" xmlns="http://www.w3.org/2000/svg">
<path fill-rule="evenodd" clip-rule="evenodd" d="M19.8517 22.7673L15.6442 27.1635C14.8869 27.954 14.1448 28.7521 13.3849 29.5375C13.2574 29.6701 13.0764 29.7492 12.9209 29.8537C12.5894 29.8002 12.3343 29.5936 12.291 29.2927C12.2206 28.8348 12.1577 28.3757 12.1023 27.9157C12.0258 27.3088 11.8397 27.1405 11.2251 27.064C9.95775 26.911 8.69295 26.7453 7.4256 26.5795L4.5339 26.2047C3.9576 26.1282 3.7485 25.7151 4.0494 25.2229C4.743 24.106 5.4417 22.9942 6.13785 21.8824L10.3963 15.079C10.5646 14.8036 10.7534 14.6149 11.1154 14.6251C11.345 14.6302 11.5847 14.5741 11.8116 14.5155C12.0819 14.4492 12.2936 14.5308 12.4823 14.7093C12.8163 15.0229 13.1554 15.334 13.4869 15.6502L17.3323 19.2993C18.1611 20.0847 18.9975 20.865 19.8262 21.6504C20.2546 22.0533 20.2547 22.344 19.8517 22.7673ZM48.1312 28.6807C48.3709 28.8796 48.631 29.0683 48.682 29.4075C48.7458 29.841 48.5724 30.1546 48.2052 30.3918C46.0377 31.7943 43.8702 33.2044 41.7027 34.6095L37.5131 37.3252C37.3809 37.4089 37.2548 37.5018 37.1356 37.6032C37.0301 37.6898 36.9462 37.8 36.8909 37.9249C36.8355 38.0498 36.8102 38.1859 36.8169 38.3223C36.8373 38.845 36.8679 39.3678 36.8755 39.888C36.8832 40.4872 36.4421 40.8621 35.8403 40.7932C35.6234 40.7646 35.4265 40.652 35.292 40.4796C34.788 39.8981 34.2848 39.3158 33.7824 38.7328C33.1525 38.0035 32.5252 37.2691 31.8928 36.5424C31.7626 36.4123 31.6639 36.2541 31.6042 36.08C31.5445 35.9058 31.5255 35.7203 31.5486 35.5377L31.6353 32.4904C31.6455 32.1334 31.8571 31.9039 32.1427 31.7203L35.6056 29.5069C37.5436 28.2702 39.4867 27.0385 41.4197 25.789C41.8276 25.5264 42.2076 25.4473 42.6564 25.6768C42.9879 25.8451 43.3627 25.8757 43.7223 25.7635C44.2603 25.5927 44.6734 25.7431 45.0891 26.1103C46.0836 26.9875 47.1163 27.8239 48.1338 28.6807H48.1312ZM29.5213 31.2103C29.6787 31.3641 29.7908 31.5582 29.8452 31.7713C29.9396 32.2482 29.7508 32.572 29.302 32.7888C27.8103 33.5079 26.3211 34.2346 24.8166 34.9308C24.5463 35.0532 24.2071 35.0685 23.8986 35.0838C22.6516 35.1399 21.4047 35.173 20.1577 35.224C19.4208 35.2521 18.6864 35.298 18.0081 35.3337H17.5083C17.3952 35.3365 17.2828 35.3165 17.1776 35.2749C17.0725 35.2333 16.9768 35.1709 16.8963 35.0914C16.7382 34.9461 16.575 34.8058 16.4195 34.6579C15.5422 33.8241 14.6804 32.9749 13.7853 32.1589C13.2855 31.705 13.2779 31.0956 13.7547 30.6085C14.8282 29.5018 15.8891 28.3849 16.955 27.268C18.105 26.0644 19.2551 24.8557 20.4025 23.647C20.4896 23.5446 20.5967 23.4611 20.7173 23.4016C20.8379 23.3421 20.9694 23.308 21.1037 23.3013C21.2379 23.2946 21.3722 23.3155 21.4981 23.3627C21.6239 23.4099 21.7388 23.4824 21.8356 23.5756L26.4257 28.1376C27.4559 29.1627 28.4962 30.1776 29.5213 31.2103ZM35.8403 10.6854C35.3481 9.92549 35.904 8.8749 36.7225 8.73975C38.9104 8.3751 41.0907 7.9569 43.2761 7.57695C43.758 7.49279 44.1405 7.71465 44.4057 8.11244C44.8647 8.80095 45.316 9.492 45.7699 10.183C46.7287 11.6365 47.6901 13.09 48.6387 14.5486C48.7662 14.745 48.83 14.9821 48.9243 15.1989L48.8682 15.2244C48.8525 15.5967 48.7145 15.9534 48.4755 16.2393C47.1393 18.0345 45.7878 19.822 44.4542 21.6198C44.3283 21.7793 44.1654 21.9057 43.9797 21.9881C43.794 22.0705 43.5909 22.1063 43.3882 22.0925C43.1855 22.0787 42.9892 22.0156 42.8164 21.9088C42.6435 21.802 42.4993 21.6547 42.3963 21.4795C40.4455 18.241 38.4744 15.0127 36.5109 11.7819C36.2891 11.4147 36.0723 11.0424 35.8403 10.6854ZM32.0025 19.692L31.62 23.0962C31.5129 24.0397 31.3981 24.9781 31.291 25.9216L30.9136 29.2366C30.8881 29.4687 30.8856 29.7058 30.8372 29.9302C30.8117 30.0399 30.73 30.1801 30.6382 30.2158C30.5464 30.2515 30.3832 30.2005 30.3016 30.1317C29.9395 29.818 29.5953 29.4865 29.2485 29.1576C27.999 27.9744 26.7572 26.7886 25.5077 25.6105C24.4214 24.5829 23.3325 23.5629 22.2411 22.5429C21.879 22.2063 21.8764 22.0992 22.2258 21.7345L27.2187 16.507L30.628 12.9268L32.3008 11.1673C32.3493 11.1163 32.3901 11.0475 32.4487 11.0271C32.5686 10.9837 32.7165 10.9251 32.821 10.9582C32.9077 10.9888 32.9485 11.1444 32.974 11.1877L32.719 13.4317L32.3901 16.3158L32.0025 19.692ZM41.7078 22.293C41.871 22.5556 41.8965 22.8055 41.718 23.0784C41.5234 23.3845 41.4405 23.7484 41.4834 24.1086C41.514 24.4299 41.3814 24.6262 41.1086 24.7971C38.9742 26.1511 36.8501 27.5154 34.7234 28.8771C34.0553 29.3055 33.3871 29.7313 32.7165 30.1546C32.4513 30.3229 32.1785 30.3102 32.0331 30.096C31.9515 29.9787 31.9413 29.8155 31.9184 29.7339L32.1989 27.6735L32.8236 23.1294L33.5121 18.1569L34.1828 13.294L34.4377 11.4835C34.4428 11.4351 34.4454 11.379 34.4709 11.3433C34.5372 11.2591 34.6112 11.1342 34.6953 11.1189C34.7871 11.1036 34.9299 11.175 34.9886 11.254C35.1441 11.4631 35.2691 11.6952 35.4067 11.9196L40.392 20.1204C40.8306 20.8446 41.2641 21.5713 41.7078 22.2904V22.293ZM31.3726 9.7878C31.4517 9.8388 31.6047 9.89235 31.6863 10.002C31.8113 10.1703 31.7016 10.3284 31.5716 10.4635L29.8375 12.2868L24.7834 17.5755C23.7277 18.6847 22.6772 19.7991 21.6215 20.9058C21.239 21.3036 20.933 21.3036 20.5352 20.9262C19.3035 19.7583 18.0718 18.5853 16.8376 17.4199C15.6391 16.2877 14.4355 15.1581 13.2319 14.0284C13.0713 13.8754 12.9438 13.7097 12.9616 13.4751C12.9872 13.1563 13.1707 12.9753 13.5354 12.9141C14.2009 12.7942 14.8691 12.6769 15.5372 12.5622L21.9504 11.4402L29.5239 10.1116L31.3726 9.7878ZM14.1882 11.3994C15.3765 10.5859 16.5648 9.7776 17.7556 8.96925L29.2561 1.13565C29.6386 0.875546 29.8809 0.929097 30.0721 1.3422C30.8652 3.0405 31.6531 4.74135 32.4436 6.4422C32.5456 6.6615 32.6425 6.88335 32.7471 7.1052C32.8312 7.2837 32.7752 7.42905 32.6681 7.5897C32.5288 7.7866 32.4108 7.99773 32.3162 8.21954C32.232 8.43119 32.1045 8.54595 31.875 8.58675C30.1818 8.88764 28.4911 9.19875 26.8005 9.49965L20.7978 10.5783L14.2443 11.7564C14.1525 11.7717 14.0581 11.7564 13.9638 11.7564L13.9077 11.6518C14.0021 11.5677 14.0862 11.4708 14.1882 11.3994ZM2.2287 15.2907C1.479 15.2754 1.03275 14.5461 1.3923 13.8754C1.69575 13.3093 2.03235 12.7636 2.35875 12.2103C3.29715 10.6063 4.24065 9.0075 5.17395 7.40355C5.32625 7.14164 5.54652 6.92577 5.81145 6.7788C8.30025 5.34825 10.7839 3.91005 13.2727 2.47695C13.4307 2.38026 13.6041 2.31127 13.7853 2.27295C13.9552 2.2394 14.1312 2.2563 14.2916 2.32154C14.452 2.38679 14.5898 2.49754 14.688 2.64015C14.7966 2.77949 14.8626 2.94729 14.878 3.1233C14.8934 3.29932 14.8575 3.47602 14.7747 3.6321C14.3998 4.4328 14.0097 5.22585 13.6272 6.02145C12.9132 7.48005 12.1992 8.93609 11.4928 10.3972C11.426 10.5587 11.3218 10.7021 11.1888 10.8156C11.0558 10.929 10.8979 11.0094 10.7278 11.05C10.4115 11.1255 10.1222 11.2868 9.8918 11.5163C9.66141 11.7458 9.49891 12.0345 9.42225 12.3505C9.38352 12.5066 9.30449 12.6497 9.19306 12.7656C9.08162 12.8815 8.9417 12.9662 8.7873 13.011C6.7422 13.7301 4.69965 14.4645 2.6571 15.1912C2.5194 15.2422 2.37405 15.2575 2.23125 15.2932L2.2287 15.2907ZM12.8189 10.6344C12.829 10.528 12.8584 10.4243 12.9055 10.3284L15.578 4.47105C16.1339 3.25215 16.6974 2.0358 17.2456 0.814347C17.3731 0.533847 17.5593 0.393597 17.8755 0.380847C18.7094 0.355347 19.5432 0.311997 20.3771 0.278847L25.2985 0.0926973C25.8748 0.0671973 26.4537 0.0289467 27.0325 0.0008967C27.4456 -0.0169533 27.7287 0.232947 27.7312 0.638397C27.7491 0.885747 27.591 1.0464 27.387 1.18665L25.8111 2.2602L16.3914 8.66835L13.3824 10.7185C13.3122 10.7716 13.2371 10.8177 13.158 10.8562C12.9795 10.9327 12.8087 10.8256 12.8189 10.6344ZM9.3432 14.8419C8.92755 15.5125 8.5068 16.1781 8.0886 16.8462C6.52545 19.3452 4.9623 21.8467 3.3966 24.3432C3.33202 24.4628 3.24552 24.5692 3.1416 24.6568C2.8713 24.8506 2.51175 24.7155 2.38425 24.3763C2.18025 23.8306 1.98645 23.2798 1.7901 22.7316L0.08415 17.9325C0.04335 17.8126 0.0153 17.6902 0 17.6316C0.00255 17.3077 0.10965 17.17 0.4131 17.0706C1.3209 16.7773 2.2287 16.4892 3.1365 16.201L8.27475 14.569L8.9505 14.3599C9.11115 14.3089 9.2718 14.2401 9.4044 14.4186C9.52425 14.5792 9.4248 14.7118 9.3432 14.8419ZM50.4441 21.4948L50.9592 24.4426C50.9745 24.537 50.9847 24.6339 51 24.7588C50.9745 24.8863 50.9464 25.0393 50.9056 25.1872L50.2299 27.625C50.0361 28.3263 49.4802 28.492 48.9192 28.0177C47.7691 27.0487 46.614 26.0797 45.4588 25.1158C45.1962 24.8965 45.0865 24.6441 45.1478 24.2973C45.2226 23.952 45.1814 23.5916 45.0304 23.2722C44.8723 22.9585 44.9233 22.6806 45.1299 22.4052C46.0734 21.1404 47.0093 19.8705 47.9502 18.6057L48.5239 17.8305C48.7152 17.5678 48.9677 17.4403 49.289 17.5117C49.6255 17.5882 49.799 17.8177 49.855 18.1467L50.4416 21.4948H50.4441ZM31.1559 1.23765L31.1049 1.13055C31.036 0.977546 31.008 0.799047 31.1636 0.712347C31.3001 0.651144 31.4543 0.642072 31.5971 0.686847C31.8215 0.755697 32.0229 0.883197 32.2346 0.987747L40.8077 5.2692L42.33 6.0342C42.5009 6.11835 42.636 6.2178 42.6003 6.432C42.5646 6.64365 42.4039 6.68955 42.2178 6.7227C40.1574 7.0899 38.0996 7.4622 36.0417 7.83195L35.8403 7.87275C35.7816 7.8345 35.6694 7.79115 35.598 7.70955C35.4147 7.47894 35.1838 7.29056 34.9211 7.15723C34.6584 7.02389 34.37 6.94875 34.0757 6.9369C33.8462 6.9267 33.7289 6.79155 33.6422 6.6003C33.2801 5.8149 32.9103 5.0346 32.5457 4.25175L31.1559 1.23765Z" fill="#A41312"/>
</svg>
